<svg version="1.1" xmlns="http://www.w3.org/2000/svg" viewBox="0 0 1331.1110178629558 963.0177398198648" width="1331.1110178629558" height="963.0177398198648">
  <!-- svg-source:excalidraw -->
  
  <defs>
    <style class="style-fonts">
      @font-face {
        font-family: "Virgil";
        src: url("https://excalidraw.com/Virgil.woff2");
      }
      @font-face {
        font-family: "Cascadia";
        src: url("https://excalidraw.com/Cascadia.woff2");
      }
      @font-face {
        font-family: "Assistant";
        src: url("https://excalidraw.com/Assistant-Regular.woff2");
      }
    </style>
    
  </defs>
  <rect x="0" y="0" width="1331.1110178629558" height="963.0177398198648" fill="#ffffff"></rect><g transform="translate(139.0279006958009 10) rotate(0 482.6217651367187 17.5)"><text x="0" y="0" font-family="Virgil, Segoe UI Emoji" font-size="28px" fill="#1e1e1e" text-anchor="start" style="white-space: pre;" direction="ltr" dominant-baseline="text-before-edge">int main() { return add2(3,4); } int add2(int x, int y) { return x+y; }</text></g><g stroke-linecap="round" transform="translate(142.50005086263025 307.7777099609366) rotate(0 72.08332061767578 40)"><path d="M2.85 7.77 C2.85 7.77, 2.85 7.77, 2.85 7.77 M2.85 7.77 C2.85 7.77, 2.85 7.77, 2.85 7.77 M1.01 22.08 C3.54 18.39, 10.5 13.53, 20.04 0.19 M1.01 22.08 C5.63 17.04, 10.33 10.61, 20.04 0.19 M1.14 34.12 C7.04 28.18, 14.1 21.06, 30.67 0.16 M1.14 34.12 C10.87 23.46, 19.15 13.14, 30.67 0.16 M1.28 46.16 C13.46 33.38, 21.96 22.26, 41.3 0.12 M1.28 46.16 C9.3 35.7, 18.98 27.1, 41.3 0.12 M0.75 58.96 C14.5 42.43, 30.8 24.84, 51.93 0.09 M0.75 58.96 C11.43 47.29, 21.93 34.45, 51.93 0.09 M2.2 69.49 C14.87 52.75, 31.35 36.91, 62.56 0.05 M2.2 69.49 C25.5 43.33, 48.13 16.4, 62.56 0.05 M6.93 76.25 C27.65 52.33, 51.19 25.53, 73.19 0.02 M6.93 76.25 C32.11 47.26, 57.63 16.93, 73.19 0.02 M14.93 79.23 C32.18 54.9, 52.47 32.56, 83.82 -0.01 M14.93 79.23 C41.32 49.38, 67.53 19.15, 83.82 -0.01 M24.25 80.7 C40.65 61.17, 58.04 42.13, 94.45 -0.05 M24.25 80.7 C48.97 54.4, 71.16 27.59, 94.45 -0.05 M34.88 80.67 C49.84 64.76, 64.88 47.89, 105.08 -0.08 M34.88 80.67 C58.39 52.79, 81.12 25.62, 105.08 -0.08 M45.51 80.64 C69.6 50.58, 98.26 20.66, 115.71 -0.12 M45.51 80.64 C66.63 57.7, 86.52 34.2, 115.71 -0.12 M56.14 80.6 C80.51 48.77, 108.47 20.96, 125.68 0.6 M56.14 80.6 C74.8 58.01, 96.11 35.02, 125.68 0.6 M66.77 80.57 C82.23 59.27, 100.58 42.68, 134.34 2.83 M66.77 80.57 C80.09 63.54, 94.95 47.94, 134.34 2.83 M77.4 80.53 C100.54 53.28, 127.78 25.58, 141.04 7.33 M77.4 80.53 C100.01 54.62, 121.21 28.89, 141.04 7.33 M88.03 80.5 C109.92 55.33, 131.04 27.62, 144.45 15.59 M88.03 80.5 C103.2 60.17, 120.57 41.12, 144.45 15.59 M98.66 80.46 C105.96 70.11, 118.19 57.27, 144.58 27.63 M98.66 80.46 C117.51 58.97, 134.57 39.53, 144.58 27.63 M109.29 80.43 C120.53 67.32, 132.11 53.1, 144.72 39.67 M109.29 80.43 C121.03 68.01, 131.95 53.88, 144.72 39.67 M119.92 80.39 C127.94 71.12, 139.9 57.38, 144.85 51.72 M119.92 80.39 C128.51 70.2, 138.41 59.27, 144.85 51.72 M132.52 78.1 C135.81 75.57, 138.37 71.07, 143.01 66.02 M132.52 78.1 C135.68 74.03, 140.31 69.58, 143.01 66.02" stroke="#ffec99" stroke-width="1" fill="none"></path><path d="M20 0 C60.7 2.2, 97.9 -1, 124.17 0 M20 0 C44.82 -0.7, 69.11 0.39, 124.17 0 M124.17 0 C139.2 -1.1, 145.8 6.17, 144.17 20 M124.17 0 C139.14 0.83, 144.99 7.86, 144.17 20 M144.17 20 C144.95 32.71, 145.76 49.03, 144.17 60 M144.17 20 C144.94 33.49, 144.81 47.6, 144.17 60 M144.17 60 C142.94 72.61, 138.36 80.76, 124.17 80 M144.17 60 C143.63 75.25, 135.94 78.46, 124.17 80 M124.17 80 C89.06 78.9, 53.84 80.32, 20 80 M124.17 80 C99.71 80.47, 76.44 80.51, 20 80 M20 80 C5.54 81.05, 0.97 72.56, 0 60 M20 80 C6.03 78.5, 0.14 73.98, 0 60 M0 60 C-1.22 44.18, 1.43 32.89, 0 20 M0 60 C0.97 48.59, 0.38 37.63, 0 20 M0 20 C0.03 8.22, 4.69 1.6, 20 0 M0 20 C-1.72 7.39, 5.55 -1.85, 20 0" stroke="#1e1e1e" stroke-width="2" fill="none"></path></g><g transform="translate(179.12138875325525 330.2777099609366) rotate(0 35.46198272705078 17.5)"><text x="35.46198272705078" y="0" font-family="Virgil, Segoe UI Emoji" font-size="28px" fill="#1e1e1e" text-anchor="middle" style="white-space: pre;" direction="ltr" dominant-baseline="text-before-edge">Block</text></g><g stroke-linecap="round" transform="translate(141.38885498046875 100.00010172526163) rotate(0 72.08332061767578 40)"><path d="M2.85 7.77 C2.85 7.77, 2.85 7.77, 2.85 7.77 M2.85 7.77 C2.85 7.77, 2.85 7.77, 2.85 7.77 M4.29 18.31 C9.01 14.22, 13.54 8.44, 20.04 0.19 M4.29 18.31 C8.53 14.99, 11.99 9.86, 20.04 0.19 M3.77 31.1 C12.03 21.1, 20.32 11.46, 30.67 0.16 M3.77 31.1 C13.39 20.52, 23.12 8.7, 30.67 0.16 M3.9 43.14 C15.98 28.98, 32.59 11.45, 41.3 0.12 M3.9 43.14 C16.49 27.33, 31.06 12.08, 41.3 0.12 M4.03 55.18 C20.22 35.09, 36.77 17.4, 51.93 0.09 M4.03 55.18 C21.22 33.75, 40.48 14.3, 51.93 0.09 M3.51 67.98 C25.88 43.1, 49.65 14.26, 62.56 0.05 M3.51 67.98 C24.01 45.07, 44.52 20.43, 62.56 0.05 M6.93 76.25 C27.83 51.02, 47.75 30.68, 73.19 0.02 M6.93 76.25 C32.49 47.01, 57.62 18.67, 73.19 0.02 M12.96 81.49 C39.06 50.14, 62.45 22.95, 83.82 -0.01 M12.96 81.49 C31.01 58.53, 49.61 38.37, 83.82 -0.01 M22.94 82.21 C42.37 62.77, 60.55 38.66, 94.45 -0.05 M22.94 82.21 C49.46 49.65, 78.08 17.92, 94.45 -0.05 M33.57 82.18 C49.19 63.13, 67.77 45.15, 105.08 -0.08 M33.57 82.18 C58.92 51.68, 85.48 20.92, 105.08 -0.08 M44.2 82.15 C69.8 52.39, 93.2 26.1, 115.71 -0.12 M44.2 82.15 C58.32 67.09, 73.68 48.98, 115.71 -0.12 M54.83 82.11 C73.47 61.45, 88.85 39.8, 125.03 1.36 M54.83 82.11 C76.34 56.27, 96.87 32.46, 125.03 1.36 M65.46 82.08 C80.92 60.95, 98.98 44.14, 134.34 2.83 M65.46 82.08 C79.65 64.16, 95.53 45.2, 134.34 2.83 M76.09 82.04 C88.5 65.22, 104.99 47.86, 141.04 7.33 M76.09 82.04 C96.62 58.6, 117.62 33.77, 141.04 7.33 M86.06 82.76 C106.22 62.24, 125.97 38.31, 144.45 15.59 M86.06 82.76 C99.97 66.65, 114.48 49.97, 144.45 15.59 M96.69 82.73 C114.31 62.03, 133.59 42.47, 144.58 27.63 M96.69 82.73 C108.27 68.39, 121.54 54.62, 144.58 27.63 M107.32 82.69 C115.49 70.25, 128.45 58.3, 144.72 39.67 M107.32 82.69 C116.4 71.41, 126.65 60.92, 144.72 39.67 M117.95 82.66 C126.55 71.3, 136.35 61.22, 144.85 51.72 M117.95 82.66 C126.52 72.57, 135.3 61.97, 144.85 51.72 M127.93 83.38 C130.3 80.16, 136.92 73.05, 146.3 62.25 M127.93 83.38 C132.84 78.34, 136.15 74.71, 146.3 62.25" stroke="#d0bfff" stroke-width="1" fill="none"></path><path d="M20 0 C47.96 0.78, 76.2 -0.39, 124.17 0 M20 0 C43.34 1.04, 64.74 0.35, 124.17 0 M124.17 0 C136.87 1.64, 145.29 7.32, 144.17 20 M124.17 0 C135.96 -1.65, 143.57 8.28, 144.17 20 M144.17 20 C142.46 33.92, 144 48.38, 144.17 60 M144.17 20 C143.62 33.98, 143.7 46.33, 144.17 60 M144.17 60 C143.22 73.12, 138.88 78.5, 124.17 80 M144.17 60 C144.91 75.59, 137.51 80.21, 124.17 80 M124.17 80 C95.66 78.53, 66.44 80.34, 20 80 M124.17 80 C101.56 79.81, 80.25 78.57, 20 80 M20 80 C7.13 78.98, -0.7 75.29, 0 60 M20 80 C6.42 79.84, -1.17 73.82, 0 60 M0 60 C1.3 46.46, 0.72 29.83, 0 20 M0 60 C-0.78 45.79, -0.39 32.27, 0 20 M0 20 C1.65 6.5, 6.45 -0.58, 20 0 M0 20 C0.67 6.3, 8.12 -0.22, 20 0" stroke="#1e1e1e" stroke-width="2" fill="none"></path></g><g transform="translate(158.64820861816406 122.50010172526163) rotate(0 54.82396697998047 17.5)"><text x="54.82396697998047" y="0" font-family="Virgil, Segoe UI Emoji" font-size="28px" fill="#1e1e1e" text-anchor="middle" style="white-space: pre;" direction="ltr" dominant-baseline="text-before-edge">Function</text></g><g mask="url(#mask-89BmF6zsiHHV52bx6mqgs)" stroke-linecap="round"><g transform="translate(212.4523475642511 193.33343505859466) rotate(0 0.7096300360886119 51.111043294270075)"><path d="M0.36 -0.48 C0.8 16.66, 1.78 84.7, 1.82 102.01 M-0.91 -1.78 C-0.52 15.62, 0.41 86.21, 1.08 103.43" stroke="#1e1e1e" stroke-width="2" fill="none"></path></g><g transform="translate(212.4523475642511 193.33343505859466) rotate(0 0.7096300360886119 51.111043294270075)"><path d="M-8.03 80.15 C-6.9 86.13, -4.37 89.48, 1.08 103.43 M-8.03 80.15 C-4.6 90.18, -1.4 99.1, 1.08 103.43" stroke="#1e1e1e" stroke-width="2" fill="none"></path></g><g transform="translate(212.4523475642511 193.33343505859466) rotate(0 0.7096300360886119 51.111043294270075)"><path d="M9.07 79.74 C6.27 85.87, 4.88 89.31, 1.08 103.43 M9.07 79.74 C5.78 90.03, 2.27 99.1, 1.08 103.43" stroke="#1e1e1e" stroke-width="2" fill="none"></path></g></g><mask id="mask-89BmF6zsiHHV52bx6mqgs"><rect x="0" y="0" fill="#fff" width="313.87160763642834" height="395.5555216471348"></rect><rect x="183.76199133324985" y="226.9444783528652" fill="#000" width="58.79997253417969" height="35" opacity="1"></rect></mask><g transform="translate(183.76199133324985 226.9444783528652) rotate(0 29.144742835597157 17.216553679434128)"><text x="29.399986267089844" y="0" font-family="Virgil, Segoe UI Emoji" font-size="28px" fill="#1e1e1e" text-anchor="middle" style="white-space: pre;" direction="ltr" dominant-baseline="text-before-edge">body</text></g><g stroke-linecap="round" transform="translate(649.1668192545574 298.88880411783884) rotate(0 72.08332061767578 40)"><path d="M2.85 7.77 C2.85 7.77, 2.85 7.77, 2.85 7.77 M2.85 7.77 C2.85 7.77, 2.85 7.77, 2.85 7.77 M1.01 22.08 C9.33 15.61, 15.16 5.99, 20.04 0.19 M1.01 22.08 C7.13 16.71, 11.04 9.32, 20.04 0.19 M1.14 34.12 C12.68 20.55, 22.31 9.58, 30.67 0.16 M1.14 34.12 C7.72 25.79, 13.25 19.88, 30.67 0.16 M1.28 46.16 C11.59 33.45, 23.76 19.44, 41.3 0.12 M1.28 46.16 C16.1 27.85, 33.22 10.61, 41.3 0.12 M0.75 58.96 C15.24 41.45, 31.43 23.04, 51.93 0.09 M0.75 58.96 C19.39 37.76, 37.21 16.55, 51.93 0.09 M2.2 69.49 C15.17 52.97, 30.31 36.37, 62.56 0.05 M2.2 69.49 C18.65 50.01, 33.74 31.56, 62.56 0.05 M6.93 76.25 C31.58 47.99, 55.66 22.06, 73.19 0.02 M6.93 76.25 C31.76 48.76, 56.15 19.1, 73.19 0.02 M14.93 79.23 C41.82 50.44, 68.6 18.69, 83.82 -0.01 M14.93 79.23 C37 52.89, 58.63 28.28, 83.82 -0.01 M24.25 80.7 C40.69 64.65, 53.11 50.36, 94.45 -0.05 M24.25 80.7 C47.19 52.59, 72.12 26.16, 94.45 -0.05 M34.88 80.67 C63.65 46.77, 92.33 15.45, 105.08 -0.08 M34.88 80.67 C52.86 59.78, 70.98 37.49, 105.08 -0.08 M45.51 80.64 C66.16 56.03, 85.98 35.94, 115.71 -0.12 M45.51 80.64 C65.75 56.48, 86.21 33.93, 115.71 -0.12 M56.14 80.6 C68.63 66.59, 82.66 50, 125.68 0.6 M56.14 80.6 C76.23 57.53, 97.72 33.2, 125.68 0.6 M66.77 80.57 C81.56 63.6, 97.35 45.37, 134.34 2.83 M66.77 80.57 C89.74 55.33, 113.26 29.97, 134.34 2.83 M77.4 80.53 C94.78 61.61, 110.82 38.76, 141.04 7.33 M77.4 80.53 C98.67 55.22, 122.28 30.16, 141.04 7.33 M88.03 80.5 C104.24 59.78, 124.47 39.99, 144.45 15.59 M88.03 80.5 C105.95 62.28, 121.97 42.1, 144.45 15.59 M98.66 80.46 C115.07 62.68, 128.63 48.45, 144.58 27.63 M98.66 80.46 C110.29 67.78, 121.69 54.65, 144.58 27.63 M109.29 80.43 C123.05 64.19, 133.06 51.41, 144.72 39.67 M109.29 80.43 C121.12 67.25, 131.01 55.57, 144.72 39.67 M119.92 80.39 C124.62 73.41, 130.91 69.93, 144.85 51.72 M119.92 80.39 C127.9 71.95, 135.75 61.9, 144.85 51.72 M132.52 78.1 C134.68 72.45, 140.78 68.13, 143.01 66.02 M132.52 78.1 C136.53 73.73, 140.79 69.24, 143.01 66.02" stroke="#ffec99" stroke-width="1" fill="none"></path><path d="M20 0 C59.53 2.09, 101.02 2.07, 124.17 0 M20 0 C52.53 -0.69, 84.21 -1.69, 124.17 0 M124.17 0 C137.29 -0.8, 142.21 8.32, 144.17 20 M124.17 0 C135.48 2.26, 144.13 6.05, 144.17 20 M144.17 20 C142.81 28.33, 143.02 40.63, 144.17 60 M144.17 20 C143.95 35.92, 144.01 50.61, 144.17 60 M144.17 60 C145.93 73.88, 138.93 78.72, 124.17 80 M144.17 60 C144.64 74.7, 139.8 82.23, 124.17 80 M124.17 80 C98.11 78.86, 75.06 79.61, 20 80 M124.17 80 C83.63 81.36, 42.89 80.55, 20 80 M20 80 C6.03 79.7, 1.85 73.96, 0 60 M20 80 C5.05 80.96, -1.91 72.45, 0 60 M0 60 C1.07 48.11, 1.63 35.3, 0 20 M0 60 C1.22 49.35, 0.86 38.77, 0 20 M0 20 C-0.84 6.42, 6.06 0.32, 20 0 M0 20 C1.88 7.19, 8.8 -2.03, 20 0" stroke="#1e1e1e" stroke-width="2" fill="none"></path></g><g transform="translate(685.7881571451824 321.38880411783884) rotate(0 35.46198272705078 17.5)"><text x="35.46198272705078" y="0" font-family="Virgil, Segoe UI Emoji" font-size="28px" fill="#1e1e1e" text-anchor="middle" style="white-space: pre;" direction="ltr" dominant-baseline="text-before-edge">Block</text></g><g stroke-linecap="round" transform="translate(849.1667175292969 103.33343505859648) rotate(0 72.08332061767578 40)"><path d="M2.85 7.77 C2.85 7.77, 2.85 7.77, 2.85 7.77 M2.85 7.77 C2.85 7.77, 2.85 7.77, 2.85 7.77 M1.01 22.08 C8.11 15.22, 14.77 6.77, 20.04 0.19 M1.01 22.08 C9.05 14.06, 16.6 5.81, 20.04 0.19 M1.14 34.12 C5.66 28.72, 13.35 20.57, 30.67 0.16 M1.14 34.12 C7.03 26.4, 12.28 19.7, 30.67 0.16 M1.28 46.16 C14.15 35.32, 24.39 20.03, 41.3 0.12 M1.28 46.16 C12.43 33.17, 24.62 19.02, 41.3 0.12 M0.75 58.96 C16.81 40.17, 30.57 23.72, 51.93 0.09 M0.75 58.96 C15.99 41.91, 32.87 23.23, 51.93 0.09 M2.2 69.49 C22.04 46.75, 43.46 23.55, 62.56 0.05 M2.2 69.49 C17.48 53.45, 31.97 37.45, 62.56 0.05 M6.93 76.25 C26.46 53.02, 45.29 32.92, 73.19 0.02 M6.93 76.25 C33.92 45.75, 58.58 16.38, 73.19 0.02 M14.93 79.23 C37.94 53.28, 61.53 26.54, 83.82 -0.01 M14.93 79.23 C33.08 57.06, 51.59 37.18, 83.82 -0.01 M24.25 80.7 C45.16 58.87, 64.79 33.59, 94.45 -0.05 M24.25 80.7 C41.61 60.01, 58.14 41.07, 94.45 -0.05 M34.88 80.67 C49.77 61.86, 67.08 42.79, 105.08 -0.08 M34.88 80.67 C59.1 54.86, 83.57 27.44, 105.08 -0.08 M45.51 80.64 C59.94 62.23, 77.54 44.37, 115.71 -0.12 M45.51 80.64 C65.38 55.99, 86.53 31.52, 115.71 -0.12 M56.14 80.6 C83.2 49.1, 108.05 17.66, 125.68 0.6 M56.14 80.6 C76.62 56.03, 98.82 31.43, 125.68 0.6 M66.77 80.57 C94.25 48.9, 117.83 19.98, 134.34 2.83 M66.77 80.57 C86.81 56.58, 107.03 31.83, 134.34 2.83 M77.4 80.53 C100.67 56, 121.71 29.19, 141.04 7.33 M77.4 80.53 C98.15 56.83, 118.89 31.34, 141.04 7.33 M88.03 80.5 C103.35 61.04, 118.26 45.71, 144.45 15.59 M88.03 80.5 C108.11 56.66, 127.83 35.07, 144.45 15.59 M98.66 80.46 C109.19 67.86, 120.45 54.78, 144.58 27.63 M98.66 80.46 C111.61 66.32, 124.34 51.6, 144.58 27.63 M109.29 80.43 C116.54 70.9, 123.66 65.95, 144.72 39.67 M109.29 80.43 C115.61 71.25, 124.22 63.41, 144.72 39.67 M119.92 80.39 C126.53 71.86, 131.61 65.57, 144.85 51.72 M119.92 80.39 C129.07 71.5, 137.24 60.01, 144.85 51.72 M132.52 78.1 C136.24 75.93, 137.02 72.67, 143.01 66.02 M132.52 78.1 C135.38 73.96, 139.07 69.17, 143.01 66.02" stroke="#d0bfff" stroke-width="1" fill="none"></path><path d="M20 0 C58.99 -0.52, 99.03 0.25, 124.17 0 M20 0 C51.28 0.63, 81.8 1.86, 124.17 0 M124.17 0 C135.74 1.97, 144.13 6.13, 144.17 20 M124.17 0 C136.25 0.54, 142.66 5, 144.17 20 M144.17 20 C145.8 28.8, 144.64 37.65, 144.17 60 M144.17 20 C145 32.89, 144.83 44.59, 144.17 60 M144.17 60 C144.58 74.52, 139.5 81.94, 124.17 80 M144.17 60 C142.85 74.15, 138.4 79.11, 124.17 80 M124.17 80 C102.81 78.31, 79.38 80.43, 20 80 M124.17 80 C87.34 79.53, 52.07 79.99, 20 80 M20 80 C5.26 80.84, -1.66 72.56, 0 60 M20 80 C7.19 79.09, -1.47 74.38, 0 60 M0 60 C-1.03 44.43, -2.13 33.73, 0 20 M0 60 C-0.64 48.35, -0.53 37.1, 0 20 M0 20 C1.64 7.12, 8.52 -1.77, 20 0 M0 20 C-0.13 5.47, 5.74 -0.63, 20 0" stroke="#1e1e1e" stroke-width="2" fill="none"></path></g><g transform="translate(866.4260711669922 125.83343505859648) rotate(0 54.82396697998047 17.5)"><text x="54.82396697998047" y="0" font-family="Virgil, Segoe UI Emoji" font-size="28px" fill="#1e1e1e" text-anchor="middle" style="white-space: pre;" direction="ltr" dominant-baseline="text-before-edge">Function</text></g><g mask="url(#mask-6G5PitLtVJH2lEQoC4kly)" stroke-linecap="round"><g transform="translate(864.1565727644869 196.66676839193042) rotate(0 -45.209970202337956 44.99992370605423)"><path d="M0.6 0.02 C-14.47 14.68, -75.05 73.9, -90.24 88.82 M-0.55 -1.02 C-15.77 13.68, -75.96 74.46, -91.1 89.73" stroke="#1e1e1e" stroke-width="2" fill="none"></path></g><g transform="translate(864.1565727644869 196.66676839193042) rotate(0 -45.209970202337956 44.99992370605423)"><path d="M-80.63 67.03 C-83.71 74.44, -88.97 80.99, -91.1 89.73 M-80.63 67.03 C-84.46 74.01, -86.32 78.66, -91.1 89.73" stroke="#1e1e1e" stroke-width="2" fill="none"></path></g><g transform="translate(864.1565727644869 196.66676839193042) rotate(0 -45.209970202337956 44.99992370605423)"><path d="M-68.49 79.07 C-75.42 82.79, -84.46 85.6, -91.1 89.73 M-68.49 79.07 C-75.36 83.02, -80.38 84.54, -91.1 89.73" stroke="#1e1e1e" stroke-width="2" fill="none"></path></g></g><mask id="mask-6G5PitLtVJH2lEQoC4kly"><rect x="0" y="0" fill="#fff" width="1054.5765131691628" height="386.6666158040389"></rect><rect x="789.5466162950589" y="224.1666920979842" fill="#000" width="58.79997253417969" height="35" opacity="1"></rect></mask><g transform="translate(789.5466162950592 224.1666920979842) rotate(0 29.358031749674183 16.854852174325515)"><text x="29.399986267089844" y="0" font-family="Virgil, Segoe UI Emoji" font-size="28px" fill="#1e1e1e" text-anchor="middle" style="white-space: pre;" direction="ltr" dominant-baseline="text-before-edge">body</text></g><g stroke-linecap="round" transform="translate(143.88875325520848 500.79555150606484) rotate(0 72.08332061767578 40)"><path d="M2.85 7.77 C2.85 7.77, 2.85 7.77, 2.85 7.77 M2.85 7.77 C2.85 7.77, 2.85 7.77, 2.85 7.77 M1.01 22.08 C5.58 16.12, 11.53 12.7, 20.04 0.19 M1.01 22.08 C6.59 14.33, 13.14 7.94, 20.04 0.19 M1.14 34.12 C7.22 25.9, 18.05 17.09, 30.67 0.16 M1.14 34.12 C10.35 24.17, 17.99 14.58, 30.67 0.16 M1.28 46.16 C11.6 36.57, 19.48 27.51, 41.3 0.12 M1.28 46.16 C12.63 31.99, 24.4 19.38, 41.3 0.12 M0.75 58.96 C20.68 39.28, 36.91 16.45, 51.93 0.09 M0.75 58.96 C17.01 39.44, 32.33 21.27, 51.93 0.09 M2.2 69.49 C18.22 50.79, 33.07 31.04, 62.56 0.05 M2.2 69.49 C20.26 49.71, 37.84 28.81, 62.56 0.05 M6.93 76.25 C29.22 50.54, 49.16 29.7, 73.19 0.02 M6.93 76.25 C27.83 52.67, 48.69 28.9, 73.19 0.02 M14.93 79.23 C30.38 63.5, 45.5 46.46, 83.82 -0.01 M14.93 79.23 C37.13 56.01, 57.17 30.72, 83.82 -0.01 M24.25 80.7 C49.17 54.82, 72.02 26.35, 94.45 -0.05 M24.25 80.7 C50.05 49.26, 78.33 17.54, 94.45 -0.05 M34.88 80.67 C47.93 64.44, 67.11 44.39, 105.08 -0.08 M34.88 80.67 C54.32 57.1, 74.99 35.69, 105.08 -0.08 M45.51 80.64 C60.31 60.3, 77.61 45.27, 115.71 -0.12 M45.51 80.64 C63.86 60.88, 81.24 39.44, 115.71 -0.12 M56.14 80.6 C82.51 54.51, 103.31 24, 125.68 0.6 M56.14 80.6 C80.17 51.09, 106.86 22.31, 125.68 0.6 M66.77 80.57 C84.14 60.43, 100.46 40.93, 134.34 2.83 M66.77 80.57 C94.42 49.88, 119.95 19.85, 134.34 2.83 M77.4 80.53 C103.32 52.78, 125.37 25.95, 141.04 7.33 M77.4 80.53 C95.12 60.03, 113.8 38.44, 141.04 7.33 M88.03 80.5 C109.53 58.68, 130.27 33.71, 144.45 15.59 M88.03 80.5 C104.08 62.54, 120.49 42.46, 144.45 15.59 M98.66 80.46 C116.1 57.59, 137.34 38.85, 144.58 27.63 M98.66 80.46 C115.93 60.14, 135.15 38.43, 144.58 27.63 M109.29 80.43 C119.6 68.06, 129.33 57.17, 144.72 39.67 M109.29 80.43 C117.99 72.51, 125.26 62.05, 144.72 39.67 M119.92 80.39 C128.52 70.26, 138.08 57.25, 144.85 51.72 M119.92 80.39 C129.24 69.15, 139.22 57.92, 144.85 51.72 M132.52 78.1 C135.75 73.75, 140.62 68.78, 143.01 66.02 M132.52 78.1 C135.57 74.29, 137.9 72.06, 143.01 66.02" stroke="#ffc9c9" stroke-width="1" fill="none"></path><path d="M20 0 C61.2 0.94, 102.24 -0.56, 124.17 0 M20 0 C57.62 0.01, 94.62 1.3, 124.17 0 M124.17 0 C138.24 0.28, 142.88 7.66, 144.17 20 M124.17 0 C137.56 1.44, 142.61 7.79, 144.17 20 M144.17 20 C145.54 36.24, 143.67 51.87, 144.17 60 M144.17 20 C144.32 32.33, 144.66 42.89, 144.17 60 M144.17 60 C145.44 74.54, 137.7 81.65, 124.17 80 M144.17 60 C142.38 72.7, 137.56 79.99, 124.17 80 M124.17 80 C85.77 78.04, 49.76 78.07, 20 80 M124.17 80 C94.37 81.79, 63.36 81.64, 20 80 M20 80 C4.72 80.46, -1.86 72.52, 0 60 M20 80 C7.3 82.19, 1.99 74.71, 0 60 M0 60 C-1.29 46.59, 0.8 32.72, 0 20 M0 60 C0.42 50.82, 0.5 43.08, 0 20 M0 20 C0.55 6.65, 6.02 0.82, 20 0 M0 20 C-0.83 7.07, 6.05 0.14, 20 0" stroke="#1e1e1e" stroke-width="2" fill="none"></path></g><g transform="translate(170.40209706624364 523.2955515060648) rotate(0 45.569976806640625 17.5)"><text x="45.569976806640625" y="0" font-family="Virgil, Segoe UI Emoji" font-size="28px" fill="#1e1e1e" text-anchor="middle" style="white-space: pre;" direction="ltr" dominant-baseline="text-before-edge">Return</text></g><g stroke-linecap="round" transform="translate(147.7777099609375 683.0177398198657) rotate(0 72.08332061767578 40)"><path d="M2.85 7.77 C2.85 7.77, 2.85 7.77, 2.85 7.77 M2.85 7.77 C2.85 7.77, 2.85 7.77, 2.85 7.77 M1.01 22.08 C5.97 18.2, 11.58 10.44, 20.04 0.19 M1.01 22.08 C5.72 16.07, 11.16 9.58, 20.04 0.19 M1.14 34.12 C10.76 23.3, 20.18 12.3, 30.67 0.16 M1.14 34.12 C9.73 23.96, 19.93 13.73, 30.67 0.16 M1.28 46.16 C14.34 32.05, 28.88 15.48, 41.3 0.12 M1.28 46.16 C9.61 36.82, 16.23 28.32, 41.3 0.12 M0.75 58.96 C20.92 38.38, 41.38 15.94, 51.93 0.09 M0.75 58.96 C10.74 47.2, 20.92 35.07, 51.93 0.09 M2.2 69.49 C18.96 50.02, 34.77 32.59, 62.56 0.05 M2.2 69.49 C20.38 48.11, 39.5 28.38, 62.56 0.05 M6.93 76.25 C21.48 57.38, 36.3 42.21, 73.19 0.02 M6.93 76.25 C23.69 55.7, 42.3 35.21, 73.19 0.02 M14.93 79.23 C38.04 51.51, 61.14 26.99, 83.82 -0.01 M14.93 79.23 C41.88 48.09, 67.18 18.45, 83.82 -0.01 M24.25 80.7 C51.68 52.55, 75.47 20.64, 94.45 -0.05 M24.25 80.7 C42.57 59.49, 62.02 35.62, 94.45 -0.05 M34.88 80.67 C58 53.69, 83.71 25.07, 105.08 -0.08 M34.88 80.67 C51.3 59.91, 69.24 38.64, 105.08 -0.08 M45.51 80.64 C58.92 62.54, 74.83 47.88, 115.71 -0.12 M45.51 80.64 C71.55 51.62, 96.46 22.94, 115.71 -0.12 M56.14 80.6 C85.83 49.69, 113.86 15.26, 125.68 0.6 M56.14 80.6 C76.42 56.74, 98.58 32.07, 125.68 0.6 M66.77 80.57 C86.01 59.53, 102.97 41.88, 134.34 2.83 M66.77 80.57 C86.99 58.53, 105.28 36.41, 134.34 2.83 M77.4 80.53 C97.51 58.86, 117.42 34.12, 141.04 7.33 M77.4 80.53 C99.31 55.27, 119.44 31.12, 141.04 7.33 M88.03 80.5 C107.87 55.98, 128.83 32.43, 144.45 15.59 M88.03 80.5 C111.22 55.36, 132.43 29.9, 144.45 15.59 M98.66 80.46 C109.95 67.83, 119.58 55.68, 144.58 27.63 M98.66 80.46 C113.73 63.56, 130.2 45.16, 144.58 27.63 M109.29 80.43 C115.32 73.31, 122.67 64.63, 144.72 39.67 M109.29 80.43 C124.05 64.11, 137.77 47.68, 144.72 39.67 M119.92 80.39 C130.2 72.56, 137.72 60.97, 144.85 51.72 M119.92 80.39 C127.65 71.03, 134.34 63.07, 144.85 51.72 M132.52 78.1 C134.98 75.5, 139.06 71.88, 143.01 66.02 M132.52 78.1 C134.44 75.38, 137.36 71.83, 143.01 66.02" stroke="#b2f2bb" stroke-width="1" fill="none"></path><path d="M20 0 C56.64 1.81, 89.41 1.74, 124.17 0 M20 0 C42.58 -0.29, 63.77 0.06, 124.17 0 M124.17 0 C137.55 1.25, 142.81 7.64, 144.17 20 M124.17 0 C139.63 1.66, 142.77 7.92, 144.17 20 M144.17 20 C143.78 31.5, 143.08 47.1, 144.17 60 M144.17 20 C145.13 35.76, 144.59 51.14, 144.17 60 M144.17 60 C142.61 72.79, 137.55 79.99, 124.17 80 M144.17 60 C145.67 72.48, 136.32 79.6, 124.17 80 M124.17 80 C100.13 78.11, 78.48 79.78, 20 80 M124.17 80 C83.72 80.89, 44.29 80.26, 20 80 M20 80 C7.21 81.9, 1.73 74.53, 0 60 M20 80 C7.98 81.77, 1.69 72.2, 0 60 M0 60 C-1.78 46.9, 0.27 33.58, 0 20 M0 60 C0.02 49.17, -0.58 38.77, 0 20 M0 20 C-0.72 7.02, 6.13 0.12, 20 0 M0 20 C0.86 5.3, 8.96 -0.02, 20 0" stroke="#1e1e1e" stroke-width="2" fill="none"></path></g><g transform="translate(179.5690460205078 705.5177398198657) rotate(0 40.29198455810547 17.5)"><text x="40.29198455810547" y="0" font-family="Virgil, Segoe UI Emoji" font-size="28px" fill="#1e1e1e" text-anchor="middle" style="white-space: pre;" direction="ltr" dominant-baseline="text-before-edge">FnCall</text></g><g stroke-linecap="round"><g transform="translate(218.65645240947288 592.1525470417773) rotate(0 -0.4173698373141974 38.1944465637207)"><path d="M0.83 -1.04 C0.7 11.94, 0.28 63.96, 0.07 76.89 M-0.19 1.03 C-0.48 13.74, -0.27 62.21, -0.4 75.03" stroke="#1e1e1e" stroke-width="2" fill="none"></path></g><g transform="translate(218.65645240947288 592.1525470417773) rotate(0 -0.4173698373141974 38.1944465637207)"><path d="M-8.89 51.52 C-7.66 61.74, -1.92 69.74, -0.4 75.03 M-8.89 51.52 C-6.35 59.48, -4.39 66.72, -0.4 75.03" stroke="#1e1e1e" stroke-width="2" fill="none"></path></g><g transform="translate(218.65645240947288 592.1525470417773) rotate(0 -0.4173698373141974 38.1944465637207)"><path d="M8.21 51.56 C3.06 61.89, 2.42 69.87, -0.4 75.03 M8.21 51.56 C5.38 59.59, 1.98 66.82, -0.4 75.03" stroke="#1e1e1e" stroke-width="2" fill="none"></path></g></g><mask></mask><g mask="url(#mask-D16hs0-xuoZsZ4XIz6IjY)" stroke-linecap="round"><g transform="translate(181.16041763144557 780.6454001011743) rotate(0 -27.46193066380691 36.52775446573878)"><path d="M0.91 0.5 C-8.31 12.88, -45.04 61.03, -54.48 73.22 M-0.07 -0.28 C-9.48 12.4, -46.34 62.86, -55.19 74.85" stroke="#1e1e1e" stroke-width="2" fill="none"></path></g><g transform="translate(181.16041763144557 780.6454001011743) rotate(0 -27.46193066380691 36.52775446573878)"><path d="M-48.18 50.85 C-50.15 60.51, -53.29 67.34, -55.19 74.85 M-48.18 50.85 C-51.31 59.77, -52.15 68.39, -55.19 74.85" stroke="#1e1e1e" stroke-width="2" fill="none"></path></g><g transform="translate(181.16041763144557 780.6454001011743) rotate(0 -27.46193066380691 36.52775446573878)"><path d="M-34.4 60.97 C-41.37 67, -49.6 70.09, -55.19 74.85 M-34.4 60.97 C-42.34 66.44, -48.01 71.52, -55.19 74.85" stroke="#1e1e1e" stroke-width="2" fill="none"></path></g></g><mask id="mask-D16hs0-xuoZsZ4XIz6IjY"><rect x="0" y="0" fill="#fff" width="336.08427895905936" height="953.7009090326519"></rect><rect x="123.72449557359568" y="799.6731545669136" fill="#000" width="59.94798278808594" height="35" opacity="1"></rect></mask><g transform="translate(123.72449557359573 799.6731545669136) rotate(0 30.294582128808855 18.253684891191824)"><text x="29.97399139404297" y="0" font-family="Virgil, Segoe UI Emoji" font-size="28px" fill="#1e1e1e" text-anchor="middle" style="white-space: pre;" direction="ltr" dominant-baseline="text-before-edge">args</text></g><g stroke-linecap="round" transform="translate(10 873.0177398198648) rotate(0 72.08332061767578 40)"><path d="M2.85 7.77 C2.85 7.77, 2.85 7.77, 2.85 7.77 M2.85 7.77 C2.85 7.77, 2.85 7.77, 2.85 7.77 M1.01 22.08 C4.32 17.03, 12.39 11.39, 20.04 0.19 M1.01 22.08 C7.13 15.7, 11.64 9.71, 20.04 0.19 M1.14 34.12 C9.2 27.25, 14.74 20.88, 30.67 0.16 M1.14 34.12 C9.63 23.41, 18.43 14.22, 30.67 0.16 M1.28 46.16 C17.06 31.12, 29.19 13.01, 41.3 0.12 M1.28 46.16 C14.2 30.69, 26.05 16.5, 41.3 0.12 M0.75 58.96 C14.31 43.02, 26.7 26.1, 51.93 0.09 M0.75 58.96 C16.1 42.19, 31.02 24.35, 51.93 0.09 M2.2 69.49 C22.62 45.94, 40.73 27.19, 62.56 0.05 M2.2 69.49 C21.25 47.99, 40.31 26.29, 62.56 0.05 M6.93 76.25 C21.81 61.15, 36.37 44.75, 73.19 0.02 M6.93 76.25 C28.31 53.94, 47.56 29.58, 73.19 0.02 M14.93 79.23 C39.39 53.85, 61.8 25.9, 83.82 -0.01 M14.93 79.23 C40.23 48.37, 68.01 17.23, 83.82 -0.01 M24.25 80.7 C37.3 64.48, 56.48 44.43, 94.45 -0.05 M24.25 80.7 C43.69 57.14, 64.36 35.72, 94.45 -0.05 M34.88 80.67 C49.68 60.33, 66.98 45.31, 105.08 -0.08 M34.88 80.67 C53.23 60.91, 70.61 39.48, 105.08 -0.08 M45.51 80.64 C72.11 54.28, 93.14 23.51, 115.71 -0.12 M45.51 80.64 C69.78 50.85, 96.7 21.79, 115.71 -0.12 M56.14 80.6 C73.97 59.89, 90.79 39.84, 125.68 0.6 M56.14 80.6 C84.56 49.02, 110.87 18.11, 125.68 0.6 M66.77 80.57 C94.19 51.07, 117.76 22.5, 134.34 2.83 M66.77 80.57 C85.58 58.77, 105.39 35.88, 134.34 2.83 M77.4 80.53 C101.55 55.77, 124.92 27.78, 141.04 7.33 M77.4 80.53 C95.58 60.17, 114.07 37.69, 141.04 7.33 M88.03 80.5 C109.69 52.77, 135.12 29.2, 144.45 15.59 M88.03 80.5 C109.42 55.43, 132.71 29.05, 144.45 15.59 M98.66 80.46 C111.62 64.89, 124.1 50.84, 144.58 27.63 M98.66 80.46 C109.64 69.92, 119.29 56.71, 144.58 27.63 M109.29 80.43 C121.87 65.7, 135.38 48.15, 144.72 39.67 M109.29 80.43 C122.58 64.46, 136.63 48.54, 144.72 39.67 M119.92 80.39 C128.02 70.47, 138.05 59.72, 144.85 51.72 M119.92 80.39 C126.94 71.82, 133.12 65.29, 144.85 51.72 M132.52 78.1 C134.25 74.15, 137.12 72.6, 143.01 66.02 M132.52 78.1 C135.11 76.21, 136.28 72.62, 143.01 66.02" stroke="#b2f2bb" stroke-width="1" fill="none"></path><path d="M20 0 C56.11 0.72, 91.49 -0.69, 124.17 0 M20 0 C55.71 -0.21, 92.91 -1.14, 124.17 0 M124.17 0 C137.97 -0.23, 142.58 5.74, 144.17 20 M124.17 0 C138.58 1.82, 146.03 6.24, 144.17 20 M144.17 20 C146.05 32.99, 143.86 49.14, 144.17 60 M144.17 20 C143.91 31.81, 143.71 44.8, 144.17 60 M144.17 60 C142.78 73.1, 136.34 81.93, 124.17 80 M144.17 60 C144.74 75.15, 135.87 81.47, 124.17 80 M124.17 80 C102.25 79.58, 83.87 80.76, 20 80 M124.17 80 C87.4 80.31, 49.6 81.36, 20 80 M20 80 C7.97 78.44, 0.66 73.83, 0 60 M20 80 C7.92 79.32, 1.45 75.28, 0 60 M0 60 C0.82 46.17, 0.35 33.25, 0 20 M0 60 C0.85 47.74, 0 35.41, 0 20 M0 20 C-0.76 5.56, 7.82 1.92, 20 0 M0 20 C-0.74 8.37, 4.84 2.07, 20 0" stroke="#1e1e1e" stroke-width="2" fill="none"></path></g><g transform="translate(36.331336975097656 895.5177398198648) rotate(0 45.751983642578125 17.5)"><text x="45.751983642578125" y="0" font-family="Virgil, Segoe UI Emoji" font-size="28px" fill="#1e1e1e" text-anchor="middle" style="white-space: pre;" direction="ltr" dominant-baseline="text-before-edge">Num: 3</text></g><g mask="url(#mask-dPZD-P3EWdYrlHxGutGOz)" stroke-linecap="round"><g transform="translate(163.22415336652523 910.913112393031) rotate(0 57.88687721208805 -0.008634472198536969)"><path d="M-0.73 0.65 C18.43 0.43, 96.63 -0.35, 116.1 -0.49 M1.09 -0.05 C20.02 -0.19, 96.26 0.61, 115.32 0.8" stroke="#1e1e1e" stroke-width="2" fill="none"></path></g><g transform="translate(163.22415336652523 910.913112393031) rotate(0 57.88687721208805 -0.008634472198536969)"><path d="M91.74 9.12 C102.03 6.54, 109.41 3.21, 115.32 0.8 M91.74 9.12 C99.08 7.62, 106.22 4.25, 115.32 0.8" stroke="#1e1e1e" stroke-width="2" fill="none"></path></g><g transform="translate(163.22415336652523 910.913112393031) rotate(0 57.88687721208805 -0.008634472198536969)"><path d="M91.92 -7.98 C102.25 -3.85, 109.57 -0.47, 115.32 0.8 M91.92 -7.98 C99.07 -4.55, 106.16 -2.99, 115.32 0.8" stroke="#1e1e1e" stroke-width="2" fill="none"></path></g></g><mask id="mask-dPZD-P3EWdYrlHxGutGOz"><rect x="0" y="0" fill="#fff" width="378.99790779070133" height="1010.9303813374281"></rect><rect x="191.13704681396484" y="893.4044779208325" fill="#000" width="59.947967529296875" height="35" opacity="1"></rect></mask><g transform="translate(191.13704681396484 893.4044779208325) rotate(0 29.7709569171071 17.666150089285566)"><text x="29.973983764648438" y="0" font-family="Virgil, Segoe UI Emoji" font-size="28px" fill="#1e1e1e" text-anchor="middle" style="white-space: pre;" direction="ltr" dominant-baseline="text-before-edge">next</text></g><g mask="url(#mask-ahvNZuVm8PoOmUpnqKwtH)" stroke-linecap="round"><g transform="translate(215.75335071510312 394.9694049763184) rotate(0 0.20785527692089545 48.33335876464844)"><path d="M-0.68 1.09 C-0.74 17.27, -0.93 80.06, -0.64 96.01 M1.17 0.61 C1.48 17.04, 1.6 80.94, 1.52 97.21" stroke="#1e1e1e" stroke-width="2" fill="none"></path></g><g transform="translate(215.75335071510312 394.9694049763184) rotate(0 0.20785527692089545 48.33335876464844)"><path d="M-7.02 73.71 C-3.02 78.59, -3.53 88.07, 1.52 97.21 M-7.02 73.71 C-4.83 80.24, -1.72 88.89, 1.52 97.21" stroke="#1e1e1e" stroke-width="2" fill="none"></path></g><g transform="translate(215.75335071510312 394.9694049763184) rotate(0 0.20785527692089545 48.33335876464844)"><path d="M10.09 73.72 C9.27 78.51, 3.97 87.98, 1.52 97.21 M10.09 73.72 C6.94 80.08, 4.72 88.72, 1.52 97.21" stroke="#1e1e1e" stroke-width="2" fill="none"></path></g></g><mask id="mask-ahvNZuVm8PoOmUpnqKwtH"><rect x="0" y="0" fill="#fff" width="316.1690612689449" height="591.6361225056153"></rect><rect x="186.56121972493418" y="425.80276374096684" fill="#000" width="58.79997253417969" height="35" opacity="1"></rect></mask><g transform="translate(186.56121972493418 425.80276374096684) rotate(0 29.562685406641492 18.07463045815939)"><text x="29.399986267089844" y="0" font-family="Virgil, Segoe UI Emoji" font-size="28px" fill="#1e1e1e" text-anchor="middle" style="white-space: pre;" direction="ltr" dominant-baseline="text-before-edge">body</text></g><g stroke-linecap="round" transform="translate(295.83328247070324 872.7778116861982) rotate(0 72.08332061767578 40)"><path d="M2.85 7.77 C2.85 7.77, 2.85 7.77, 2.85 7.77 M2.85 7.77 C2.85 7.77, 2.85 7.77, 2.85 7.77 M1.01 22.08 C8.75 13.28, 15.49 5.75, 20.04 0.19 M1.01 22.08 C7.69 14.81, 14.88 5.56, 20.04 0.19 M1.14 34.12 C9.21 26.58, 15.1 19.51, 30.67 0.16 M1.14 34.12 C9.45 22.99, 20.61 13.22, 30.67 0.16 M1.28 46.16 C9.72 36.38, 20.56 25.14, 41.3 0.12 M1.28 46.16 C16.98 28.16, 30.87 11.54, 41.3 0.12 M0.75 58.96 C19.9 37.34, 39.1 13.21, 51.93 0.09 M0.75 58.96 C11.92 46.05, 22.13 35.27, 51.93 0.09 M2.2 69.49 C17.92 53.3, 30.62 39.58, 62.56 0.05 M2.2 69.49 C21.79 47.07, 40.14 25.09, 62.56 0.05 M6.93 76.25 C33.42 45.28, 57.94 16.93, 73.19 0.02 M6.93 76.25 C26.37 53.77, 45.31 30.02, 73.19 0.02 M14.93 79.23 C38.86 51.49, 61.88 26.35, 83.82 -0.01 M14.93 79.23 C37.73 52.99, 61.45 25.51, 83.82 -0.01 M24.25 80.7 C40.55 63.61, 57.88 42.93, 94.45 -0.05 M24.25 80.7 C43.37 58.61, 62.06 36.72, 94.45 -0.05 M34.88 80.67 C55.25 59.05, 71.61 39.15, 105.08 -0.08 M34.88 80.67 C60.06 51.55, 84.22 23.97, 105.08 -0.08 M45.51 80.64 C72.2 47.77, 99.78 20.21, 115.71 -0.12 M45.51 80.64 C61.69 61.74, 75.86 44.45, 115.71 -0.12 M56.14 80.6 C83.13 51.17, 107.05 22.83, 125.68 0.6 M56.14 80.6 C76.08 56.74, 95.9 32.37, 125.68 0.6 M66.77 80.57 C80.91 64.84, 95.79 47.56, 134.34 2.83 M66.77 80.57 C80.55 64.71, 94.37 48.94, 134.34 2.83 M77.4 80.53 C97.46 55.93, 119.9 29.15, 141.04 7.33 M77.4 80.53 C96.26 58.57, 114.16 37.86, 141.04 7.33 M88.03 80.5 C101.42 65.54, 115.31 49.07, 144.45 15.59 M88.03 80.5 C104.28 61.91, 120.87 42.81, 144.45 15.59 M98.66 80.46 C109.69 71.22, 118.04 56.43, 144.58 27.63 M98.66 80.46 C109.2 66.65, 120.41 53.83, 144.58 27.63 M109.29 80.43 C118.97 71.94, 126.52 59.04, 144.72 39.67 M109.29 80.43 C121.22 66.41, 132.97 53.06, 144.72 39.67 M119.92 80.39 C124.9 74.95, 132.82 66.5, 144.85 51.72 M119.92 80.39 C127.41 71.95, 134.52 64.22, 144.85 51.72 M132.52 78.1 C137.77 74.03, 138.81 67.99, 143.01 66.02 M132.52 78.1 C134.74 75.79, 137.76 72.78, 143.01 66.02" stroke="#b2f2bb" stroke-width="1" fill="none"></path><path d="M20 0 C52.16 0.57, 81.72 2.59, 124.17 0 M20 0 C61.56 0.88, 101.59 0.17, 124.17 0 M124.17 0 C138.79 0.83, 142.23 6.58, 144.17 20 M124.17 0 C139.38 1.99, 143.37 8.41, 144.17 20 M144.17 20 C142.51 27.96, 143.19 39.29, 144.17 60 M144.17 20 C144.39 32.55, 144.14 47.29, 144.17 60 M144.17 60 C144.82 72.11, 136.26 79.1, 124.17 80 M144.17 60 C145.03 72.26, 137.03 79.85, 124.17 80 M124.17 80 C99.49 82.28, 72.18 80.71, 20 80 M124.17 80 C98.96 80.43, 71.89 80.41, 20 80 M20 80 C7.24 81.04, 1.26 72.17, 0 60 M20 80 C7.21 79.46, -1.05 73.36, 0 60 M0 60 C-1.02 49.05, 0.91 36.68, 0 20 M0 60 C-0.66 45.57, -0.75 31.51, 0 20 M0 20 C-0.45 5.45, 7.58 0.1, 20 0 M0 20 C2.01 7.94, 7.93 0.23, 20 0" stroke="#1e1e1e" stroke-width="2" fill="none"></path></g><g transform="translate(322.7386169433595 895.2778116861982) rotate(0 45.17798614501953 17.5)"><text x="45.17798614501953" y="0" font-family="Virgil, Segoe UI Emoji" font-size="28px" fill="#1e1e1e" text-anchor="middle" style="white-space: pre;" direction="ltr" dominant-baseline="text-before-edge">Num: 4</text></g><g stroke-linecap="round" transform="translate(655.8334350585938 490.0001017252598) rotate(0 72.08332061767578 40)"><path d="M2.85 7.77 C2.85 7.77, 2.85 7.77, 2.85 7.77 M2.85 7.77 C2.85 7.77, 2.85 7.77, 2.85 7.77 M4.29 18.31 C8.31 10.92, 16.98 4.82, 20.04 0.19 M4.29 18.31 C10.8 12.47, 14.76 5.19, 20.04 0.19 M3.77 31.1 C8.85 24.66, 16.97 14.36, 30.67 0.16 M3.77 31.1 C9.87 24.5, 17.3 16.44, 30.67 0.16 M3.9 43.14 C11.47 32.61, 20.04 25.28, 41.3 0.12 M3.9 43.14 C12.83 31.62, 23.8 22.17, 41.3 0.12 M4.03 55.18 C20.77 32.43, 41.38 10.95, 51.93 0.09 M4.03 55.18 C14 43.53, 24.37 32.05, 51.93 0.09 M3.51 67.98 C22.64 45.73, 43.22 23.42, 62.56 0.05 M3.51 67.98 C17.8 49.29, 34.55 31.83, 62.56 0.05 M6.93 76.25 C24.27 58.05, 39.97 40.36, 73.19 0.02 M6.93 76.25 C25.29 54.85, 43.9 33.25, 73.19 0.02 M12.96 81.49 C42.06 50.96, 68.88 19.12, 83.82 -0.01 M12.96 81.49 C33.63 59.49, 51.67 36.39, 83.82 -0.01 M22.94 82.21 C43.71 57.65, 63.24 32.22, 94.45 -0.05 M22.94 82.21 C51.66 51.47, 77.9 18.18, 94.45 -0.05 M33.57 82.18 C62.81 51.8, 89.52 19.76, 105.08 -0.08 M33.57 82.18 C58.03 54.89, 81.85 25.9, 105.08 -0.08 M44.2 82.15 C60.19 63.45, 78.86 41.64, 115.71 -0.12 M44.2 82.15 C70.54 51.44, 96.51 22.46, 115.71 -0.12 M54.83 82.11 C78.32 53.55, 105.58 25.78, 125.03 1.36 M54.83 82.11 C80.27 53.33, 105.26 24.2, 125.03 1.36 M65.46 82.08 C88.93 52.26, 114 25.46, 134.34 2.83 M65.46 82.08 C88.52 55.72, 113.11 27.28, 134.34 2.83 M76.09 82.04 C98.67 55.1, 122.02 31.99, 141.04 7.33 M76.09 82.04 C101.92 53.73, 126.81 25.12, 141.04 7.33 M86.06 82.76 C105.22 59.53, 122.68 39.06, 144.45 15.59 M86.06 82.76 C105.49 60.2, 127.19 35.31, 144.45 15.59 M96.69 82.73 C113.01 61.14, 131.73 42.56, 144.58 27.63 M96.69 82.73 C112.99 62.78, 131.81 43.55, 144.58 27.63 M107.32 82.69 C116.93 74.39, 123.87 62.38, 144.72 39.67 M107.32 82.69 C119.67 68.38, 133.26 52.92, 144.72 39.67 M117.95 82.66 C124.88 74.01, 131.42 66.35, 144.85 51.72 M117.95 82.66 C127.58 73.14, 135.48 62.44, 144.85 51.72 M127.93 83.38 C134.82 76.06, 137.47 70.38, 146.3 62.25 M127.93 83.38 C134.76 76.63, 142.26 68.79, 146.3 62.25" stroke="#ffc9c9" stroke-width="1" fill="none"></path><path d="M20 0 C51.37 -2.36, 79.21 -1.74, 124.17 0 M20 0 C42.72 -0.29, 67.13 -0.11, 124.17 0 M124.17 0 C138.23 0.53, 143.18 8.04, 144.17 20 M124.17 0 C137.46 0.07, 143.67 7.7, 144.17 20 M144.17 20 C145.36 33.51, 145.14 49.63, 144.17 60 M144.17 20 C144.89 31.7, 143.88 44.96, 144.17 60 M144.17 60 C145.17 73.32, 136.31 81.85, 124.17 80 M144.17 60 C143.92 73.31, 136.78 81.84, 124.17 80 M124.17 80 C85.35 79.55, 43.22 80.79, 20 80 M124.17 80 C93.88 78.73, 63.37 79.24, 20 80 M20 80 C5.8 80.34, -1.43 73.25, 0 60 M20 80 C7.25 81.72, 1.81 75, 0 60 M0 60 C0.22 48.18, -0.7 33.53, 0 20 M0 60 C0.18 45.36, 0.05 29.99, 0 20 M0 20 C-1.77 4.9, 7.36 0.33, 20 0 M0 20 C-1.11 4.59, 7.67 -0.4, 20 0" stroke="#1e1e1e" stroke-width="2" fill="none"></path></g><g transform="translate(682.3467788696289 512.5001017252598) rotate(0 45.569976806640625 17.5)"><text x="45.569976806640625" y="0" font-family="Virgil, Segoe UI Emoji" font-size="28px" fill="#1e1e1e" text-anchor="middle" style="white-space: pre;" direction="ltr" dominant-baseline="text-before-edge">Return</text></g><g stroke-linecap="round" transform="translate(657.5001017252603 666.6667683919268) rotate(0 72.08332061767578 40)"><path d="M2.85 7.77 C2.85 7.77, 2.85 7.77, 2.85 7.77 M2.85 7.77 C2.85 7.77, 2.85 7.77, 2.85 7.77 M1.01 22.08 C6.56 17.06, 11.83 12.46, 20.04 0.19 M1.01 22.08 C5.49 15.32, 11.61 8.33, 20.04 0.19 M1.14 34.12 C8.66 24.93, 13.29 20.32, 30.67 0.16 M1.14 34.12 C9.75 24.65, 18.79 12.37, 30.67 0.16 M1.28 46.16 C16.79 27.66, 27.99 11.41, 41.3 0.12 M1.28 46.16 C9.3 35.59, 19.71 25.83, 41.3 0.12 M0.75 58.96 C12.68 45.92, 23.76 30.35, 51.93 0.09 M0.75 58.96 C18.8 37.62, 38.46 15.53, 51.93 0.09 M2.2 69.49 C19.88 51.1, 36.92 29.17, 62.56 0.05 M2.2 69.49 C18.59 49.98, 36.28 30.43, 62.56 0.05 M6.93 76.25 C29.74 46.84, 53.6 21.38, 73.19 0.02 M6.93 76.25 C24.46 55.42, 44.15 34.63, 73.19 0.02 M14.93 79.23 C32.84 57.54, 51.26 38.33, 83.82 -0.01 M14.93 79.23 C34.75 57.49, 54.01 35.92, 83.82 -0.01 M24.25 80.7 C42.32 58.58, 63.99 35.72, 94.45 -0.05 M24.25 80.7 C40.63 62.62, 58.32 42.72, 94.45 -0.05 M34.88 80.67 C62.62 48, 86.27 17.62, 105.08 -0.08 M34.88 80.67 C57.88 54.53, 80.49 28.58, 105.08 -0.08 M45.51 80.64 C68.29 54.51, 93.23 26.16, 115.71 -0.12 M45.51 80.64 C71.71 49.06, 100.36 19.31, 115.71 -0.12 M56.14 80.6 C72.74 61.8, 91.19 39.14, 125.68 0.6 M56.14 80.6 C73.8 59.08, 92.32 37.73, 125.68 0.6 M66.77 80.57 C90.99 50.17, 120.56 20.47, 134.34 2.83 M66.77 80.57 C89.89 55.35, 111.18 28.69, 134.34 2.83 M77.4 80.53 C99.88 55.74, 117.47 35.54, 141.04 7.33 M77.4 80.53 C90.09 65.93, 103.46 50.99, 141.04 7.33 M88.03 80.5 C109.28 57.9, 126.51 37.77, 144.45 15.59 M88.03 80.5 C99.89 67.58, 113.16 52.47, 144.45 15.59 M98.66 80.46 C109.11 70.68, 118.35 58.31, 144.58 27.63 M98.66 80.46 C116.11 60.27, 135.66 40.1, 144.58 27.63 M109.29 80.43 C119.2 69.49, 126.56 60.26, 144.72 39.67 M109.29 80.43 C120.1 69.74, 128.88 56.95, 144.72 39.67 M119.92 80.39 C127.76 71.91, 137.86 59.55, 144.85 51.72 M119.92 80.39 C129.24 70.34, 138.12 59.54, 144.85 51.72 M132.52 78.1 C136.07 75.19, 140.25 68.14, 143.01 66.02 M132.52 78.1 C136.04 74.36, 138.25 70.85, 143.01 66.02" stroke="#b2f2bb" stroke-width="1" fill="none"></path><path d="M20 0 C54.35 2.13, 92.45 -0.22, 124.17 0 M20 0 C41.86 0.24, 65.29 -1.61, 124.17 0 M124.17 0 C139.08 -0.47, 143.88 5.82, 144.17 20 M124.17 0 C138.7 1.82, 145.83 6.06, 144.17 20 M144.17 20 C146.28 32.77, 146.23 41.32, 144.17 60 M144.17 20 C144.45 32.83, 144.8 46.54, 144.17 60 M144.17 60 C142.69 71.85, 139.04 79.96, 124.17 80 M144.17 60 C143.66 71.13, 135.66 82.26, 124.17 80 M124.17 80 C91.26 77.74, 62.64 81.05, 20 80 M124.17 80 C100.3 80.01, 76 80.63, 20 80 M20 80 C4.82 80.61, 1.94 74.39, 0 60 M20 80 C5.33 79.83, -1.84 74.21, 0 60 M0 60 C0.57 48.54, 0.91 38.91, 0 20 M0 60 C0.01 50.48, -1.1 42.6, 0 20 M0 20 C-0.46 5.95, 8.41 1.5, 20 0 M0 20 C0.87 7.03, 6.17 0.45, 20 0" stroke="#1e1e1e" stroke-width="2" fill="none"></path></g><g transform="translate(704.4674326578775 689.1667683919268) rotate(0 25.115989685058594 17.5)"><text x="25.115989685058594" y="0" font-family="Virgil, Segoe UI Emoji" font-size="28px" fill="#1e1e1e" text-anchor="middle" style="white-space: pre;" direction="ltr" dominant-baseline="text-before-edge">Add</text></g><g stroke-linecap="round" transform="translate(549.1666666666665 872.2223917643223) rotate(0 72.08332061767578 40)"><path d="M2.85 7.77 C2.85 7.77, 2.85 7.77, 2.85 7.77 M2.85 7.77 C2.85 7.77, 2.85 7.77, 2.85 7.77 M1.01 22.08 C6.78 18.86, 10.55 10.22, 20.04 0.19 M1.01 22.08 C5.55 16.84, 8.21 12.37, 20.04 0.19 M1.14 34.12 C8.07 25.3, 18.45 16, 30.67 0.16 M1.14 34.12 C9.33 25.09, 17.41 14.79, 30.67 0.16 M1.28 46.16 C13.77 29.89, 27.05 16.65, 41.3 0.12 M1.28 46.16 C11.92 35.06, 21.08 21.75, 41.3 0.12 M0.75 58.96 C10.74 46.73, 25.05 31.52, 51.93 0.09 M0.75 58.96 C12.67 44.17, 25.41 29.41, 51.93 0.09 M2.2 69.49 C18.09 48.11, 37.21 27.4, 62.56 0.05 M2.2 69.49 C22.53 47.48, 41.98 23.44, 62.56 0.05 M6.93 76.25 C29.86 51.18, 50.25 24.15, 73.19 0.02 M6.93 76.25 C24.8 56.4, 40.34 39.32, 73.19 0.02 M14.93 79.23 C31.94 61.91, 49.43 39.91, 83.82 -0.01 M14.93 79.23 C35.35 57.26, 54.12 32.9, 83.82 -0.01 M24.25 80.7 C40.7 60.87, 56.18 41.96, 94.45 -0.05 M24.25 80.7 C50.6 50.32, 75.9 18.72, 94.45 -0.05 M34.88 80.67 C60.9 50.28, 91.96 16.89, 105.08 -0.08 M34.88 80.67 C60.54 50.22, 86.8 21.83, 105.08 -0.08 M45.51 80.64 C62.84 61.62, 76.53 46.29, 115.71 -0.12 M45.51 80.64 C68.99 53.35, 91.08 27.4, 115.71 -0.12 M56.14 80.6 C73.82 58.06, 95.23 35.43, 125.68 0.6 M56.14 80.6 C71.87 63.4, 85.36 46.72, 125.68 0.6 M66.77 80.57 C86.61 56.11, 111.24 30.87, 134.34 2.83 M66.77 80.57 C93.19 49.81, 118.99 20.24, 134.34 2.83 M77.4 80.53 C94.58 57.77, 113.5 38.3, 141.04 7.33 M77.4 80.53 C93.97 62.36, 110.69 41.89, 141.04 7.33 M88.03 80.5 C103.76 63.26, 119.28 43.5, 144.45 15.59 M88.03 80.5 C101.82 64.7, 115.34 48.06, 144.45 15.59 M98.66 80.46 C115.28 61.29, 135.47 39.17, 144.58 27.63 M98.66 80.46 C114.47 61.46, 131.46 42.54, 144.58 27.63 M109.29 80.43 C119.67 69, 131.94 55.02, 144.72 39.67 M109.29 80.43 C122.56 66.17, 135.16 51.01, 144.72 39.67 M119.92 80.39 C123.42 72.98, 130.37 67.43, 144.85 51.72 M119.92 80.39 C126.54 72.9, 134.44 63.51, 144.85 51.72 M132.52 78.1 C135.81 73.78, 141.45 68.53, 143.01 66.02 M132.52 78.1 C135.75 75.05, 137.1 72.57, 143.01 66.02" stroke="#b2f2bb" stroke-width="1" fill="none"></path><path d="M20 0 C62.16 2.05, 101.9 2.17, 124.17 0 M20 0 C43.92 0.69, 68.08 0.64, 124.17 0 M124.17 0 C139.08 -1.81, 142.74 6.62, 144.17 20 M124.17 0 C136.83 1.81, 145.12 4.69, 144.17 20 M144.17 20 C144.05 30.96, 144.36 39.61, 144.17 60 M144.17 20 C144.47 28.91, 144.79 36.06, 144.17 60 M144.17 60 C145.27 73.23, 137.81 81.89, 124.17 80 M144.17 60 C142.55 75.26, 135.28 80.76, 124.17 80 M124.17 80 C97.03 79.78, 72.52 80.72, 20 80 M124.17 80 C99.33 81.47, 73.02 81.47, 20 80 M20 80 C5.66 78.89, -0.63 71.39, 0 60 M20 80 C7.65 82.28, 1.41 73.4, 0 60 M0 60 C-1.32 48.02, -0.38 38.27, 0 20 M0 60 C0.51 50.23, 0.55 39.96, 0 20 M0 20 C1.31 7.59, 7.09 -1.81, 20 0 M0 20 C-2.05 6.12, 4.83 0.04, 20 0" stroke="#1e1e1e" stroke-width="2" fill="none"></path></g><g transform="translate(582.7360026041665 894.7223917643223) rotate(0 38.51398468017578 17.5)"><text x="38.51398468017578" y="0" font-family="Virgil, Segoe UI Emoji" font-size="28px" fill="#1e1e1e" text-anchor="middle" style="white-space: pre;" direction="ltr" dominant-baseline="text-before-edge">Val: x</text></g><g stroke-linecap="round" transform="translate(774.7223917643228 871.1110432942714) rotate(0 72.08332061767578 40)"><path d="M2.85 7.77 C2.85 7.77, 2.85 7.77, 2.85 7.77 M2.85 7.77 C2.85 7.77, 2.85 7.77, 2.85 7.77 M1.01 22.08 C3.59 18.79, 9.04 11.96, 20.04 0.19 M1.01 22.08 C6.64 15.63, 11.7 10.22, 20.04 0.19 M1.14 34.12 C11.56 21.66, 20.83 9.53, 30.67 0.16 M1.14 34.12 C12.22 21.42, 22.24 10.18, 30.67 0.16 M1.28 46.16 C13.8 34.53, 22.21 23.56, 41.3 0.12 M1.28 46.16 C16.28 29.56, 30.86 11.51, 41.3 0.12 M0.75 58.96 C20.18 36.1, 41.5 11.57, 51.93 0.09 M0.75 58.96 C14.04 43.56, 29.88 26.14, 51.93 0.09 M2.2 69.49 C23.53 44.3, 47 18.55, 62.56 0.05 M2.2 69.49 C19.1 49.07, 36.47 30.04, 62.56 0.05 M6.93 76.25 C19.19 59.6, 34.71 44.79, 73.19 0.02 M6.93 76.25 C25.92 54.12, 43.85 34.4, 73.19 0.02 M14.93 79.23 C38.68 50.85, 65.58 20.69, 83.82 -0.01 M14.93 79.23 C39.34 51.36, 64.31 24.38, 83.82 -0.01 M24.25 80.7 C47.31 50.95, 74.49 22.62, 94.45 -0.05 M24.25 80.7 C48.08 51.46, 72.59 23.24, 94.45 -0.05 M34.88 80.67 C53.73 59.61, 70.5 36.53, 105.08 -0.08 M34.88 80.67 C61.17 51.17, 85.79 21.92, 105.08 -0.08 M45.51 80.64 C73.4 49.84, 100.89 16.48, 115.71 -0.12 M45.51 80.64 C62.5 63.3, 77.62 44.08, 115.71 -0.12 M56.14 80.6 C74.73 58.78, 91.42 39.26, 125.68 0.6 M56.14 80.6 C73.48 61.19, 89.78 40.61, 125.68 0.6 M66.77 80.57 C83.77 59.4, 102.1 39.16, 134.34 2.83 M66.77 80.57 C86.48 56.16, 107.53 32.22, 134.34 2.83 M77.4 80.53 C97.67 59.37, 114.33 37.08, 141.04 7.33 M77.4 80.53 C90.42 66.32, 102.24 49.79, 141.04 7.33 M88.03 80.5 C106.31 60.02, 125.09 39.68, 144.45 15.59 M88.03 80.5 C106.03 58.67, 124.57 37.76, 144.45 15.59 M98.66 80.46 C111.84 67.92, 120.8 53.53, 144.58 27.63 M98.66 80.46 C115.81 60.79, 132.97 39.72, 144.58 27.63 M109.29 80.43 C118.12 68.31, 130.98 56.33, 144.72 39.67 M109.29 80.43 C120.45 68.45, 130.28 56.24, 144.72 39.67 M119.92 80.39 C124.12 72.93, 131.2 68.52, 144.85 51.72 M119.92 80.39 C130.01 68.65, 139.17 57.11, 144.85 51.72 M132.52 78.1 C134.03 73.89, 140.01 70.24, 143.01 66.02 M132.52 78.1 C136.13 72.88, 140.56 68.88, 143.01 66.02" stroke="#b2f2bb" stroke-width="1" fill="none"></path><path d="M20 0 C56.94 0.06, 97.3 1.71, 124.17 0 M20 0 C52.01 -1.09, 85.35 -1.41, 124.17 0 M124.17 0 C138.08 1.9, 145.74 4.96, 144.17 20 M124.17 0 C138.04 -1.2, 141.98 8.93, 144.17 20 M144.17 20 C142.84 30.96, 144.55 41.51, 144.17 60 M144.17 20 C144.37 33.39, 144.12 47.85, 144.17 60 M144.17 60 C144.91 72.43, 136.97 81.02, 124.17 80 M144.17 60 C143.27 73.22, 138.12 80.54, 124.17 80 M124.17 80 C84.64 78.79, 47.26 79.6, 20 80 M124.17 80 C89.55 79.44, 53.91 78.99, 20 80 M20 80 C6.98 81.72, 1.43 74.29, 0 60 M20 80 C6.96 78.13, -1.38 72.93, 0 60 M0 60 C-0.71 43.28, 0.22 30.17, 0 20 M0 60 C0.14 49.53, -0.83 41.58, 0 20 M0 20 C1.6 7.77, 5.95 -0.73, 20 0 M0 20 C0.21 4.56, 8.42 -1.57, 20 0" stroke="#1e1e1e" stroke-width="2" fill="none"></path></g><g transform="translate(809.5937296549478 893.6110432942714) rotate(0 37.21198272705078 17.5)"><text x="37.21198272705078" y="0" font-family="Virgil, Segoe UI Emoji" font-size="28px" fill="#1e1e1e" text-anchor="middle" style="white-space: pre;" direction="ltr" dominant-baseline="text-before-edge">Val: y</text></g><g stroke-linecap="round"><g transform="translate(710.139045715332 754.4444783528643) rotate(0 -36.11114501953125 54.444478352864735)"><path d="M0.44 -0.3 C-11.73 17.7, -59.9 89.83, -71.92 108.11 M-0.79 -1.51 C-13.18 16.62, -60.82 91.1, -72.71 109.24" stroke="#1e1e1e" stroke-width="2" fill="none"></path></g><g transform="translate(710.139045715332 754.4444783528643) rotate(0 -36.11114501953125 54.444478352864735)"><path d="M-67.13 84.87 C-69.78 94.86, -72.74 104.74, -72.71 109.24 M-67.13 84.87 C-69.12 93.99, -70.35 100.66, -72.71 109.24" stroke="#1e1e1e" stroke-width="2" fill="none"></path></g><g transform="translate(710.139045715332 754.4444783528643) rotate(0 -36.11114501953125 54.444478352864735)"><path d="M-52.77 94.16 C-61.01 100.59, -69.54 106.86, -72.71 109.24 M-52.77 94.16 C-59.77 100.1, -65.93 103.58, -72.71 109.24" stroke="#1e1e1e" stroke-width="2" fill="none"></path></g></g><mask></mask><g stroke-linecap="round"><g transform="translate(745.9163746071849 754.4444783528643) rotate(0 49.25566904372812 52.22223917643214)"><path d="M-0.63 0.79 C15.77 18.16, 81.67 86.46, 98.39 103.78 M1.25 0.15 C17.47 17.72, 80.99 87.31, 97.38 104.97" stroke="#1e1e1e" stroke-width="2" fill="none"></path></g><g transform="translate(745.9163746071849 754.4444783528643) rotate(0 49.25566904372812 52.22223917643214)"><path d="M75.18 93.46 C83.12 96.84, 87.38 102.49, 97.38 104.97 M75.18 93.46 C82.61 96.38, 89.99 99.61, 97.38 104.97" stroke="#1e1e1e" stroke-width="2" fill="none"></path></g><g transform="translate(745.9163746071849 754.4444783528643) rotate(0 49.25566904372812 52.22223917643214)"><path d="M87.77 81.89 C91.88 88.68, 92.35 97.81, 97.38 104.97 M87.77 81.89 C91.19 88.62, 94.55 95.55, 97.38 104.97" stroke="#1e1e1e" stroke-width="2" fill="none"></path></g></g><mask></mask><g mask="url(#mask-fxNdz_HtjctcRSaiPXSgs)" stroke-linecap="round"><g transform="translate(722.9574040740346 382.8895742981367) rotate(0 0.20785527692089545 48.33335876464844)"><path d="M0.6 -0.84 C0.57 15.23, 0.6 80.68, 0.5 96.74 M-0.54 1.34 C-0.79 17.59, -0.33 82.5, -0.4 98.32" stroke="#1e1e1e" stroke-width="2" fill="none"></path></g><g transform="translate(722.9574040740346 382.8895742981367) rotate(0 0.20785527692089545 48.33335876464844)"><path d="M-9 74.84 C-7.23 83.39, -2.62 90.99, -0.4 98.32 M-9 74.84 C-7.72 78.94, -5 85.37, -0.4 98.32" stroke="#1e1e1e" stroke-width="2" fill="none"></path></g><g transform="translate(722.9574040740346 382.8895742981367) rotate(0 0.20785527692089545 48.33335876464844)"><path d="M8.11 74.81 C3.72 83.45, 2.17 91.06, -0.4 98.32 M8.11 74.81 C5.89 78.97, 5.12 85.4, -0.4 98.32" stroke="#1e1e1e" stroke-width="2" fill="none"></path></g></g><mask id="mask-fxNdz_HtjctcRSaiPXSgs"><rect x="0" y="0" fill="#fff" width="823.3731146278764" height="579.5562918274336"></rect><rect x="693.7652730838657" y="413.72293306278516" fill="#000" width="58.79997253417969" height="35" opacity="1"></rect></mask><g transform="translate(693.7652730838657 413.72293306278516) rotate(0 29.185161985712796 17.906417183368376)"><text x="29.399986267089844" y="0" font-family="Virgil, Segoe UI Emoji" font-size="28px" fill="#1e1e1e" text-anchor="middle" style="white-space: pre;" direction="ltr" dominant-baseline="text-before-edge">body</text></g><g stroke-linecap="round"><g transform="translate(727.142874565387 581.5211619173488) rotate(0 -0.4173698373141974 38.1944465637207)"><path d="M-0.93 0.69 C-1.16 13.75, -0.7 64.72, -0.72 77.41 M0.78 0.01 C0.35 12.84, -1.15 63.38, -1.61 75.83" stroke="#1e1e1e" stroke-width="2" fill="none"></path></g><g transform="translate(727.142874565387 581.5211619173488) rotate(0 -0.4173698373141974 38.1944465637207)"><path d="M-9.39 52.07 C-5.65 60.76, -2.34 68.61, -1.61 75.83 M-9.39 52.07 C-7.39 60.99, -4.77 67.66, -1.61 75.83" stroke="#1e1e1e" stroke-width="2" fill="none"></path></g><g transform="translate(727.142874565387 581.5211619173488) rotate(0 -0.4173698373141974 38.1944465637207)"><path d="M7.7 52.63 C5.36 60.99, 2.6 68.64, -1.61 75.83 M7.7 52.63 C3.97 61.35, 0.85 67.83, -1.61 75.83" stroke="#1e1e1e" stroke-width="2" fill="none"></path></g></g><mask></mask><g stroke-linecap="round" transform="translate(901.2720934986685 295.88300460515165) rotate(0 72.08332061767578 40)"><path d="M2.85 7.77 C2.85 7.77, 2.85 7.77, 2.85 7.77 M2.85 7.77 C2.85 7.77, 2.85 7.77, 2.85 7.77 M1.01 22.08 C5.89 18.18, 10.97 12.92, 20.04 0.19 M1.01 22.08 C5.39 17.66, 9.73 11.31, 20.04 0.19 M1.14 34.12 C8.08 27.17, 17.25 16.17, 30.67 0.16 M1.14 34.12 C9.21 25.13, 14.85 17.31, 30.67 0.16 M1.28 46.16 C11.56 33.36, 23.91 20.92, 41.3 0.12 M1.28 46.16 C10.39 33.89, 20.8 23.14, 41.3 0.12 M0.75 58.96 C16.7 38.85, 34.08 20.38, 51.93 0.09 M0.75 58.96 C19.86 37.42, 38.9 16.84, 51.93 0.09 M2.2 69.49 C12.64 53.7, 25.43 40.17, 62.56 0.05 M2.2 69.49 C23.93 44.6, 45.78 18.66, 62.56 0.05 M6.93 76.25 C31.65 51.87, 53.99 24.64, 73.19 0.02 M6.93 76.25 C30.54 50.26, 51.48 24.9, 73.19 0.02 M14.93 79.23 C30.98 61.78, 43.73 46.9, 83.82 -0.01 M14.93 79.23 C42.64 48.67, 71.25 16.42, 83.82 -0.01 M24.25 80.7 C46.28 53.95, 68.57 31.89, 94.45 -0.05 M24.25 80.7 C47.99 54.08, 71.43 26.78, 94.45 -0.05 M34.88 80.67 C52.5 62.36, 66.12 45.81, 105.08 -0.08 M34.88 80.67 C59.9 52.98, 83.61 26.15, 105.08 -0.08 M45.51 80.64 C70.66 51.33, 96.54 23.08, 115.71 -0.12 M45.51 80.64 C63.9 59.73, 83.4 36.13, 115.71 -0.12 M56.14 80.6 C74.02 62.16, 92.04 41.53, 125.68 0.6 M56.14 80.6 C80.94 52.27, 106.35 21.66, 125.68 0.6 M66.77 80.57 C90.3 56.38, 109.7 30.95, 134.34 2.83 M66.77 80.57 C86.78 59.05, 106.24 36.52, 134.34 2.83 M77.4 80.53 C94.78 63.09, 110.84 43.69, 141.04 7.33 M77.4 80.53 C93.02 61.89, 110.26 42.69, 141.04 7.33 M88.03 80.5 C107.08 59, 127.25 39.95, 144.45 15.59 M88.03 80.5 C105.47 60.94, 122.27 41.96, 144.45 15.59 M98.66 80.46 C109.72 66.26, 121.93 53.79, 144.58 27.63 M98.66 80.46 C116.46 61.37, 132.61 42.11, 144.58 27.63 M109.29 80.43 C117.79 69.85, 123.71 61.16, 144.72 39.67 M109.29 80.43 C116.86 71.8, 123.59 61.65, 144.72 39.67 M119.92 80.39 C125.62 74.51, 131.95 67.77, 144.85 51.72 M119.92 80.39 C126.39 72.22, 133.09 63.61, 144.85 51.72 M132.52 78.1 C135.41 74.82, 139.13 68.82, 143.01 66.02 M132.52 78.1 C135.99 72.87, 139.43 68.52, 143.01 66.02" stroke="#a5d8ff" stroke-width="1" fill="none"></path><path d="M20 0 C52.13 -0.22, 84.27 0.99, 124.17 0 M20 0 C43.1 -0.26, 67.01 -1.44, 124.17 0 M124.17 0 C138.96 -0.21, 145.67 6.72, 144.17 20 M124.17 0 C138.61 -1.3, 142.29 8.96, 144.17 20 M144.17 20 C144.31 33.95, 145.45 47.54, 144.17 60 M144.17 20 C143.58 28.56, 144.96 39.58, 144.17 60 M144.17 60 C145.57 72.57, 139.46 78.69, 124.17 80 M144.17 60 C141.98 75.39, 136.94 78.57, 124.17 80 M124.17 80 C98.38 79.27, 70.48 79.34, 20 80 M124.17 80 C96.92 81.61, 67.6 80.44, 20 80 M20 80 C8.41 78.55, 0.42 74.17, 0 60 M20 80 C7.7 81.94, -1.96 75.08, 0 60 M0 60 C-0.3 43.03, -1.37 27.35, 0 20 M0 60 C-1 45.61, -0.15 31.45, 0 20 M0 20 C0.41 5.35, 7.84 -0.27, 20 0 M0 20 C0.88 5.88, 8.91 2.12, 20 0" stroke="#1e1e1e" stroke-width="2" fill="none"></path></g><g transform="translate(927.8414294361685 318.38300460515165) rotate(0 45.51398468017578 17.5)"><text x="45.51398468017578" y="0" font-family="Virgil, Segoe UI Emoji" font-size="28px" fill="#1e1e1e" text-anchor="middle" style="white-space: pre;" direction="ltr" dominant-baseline="text-before-edge">Val: x </text></g><g mask="url(#mask-LNgYjtsk-IrHZN3ki0Gcb)" stroke-linecap="round"><g transform="translate(965.7219132467312 197.83311759238222) rotate(0 -0.12290740238643139 42.222137451170966)"><path d="M0.02 -0.85 C-0.03 13.23, -0.86 71.16, -1.06 85.51 M-1.42 1.32 C-1.04 15.61, 0.78 70.27, 1.22 83.94" stroke="#1e1e1e" stroke-width="2" fill="none"></path></g><g transform="translate(965.7219132467312 197.83311759238222) rotate(0 -0.12290740238643139 42.222137451170966)"><path d="M-8.09 60.74 C-7.06 64.99, -1.63 70.4, 1.22 83.94 M-8.09 60.74 C-4.12 69.17, -0.69 77.8, 1.22 83.94" stroke="#1e1e1e" stroke-width="2" fill="none"></path></g><g transform="translate(965.7219132467312 197.83311759238222) rotate(0 -0.12290740238643139 42.222137451170966)"><path d="M9 60.18 C5.9 64.56, 7.21 70.12, 1.22 83.94 M9 60.18 C6.71 68.73, 3.89 77.56, 1.22 83.94" stroke="#1e1e1e" stroke-width="2" fill="none"></path></g></g><mask id="mask-LNgYjtsk-IrHZN3ki0Gcb"><rect x="0" y="0" fill="#fff" width="1065.967728051504" height="382.27739249472415"></rect><rect x="917.537024643173" y="222.5552550435532" fill="#000" width="96.12396240234375" height="35" opacity="1"></rect></mask><g transform="translate(917.537024643173 222.5552550435532) rotate(0 48.08674548489023 17.60546145886201)"><text x="48.061981201171875" y="0" font-family="Virgil, Segoe UI Emoji" font-size="28px" fill="#1e1e1e" text-anchor="middle" style="white-space: pre;" direction="ltr" dominant-baseline="text-before-edge">params</text></g><g stroke-linecap="round" transform="translate(1169.7222900390625 293.33338419596475) rotate(0 72.08332061767578 40)"><path d="M2.85 7.77 C2.85 7.77, 2.85 7.77, 2.85 7.77 M2.85 7.77 C2.85 7.77, 2.85 7.77, 2.85 7.77 M1.01 22.08 C3.42 18.02, 9.07 11.44, 20.04 0.19 M1.01 22.08 C6.59 15.21, 11.16 10.3, 20.04 0.19 M1.14 34.12 C12.91 19.08, 24.06 8.88, 30.67 0.16 M1.14 34.12 C11.37 22.29, 21.97 9.64, 30.67 0.16 M1.28 46.16 C16.05 27.18, 34.22 8.37, 41.3 0.12 M1.28 46.16 C17.53 28.65, 32.36 9.84, 41.3 0.12 M0.75 58.96 C21.95 37.94, 38.9 14.86, 51.93 0.09 M0.75 58.96 C13.7 45.69, 25.3 30.31, 51.93 0.09 M2.2 69.49 C15.43 55.22, 30.4 37.86, 62.56 0.05 M2.2 69.49 C21.14 47.69, 40.17 25.33, 62.56 0.05 M6.93 76.25 C25.67 56.7, 44.45 37.5, 73.19 0.02 M6.93 76.25 C28.78 51.12, 49.78 26.75, 73.19 0.02 M14.93 79.23 C40.78 50.67, 65.32 22.87, 83.82 -0.01 M14.93 79.23 C39.38 51.28, 63.86 23.41, 83.82 -0.01 M24.25 80.7 C51.05 53.31, 77.29 21.39, 94.45 -0.05 M24.25 80.7 C49.82 50.65, 76.95 19.37, 94.45 -0.05 M34.88 80.67 C50.45 59.86, 66.25 44.69, 105.08 -0.08 M34.88 80.67 C58.35 53.12, 84.84 24.31, 105.08 -0.08 M45.51 80.64 C67.67 55.05, 92.59 25.91, 115.71 -0.12 M45.51 80.64 C73.49 49.18, 100.64 18.06, 115.71 -0.12 M56.14 80.6 C76.12 58.82, 97.52 37.02, 125.68 0.6 M56.14 80.6 C71.31 63.61, 86.69 45.08, 125.68 0.6 M66.77 80.57 C86.58 59.02, 102.93 36.7, 134.34 2.83 M66.77 80.57 C86.52 57.8, 108.1 32.51, 134.34 2.83 M77.4 80.53 C98.88 53.25, 120.42 30.37, 141.04 7.33 M77.4 80.53 C102.49 51.91, 126.36 22.37, 141.04 7.33 M88.03 80.5 C102.38 61.76, 118.24 45.43, 144.45 15.59 M88.03 80.5 C109.5 56.43, 128.83 34.12, 144.45 15.59 M98.66 80.46 C107.94 68.25, 121.71 57.03, 144.58 27.63 M98.66 80.46 C108.88 68.38, 118.44 58.01, 144.58 27.63 M109.29 80.43 C124.39 67.18, 136.22 50.44, 144.72 39.67 M109.29 80.43 C121.08 66.84, 132.25 54.79, 144.72 39.67 M119.92 80.39 C127.43 68.97, 137.97 61.28, 144.85 51.72 M119.92 80.39 C127.55 70.19, 136.11 61.85, 144.85 51.72 M132.52 78.1 C133.91 75.86, 138.81 71.9, 143.01 66.02 M132.52 78.1 C136.04 74.11, 140.2 69.22, 143.01 66.02" stroke="#a5d8ff" stroke-width="1" fill="none"></path><path d="M20 0 C48.87 -0.85, 80.46 1.15, 124.17 0 M20 0 C60.61 -0.56, 100.25 -0.44, 124.17 0 M124.17 0 C136.01 0.42, 142.5 7.76, 144.17 20 M124.17 0 C139.62 -1.06, 144.21 6.3, 144.17 20 M144.17 20 C145.08 32.13, 144.04 41.17, 144.17 60 M144.17 20 C143.82 28.39, 144.21 38.25, 144.17 60 M144.17 60 C143.51 75.11, 136.52 80.62, 124.17 80 M144.17 60 C144.06 71.28, 137.99 78.57, 124.17 80 M124.17 80 C93.06 80.65, 64.56 80.95, 20 80 M124.17 80 C96.48 81.96, 68.48 80.06, 20 80 M20 80 C7.47 81.75, 1.46 73.8, 0 60 M20 80 C6.25 78.46, -1.16 75.28, 0 60 M0 60 C-1.73 45.16, 1.83 33.46, 0 20 M0 60 C1 50.15, 1.12 40.46, 0 20 M0 20 C-0.99 6.65, 7.7 0.37, 20 0 M0 20 C-1.18 7.83, 6.02 -1.5, 20 0" stroke="#1e1e1e" stroke-width="2" fill="none"></path></g><g transform="translate(1196.2916259765625 315.83338419596475) rotate(0 45.51398468017578 17.5)"><text x="45.51398468017578" y="0" font-family="Virgil, Segoe UI Emoji" font-size="28px" fill="#1e1e1e" text-anchor="middle" style="white-space: pre;" direction="ltr" dominant-baseline="text-before-edge">Val: x </text></g><g mask="url(#mask-NEXG23VGSQyQonZHzen_p)" stroke-linecap="round"><g transform="translate(1051.2500890096028 336.08076137668104) rotate(0 53.333384195963504 -1.439517030712068)"><path d="M-0.25 0.1 C17.31 -0.48, 88.43 -2.56, 106.08 -3.09 M1.82 -0.89 C19.72 -1.33, 90.78 -1.51, 108.49 -1.66" stroke="#1e1e1e" stroke-width="2" fill="none"></path></g><g transform="translate(1051.2500890096028 336.08076137668104) rotate(0 53.333384195963504 -1.439517030712068)"><path d="M85.05 7.02 C93.59 2.98, 101.48 -0.8, 108.49 -1.66 M85.05 7.02 C91.5 4.37, 99.26 2.98, 108.49 -1.66" stroke="#1e1e1e" stroke-width="2" fill="none"></path></g><g transform="translate(1051.2500890096028 336.08076137668104) rotate(0 53.333384195963504 -1.439517030712068)"><path d="M84.95 -10.08 C93.59 -7.98, 101.51 -5.63, 108.49 -1.66 M84.95 -10.08 C91.39 -7.87, 99.19 -4.4, 108.49 -1.66" stroke="#1e1e1e" stroke-width="2" fill="none"></path></g></g><mask id="mask-NEXG23VGSQyQonZHzen_p"><rect x="0" y="0" fill="#fff" width="1257.9168574015298" height="438.9597954381052"></rect><rect x="1074.6094894409182" y="317.1412443459685" fill="#000" width="59.947967529296875" height="35" opacity="1"></rect></mask><g transform="translate(1074.609489440918 317.1412443459685) rotate(0 30.761777824708133 17.443925304711684)"><text x="29.973983764648438" y="0" font-family="Virgil, Segoe UI Emoji" font-size="28px" fill="#1e1e1e" text-anchor="middle" style="white-space: pre;" direction="ltr" dominant-baseline="text-before-edge">next</text></g><g stroke-linecap="round" transform="translate(905.8332316080732 493.88880411783975) rotate(0 72.08332061767578 40)"><path d="M2.85 7.77 C2.85 7.77, 2.85 7.77, 2.85 7.77 M2.85 7.77 C2.85 7.77, 2.85 7.77, 2.85 7.77 M1.01 22.08 C4.97 17.86, 11.05 10.96, 20.04 0.19 M1.01 22.08 C8.89 13.83, 15.99 5.39, 20.04 0.19 M1.14 34.12 C8.54 24.67, 17.61 15.47, 30.67 0.16 M1.14 34.12 C8.63 25.53, 16.93 16.12, 30.67 0.16 M1.28 46.16 C9.41 32.34, 22.65 21.9, 41.3 0.12 M1.28 46.16 C14.73 31.37, 26.2 16.09, 41.3 0.12 M0.75 58.96 C16 38.38, 32.54 20.76, 51.93 0.09 M0.75 58.96 C11.47 45.26, 23.79 32.18, 51.93 0.09 M2.2 69.49 C19.05 48.04, 35.22 29.52, 62.56 0.05 M2.2 69.49 C20.48 47.19, 40.83 25.76, 62.56 0.05 M6.93 76.25 C23.46 59.72, 39.95 37.36, 73.19 0.02 M6.93 76.25 C27.04 54.22, 47.89 29.98, 73.19 0.02 M14.93 79.23 C37.8 50.98, 64.04 23.49, 83.82 -0.01 M14.93 79.23 C41.9 49.79, 66.96 20.29, 83.82 -0.01 M24.25 80.7 C40.94 62.36, 56.62 41.77, 94.45 -0.05 M24.25 80.7 C49.17 50.93, 75.04 21.75, 94.45 -0.05 M34.88 80.67 C56.77 53.45, 81.19 27.68, 105.08 -0.08 M34.88 80.67 C61.45 51.3, 86.72 21.75, 105.08 -0.08 M45.51 80.64 C67.99 59.11, 85.76 33.8, 115.71 -0.12 M45.51 80.64 C72.13 50.47, 98.55 20.12, 115.71 -0.12 M56.14 80.6 C84.12 46.63, 111.67 16.83, 125.68 0.6 M56.14 80.6 C75.08 58.83, 95.05 36.7, 125.68 0.6 M66.77 80.57 C92.22 52.69, 114.96 23.44, 134.34 2.83 M66.77 80.57 C82.25 61.39, 97.09 42.95, 134.34 2.83 M77.4 80.53 C92.31 64.09, 104.88 46.55, 141.04 7.33 M77.4 80.53 C101.86 52.56, 126.62 25.4, 141.04 7.33 M88.03 80.5 C103.39 62.32, 114.89 46.47, 144.45 15.59 M88.03 80.5 C105.99 59.16, 125.71 37.86, 144.45 15.59 M98.66 80.46 C108.56 69.88, 119.26 56.48, 144.58 27.63 M98.66 80.46 C111.48 66.27, 125.55 51.95, 144.58 27.63 M109.29 80.43 C119.15 66.08, 131.03 56.76, 144.72 39.67 M109.29 80.43 C121.8 65.74, 134.78 52.68, 144.72 39.67 M119.92 80.39 C131.66 67.55, 140.04 59.53, 144.85 51.72 M119.92 80.39 C127.32 72.58, 133.64 63.8, 144.85 51.72 M132.52 78.1 C134.38 73.86, 139.3 71.28, 143.01 66.02 M132.52 78.1 C136.48 74.03, 138.52 70.78, 143.01 66.02" stroke="#eaddd7" stroke-width="1" fill="none"></path><path d="M20 0 C47.48 -2.01, 76.86 0.25, 124.17 0 M20 0 C46.34 -0.93, 72.64 -0.13, 124.17 0 M124.17 0 C139.16 0.89, 146.01 6.97, 144.17 20 M124.17 0 C138.43 -0.2, 144.55 8.77, 144.17 20 M144.17 20 C142.31 30.73, 142.18 42.85, 144.17 60 M144.17 20 C143.88 30.59, 145.33 43.29, 144.17 60 M144.17 60 C145.56 73.55, 138.37 80.16, 124.17 80 M144.17 60 C143.29 75.25, 135.75 81.46, 124.17 80 M124.17 80 C94.06 79.98, 66.36 80.51, 20 80 M124.17 80 C86.68 79.83, 49.34 80.43, 20 80 M20 80 C5.03 81.65, 0.12 72.17, 0 60 M20 80 C6.6 77.79, 2.04 73.72, 0 60 M0 60 C0.61 43.92, 0.79 28.81, 0 20 M0 60 C0.96 46.45, 0.02 33.82, 0 20 M0 20 C-1.01 6.83, 6.7 0.64, 20 0 M0 20 C0.73 6.07, 7.18 0.36, 20 0" stroke="#1e1e1e" stroke-width="2" fill="none"></path></g><g transform="translate(938.5345713297529 498.88880411783975) rotate(0 39.381980895996094 35)"><text x="39.381980895996094" y="0" font-family="Virgil, Segoe UI Emoji" font-size="28px" fill="#1e1e1e" text-anchor="middle" style="white-space: pre;" direction="ltr" dominant-baseline="text-before-edge">Type </text><text x="39.381980895996094" y="35" font-family="Virgil, Segoe UI Emoji" font-size="28px" fill="#1e1e1e" text-anchor="middle" style="white-space: pre;" direction="ltr" dominant-baseline="text-before-edge">INT</text></g><g stroke-linecap="round" transform="translate(1176.9443766276042 486.66656494140625) rotate(0 72.08332061767578 40)"><path d="M2.85 7.77 C2.85 7.77, 2.85 7.77, 2.85 7.77 M2.85 7.77 C2.85 7.77, 2.85 7.77, 2.85 7.77 M1.01 22.08 C7.57 13.81, 15.05 4.36, 20.04 0.19 M1.01 22.08 C6.86 15.86, 13.13 8.6, 20.04 0.19 M1.14 34.12 C13.49 21.14, 20.16 9.63, 30.67 0.16 M1.14 34.12 C12.02 21.78, 21.88 10.78, 30.67 0.16 M1.28 46.16 C16.39 27.69, 30.6 11.66, 41.3 0.12 M1.28 46.16 C14.37 30.97, 26.37 17.54, 41.3 0.12 M0.75 58.96 C14.6 40.24, 33.72 23.07, 51.93 0.09 M0.75 58.96 C18.22 39.92, 35 20.81, 51.93 0.09 M2.2 69.49 C19.84 45.15, 38.89 25.65, 62.56 0.05 M2.2 69.49 C21.74 46.68, 42.34 22.58, 62.56 0.05 M6.93 76.25 C24.35 58.93, 37.93 40.19, 73.19 0.02 M6.93 76.25 C21.59 59.87, 37.51 41.91, 73.19 0.02 M14.93 79.23 C42.87 46.52, 67.54 16.29, 83.82 -0.01 M14.93 79.23 C43.1 47.67, 68.94 16.22, 83.82 -0.01 M24.25 80.7 C52.28 50.08, 78.12 16.62, 94.45 -0.05 M24.25 80.7 C47.69 55.43, 67.76 30.02, 94.45 -0.05 M34.88 80.67 C50.25 64.25, 64.49 45.17, 105.08 -0.08 M34.88 80.67 C56.67 54.36, 80.08 30.38, 105.08 -0.08 M45.51 80.64 C66.79 55.32, 89 29.12, 115.71 -0.12 M45.51 80.64 C61.35 59.76, 78.71 40.63, 115.71 -0.12 M56.14 80.6 C79.75 53.27, 100.74 29.04, 125.68 0.6 M56.14 80.6 C80.63 54.34, 103.32 28.22, 125.68 0.6 M66.77 80.57 C83.2 63.99, 99.14 44.08, 134.34 2.83 M66.77 80.57 C87.05 56.96, 107.14 34.22, 134.34 2.83 M77.4 80.53 C102.61 51.82, 127.17 23.41, 141.04 7.33 M77.4 80.53 C93.88 63.01, 108.55 43.79, 141.04 7.33 M88.03 80.5 C105.65 60.83, 124.51 38.18, 144.45 15.59 M88.03 80.5 C105.73 59.17, 125.54 38.73, 144.45 15.59 M98.66 80.46 C115.63 63.08, 133.5 44.23, 144.58 27.63 M98.66 80.46 C109.99 66.89, 122.29 54.26, 144.58 27.63 M109.29 80.43 C116.16 70.82, 126.35 61.25, 144.72 39.67 M109.29 80.43 C123.39 65.09, 137.18 48.86, 144.72 39.67 M119.92 80.39 C127.01 72.92, 135.35 61.46, 144.85 51.72 M119.92 80.39 C128.65 69.83, 138.3 59.31, 144.85 51.72 M132.52 78.1 C136.43 73.46, 139.53 69.93, 143.01 66.02 M132.52 78.1 C135.13 73.96, 138.72 71.62, 143.01 66.02" stroke="#eaddd7" stroke-width="1" fill="none"></path><path d="M20 0 C60.01 1.07, 99.64 -0.87, 124.17 0 M20 0 C57.56 0.28, 94.73 -1.58, 124.17 0 M124.17 0 C137.27 -0.23, 144.66 5.72, 144.17 20 M124.17 0 C136.15 -2.11, 143.63 8.13, 144.17 20 M144.17 20 C143.76 32.8, 142.82 48.38, 144.17 60 M144.17 20 C143.78 32.23, 142.96 45.73, 144.17 60 M144.17 60 C143.04 72.61, 135.97 80.03, 124.17 80 M144.17 60 C146.01 72.02, 137.98 80.13, 124.17 80 M124.17 80 C99.15 77.11, 70.92 80.01, 20 80 M124.17 80 C90.86 78.96, 58.2 80.49, 20 80 M20 80 C8.14 80.9, -1.52 74.84, 0 60 M20 80 C8.65 81.69, 1.19 72.31, 0 60 M0 60 C1 46.4, 1.73 32.95, 0 20 M0 60 C-1.06 47, -0.53 35.2, 0 20 M0 20 C-1.17 6.88, 7.03 1.03, 20 0 M0 20 C0.46 7.62, 7.46 1.89, 20 0" stroke="#1e1e1e" stroke-width="2" fill="none"></path></g><g transform="translate(1209.645716349284 491.66656494140625) rotate(0 39.381980895996094 35)"><text x="39.381980895996094" y="0" font-family="Virgil, Segoe UI Emoji" font-size="28px" fill="#1e1e1e" text-anchor="middle" style="white-space: pre;" direction="ltr" dominant-baseline="text-before-edge">Type </text><text x="39.381980895996094" y="35" font-family="Virgil, Segoe UI Emoji" font-size="28px" fill="#1e1e1e" text-anchor="middle" style="white-space: pre;" direction="ltr" dominant-baseline="text-before-edge">INT</text></g><g mask="url(#mask-GjcI6-7I-mkPzY4-DACyr)" stroke-linecap="round"><g transform="translate(1055.4619389111317 533.2642050716431) rotate(0 53.333384195963504 -0.6338142690060522)"><path d="M0.93 -0.09 C18.43 -0.24, 88.18 -1.3, 105.78 -1.54 M-0.04 -1.19 C17.77 -1.1, 90.4 -0.28, 108.03 -0.15" stroke="#1e1e1e" stroke-width="2" fill="none"></path></g><g transform="translate(1055.4619389111317 533.2642050716431) rotate(0 53.333384195963504 -0.6338142690060522)"><path d="M84.46 8.18 C92.89 3.51, 101.13 1.8, 108.03 -0.15 M84.46 8.18 C91.87 6.32, 96.8 3, 108.03 -0.15" stroke="#1e1e1e" stroke-width="2" fill="none"></path></g><g transform="translate(1055.4619389111317 533.2642050716431) rotate(0 53.333384195963504 -0.6338142690060522)"><path d="M84.62 -8.92 C92.9 -7.4, 101.08 -2.91, 108.03 -0.15 M84.62 -8.92 C92.15 -6.06, 97.03 -4.67, 108.03 -0.15" stroke="#1e1e1e" stroke-width="2" fill="none"></path></g></g><mask id="mask-GjcI6-7I-mkPzY4-DACyr"><rect x="0" y="0" fill="#fff" width="1262.1287073030587" height="634.5318336096552"></rect><rect x="1078.8213393424467" y="515.1303908026366" fill="#000" width="59.947967529296875" height="35" opacity="1"></rect></mask><g transform="translate(1078.8213393424467 515.1303908026366) rotate(0 30.635263963760963 17.316774229705516)"><text x="29.973983764648438" y="0" font-family="Virgil, Segoe UI Emoji" font-size="28px" fill="#1e1e1e" text-anchor="middle" style="white-space: pre;" direction="ltr" dominant-baseline="text-before-edge">next</text></g><g mask="url(#mask-c8q5rRwGFVslgL7145Xx6)" stroke-linecap="round"><g transform="translate(972.3611323038735 382.2222391764335) rotate(0 0.555572509765625 51.666666666666515)"><path d="M0.64 -1.07 C0.95 16.25, 0.83 85.7, 0.81 102.93 M-0.49 0.99 C-0.26 18.56, -0.28 87.24, -0.3 104.25" stroke="#1e1e1e" stroke-width="2" fill="none"></path></g><g transform="translate(972.3611323038735 382.2222391764335) rotate(0 0.555572509765625 51.666666666666515)"><path d="M-8.84 80.75 C-9.01 85.17, -6.1 89.61, -0.3 104.25 M-8.84 80.75 C-7.89 85.89, -5.61 91.59, -0.3 104.25" stroke="#1e1e1e" stroke-width="2" fill="none"></path></g><g transform="translate(972.3611323038735 382.2222391764335) rotate(0 0.555572509765625 51.666666666666515)"><path d="M8.26 80.76 C4.48 85.26, 3.77 89.71, -0.3 104.25 M8.26 80.76 C5.59 85.79, 4.25 91.49, -0.3 104.25" stroke="#1e1e1e" stroke-width="2" fill="none"></path></g></g><mask id="mask-c8q5rRwGFVslgL7145Xx6"><rect x="0" y="0" fill="#fff" width="1073.4722773234048" height="585.5555725097665"></rect><rect x="943.8807245890298" y="416.38890584309956" fill="#000" width="58.07196044921875" height="35" opacity="1"></rect></mask><g transform="translate(943.8807245890298 416.38890584309956) rotate(0 28.662806531738624 17.423651432819497)"><text x="29.035980224609375" y="0" font-family="Virgil, Segoe UI Emoji" font-size="28px" fill="#1e1e1e" text-anchor="middle" style="white-space: pre;" direction="ltr" dominant-baseline="text-before-edge">type</text></g><g mask="url(#mask-lA-9JJsPtCXM7RMOH3_Eo)" stroke-linecap="round"><g transform="translate(1246.2398012344504 382.85416025337963) rotate(0 1.6744368168131132 49.18398859889612)"><path d="M1.02 0.78 C1.55 17.25, 1.89 81.85, 2.16 98.13 M0.09 0.14 C1.07 16.85, 3.41 82.93, 4.25 99.54" stroke="#1e1e1e" stroke-width="2" fill="none"></path></g><g transform="translate(1246.2398012344504 382.85416025337963) rotate(0 1.6744368168131132 49.18398859889612)"><path d="M-5.29 76.43 C-2.08 79.3, -1.74 85.03, 4.25 99.54 M-5.29 76.43 C-2.2 83.06, 1.37 90.31, 4.25 99.54" stroke="#1e1e1e" stroke-width="2" fill="none"></path></g><g transform="translate(1246.2398012344504 382.85416025337963) rotate(0 1.6744368168131132 49.18398859889612)"><path d="M11.8 75.71 C11.36 78.88, 8.05 84.76, 4.25 99.54 M11.8 75.71 C9.64 82.63, 7.98 90.11, 4.25 99.54" stroke="#1e1e1e" stroke-width="2" fill="none"></path></g></g><mask id="mask-lA-9JJsPtCXM7RMOH3_Eo"><rect x="0" y="0" fill="#fff" width="1349.5886748680766" height="581.2221374511719"></rect><rect x="1218.878257826654" y="414.5381488522762" fill="#000" width="58.07196044921875" height="35" opacity="1"></rect></mask><g transform="translate(1218.8782578266541 414.5381488522762) rotate(0 29.5344471679349 18.15782126399654)"><text x="29.035980224609375" y="0" font-family="Virgil, Segoe UI Emoji" font-size="28px" fill="#1e1e1e" text-anchor="middle" style="white-space: pre;" direction="ltr" dominant-baseline="text-before-edge">type</text></g><g mask="url(#mask-_A12_spRADJej-Y7UyYDD)" stroke-linecap="round"><g transform="translate(291.2499872843424 137.77781168619822) rotate(0 273.88890584309894 0.5555470784506724)"><path d="M0.63 -1.11 C91.88 -1.09, 457.59 0.23, 548.61 0.65 M-0.5 0.92 C90.58 1.06, 456.5 1.62, 548.11 1.94" stroke="#1e1e1e" stroke-width="2" fill="none"></path></g><g transform="translate(291.2499872843424 137.77781168619822) rotate(0 273.88890584309894 0.5555470784506724)"><path d="M524.59 10.44 C531.91 8.38, 542.21 1.96, 548.11 1.94 M524.59 10.44 C532.79 6.85, 539.27 4.24, 548.11 1.94" stroke="#1e1e1e" stroke-width="2" fill="none"></path></g><g transform="translate(291.2499872843424 137.77781168619822) rotate(0 273.88890584309894 0.5555470784506724)"><path d="M524.63 -6.66 C532.01 -2.02, 542.29 -1.74, 548.11 1.94 M524.63 -6.66 C532.79 -4.75, 539.25 -1.86, 548.11 1.94" stroke="#1e1e1e" stroke-width="2" fill="none"></path></g></g><mask id="mask-_A12_spRADJej-Y7UyYDD"><rect x="0" y="0" fill="#fff" width="939.0277989705403" height="238.88890584309956"></rect><rect x="535.164909362793" y="120.83335876464844" fill="#000" width="59.947967529296875" height="35" opacity="1"></rect></mask><g transform="translate(535.164909362793 120.83335876464844) rotate(0 30.144523758389937 17.358344961232888)"><text x="29.973983764648438" y="0" font-family="Virgil, Segoe UI Emoji" font-size="28px" fill="#1e1e1e" text-anchor="middle" style="white-space: pre;" direction="ltr" dominant-baseline="text-before-edge">next</text></g></svg>