<svg version="1.1" xmlns="http://www.w3.org/2000/svg" viewBox="0 0 1083.9038238525386 594.2585013110183" width="1083.9038238525386" height="594.2585013110183">
  <!-- svg-source:excalidraw -->
  
  <defs>
    <style class="style-fonts">
      @font-face {
        font-family: "Virgil";
        src: url("https://excalidraw.com/Virgil.woff2");
      }
      @font-face {
        font-family: "Cascadia";
        src: url("https://excalidraw.com/Cascadia.woff2");
      }
      @font-face {
        font-family: "Assistant";
        src: url("https://excalidraw.com/Assistant-Regular.woff2");
      }
    </style>
    
  </defs>
  <rect x="0" y="0" width="1083.9038238525386" height="594.2585013110183" fill="#ffffff"></rect><g stroke-linecap="round" transform="translate(20.441878055502116 342.5) rotate(0 124.45398773006133 36.5)"><path d="M18.25 0 C95.46 -0.83, 178.03 -0.34, 230.66 0 C239.82 -1.14, 248.12 3.36, 248.91 18.25 C248.67 26.53, 250.46 35.55, 248.91 54.75 C249.63 64.81, 241.75 74.78, 230.66 73 C171.92 76.7, 109.84 75.32, 18.25 73 C8.53 69.59, 2.64 68.96, 0 54.75 C-2.39 41.96, 0.31 36.53, 0 18.25 C3.06 4.71, 2.58 0.12, 18.25 0" stroke="none" stroke-width="0" fill="#ffec99"></path><path d="M18.25 0 C62.55 0.24, 107.85 0.47, 230.66 0 M18.25 0 C78.05 -0.52, 138.42 -0.97, 230.66 0 M230.66 0 C241.95 -1.89, 248.94 4.67, 248.91 18.25 M230.66 0 C242.04 2.13, 247.51 6.83, 248.91 18.25 M248.91 18.25 C250.76 27.27, 248.68 35.78, 248.91 54.75 M248.91 18.25 C249.94 32.78, 249.56 46.31, 248.91 54.75 M248.91 54.75 C250.59 66.98, 243.59 73.82, 230.66 73 M248.91 54.75 C248.35 66.1, 241.07 73.38, 230.66 73 M230.66 73 C160.63 72.91, 91.13 74.12, 18.25 73 M230.66 73 C147.15 74.22, 61.33 74.45, 18.25 73 M18.25 73 C5.76 74.03, -0.3 66.07, 0 54.75 M18.25 73 C4.57 70.95, -0.17 64.86, 0 54.75 M0 54.75 C0.21 47.99, -1.31 36.3, 0 18.25 M0 54.75 C0.87 43.77, 0.95 33.03, 0 18.25 M0 18.25 C-0.63 7.82, 5.77 -0.16, 18.25 0 M0 18.25 C1.8 3.86, 7.09 0.71, 18.25 0" stroke="#1e1e1e" stroke-width="2" fill="none"></path></g><g transform="translate(32.11192260929391 361.5) rotate(0 112.78394317626953 17.5)"><text x="112.78394317626953" y="24.528" font-family="Virgil, Segoe UI Emoji" font-size="28px" fill="#1e1e1e" text-anchor="middle" style="white-space: pre;" direction="ltr" dominant-baseline="alphabetic">BLOCK_SCOPES</text></g><g stroke-linecap="round" transform="translate(18.895865785563615 85) rotate(0 124.45398773006133 36.5)"><path d="M18.25 0 C70.58 4.06, 128.17 5.99, 230.66 0 C240.93 -3.14, 251.5 6.34, 248.91 18.25 C250.61 32.04, 251.19 43.98, 248.91 54.75 C246.91 63.32, 241.44 72.18, 230.66 73 C158.97 75.07, 87.53 73.99, 18.25 73 C7.38 73.23, -2.31 63.65, 0 54.75 C-2.25 45.94, -1.59 40.73, 0 18.25 C1.56 6.04, 3.95 1.82, 18.25 0" stroke="none" stroke-width="0" fill="#ffec99"></path><path d="M18.25 0 C71.39 -1.46, 123.23 0.19, 230.66 0 M18.25 0 C88.81 1.17, 160.18 1.53, 230.66 0 M230.66 0 C242.66 0.43, 246.93 5.78, 248.91 18.25 M230.66 0 C244.71 -1.05, 248.89 5.8, 248.91 18.25 M248.91 18.25 C250.51 29.06, 250.77 38.88, 248.91 54.75 M248.91 18.25 C249.11 27.32, 247.78 34.78, 248.91 54.75 M248.91 54.75 C249.78 66.01, 243.11 71.3, 230.66 73 M248.91 54.75 C250.15 65.99, 244.78 71.46, 230.66 73 M230.66 73 C188.33 73.35, 144.48 72.49, 18.25 73 M230.66 73 C172.55 72.16, 114.47 71.06, 18.25 73 M18.25 73 C8.01 73.18, 1.39 67.71, 0 54.75 M18.25 73 C4.16 73.95, 0.28 66.84, 0 54.75 M0 54.75 C0.09 38.94, -1.16 26.35, 0 18.25 M0 54.75 C0.81 41.39, 0.17 26.96, 0 18.25 M0 18.25 C-1.21 7.78, 7.17 1.33, 18.25 0 M0 18.25 C-1.85 8.33, 7.47 -1.07, 18.25 0" stroke="#1e1e1e" stroke-width="2" fill="none"></path></g><g transform="translate(70.03189086914062 104) rotate(0 73.31796264648438 17.5)"><text x="73.31796264648438" y="24.528" font-family="Virgil, Segoe UI Emoji" font-size="28px" fill="#1e1e1e" text-anchor="middle" style="white-space: pre;" direction="ltr" dominant-baseline="alphabetic">BlockScope</text></g><g mask="url(#mask-JKc_HQGsMq_kPy57NilX5)" stroke-linecap="round"><g transform="translate(139.84110568839435 339.5) rotate(0 -0.0035923982554919576 -90.25)"><path d="M-0.41 -0.27 C-0.05 -30.08, 1.01 -149.55, 1.02 -179.49 M1.58 -1.45 C1.97 -31.52, 1.09 -151.01, 0.6 -181.08" stroke="#1e1e1e" stroke-width="2" fill="none"></path></g><g transform="translate(139.84110568839435 339.5) rotate(0 -0.0035923982554919576 -90.25)"><path d="M9.41 -157.69 C7.29 -160.79, 7.61 -167.92, 0.6 -181.08 M9.41 -157.69 C6.74 -165.73, 3.4 -174.93, 0.6 -181.08" stroke="#1e1e1e" stroke-width="2" fill="none"></path></g><g transform="translate(139.84110568839435 339.5) rotate(0 -0.0035923982554919576 -90.25)"><path d="M-7.69 -157.5 C-6.32 -160.59, -2.5 -167.75, 0.6 -181.08 M-7.69 -157.5 C-4.37 -165.76, -1.7 -175.02, 0.6 -181.08" stroke="#1e1e1e" stroke-width="2" fill="none"></path></g></g><mask id="mask-JKc_HQGsMq_kPy57NilX5"><rect x="0" y="0" fill="#fff" width="239.84829048490533" height="620"></rect><rect x="109.86352952549043" y="231.75" fill="#000" width="59.947967529296875" height="35" opacity="1"></rect></mask><g transform="translate(109.86352952549042 231.75) rotate(0 30.610281792413772 17.074978691488468)"><text x="29.973983764648438" y="24.528" font-family="Virgil, Segoe UI Emoji" font-size="28px" fill="#1e1e1e" text-anchor="middle" style="white-space: pre;" direction="ltr" dominant-baseline="alphabetic">next</text></g><g stroke-linecap="round" transform="translate(394.8958657855637 510) rotate(0 124.9539877300613 36.5)"><path d="M18.25 0 C72.34 -0.44, 127.29 -5.55, 231.66 0 C245.44 1.88, 252.29 7.67, 249.91 18.25 C251.89 26.81, 246.29 39.54, 249.91 54.75 C253.29 67.8, 244.03 70.02, 231.66 73 C152.95 73.81, 70 71.08, 18.25 73 C6.85 76.43, -0.04 64.49, 0 54.75 C2.18 38.69, 2.7 29.91, 0 18.25 C3.49 7.42, 9.62 3.56, 18.25 0" stroke="none" stroke-width="0" fill="#fa5252"></path><path d="M18.25 0 C95.68 0.91, 175.64 0.09, 231.66 0 M18.25 0 C83.06 -0.99, 148.26 -1.89, 231.66 0 M231.66 0 C245.21 -1.84, 248.41 7.43, 249.91 18.25 M231.66 0 C244.96 1.34, 251.37 6.72, 249.91 18.25 M249.91 18.25 C250.23 32.55, 248.09 47.79, 249.91 54.75 M249.91 18.25 C250.48 28.87, 250.99 37.37, 249.91 54.75 M249.91 54.75 C250.57 67.08, 242.96 73.47, 231.66 73 M249.91 54.75 C248.74 67.57, 244.42 73.41, 231.66 73 M231.66 73 C150.04 71.55, 65.81 74.21, 18.25 73 M231.66 73 C156.39 72, 82.85 70.62, 18.25 73 M18.25 73 C7.48 72.09, -0.26 67.1, 0 54.75 M18.25 73 C8.2 70.85, -0.21 67.92, 0 54.75 M0 54.75 C0.74 43.09, -0.72 26.43, 0 18.25 M0 54.75 C0.49 47.8, 1.15 39.98, 0 18.25 M0 18.25 C-0.42 7.45, 7.1 -1.7, 18.25 0 M0 18.25 C0.31 4.65, 5.19 -0.3, 18.25 0" stroke="#1e1e1e" stroke-width="2" fill="none"></path></g><g transform="translate(459.3978805541992 529) rotate(0 60.45197296142578 17.5)"><text x="60.45197296142578" y="24.528" font-family="Virgil, Segoe UI Emoji" font-size="28px" fill="#1e1e1e" text-anchor="middle" style="white-space: pre;" direction="ltr" dominant-baseline="alphabetic">VarScope</text></g><g mask="url(#mask-TV636Dv_7UNOlzgPdW2EC)" stroke-linecap="round"><g transform="translate(270.0276925395424 417.38163074423574) rotate(0 55.40891818385694 63.9587529991295)"><path d="M0.58 -0.47 C19.14 21.17, 92.25 107.4, 110.77 128.73 M-0.57 -1.76 C17.87 19.64, 91.13 105.31, 109.8 127.04" stroke="#1e1e1e" stroke-width="2" fill="none"></path></g><g transform="translate(270.0276925395424 417.38163074423574) rotate(0 55.40891818385694 63.9587529991295)"><path d="M88.02 114.76 C92.69 117.71, 100.37 122.45, 109.8 127.04 M88.02 114.76 C93.96 118.36, 99.95 121.37, 109.8 127.04" stroke="#1e1e1e" stroke-width="2" fill="none"></path></g><g transform="translate(270.0276925395424 417.38163074423574) rotate(0 55.40891818385694 63.9587529991295)"><path d="M101.01 103.63 C102.26 109.49, 106.63 117.06, 109.8 127.04 M101.01 103.63 C103.45 110.13, 105.97 116.11, 109.8 127.04" stroke="#1e1e1e" stroke-width="2" fill="none"></path></g></g><mask id="mask-TV636Dv_7UNOlzgPdW2EC"><rect x="0" y="0" fill="#fff" width="480.84552890725627" height="645.2991367424947"></rect><rect x="295.1546206721298" y="463.84038374336524" fill="#000" width="60.56398010253906" height="35" opacity="1"></rect></mask><g transform="translate(295.1546206721298 463.84038374336524) rotate(0 29.975282481173025 17.028883872916595)"><text x="30.28199005126953" y="24.528" font-family="Virgil, Segoe UI Emoji" font-size="28px" fill="#1e1e1e" text-anchor="middle" style="white-space: pre;" direction="ltr" dominant-baseline="alphabetic">vars</text></g><g stroke-linecap="round" transform="translate(392.11616315811796 219.5) rotate(0 124.95398773006133 36.5)"><path d="M18.25 0 C83.7 2.74, 144.25 4.89, 231.66 0 C241.06 -2.18, 249.99 9.23, 249.91 18.25 C247.28 25.45, 253.35 37.19, 249.91 54.75 C247.78 69.46, 244.03 73.85, 231.66 73 C165.56 75.61, 100.86 77.21, 18.25 73 C4.27 72.93, 3.08 67.89, 0 54.75 C-0.51 49.18, -0.7 41.43, 0 18.25 C2.62 3.09, 7.87 3.08, 18.25 0" stroke="none" stroke-width="0" fill="#fa5252"></path><path d="M18.25 0 C100.62 -0.98, 182.32 -0.89, 231.66 0 M18.25 0 C71.32 0.69, 122.77 0.87, 231.66 0 M231.66 0 C242.17 1.52, 249.59 6.54, 249.91 18.25 M231.66 0 C244.35 -1.48, 250.79 5.78, 249.91 18.25 M249.91 18.25 C249.23 29.71, 251.18 44.24, 249.91 54.75 M249.91 18.25 C250.14 32.2, 250.33 45.81, 249.91 54.75 M249.91 54.75 C251.02 66.6, 245.22 71.66, 231.66 73 M249.91 54.75 C252.02 66.29, 243 72.54, 231.66 73 M231.66 73 C178.7 74.36, 127.12 72.79, 18.25 73 M231.66 73 C153.42 73.54, 75.84 73.73, 18.25 73 M18.25 73 C4.91 73.19, 0.63 68.41, 0 54.75 M18.25 73 C5.3 74.59, 0.51 65.27, 0 54.75 M0 54.75 C1.02 45, 1.88 35.36, 0 18.25 M0 54.75 C0.12 43.74, -0.61 31.71, 0 18.25 M0 18.25 C1.68 4.93, 4.26 0.26, 18.25 0 M0 18.25 C1.83 4.96, 6.21 0.03, 18.25 0" stroke="#1e1e1e" stroke-width="2" fill="none"></path></g><g transform="translate(456.6181779267535 238.5) rotate(0 60.45197296142578 17.5)"><text x="60.45197296142578" y="24.528" font-family="Virgil, Segoe UI Emoji" font-size="28px" fill="#1e1e1e" text-anchor="middle" style="white-space: pre;" direction="ltr" dominant-baseline="alphabetic">VarScope</text></g><g mask="url(#mask-Q0GcmqYUnniY7AQd-GRRh)" stroke-linecap="round"><g transform="translate(283.244799961076 126.88277683978777) rotate(0 47.4105131593673 63.71644490593462)"><path d="M-0.56 -0.65 C15.5 20.54, 79.71 105.73, 95.77 127.13 M1.35 1.62 C17.39 22.99, 79.63 107.24, 95.32 128.5" stroke="#1e1e1e" stroke-width="2" fill="none"></path></g><g transform="translate(283.244799961076 126.88277683978777) rotate(0 47.4105131593673 63.71644490593462)"><path d="M74.48 114.69 C78.55 119.79, 84.29 123.2, 95.32 128.5 M74.48 114.69 C80.36 119.83, 87.78 123.78, 95.32 128.5" stroke="#1e1e1e" stroke-width="2" fill="none"></path></g><g transform="translate(283.244799961076 126.88277683978777) rotate(0 47.4105131593673 63.71644490593462)"><path d="M88.24 104.53 C88.89 112.08, 91.23 118.01, 95.32 128.5 M88.24 104.53 C89.64 113.02, 92.6 120.26, 95.32 128.5" stroke="#1e1e1e" stroke-width="2" fill="none"></path></g></g><mask id="mask-Q0GcmqYUnniY7AQd-GRRh"><rect x="0" y="0" fill="#fff" width="478.0658262798106" height="354.315666651657"></rect><rect x="300.3733230691738" y="173.0992217457224" fill="#000" width="60.56398010253906" height="35" opacity="1"></rect></mask><g transform="translate(300.37332306917386 173.0992217457224) rotate(0 30.474567786976664 17.70833247154951)"><text x="30.28199005126953" y="24.528" font-family="Virgil, Segoe UI Emoji" font-size="28px" fill="#1e1e1e" text-anchor="middle" style="white-space: pre;" direction="ltr" dominant-baseline="alphabetic">vars</text></g><g stroke-linecap="round" transform="translate(767.266532897949 499.5) rotate(0 72.08332061767578 40)"><path d="M20 0 C54.56 -0.44, 97.71 0.02, 124.17 0 C138.74 0.47, 141.63 6.49, 144.17 20 C146.78 33.58, 143.46 54.08, 144.17 60 C141.16 74.22, 137.29 83.4, 124.17 80 C102.66 79.19, 77.56 79.57, 20 80 C7.91 76.44, 2.55 70.12, 0 60 C-1.27 44.17, -2.78 29.21, 0 20 C1.8 9.55, 3.24 0.67, 20 0" stroke="none" stroke-width="0" fill="#38d9a9"></path><path d="M20 0 C50.09 0.39, 81.1 1.19, 124.17 0 M20 0 C50.64 0.11, 79.31 0.47, 124.17 0 M124.17 0 C137.71 -1.91, 143.97 5.63, 144.17 20 M124.17 0 C137.88 -1.84, 142.31 4.91, 144.17 20 M144.17 20 C144.55 30.03, 144.77 36.03, 144.17 60 M144.17 20 C144.99 30.9, 143.2 39.65, 144.17 60 M144.17 60 C144.26 75.22, 136.6 81.35, 124.17 80 M144.17 60 C143.13 75.06, 139.08 80.41, 124.17 80 M124.17 80 C92.39 78.75, 60.6 80, 20 80 M124.17 80 C87.9 81.41, 52.64 80.19, 20 80 M20 80 C8.17 79.72, -0.44 74.4, 0 60 M20 80 C8.75 78.04, 1.5 72.52, 0 60 M0 60 C0.08 50.53, 1.83 37.64, 0 20 M0 60 C-0.97 48.16, -0.4 35.86, 0 20 M0 20 C-0.8 4.75, 7.74 0.89, 20 0 M0 20 C1.36 5.69, 8.29 -1.67, 20 0" stroke="#1e1e1e" stroke-width="2" fill="none"></path></g><g transform="translate(797.9938735961912 522) rotate(0 41.355979919433594 17.5)"><text x="41.355979919433594" y="24.528" font-family="Virgil, Segoe UI Emoji" font-size="28px" fill="#1e1e1e" text-anchor="middle" style="white-space: pre;" direction="ltr" dominant-baseline="alphabetic">Var: X</text></g><g stroke-linecap="round" transform="translate(758.266532897949 219.5) rotate(0 72.08332061767578 40)"><path d="M20 0 C50.65 0.81, 80.41 1.37, 124.17 0 C140.38 1.59, 146.76 8.74, 144.17 20 C146.7 27.21, 143.23 38.41, 144.17 60 C143.75 71.03, 139.19 78.77, 124.17 80 C94.08 78.72, 62.08 79.8, 20 80 C5.65 82.93, -2.68 73.94, 0 60 C0.43 46.17, 2.6 30.66, 0 20 C0.07 8.7, 7.1 -2.58, 20 0" stroke="none" stroke-width="0" fill="#38d9a9"></path><path d="M20 0 C55.08 -0.79, 92.32 1.03, 124.17 0 M20 0 C59.49 -0.87, 99.98 -0.73, 124.17 0 M124.17 0 C138.79 1.24, 142.38 5.88, 144.17 20 M124.17 0 C136.23 -0.95, 143.26 8.14, 144.17 20 M144.17 20 C145.15 29.29, 144.65 37.99, 144.17 60 M144.17 20 C144.05 30.17, 145.53 39.76, 144.17 60 M144.17 60 C143.18 73.3, 138.86 79.82, 124.17 80 M144.17 60 C142.77 72.27, 138.55 78.81, 124.17 80 M124.17 80 C87.44 80.44, 53.62 81.92, 20 80 M124.17 80 C83.23 81.02, 40.74 81.68, 20 80 M20 80 C5.3 80.19, 0.52 74.53, 0 60 M20 80 C6.43 78.01, -0.23 74.28, 0 60 M0 60 C-1.43 47.18, -0.3 31.78, 0 20 M0 60 C-0.74 50.16, 0.92 38.32, 0 20 M0 20 C-1.81 6.05, 7.98 -0.72, 20 0 M0 20 C0.53 5.41, 5.04 1.02, 20 0" stroke="#1e1e1e" stroke-width="2" fill="none"></path></g><g transform="translate(788.9938735961912 242) rotate(0 41.355979919433594 17.5)"><text x="41.355979919433594" y="24.528" font-family="Virgil, Segoe UI Emoji" font-size="28px" fill="#1e1e1e" text-anchor="middle" style="white-space: pre;" direction="ltr" dominant-baseline="alphabetic">Var: X</text></g><g mask="url(#mask-r7V-fz8UUQ2thAFxKiXmI)" stroke-linecap="round"><g transform="translate(643.0241386182406 258.96656041593815) rotate(0 55.16285744869208 0.020534165393655712)"><path d="M0.7 -0.07 C18.88 -0.04, 91.88 -0.2, 110.02 -0.03 M-0.39 -1.16 C17.52 -0.91, 90.17 1.43, 108.92 1.46" stroke="#1e1e1e" stroke-width="2" fill="none"></path></g><g transform="translate(643.0241386182406 258.96656041593815) rotate(0 55.16285744869208 0.020534165393655712)"><path d="M85.27 9.57 C94.1 5.86, 103.04 2.06, 108.92 1.46 M85.27 9.57 C94.31 5.82, 102.76 3.97, 108.92 1.46" stroke="#1e1e1e" stroke-width="2" fill="none"></path></g><g transform="translate(643.0241386182406 258.96656041593815) rotate(0 55.16285744869208 0.020534165393655712)"><path d="M85.59 -7.53 C94.27 -4.77, 103.09 -2.11, 108.92 1.46 M85.59 -7.53 C94.61 -4.88, 102.94 -0.33, 108.92 1.46" stroke="#1e1e1e" stroke-width="2" fill="none"></path></g></g><mask id="mask-r7V-fz8UUQ2thAFxKiXmI"><rect x="0" y="0" fill="#fff" width="853.3498535156248" height="359.00762874672546"></rect><rect x="675.5070033911516" y="241.4870945813309" fill="#000" width="45.3599853515625" height="35" opacity="1"></rect></mask><g transform="translate(675.5070033911514 241.4870945813309) rotate(0 22.33123696834781 17.632312811073007)"><text x="22.67999267578125" y="24.528" font-family="Virgil, Segoe UI Emoji" font-size="28px" fill="#1e1e1e" text-anchor="middle" style="white-space: pre;" direction="ltr" dominant-baseline="alphabetic">var</text></g><g mask="url(#mask-XwVdI1aHTVBaGZXggNwNA)" stroke-linecap="round"><g transform="translate(660.5357517743663 541.6806918472794) rotate(0 45.66285744869202 1.746003969056801)"><path d="M-0.33 -0.19 C14.79 0.66, 75.83 3.99, 90.99 4.53 M1.71 -1.33 C16.61 -0.75, 75.23 2.04, 89.87 2.96" stroke="#1e1e1e" stroke-width="2" fill="none"></path></g><g transform="translate(660.5357517743663 541.6806918472794) rotate(0 45.66285744869202 1.746003969056801)"><path d="M65.95 10.23 C73.43 7.38, 83.23 4.46, 89.87 2.96 M65.95 10.23 C72.96 8.95, 79.3 5.55, 89.87 2.96" stroke="#1e1e1e" stroke-width="2" fill="none"></path></g><g transform="translate(660.5357517743663 541.6806918472794) rotate(0 45.66285744869202 1.746003969056801)"><path d="M66.87 -6.84 C73.98 -4.16, 83.48 -1.54, 89.87 2.96 M66.87 -6.84 C73.8 -3.62, 79.89 -2.5, 89.87 2.96" stroke="#1e1e1e" stroke-width="2" fill="none"></path></g></g><mask id="mask-XwVdI1aHTVBaGZXggNwNA"><rect x="0" y="0" fill="#fff" width="851.8614666717503" height="645.172699785393"></rect><rect x="683.518616547277" y="525.9266958163353" fill="#000" width="45.3599853515625" height="35" opacity="1"></rect></mask><g transform="translate(683.518616547277 525.9266958163353) rotate(0 22.351008967682674 17.355875933618336)"><text x="22.67999267578125" y="24.528" font-family="Virgil, Segoe UI Emoji" font-size="28px" fill="#1e1e1e" text-anchor="middle" style="white-space: pre;" direction="ltr" dominant-baseline="alphabetic">var</text></g><g transform="translate(10 10) rotate(0 316.9038391113281 17.5)"><text x="0" y="24.528" font-family="Virgil, Segoe UI Emoji" font-size="28px" fill="#1e1e1e" text-anchor="start" style="white-space: pre;" direction="ltr" dominant-baseline="alphabetic">int main() { int x = 3; {int x = 4} return x }</text></g><g mask="url(#mask-bCezKAKSQUphIlCD4gaSq)" stroke-linecap="round"><g transform="translate(1019.3498535156245 584.5) rotate(0 0.5 -260)"><path d="M0.73 -0.24 C0.83 -87.07, 0.28 -433.84, 0.42 -520.41 M-0.34 -1.41 C0.17 -88.12, 2.58 -432.95, 2.82 -519.09" stroke="#1e1e1e" stroke-width="2" fill="none"></path></g><g transform="translate(1019.3498535156245 584.5) rotate(0 0.5 -260)"><path d="M11.25 -495.55 C8.33 -503.21, 5.63 -508.04, 2.82 -519.09 M11.25 -495.55 C7.62 -503.91, 5.7 -511.6, 2.82 -519.09" stroke="#1e1e1e" stroke-width="2" fill="none"></path></g><g transform="translate(1019.3498535156245 584.5) rotate(0 0.5 -260)"><path d="M-5.85 -495.64 C-3.88 -503.38, -1.67 -508.18, 2.82 -519.09 M-5.85 -495.64 C-3.9 -503.98, -0.26 -511.64, 2.82 -519.09" stroke="#1e1e1e" stroke-width="2" fill="none"></path></g></g><mask id="mask-bCezKAKSQUphIlCD4gaSq"><rect x="0" y="0" fill="#fff" width="1120.3498535156245" height="1204.5"></rect><rect x="965.7958831787105" y="307" fill="#000" width="108.10794067382812" height="35" opacity="1"></rect></mask><g transform="translate(965.7958831787105 307) rotate(0 54.79413874603807 17.17433847375196)"><text x="54.05397033691406" y="24.528" font-family="Virgil, Segoe UI Emoji" font-size="28px" fill="#1e1e1e" text-anchor="middle" style="white-space: pre;" direction="ltr" dominant-baseline="alphabetic">find var</text></g></svg>