<svg version="1.1" xmlns="http://www.w3.org/2000/svg" viewBox="0 0 946.6666030883789 779.1666412353516" width="946.6666030883789" height="779.1666412353516">
  <!-- svg-source:excalidraw -->
  
  <defs>
    <style class="style-fonts">
      @font-face {
        font-family: "Virgil";
        src: url("https://excalidraw.com/Virgil.woff2");
      }
      @font-face {
        font-family: "Cascadia";
        src: url("https://excalidraw.com/Cascadia.woff2");
      }
      @font-face {
        font-family: "Assistant";
        src: url("https://excalidraw.com/Assistant-Regular.woff2");
      }
    </style>
    
  </defs>
  <rect x="0" y="0" width="946.6666030883789" height="779.1666412353516" fill="#ffffff"></rect><g transform="translate(10 28.333358764648438) rotate(0 143.48593139648438 17.5)"><text x="0" y="0" font-family="Virgil, Segoe UI Emoji" font-size="28px" fill="#1e1e1e" text-anchor="start" style="white-space: pre;" direction="ltr" dominant-baseline="text-before-edge">{ x=3; return *&amp;x; }</text></g><g stroke-linecap="round" transform="translate(435.4166793823242 203.33337783813477) rotate(0 72.08332061767578 40)"><path d="M2.85 7.77 C2.85 7.77, 2.85 7.77, 2.85 7.77 M2.85 7.77 C2.85 7.77, 2.85 7.77, 2.85 7.77 M1.01 22.08 C9.42 13.74, 15.4 6.09, 20.04 0.19 M1.01 22.08 C7.37 15.09, 14.56 5.98, 20.04 0.19 M1.14 34.12 C9.68 21.98, 18.88 13.43, 30.67 0.16 M1.14 34.12 C10.33 23.3, 19.73 12.09, 30.67 0.16 M1.28 46.16 C11.26 35.27, 23.74 22.53, 41.3 0.12 M1.28 46.16 C12.62 34.34, 23.52 19.83, 41.3 0.12 M0.75 58.96 C13.35 42.97, 24.06 31.4, 51.93 0.09 M0.75 58.96 C21.04 35.99, 39.65 14.24, 51.93 0.09 M2.2 69.49 C25.47 43.57, 48.64 16.97, 62.56 0.05 M2.2 69.49 C21.17 46.26, 41.49 23.54, 62.56 0.05 M6.93 76.25 C24.08 56.72, 43.35 34.83, 73.19 0.02 M6.93 76.25 C21.35 59.2, 35.77 43.43, 73.19 0.02 M14.93 79.23 C39.91 49.93, 67.77 20.56, 83.82 -0.01 M14.93 79.23 C32.27 58.54, 49.8 39.59, 83.82 -0.01 M24.25 80.7 C43.15 59.88, 64.15 34.22, 94.45 -0.05 M24.25 80.7 C40.12 62.43, 56.19 43.1, 94.45 -0.05 M34.88 80.67 C59.52 50.37, 85.63 19.31, 105.08 -0.08 M34.88 80.67 C51.9 59.74, 69.28 40.35, 105.08 -0.08 M45.51 80.64 C68.45 51.47, 93.8 24.72, 115.71 -0.12 M45.51 80.64 C67.69 53.96, 91.55 28.26, 115.71 -0.12 M56.14 80.6 C77.19 56.99, 99.17 32.42, 125.68 0.6 M56.14 80.6 C73.03 62.1, 87.86 44.21, 125.68 0.6 M66.77 80.57 C84.92 59.11, 106.63 36.89, 134.34 2.83 M66.77 80.57 C93.65 50.12, 120.18 20.46, 134.34 2.83 M77.4 80.53 C90.9 66.74, 105.5 48.28, 141.04 7.33 M77.4 80.53 C99.54 54.4, 121.59 29, 141.04 7.33 M88.03 80.5 C99.3 65.56, 113.7 51.19, 144.45 15.59 M88.03 80.5 C108.92 57.02, 128.22 33.9, 144.45 15.59 M98.66 80.46 C113.97 66.37, 126.24 50.34, 144.58 27.63 M98.66 80.46 C112.64 62.71, 127.95 46.59, 144.58 27.63 M109.29 80.43 C123.08 65.15, 135.08 50.58, 144.72 39.67 M109.29 80.43 C116.28 71.66, 123.98 64.56, 144.72 39.67 M119.92 80.39 C126.86 73.14, 134.67 64.06, 144.85 51.72 M119.92 80.39 C126 74.18, 132.37 66.88, 144.85 51.72 M132.52 78.1 C136.56 73.02, 140.18 69.98, 143.01 66.02 M132.52 78.1 C135.74 74.78, 139.7 70.8, 143.01 66.02" stroke="#ffc9c9" stroke-width="1" fill="none"></path><path d="M20 0 C39.85 0.44, 64.54 -1.51, 124.17 0 M20 0 C47.67 0.6, 74.8 0.24, 124.17 0 M124.17 0 C139.37 0.1, 142.96 7.33, 144.17 20 M124.17 0 C136.56 -2.05, 142.57 4.43, 144.17 20 M144.17 20 C144.43 34.96, 145.19 52.72, 144.17 60 M144.17 20 C143.65 30.53, 144.73 41.18, 144.17 60 M144.17 60 C145.59 72.83, 139.41 81.78, 124.17 80 M144.17 60 C141.91 74.54, 135.98 77.98, 124.17 80 M124.17 80 C95.49 81.43, 66.06 81.14, 20 80 M124.17 80 C91.05 81.56, 56.35 80.44, 20 80 M20 80 C6.05 81.14, -0.07 73.99, 0 60 M20 80 C5.28 80.34, 1.57 73.84, 0 60 M0 60 C-1.11 47.99, 1.97 37.97, 0 20 M0 60 C0.55 43.8, 0.59 28.42, 0 20 M0 20 C1.93 7.7, 6.78 -0.57, 20 0 M0 20 C-1.28 6.85, 8.22 0.99, 20 0" stroke="#1e1e1e" stroke-width="2" fill="none"></path></g><g transform="translate(475.2160110473633 208.33337783813477) rotate(0 32.28398895263672 35)"><text x="32.28398895263672" y="0" font-family="Virgil, Segoe UI Emoji" font-size="28px" fill="#1e1e1e" text-anchor="middle" style="white-space: pre;" direction="ltr" dominant-baseline="text-before-edge">Expr</text><text x="32.28398895263672" y="35" font-family="Virgil, Segoe UI Emoji" font-size="28px" fill="#1e1e1e" text-anchor="middle" style="white-space: pre;" direction="ltr" dominant-baseline="text-before-edge">stmt</text></g><g stroke-linecap="round" transform="translate(433.74996185302734 10) rotate(0 72.08332061767578 40)"><path d="M2.85 7.77 C2.85 7.77, 2.85 7.77, 2.85 7.77 M2.85 7.77 C2.85 7.77, 2.85 7.77, 2.85 7.77 M1.01 22.08 C6.27 19.02, 8.93 13.07, 20.04 0.19 M1.01 22.08 C8.25 13.33, 14.6 5.79, 20.04 0.19 M1.14 34.12 C8.41 25, 18.58 14.4, 30.67 0.16 M1.14 34.12 C9.64 24.14, 17.94 14.65, 30.67 0.16 M1.28 46.16 C10.62 34.9, 22.4 20.8, 41.3 0.12 M1.28 46.16 C14.65 31.67, 26.75 16.34, 41.3 0.12 M0.75 58.96 C20.44 37.52, 38.44 16.89, 51.93 0.09 M0.75 58.96 C14 44.42, 27.43 29.81, 51.93 0.09 M2.2 69.49 C24.12 41.18, 47.65 18.58, 62.56 0.05 M2.2 69.49 C20.7 48.68, 37.53 27.85, 62.56 0.05 M6.93 76.25 C26.31 50.88, 49.65 29.74, 73.19 0.02 M6.93 76.25 C29.09 50.38, 50.65 23.68, 73.19 0.02 M14.93 79.23 C37.56 54.7, 60.11 30.64, 83.82 -0.01 M14.93 79.23 C34.83 55.33, 53.43 32.73, 83.82 -0.01 M24.25 80.7 C51.69 52.09, 75.49 21.75, 94.45 -0.05 M24.25 80.7 C39.43 62.1, 54.64 44.33, 94.45 -0.05 M34.88 80.67 C61.36 53.9, 82.18 26.24, 105.08 -0.08 M34.88 80.67 C58.63 53.68, 82.28 25.6, 105.08 -0.08 M45.51 80.64 C67.05 52.43, 93.04 28.64, 115.71 -0.12 M45.51 80.64 C69.54 52.59, 92.14 25.31, 115.71 -0.12 M56.14 80.6 C77.92 57.91, 96.05 35.4, 125.68 0.6 M56.14 80.6 C80.88 52.15, 104.22 25.57, 125.68 0.6 M66.77 80.57 C79.69 66.33, 94.86 48.54, 134.34 2.83 M66.77 80.57 C90.17 55.04, 113.97 28.46, 134.34 2.83 M77.4 80.53 C95.76 58.23, 111.72 40.22, 141.04 7.33 M77.4 80.53 C91.24 63.35, 107.29 47.32, 141.04 7.33 M88.03 80.5 C105.36 57.51, 126.5 33.44, 144.45 15.59 M88.03 80.5 C104.3 63.01, 119.33 46.51, 144.45 15.59 M98.66 80.46 C108.59 69.11, 118.63 57.57, 144.58 27.63 M98.66 80.46 C116.35 60.06, 133.56 40.16, 144.58 27.63 M109.29 80.43 C121.22 68.9, 134.25 54.6, 144.72 39.67 M109.29 80.43 C122.73 65.46, 134.38 50.38, 144.72 39.67 M119.92 80.39 C128.88 73.36, 135.79 63.37, 144.85 51.72 M119.92 80.39 C129.54 70.08, 139.68 57.42, 144.85 51.72 M132.52 78.1 C136.61 74.01, 138.42 70.37, 143.01 66.02 M132.52 78.1 C135.06 75.11, 137.64 73.12, 143.01 66.02" stroke="#ffec99" stroke-width="1" fill="none"></path><path d="M20 0 C51.87 0.61, 84.99 -0.05, 124.17 0 M20 0 C55.28 -0.55, 88.78 -0.84, 124.17 0 M124.17 0 C137.63 -0.84, 143.78 8.63, 144.17 20 M124.17 0 C135.78 -0.81, 145.76 6.62, 144.17 20 M144.17 20 C144.67 34.29, 142.95 48.54, 144.17 60 M144.17 20 C145.14 32.11, 144.67 45.75, 144.17 60 M144.17 60 C144.54 72.41, 138.95 78.79, 124.17 80 M144.17 60 C145.15 71.06, 138.6 80.38, 124.17 80 M124.17 80 C93.7 80.34, 65.99 77.24, 20 80 M124.17 80 C99.45 79.22, 74.91 78.69, 20 80 M20 80 C8.06 78.95, 0.72 71.59, 0 60 M20 80 C6.46 78.16, -1.58 72.06, 0 60 M0 60 C-1.35 50.43, -0.61 44.66, 0 20 M0 60 C-1.08 51.4, -0.95 42.43, 0 20 M0 20 C1.42 5.45, 5.59 -0.61, 20 0 M0 20 C0.08 8.46, 6.91 -0.06, 20 0" stroke="#1e1e1e" stroke-width="2" fill="none"></path></g><g transform="translate(470.37129974365234 32.5) rotate(0 35.46198272705078 17.5)"><text x="35.46198272705078" y="0" font-family="Virgil, Segoe UI Emoji" font-size="28px" fill="#1e1e1e" text-anchor="middle" style="white-space: pre;" direction="ltr" dominant-baseline="text-before-edge">Block</text></g><g stroke-linecap="round" transform="translate(784.1666030883789 202.50003814697266) rotate(0 72.08332061767578 40)"><path d="M2.85 7.77 C2.85 7.77, 2.85 7.77, 2.85 7.77 M2.85 7.77 C2.85 7.77, 2.85 7.77, 2.85 7.77 M1.01 22.08 C7.65 15.67, 11.54 8.21, 20.04 0.19 M1.01 22.08 C5.69 16.47, 9.43 12.95, 20.04 0.19 M1.14 34.12 C8.69 25.66, 15.25 20.49, 30.67 0.16 M1.14 34.12 C7.46 28.08, 13.11 20.38, 30.67 0.16 M1.28 46.16 C12.46 33.35, 20.49 23.19, 41.3 0.12 M1.28 46.16 C15.27 30.46, 28.39 14.73, 41.3 0.12 M0.75 58.96 C20.44 35.87, 39.28 11.77, 51.93 0.09 M0.75 58.96 C18.71 38.18, 37.98 16.51, 51.93 0.09 M2.2 69.49 C26.28 45.33, 48.47 15.96, 62.56 0.05 M2.2 69.49 C18.08 50.87, 35.06 32.71, 62.56 0.05 M6.93 76.25 C28.78 50.36, 50.32 24.05, 73.19 0.02 M6.93 76.25 C22.99 56.7, 41.17 36.78, 73.19 0.02 M14.93 79.23 C31.46 62.29, 46.34 46.34, 83.82 -0.01 M14.93 79.23 C34.95 55.88, 54.63 32.73, 83.82 -0.01 M24.25 80.7 C37.32 64.77, 53.99 47.95, 94.45 -0.05 M24.25 80.7 C44.95 56.2, 65.23 34.27, 94.45 -0.05 M34.88 80.67 C55.1 58.16, 72.56 37.35, 105.08 -0.08 M34.88 80.67 C50.02 61.99, 65.62 45.86, 105.08 -0.08 M45.51 80.64 C75.07 46.17, 103.02 15.55, 115.71 -0.12 M45.51 80.64 C68.25 54.67, 91.4 27.68, 115.71 -0.12 M56.14 80.6 C80.55 54.26, 101.95 25.89, 125.68 0.6 M56.14 80.6 C71.65 61.13, 89.46 42.13, 125.68 0.6 M66.77 80.57 C80.77 64.73, 95.19 46.37, 134.34 2.83 M66.77 80.57 C92.07 52.92, 118 24.05, 134.34 2.83 M77.4 80.53 C100.79 55.82, 124.8 25.74, 141.04 7.33 M77.4 80.53 C91.41 64.04, 106.76 45.97, 141.04 7.33 M88.03 80.5 C99.8 66.05, 112.42 53.1, 144.45 15.59 M88.03 80.5 C102.57 64.44, 116.1 47.09, 144.45 15.59 M98.66 80.46 C107.4 69.74, 117.53 57.51, 144.58 27.63 M98.66 80.46 C111.31 66.6, 123.59 52.14, 144.58 27.63 M109.29 80.43 C121.29 71.07, 129.62 57.8, 144.72 39.67 M109.29 80.43 C122.69 65.78, 134.58 49.53, 144.72 39.67 M119.92 80.39 C129.48 69.65, 137.03 60.63, 144.85 51.72 M119.92 80.39 C127.86 70.89, 137.55 61.3, 144.85 51.72 M132.52 78.1 C134.67 72.87, 137.78 69.67, 143.01 66.02 M132.52 78.1 C136.4 73.43, 139.66 69.59, 143.01 66.02" stroke="#ffc9c9" stroke-width="1" fill="none"></path><path d="M20 0 C56.44 0.94, 94.08 -0.34, 124.17 0 M20 0 C40.63 0.28, 62.04 0.82, 124.17 0 M124.17 0 C136.72 -1.68, 143.8 5.43, 144.17 20 M124.17 0 C136.01 -0.62, 145.67 7.69, 144.17 20 M144.17 20 C144.68 29.45, 142.63 40.04, 144.17 60 M144.17 20 C144.12 32.78, 145.05 43.31, 144.17 60 M144.17 60 C142.3 73.76, 136.41 80.57, 124.17 80 M144.17 60 C144.42 73.74, 136.42 78.41, 124.17 80 M124.17 80 C96.44 81.3, 70.17 81.34, 20 80 M124.17 80 C87.44 79.9, 48.33 80.03, 20 80 M20 80 C7.98 78.61, 1.94 72.1, 0 60 M20 80 C8.5 77.86, 1.4 72.38, 0 60 M0 60 C-2.09 42.58, 1.28 27.82, 0 20 M0 60 C-1.16 46.98, -0.04 33.95, 0 20 M0 20 C-1.24 6.58, 8.01 -1.96, 20 0 M0 20 C-2.29 4.66, 6.06 2.01, 20 0" stroke="#1e1e1e" stroke-width="2" fill="none"></path></g><g transform="translate(810.6799468994141 225.00003814697266) rotate(0 45.569976806640625 17.5)"><text x="45.569976806640625" y="0" font-family="Virgil, Segoe UI Emoji" font-size="28px" fill="#1e1e1e" text-anchor="middle" style="white-space: pre;" direction="ltr" dominant-baseline="text-before-edge">Return</text></g><g stroke-linecap="round" transform="translate(435.4166793823242 366.6666793823242) rotate(0 72.08332061767578 40)"><path d="M2.85 7.77 C2.85 7.77, 2.85 7.77, 2.85 7.77 M2.85 7.77 C2.85 7.77, 2.85 7.77, 2.85 7.77 M4.29 18.31 C9.77 14.75, 13 11.45, 20.04 0.19 M4.29 18.31 C9.17 12.59, 11.99 8.24, 20.04 0.19 M3.77 31.1 C12.22 20.01, 20.3 11.34, 30.67 0.16 M3.77 31.1 C9.49 24.93, 15 17.25, 30.67 0.16 M3.9 43.14 C15.56 27.14, 29.13 10.23, 41.3 0.12 M3.9 43.14 C15.15 29.61, 26.94 17.28, 41.3 0.12 M4.03 55.18 C19.01 39.05, 33.75 18.17, 51.93 0.09 M4.03 55.18 C14.68 42.01, 26.24 29.68, 51.93 0.09 M3.51 67.98 C22.18 42.77, 43.79 20.08, 62.56 0.05 M3.51 67.98 C19.21 49.66, 34.46 32.72, 62.56 0.05 M6.93 76.25 C30.82 51.52, 50.77 24.29, 73.19 0.02 M6.93 76.25 C27.69 52.08, 49.81 28.57, 73.19 0.02 M12.96 81.49 C29.15 62.17, 46.63 43.31, 83.82 -0.01 M12.96 81.49 C31.44 59.94, 51.98 36.63, 83.82 -0.01 M22.94 82.21 C41.46 59.7, 63.3 37.97, 94.45 -0.05 M22.94 82.21 C39.45 64.6, 54.02 47.69, 94.45 -0.05 M33.57 82.18 C52.86 61.47, 71.98 38.26, 105.08 -0.08 M33.57 82.18 C62.52 49.33, 89.15 18.68, 105.08 -0.08 M44.2 82.15 C72.88 51.25, 99.75 16.14, 115.71 -0.12 M44.2 82.15 C62.26 63.58, 78.85 44.51, 115.71 -0.12 M54.83 82.11 C82.42 53.79, 107.3 22.71, 125.03 1.36 M54.83 82.11 C75.81 55.72, 99.75 29.88, 125.03 1.36 M65.46 82.08 C92.67 48.94, 119.63 19.61, 134.34 2.83 M65.46 82.08 C90.3 50.99, 118.21 19.82, 134.34 2.83 M76.09 82.04 C95.39 59.47, 113 39.86, 141.04 7.33 M76.09 82.04 C95.29 60.64, 113.97 39.77, 141.04 7.33 M86.06 82.76 C105.17 60.75, 121.15 40.98, 144.45 15.59 M86.06 82.76 C100.92 65.51, 114.94 49.89, 144.45 15.59 M96.69 82.73 C106.2 71.66, 119.82 59.13, 144.58 27.63 M96.69 82.73 C114.96 61.78, 132.87 43.56, 144.58 27.63 M107.32 82.69 C122.04 68.03, 134.51 51.56, 144.72 39.67 M107.32 82.69 C119.08 70.28, 128.24 57.73, 144.72 39.67 M117.95 82.66 C130.13 72.16, 140.1 58.78, 144.85 51.72 M117.95 82.66 C127.83 72.16, 135.52 62.22, 144.85 51.72 M127.93 83.38 C132.17 79.05, 137.79 71.13, 146.3 62.25 M127.93 83.38 C135.3 75.66, 140.14 68.14, 146.3 62.25" stroke="#b2f2bb" stroke-width="1" fill="none"></path><path d="M20 0 C60.6 0.43, 102.05 0.15, 124.17 0 M20 0 C48.57 0.66, 77.36 0.24, 124.17 0 M124.17 0 C137.26 0.27, 142.73 5.77, 144.17 20 M124.17 0 C137.78 -0.19, 142.42 6.34, 144.17 20 M144.17 20 C142.18 32.69, 144.61 48.07, 144.17 60 M144.17 20 C144.33 32.71, 144.2 45.44, 144.17 60 M144.17 60 C142.66 72.96, 135.63 81.77, 124.17 80 M144.17 60 C144.18 72.51, 138.35 81.68, 124.17 80 M124.17 80 C90.15 78.32, 53.48 78.17, 20 80 M124.17 80 C87.21 80.96, 50.59 79.88, 20 80 M20 80 C8.31 78.4, -0.83 73.7, 0 60 M20 80 C5.18 78.22, -1.17 75.36, 0 60 M0 60 C1.35 42.36, 1.28 28.01, 0 20 M0 60 C-0.25 46.76, -0.13 33.14, 0 20 M0 20 C0.77 5.11, 5.63 0.25, 20 0 M0 20 C0.43 4.49, 5.61 -1.4, 20 0" stroke="#1e1e1e" stroke-width="2" fill="none"></path></g><g transform="translate(466.4940185546875 389.1666793823242) rotate(0 41.0059814453125 17.5)"><text x="41.0059814453125" y="0" font-family="Virgil, Segoe UI Emoji" font-size="28px" fill="#1e1e1e" text-anchor="middle" style="white-space: pre;" direction="ltr" dominant-baseline="text-before-edge">Assign</text></g><g stroke-linecap="round" transform="translate(315.4166793823242 519.1667556762695) rotate(0 72.08332061767578 40)"><path d="M2.85 7.77 C2.85 7.77, 2.85 7.77, 2.85 7.77 M2.85 7.77 C2.85 7.77, 2.85 7.77, 2.85 7.77 M1.01 22.08 C3.36 17.76, 7.53 12.16, 20.04 0.19 M1.01 22.08 C5.19 16.58, 11.14 11, 20.04 0.19 M1.14 34.12 C8.32 25.46, 14.68 20.12, 30.67 0.16 M1.14 34.12 C8.86 24.59, 17.68 15.78, 30.67 0.16 M1.28 46.16 C17.91 28.05, 33.72 10.56, 41.3 0.12 M1.28 46.16 C13.96 32.57, 26.74 17.57, 41.3 0.12 M0.75 58.96 C14.88 42.46, 31.55 22.45, 51.93 0.09 M0.75 58.96 C11.38 47.54, 21.39 35.72, 51.93 0.09 M2.2 69.49 C27.3 44.94, 50.38 18.33, 62.56 0.05 M2.2 69.49 C26.64 42.65, 50.63 14.34, 62.56 0.05 M6.93 76.25 C24.01 58.81, 36.08 37.64, 73.19 0.02 M6.93 76.25 C19.74 60.15, 34.58 43.77, 73.19 0.02 M14.93 79.23 C27.94 62.69, 47.18 44.94, 83.82 -0.01 M14.93 79.23 C40.81 50.9, 64.49 21.87, 83.82 -0.01 M24.25 80.7 C41.22 61.02, 58.64 40.52, 94.45 -0.05 M24.25 80.7 C40.76 61.41, 57.89 42.15, 94.45 -0.05 M34.88 80.67 C49.13 62.28, 64.9 43.1, 105.08 -0.08 M34.88 80.67 C59.14 52.55, 83.72 24.25, 105.08 -0.08 M45.51 80.64 C71.86 47.46, 102.44 17.04, 115.71 -0.12 M45.51 80.64 C66.24 57.02, 84.4 35.53, 115.71 -0.12 M56.14 80.6 C78.2 53.73, 102.17 30.78, 125.68 0.6 M56.14 80.6 C82.36 51.11, 108.45 21.42, 125.68 0.6 M66.77 80.57 C88.26 54.24, 113.58 28.29, 134.34 2.83 M66.77 80.57 C90.57 51.99, 113.63 26.49, 134.34 2.83 M77.4 80.53 C96.91 57.59, 111.95 38.31, 141.04 7.33 M77.4 80.53 C97.98 57.18, 117.33 34.91, 141.04 7.33 M88.03 80.5 C102.55 59.43, 120.46 40.27, 144.45 15.59 M88.03 80.5 C106.35 59.19, 123.99 38.22, 144.45 15.59 M98.66 80.46 C112.98 61.19, 129.59 46.47, 144.58 27.63 M98.66 80.46 C115.61 61.41, 133.91 40.46, 144.58 27.63 M109.29 80.43 C118.23 67.9, 132.25 55.03, 144.72 39.67 M109.29 80.43 C119.37 68.76, 127.66 58.22, 144.72 39.67 M119.92 80.39 C128.15 69.17, 135.99 60.22, 144.85 51.72 M119.92 80.39 C126.67 73.81, 131.92 66.39, 144.85 51.72 M132.52 78.1 C135.12 76.09, 135.95 73.33, 143.01 66.02 M132.52 78.1 C135.99 73.93, 138.69 71.5, 143.01 66.02" stroke="#b2f2bb" stroke-width="1" fill="none"></path><path d="M20 0 C58.21 1, 101.18 -2.02, 124.17 0 M20 0 C57.45 -0.7, 96.09 -1.62, 124.17 0 M124.17 0 C136.24 0.16, 142.33 5.34, 144.17 20 M124.17 0 C136.53 0.99, 143.15 8.31, 144.17 20 M144.17 20 C143.76 29.98, 143.06 36.84, 144.17 60 M144.17 20 C145.03 29.07, 144.71 37.69, 144.17 60 M144.17 60 C146.09 73.11, 137.56 80.13, 124.17 80 M144.17 60 C142.47 74.82, 138.13 81.28, 124.17 80 M124.17 80 C82.94 78.73, 45.8 81.24, 20 80 M124.17 80 C96.52 79.06, 69.54 79.75, 20 80 M20 80 C6.71 79.19, 1.57 75.28, 0 60 M20 80 C4.63 80.33, -2.01 72.21, 0 60 M0 60 C0.45 45.26, 1.27 28.94, 0 20 M0 60 C0.74 45.65, -1.14 30.84, 0 20 M0 20 C0.01 6.11, 5.88 -1.2, 20 0 M0 20 C1.66 4.46, 7.94 -1.31, 20 0" stroke="#1e1e1e" stroke-width="2" fill="none"></path></g><g transform="translate(346.6480178833008 541.6667556762695) rotate(0 40.85198211669922 17.5)"><text x="40.85198211669922" y="0" font-family="Virgil, Segoe UI Emoji" font-size="28px" fill="#1e1e1e" text-anchor="middle" style="white-space: pre;" direction="ltr" dominant-baseline="text-before-edge">Var: x</text></g><g stroke-linecap="round" transform="translate(549.1666030883789 521.6666793823242) rotate(0 72.08332061767578 40)"><path d="M2.85 7.77 C2.85 7.77, 2.85 7.77, 2.85 7.77 M2.85 7.77 C2.85 7.77, 2.85 7.77, 2.85 7.77 M1.01 22.08 C6.94 14.65, 10.98 8.16, 20.04 0.19 M1.01 22.08 C6.17 16.81, 10.61 11.87, 20.04 0.19 M1.14 34.12 C10.5 21.93, 22.38 11.26, 30.67 0.16 M1.14 34.12 C8.46 24.9, 16.79 15.52, 30.67 0.16 M1.28 46.16 C8.98 35.35, 19.36 27.11, 41.3 0.12 M1.28 46.16 C16.9 28.67, 31.59 11.03, 41.3 0.12 M0.75 58.96 C16.74 36.78, 36.64 17.58, 51.93 0.09 M0.75 58.96 C18.55 37.65, 39.18 15.74, 51.93 0.09 M2.2 69.49 C18.34 49.45, 37.12 28.72, 62.56 0.05 M2.2 69.49 C17.21 51.98, 30.62 35.69, 62.56 0.05 M6.93 76.25 C25.08 54.14, 46.88 29.02, 73.19 0.02 M6.93 76.25 C27.7 53.24, 46.63 30.58, 73.19 0.02 M14.93 79.23 C39.6 52.2, 65.43 19.24, 83.82 -0.01 M14.93 79.23 C30.3 60.74, 46.42 42.99, 83.82 -0.01 M24.25 80.7 C48.8 51.71, 72.91 26.47, 94.45 -0.05 M24.25 80.7 C39.78 61.99, 55.03 43.99, 94.45 -0.05 M34.88 80.67 C63.31 48.37, 88.48 17.71, 105.08 -0.08 M34.88 80.67 C51.95 61.98, 67.59 44.12, 105.08 -0.08 M45.51 80.64 C70.74 54.23, 94.65 24.61, 115.71 -0.12 M45.51 80.64 C64.27 57.6, 84.38 35.9, 115.71 -0.12 M56.14 80.6 C79.19 50.79, 104.14 22.97, 125.68 0.6 M56.14 80.6 C79.98 54.46, 102.17 29.2, 125.68 0.6 M66.77 80.57 C82.75 61.94, 94 46.14, 134.34 2.83 M66.77 80.57 C80.87 63.86, 96.66 46.96, 134.34 2.83 M77.4 80.53 C100.14 52.45, 121.17 26.23, 141.04 7.33 M77.4 80.53 C96.17 59.37, 114.18 40.49, 141.04 7.33 M88.03 80.5 C103.84 60.24, 121.39 39.8, 144.45 15.59 M88.03 80.5 C106.16 59.4, 125.19 37.04, 144.45 15.59 M98.66 80.46 C111.52 66.94, 119.52 54.99, 144.58 27.63 M98.66 80.46 C109.9 67.49, 120.75 56.23, 144.58 27.63 M109.29 80.43 C122.09 66.43, 134.93 50.84, 144.72 39.67 M109.29 80.43 C121.38 67.12, 131.64 54.1, 144.72 39.67 M119.92 80.39 C124.18 72.59, 133.33 64.34, 144.85 51.72 M119.92 80.39 C124.1 73.35, 129.73 68.08, 144.85 51.72 M132.52 78.1 C133.69 74.18, 136.43 73.16, 143.01 66.02 M132.52 78.1 C135.39 73.87, 139.27 71.52, 143.01 66.02" stroke="#b2f2bb" stroke-width="1" fill="none"></path><path d="M20 0 C58.12 -0.93, 95.27 -1.49, 124.17 0 M20 0 C49.15 0.67, 78.14 0.72, 124.17 0 M124.17 0 C136 -0.56, 146.16 6.29, 144.17 20 M124.17 0 C136.85 1.49, 145.78 4.44, 144.17 20 M144.17 20 C142.89 28.34, 144.68 36.65, 144.17 60 M144.17 20 C144.92 30.88, 143.16 41.74, 144.17 60 M144.17 60 C143.36 71.71, 137.97 79.51, 124.17 80 M144.17 60 C146.39 73.14, 138.02 78.41, 124.17 80 M124.17 80 C92.03 78.47, 54.84 80.19, 20 80 M124.17 80 C88.67 80.77, 55.56 81.41, 20 80 M20 80 C7.16 80.21, 0.64 73.14, 0 60 M20 80 C4.45 80.09, 1.27 73.17, 0 60 M0 60 C1.43 48.08, -0.45 37.82, 0 20 M0 60 C0.04 45.73, -0.22 32.65, 0 20 M0 20 C-1.47 5.2, 7.86 1.78, 20 0 M0 20 C0.15 7.77, 4.7 -2.03, 20 0" stroke="#1e1e1e" stroke-width="2" fill="none"></path></g><g transform="translate(575.4979400634766 544.1666793823242) rotate(0 45.751983642578125 17.5)"><text x="45.751983642578125" y="0" font-family="Virgil, Segoe UI Emoji" font-size="28px" fill="#1e1e1e" text-anchor="middle" style="white-space: pre;" direction="ltr" dominant-baseline="text-before-edge">Num: 3</text></g><g stroke-linecap="round"><g transform="translate(469.1667175292969 453.33335876464844) rotate(0 -36.66667938232422 27.91667938232422)"><path d="M1.05 -0.85 C-11.47 8.47, -62.11 46.39, -74.41 55.67 M0.14 1.32 C-12.09 10.85, -60.04 48.07, -72.26 57.12" stroke="#1e1e1e" stroke-width="2" fill="none"></path></g><g transform="translate(469.1667175292969 453.33335876464844) rotate(0 -36.66667938232422 27.91667938232422)"><path d="M-58.74 36.09 C-65.08 42, -68.82 52.41, -72.26 57.12 M-58.74 36.09 C-62.07 39.7, -64.62 45.45, -72.26 57.12" stroke="#1e1e1e" stroke-width="2" fill="none"></path></g><g transform="translate(469.1667175292969 453.33335876464844) rotate(0 -36.66667938232422 27.91667938232422)"><path d="M-48.39 49.69 C-58.43 50.79, -65.91 56.29, -72.26 57.12 M-48.39 49.69 C-53.8 50.34, -58.58 53.17, -72.26 57.12" stroke="#1e1e1e" stroke-width="2" fill="none"></path></g></g><mask></mask><g stroke-linecap="round"><g transform="translate(543.3333587646484 456.6667175292969) rotate(0 32.5 27.91667938232422)"><path d="M-0.22 0.28 C10.47 9.62, 53.79 47.43, 64.59 56.8 M-1.79 -0.62 C8.66 8.33, 52.52 45.99, 63.43 55.19" stroke="#1e1e1e" stroke-width="2" fill="none"></path></g><g transform="translate(543.3333587646484 456.6667175292969) rotate(0 32.5 27.91667938232422)"><path d="M40.01 46.46 C48.52 48.8, 57.65 51.83, 63.43 55.19 M40.01 46.46 C48.36 49.46, 55.81 51.49, 63.43 55.19" stroke="#1e1e1e" stroke-width="2" fill="none"></path></g><g transform="translate(543.3333587646484 456.6667175292969) rotate(0 32.5 27.91667938232422)"><path d="M51.09 33.44 C55.91 40.2, 61.26 47.67, 63.43 55.19 M51.09 33.44 C55.39 41.19, 58.89 47.86, 63.43 55.19" stroke="#1e1e1e" stroke-width="2" fill="none"></path></g></g><mask></mask><g stroke-linecap="round"><g transform="translate(510 294.1667175292969) rotate(0 0 30)"><path d="M1.13 -0.65 C1.09 9.44, 0.93 49.69, 0.91 59.68 M0.27 1.62 C0.04 11.96, 0.35 51.29, 0.44 61.05" stroke="#1e1e1e" stroke-width="2" fill="none"></path></g><g transform="translate(510 294.1667175292969) rotate(0 0 30)"><path d="M-8.3 37.63 C-6.08 48.39, -2.04 57.94, 0.44 61.05 M-8.3 37.63 C-6.88 42.64, -4.42 49.12, 0.44 61.05" stroke="#1e1e1e" stroke-width="2" fill="none"></path></g><g transform="translate(510 294.1667175292969) rotate(0 0 30)"><path d="M8.8 37.49 C4.22 48.46, 1.45 58.08, 0.44 61.05 M8.8 37.49 C6.13 42.56, 4.51 49.07, 0.44 61.05" stroke="#1e1e1e" stroke-width="2" fill="none"></path></g></g><mask></mask><g mask="url(#mask-WXEPJL-HZsre3hitdxoeC)" stroke-linecap="round"><g transform="translate(594.1667175292969 241.27936117098852) rotate(0 89.16664123535156 1.3167108863392514)"><path d="M-0.39 -0.57 C29.42 -0.18, 149.44 1.32, 179.38 1.96 M1.6 1.74 C31.31 2.31, 149.42 3.23, 178.98 3.15" stroke="#1e1e1e" stroke-width="2" fill="none"></path></g><g transform="translate(594.1667175292969 241.27936117098852) rotate(0 89.16664123535156 1.3167108863392514)"><path d="M155.45 11.62 C162.51 10.56, 170.33 7.46, 178.98 3.15 M155.45 11.62 C163.44 7.77, 172.48 5.82, 178.98 3.15" stroke="#1e1e1e" stroke-width="2" fill="none"></path></g><g transform="translate(594.1667175292969 241.27936117098852) rotate(0 89.16664123535156 1.3167108863392514)"><path d="M155.51 -5.48 C162.5 -0.74, 170.3 1.97, 178.98 3.15 M155.51 -5.48 C163.63 -3.29, 172.64 0.78, 178.98 3.15" stroke="#1e1e1e" stroke-width="2" fill="none"></path></g></g><mask id="mask-WXEPJL-HZsre3hitdxoeC"><rect x="0" y="0" fill="#fff" width="872.5" height="343.912782943667"></rect><rect x="653.359375" y="225.096072057328" fill="#000" width="59.947967529296875" height="35" opacity="1"></rect></mask><g transform="translate(653.359375 225.096072057328) rotate(0 30.299408536776923 17.47432819783853)"><text x="29.973983764648438" y="0" font-family="Virgil, Segoe UI Emoji" font-size="28px" fill="#1e1e1e" text-anchor="middle" style="white-space: pre;" direction="ltr" dominant-baseline="text-before-edge">next</text></g><g mask="url(#mask-cEEiVYUAg24sZ-MbiBp6q)" stroke-linecap="round"><g transform="translate(507.70789535351264 97.5) rotate(0 0.20795592501133342 48.33335876464844)"><path d="M-0.94 -0.97 C-0.84 15.1, -0.79 80.2, -0.61 96.5 M0.77 1.14 C1.33 17.39, 1.81 81.77, 1.57 97.95" stroke="#1e1e1e" stroke-width="2" fill="none"></path></g><g transform="translate(507.70789535351264 97.5) rotate(0 0.20795592501133342 48.33335876464844)"><path d="M-6.94 74.45 C-6.83 77.55, -3.77 83.61, 1.57 97.95 M-6.94 74.45 C-3.53 82.56, -2.44 88.33, 1.57 97.95" stroke="#1e1e1e" stroke-width="2" fill="none"></path></g><g transform="translate(507.70789535351264 97.5) rotate(0 0.20795592501133342 48.33335876464844)"><path d="M10.16 74.48 C6.82 77.44, 6.43 83.49, 1.57 97.95 M10.16 74.48 C8.2 82.51, 3.92 88.27, 1.57 97.95" stroke="#1e1e1e" stroke-width="2" fill="none"></path></g></g><mask id="mask-cEEiVYUAg24sZ-MbiBp6q"><rect x="0" y="0" fill="#fff" width="608.1238072035353" height="294.1667175292969"></rect><rect x="478.51586501143424" y="128.33335876464844" fill="#000" width="58.79997253417969" height="35" opacity="1"></rect></mask><g transform="translate(478.515865011434 128.33335876464844) rotate(0 29.539674843108855 17.658896727794854)"><text x="29.399986267089844" y="0" font-family="Virgil, Segoe UI Emoji" font-size="28px" fill="#1e1e1e" text-anchor="middle" style="white-space: pre;" direction="ltr" dominant-baseline="text-before-edge">body</text></g><g stroke-linecap="round" transform="translate(788.7499618530273 365.0000762939453) rotate(0 72.08332061767578 40)"><path d="M2.85 7.77 C2.85 7.77, 2.85 7.77, 2.85 7.77 M2.85 7.77 C2.85 7.77, 2.85 7.77, 2.85 7.77 M4.29 18.31 C9.07 12.91, 13.01 5.26, 20.04 0.19 M4.29 18.31 C10.66 11.33, 16.76 3.94, 20.04 0.19 M3.77 31.1 C13.34 21.4, 22.76 6.53, 30.67 0.16 M3.77 31.1 C9.98 22.87, 16.01 15.89, 30.67 0.16 M3.9 43.14 C18.29 27.26, 30.34 15.07, 41.3 0.12 M3.9 43.14 C11.89 33.38, 19.98 25.15, 41.3 0.12 M4.03 55.18 C15.09 43.99, 27.62 28.75, 51.93 0.09 M4.03 55.18 C14.8 42.31, 25.72 29.26, 51.93 0.09 M3.51 67.98 C16.86 49.55, 32.25 31.38, 62.56 0.05 M3.51 67.98 C18.85 50.88, 34 34.42, 62.56 0.05 M6.93 76.25 C26.02 54.33, 46.54 33.15, 73.19 0.02 M6.93 76.25 C30.14 48.62, 53.59 22.52, 73.19 0.02 M12.96 81.49 C34.06 56.39, 53.6 34.72, 83.82 -0.01 M12.96 81.49 C30.26 62.13, 47.89 41.66, 83.82 -0.01 M22.94 82.21 C37.37 63.99, 50.65 48.98, 94.45 -0.05 M22.94 82.21 C50.45 51.67, 76.36 20.25, 94.45 -0.05 M33.57 82.18 C49.24 67.47, 64.69 46.59, 105.08 -0.08 M33.57 82.18 C59.42 52.57, 84.83 23.75, 105.08 -0.08 M44.2 82.15 C68.55 54.02, 95.96 23.43, 115.71 -0.12 M44.2 82.15 C67.62 54.79, 92.04 28.11, 115.71 -0.12 M54.83 82.11 C69.89 64.49, 86.36 43.37, 125.03 1.36 M54.83 82.11 C82.92 50.79, 110.86 20.08, 125.03 1.36 M65.46 82.08 C82.52 57.47, 103.07 35.35, 134.34 2.83 M65.46 82.08 C90.63 54.7, 114.6 26.65, 134.34 2.83 M76.09 82.04 C100 57.51, 121.03 32.02, 141.04 7.33 M76.09 82.04 C98.21 55.77, 121.66 28.04, 141.04 7.33 M86.06 82.76 C100.01 67.24, 113.18 53.39, 144.45 15.59 M86.06 82.76 C100.36 66.61, 112.96 52.05, 144.45 15.59 M96.69 82.73 C111.15 64.49, 125.77 46.17, 144.58 27.63 M96.69 82.73 C113.4 63.83, 130.05 45.31, 144.58 27.63 M107.32 82.69 C115.57 70.81, 124.85 59.6, 144.72 39.67 M107.32 82.69 C117.73 69.18, 129.29 57.46, 144.72 39.67 M117.95 82.66 C128.48 72.15, 134.35 60.74, 144.85 51.72 M117.95 82.66 C123.17 75.66, 128.83 69.29, 144.85 51.72 M127.93 83.38 C132.26 76.67, 137.26 73.35, 146.3 62.25 M127.93 83.38 C134.42 76.97, 138.96 70.07, 146.3 62.25" stroke="#b2f2bb" stroke-width="1" fill="none"></path><path d="M20 0 C56.93 0.28, 97.09 0.11, 124.17 0 M20 0 C55.8 -0.1, 89.6 1, 124.17 0 M124.17 0 C139.33 -1.93, 143.92 6.24, 144.17 20 M124.17 0 C136.97 0.99, 144.18 7.22, 144.17 20 M144.17 20 C143.24 35.29, 145.13 45.76, 144.17 60 M144.17 20 C143.41 35.37, 144.91 49.36, 144.17 60 M144.17 60 C145.4 74.49, 137.38 80.33, 124.17 80 M144.17 60 C143.65 72.32, 137.75 81.04, 124.17 80 M124.17 80 C101.69 80.43, 79.93 79.59, 20 80 M124.17 80 C82.05 79.37, 40.91 78.25, 20 80 M20 80 C4.76 80.93, -1.29 72.14, 0 60 M20 80 C8.93 78.09, -2.1 75.11, 0 60 M0 60 C1.84 49.55, 0.92 37.77, 0 20 M0 60 C-0.36 52.25, -0.34 43.25, 0 20 M0 20 C1.45 7.3, 6.33 0.1, 20 0 M0 20 C-0.36 5.95, 8.18 -1.22, 20 0" stroke="#1e1e1e" stroke-width="2" fill="none"></path></g><g transform="translate(821.7733001708984 387.5000762939453) rotate(0 39.05998229980469 17.5)"><text x="39.05998229980469" y="0" font-family="Virgil, Segoe UI Emoji" font-size="28px" fill="#1e1e1e" text-anchor="middle" style="white-space: pre;" direction="ltr" dominant-baseline="text-before-edge">Deref</text></g><g stroke-linecap="round" transform="translate(790.0000381469727 519.1667175292969) rotate(0 72.08332061767578 40)"><path d="M2.85 7.77 C2.85 7.77, 2.85 7.77, 2.85 7.77 M2.85 7.77 C2.85 7.77, 2.85 7.77, 2.85 7.77 M1.01 22.08 C7.46 14.3, 14.86 4.9, 20.04 0.19 M1.01 22.08 C7.85 12.64, 15.28 5.07, 20.04 0.19 M1.14 34.12 C11.75 20.07, 24.73 7.73, 30.67 0.16 M1.14 34.12 C9.65 24.61, 17.44 14.97, 30.67 0.16 M1.28 46.16 C16.53 30.65, 29.46 12.26, 41.3 0.12 M1.28 46.16 C16.22 29.92, 29.87 13.88, 41.3 0.12 M0.75 58.96 C21.38 37.64, 41.97 13.54, 51.93 0.09 M0.75 58.96 C12.25 47.35, 22.55 35.36, 51.93 0.09 M2.2 69.49 C23.07 42.47, 46.39 17.57, 62.56 0.05 M2.2 69.49 C17.76 52.73, 31.78 35.83, 62.56 0.05 M6.93 76.25 C29.13 52.57, 45.76 31.7, 73.19 0.02 M6.93 76.25 C28.08 53.66, 46.94 30.85, 73.19 0.02 M14.93 79.23 C36.06 52.31, 59.31 29.01, 83.82 -0.01 M14.93 79.23 C36.04 53.81, 58.26 29.65, 83.82 -0.01 M24.25 80.7 C49.32 51.72, 76.96 21.36, 94.45 -0.05 M24.25 80.7 C52.76 48.29, 78.86 18.21, 94.45 -0.05 M34.88 80.67 C63.46 51.13, 87.59 17.82, 105.08 -0.08 M34.88 80.67 C54.88 59.12, 73.91 36.17, 105.08 -0.08 M45.51 80.64 C67.92 56.8, 88.66 28.81, 115.71 -0.12 M45.51 80.64 C70.43 51.62, 95.01 21.84, 115.71 -0.12 M56.14 80.6 C79.52 54.19, 104.38 27.27, 125.68 0.6 M56.14 80.6 C72.43 61.69, 87.21 44.09, 125.68 0.6 M66.77 80.57 C94.25 52.66, 119.82 19.91, 134.34 2.83 M66.77 80.57 C83.64 63.64, 98.18 46.58, 134.34 2.83 M77.4 80.53 C104.2 50.84, 128.94 22.81, 141.04 7.33 M77.4 80.53 C101.32 52.42, 126.38 24.23, 141.04 7.33 M88.03 80.5 C103.94 64.78, 116.39 50.58, 144.45 15.59 M88.03 80.5 C102.34 64.92, 116.67 47.47, 144.45 15.59 M98.66 80.46 C111.02 69.16, 117.89 57.79, 144.58 27.63 M98.66 80.46 C116.42 61.17, 132.93 41.66, 144.58 27.63 M109.29 80.43 C119.44 69.84, 132.17 55.63, 144.72 39.67 M109.29 80.43 C118.12 70.47, 127.59 59.46, 144.72 39.67 M119.92 80.39 C125.74 71.98, 133.83 63.28, 144.85 51.72 M119.92 80.39 C126.23 73.35, 130.19 68.04, 144.85 51.72 M132.52 78.1 C136.39 75.31, 135.82 73.55, 143.01 66.02 M132.52 78.1 C135.06 75.35, 137.63 71.89, 143.01 66.02" stroke="#b2f2bb" stroke-width="1" fill="none"></path><path d="M20 0 C49.72 1.42, 75.16 1.1, 124.17 0 M20 0 C56.48 0.47, 94.45 0.66, 124.17 0 M124.17 0 C135.63 0.8, 142.65 5.65, 144.17 20 M124.17 0 C137.3 1.68, 143.33 8.45, 144.17 20 M144.17 20 C146.3 35.06, 145.27 49.18, 144.17 60 M144.17 20 C144.26 28.94, 143.75 37.06, 144.17 60 M144.17 60 C144.28 74.19, 136.79 79.91, 124.17 80 M144.17 60 C142.33 75.53, 137.46 81.53, 124.17 80 M124.17 80 C88.59 80.15, 51.1 80.64, 20 80 M124.17 80 C98.3 80.69, 72.54 80.77, 20 80 M20 80 C5.97 80.42, 1.48 73.41, 0 60 M20 80 C7.72 79.78, 1.52 73.8, 0 60 M0 60 C-1.08 50.07, 0.21 41.87, 0 20 M0 60 C-0.39 46.57, 0.73 34.7, 0 20 M0 20 C1.59 6.68, 7.48 -1.58, 20 0 M0 20 C1.08 6.15, 7.47 1.97, 20 0" stroke="#1e1e1e" stroke-width="2" fill="none"></path></g><g transform="translate(830.9473724365234 541.6667175292969) rotate(0 31.135986328125 17.5)"><text x="31.135986328125" y="0" font-family="Virgil, Segoe UI Emoji" font-size="28px" fill="#1e1e1e" text-anchor="middle" style="white-space: pre;" direction="ltr" dominant-baseline="text-before-edge">Addr</text></g><g stroke-linecap="round"><g transform="translate(857.5 450.0000762939453) rotate(0 0.8333587646484375 30.83332061767578)"><path d="M1.11 0.04 C1.49 10.43, 2.03 51.38, 2.07 61.7 M0.23 -0.99 C0.5 9.66, 1.31 52.51, 1.33 63.25" stroke="#1e1e1e" stroke-width="2" fill="none"></path></g><g transform="translate(857.5 450.0000762939453) rotate(0 0.8333587646484375 30.83332061767578)"><path d="M-7.5 39.86 C-5.05 47.11, -2.54 52.54, 1.33 63.25 M-7.5 39.86 C-4.2 46.81, -2.07 55.05, 1.33 63.25" stroke="#1e1e1e" stroke-width="2" fill="none"></path></g><g transform="translate(857.5 450.0000762939453) rotate(0 0.8333587646484375 30.83332061767578)"><path d="M9.6 39.66 C7.18 47.12, 4.82 52.61, 1.33 63.25 M9.6 39.66 C7.34 46.6, 3.91 54.91, 1.33 63.25" stroke="#1e1e1e" stroke-width="2" fill="none"></path></g></g><mask></mask><g stroke-linecap="round"><g transform="translate(860.8333587646484 610.0000762939453) rotate(0 0.8333587646484375 33.75)"><path d="M0.59 0.13 C1.05 11.48, 1.78 56.94, 2.03 68.33 M-0.56 -0.85 C-0.17 10.14, 0.92 55.39, 1.27 66.64" stroke="#1e1e1e" stroke-width="2" fill="none"></path></g><g transform="translate(860.8333587646484 610.0000762939453) rotate(0 0.8333587646484375 33.75)"><path d="M-7.92 43.39 C-5.46 49.53, -2.09 55.24, 1.27 66.64 M-7.92 43.39 C-3.52 51.32, -0.28 61.54, 1.27 66.64" stroke="#1e1e1e" stroke-width="2" fill="none"></path></g><g transform="translate(860.8333587646484 610.0000762939453) rotate(0 0.8333587646484375 33.75)"><path d="M9.18 42.92 C7.54 49.25, 6.81 55.08, 1.27 66.64 M9.18 42.92 C7.05 51.19, 3.77 61.59, 1.27 66.64" stroke="#1e1e1e" stroke-width="2" fill="none"></path></g></g><mask></mask><g stroke-linecap="round" transform="translate(792.4999618530273 689.1666412353516) rotate(0 72.08332061767578 40)"><path d="M2.85 7.77 C2.85 7.77, 2.85 7.77, 2.85 7.77 M2.85 7.77 C2.85 7.77, 2.85 7.77, 2.85 7.77 M1.01 22.08 C8.55 13.93, 15.03 5.66, 20.04 0.19 M1.01 22.08 C8.04 14.65, 15.18 6.14, 20.04 0.19 M1.14 34.12 C8.82 23.13, 20.69 10.37, 30.67 0.16 M1.14 34.12 C11.77 22.12, 23.11 8.94, 30.67 0.16 M1.28 46.16 C13.1 32.63, 23.12 20.71, 41.3 0.12 M1.28 46.16 C14.09 31.94, 26.93 15.84, 41.3 0.12 M0.75 58.96 C16.56 37.69, 35.42 22.55, 51.93 0.09 M0.75 58.96 C19.04 38.39, 36.35 17.23, 51.93 0.09 M2.2 69.49 C18.15 50.25, 37.03 29.89, 62.56 0.05 M2.2 69.49 C20.99 49.88, 37.85 29.33, 62.56 0.05 M6.93 76.25 C24.33 57.69, 39.1 36.66, 73.19 0.02 M6.93 76.25 C25.03 54.77, 42.36 35.34, 73.19 0.02 M14.93 79.23 C40.32 49.61, 69.95 18.4, 83.82 -0.01 M14.93 79.23 C37.19 54.31, 59.79 27.64, 83.82 -0.01 M24.25 80.7 C46.61 51.5, 70 26.14, 94.45 -0.05 M24.25 80.7 C47.89 52.22, 73.82 24.15, 94.45 -0.05 M34.88 80.67 C56.46 56.17, 78 29.81, 105.08 -0.08 M34.88 80.67 C61.82 49.83, 88.95 18.92, 105.08 -0.08 M45.51 80.64 C68.78 53.95, 89.33 30.92, 115.71 -0.12 M45.51 80.64 C62.53 62, 78.78 41.89, 115.71 -0.12 M56.14 80.6 C73.43 58.54, 93.3 39.59, 125.68 0.6 M56.14 80.6 C75.4 59.08, 92.76 37.42, 125.68 0.6 M66.77 80.57 C94.03 51.52, 119.04 23.47, 134.34 2.83 M66.77 80.57 C79.53 66.32, 94.45 49.51, 134.34 2.83 M77.4 80.53 C96.36 59.2, 112.7 37.1, 141.04 7.33 M77.4 80.53 C94.85 58.94, 114.61 38.89, 141.04 7.33 M88.03 80.5 C102.79 64.77, 116.53 44.98, 144.45 15.59 M88.03 80.5 C107.74 59.49, 125.95 37.27, 144.45 15.59 M98.66 80.46 C112.66 65.45, 125.58 47.62, 144.58 27.63 M98.66 80.46 C110.09 66.97, 119.95 54.54, 144.58 27.63 M109.29 80.43 C121.66 66.23, 134.07 53.75, 144.72 39.67 M109.29 80.43 C116.99 71.68, 125.55 63.36, 144.72 39.67 M119.92 80.39 C128.88 70.73, 140.98 55.98, 144.85 51.72 M119.92 80.39 C130.16 68.43, 139.75 58.1, 144.85 51.72 M132.52 78.1 C135.81 73.52, 140.68 71.53, 143.01 66.02 M132.52 78.1 C136.3 73.91, 141.32 68.59, 143.01 66.02" stroke="#b2f2bb" stroke-width="1" fill="none"></path><path d="M20 0 C41.06 0.47, 64.01 1.01, 124.17 0 M20 0 C50.03 -0.92, 79.47 0.08, 124.17 0 M124.17 0 C138.62 -0.44, 144.55 5.04, 144.17 20 M124.17 0 C138.89 -1.98, 143.61 4.69, 144.17 20 M144.17 20 C143.09 34.61, 142.98 48.85, 144.17 60 M144.17 20 C143.45 32.26, 144.11 43.84, 144.17 60 M144.17 60 C143.75 72.51, 138.41 80.69, 124.17 80 M144.17 60 C144.06 73.37, 136.85 80.26, 124.17 80 M124.17 80 C101.95 79.2, 83.81 79.07, 20 80 M124.17 80 C88.72 81.97, 52.01 81.09, 20 80 M20 80 C7.87 78.33, 1.9 72.15, 0 60 M20 80 C7.55 81.29, -1.35 73.45, 0 60 M0 60 C0.52 48.01, 0.96 35.06, 0 20 M0 60 C-0.47 49.19, 0.54 39.04, 0 20 M0 20 C0.29 6.81, 6.04 -0.63, 20 0 M0 20 C-1.6 6.21, 4.73 1.54, 20 0" stroke="#1e1e1e" stroke-width="2" fill="none"></path></g><g transform="translate(823.7313003540039 711.6666412353516) rotate(0 40.85198211669922 17.5)"><text x="40.85198211669922" y="0" font-family="Virgil, Segoe UI Emoji" font-size="28px" fill="#1e1e1e" text-anchor="middle" style="white-space: pre;" direction="ltr" dominant-baseline="text-before-edge">Var: x</text></g><g stroke-linecap="round"><g transform="translate(855 291.6667175292969) rotate(0 0.41667938232421875 32.5)"><path d="M0.42 1.02 C0.51 11.76, 0.97 54.11, 0.95 64.61 M-0.82 0.51 C-0.91 11.41, 0.05 55.23, 0.06 65.94" stroke="#1e1e1e" stroke-width="2" fill="none"></path></g><g transform="translate(855 291.6667175292969) rotate(0 0.41667938232421875 32.5)"><path d="M-8.79 42.56 C-4.08 50.56, -3.47 57.34, 0.06 65.94 M-8.79 42.56 C-7.34 46.88, -4.56 52.64, 0.06 65.94" stroke="#1e1e1e" stroke-width="2" fill="none"></path></g><g transform="translate(855 291.6667175292969) rotate(0 0.41667938232421875 32.5)"><path d="M8.31 42.34 C7.28 50.48, 2.16 57.33, 0.06 65.94 M8.31 42.34 C6.03 46.54, 5.08 52.35, 0.06 65.94" stroke="#1e1e1e" stroke-width="2" fill="none"></path></g></g><mask></mask></svg>