<svg version="1.1" xmlns="http://www.w3.org/2000/svg" viewBox="0 0 657.6666564941406 597.7501220703125" width="657.6666564941406" height="597.7501220703125">
  <!-- svg-source:excalidraw -->
  
  <defs>
    <style class="style-fonts">
      @font-face {
        font-family: "Virgil";
        src: url("https://excalidraw.com/Virgil.woff2");
      }
      @font-face {
        font-family: "Cascadia";
        src: url("https://excalidraw.com/Cascadia.woff2");
      }
      @font-face {
        font-family: "Assistant";
        src: url("https://excalidraw.com/Assistant-Regular.woff2");
      }
    </style>
    
  </defs>
  <rect x="0" y="0" width="657.6666564941406" height="597.7501220703125" fill="#ffffff"></rect><g stroke-linecap="round" transform="translate(164.66665649414062 12.666656494140625) rotate(0 52.33332824707031 24.666656494140625)"><path d="M43.7 0.22 C52.24 -1.1, 62.89 -0.78, 71.5 1.01 C80.1 2.79, 89.85 7.12, 95.34 10.94 C100.83 14.76, 104.01 19.49, 104.44 23.93 C104.87 28.36, 102.76 33.74, 97.92 37.54 C93.07 41.35, 83.73 44.75, 75.36 46.78 C66.99 48.82, 57.15 50.38, 47.72 49.76 C38.28 49.14, 26.42 45.96, 18.76 43.05 C11.1 40.14, 4.48 36.47, 1.75 32.32 C-0.97 28.17, -0.1 22.33, 2.38 18.16 C4.86 13.99, 9.72 10.41, 16.63 7.3 C23.54 4.19, 38.91 0.7, 43.82 -0.51 C48.73 -1.72, 45.96 -0.47, 46.07 0.04 M62.68 0.15 C71.8 0.62, 82.18 3.94, 88.87 7.06 C95.57 10.17, 100.85 14.54, 102.85 18.81 C104.85 23.09, 103.78 28.38, 100.88 32.69 C97.97 36.99, 92.3 41.72, 85.43 44.66 C78.56 47.59, 69.02 49.68, 59.67 50.29 C50.33 50.9, 38.19 50.42, 29.35 48.3 C20.5 46.17, 11.72 41.39, 6.58 37.55 C1.44 33.71, -1.83 29.77, -1.47 25.25 C-1.1 20.73, 3.35 14.13, 8.77 10.43 C14.19 6.73, 22.55 4.61, 31.06 3.06 C39.58 1.5, 54.95 1.36, 59.87 1.09 C64.79 0.82, 60.45 1.14, 60.57 1.43" stroke="#1e1e1e" stroke-width="2" fill="none"></path></g><g transform="translate(193.65475237654448 24.891352912075206) rotate(0 23.339981079101562 12.500000000000028)"><text x="23.339981079101562" y="0" font-family="Virgil, Segoe UI Emoji" font-size="20px" fill="#1e1e1e" text-anchor="middle" style="white-space: pre;" direction="ltr" dominant-baseline="text-before-edge">Head</text></g><g stroke-linecap="round" transform="translate(356.3332977294922 10) rotate(0 52.33332824707031 24.666656494140625)"><path d="M47.86 0.45 C56.83 -0.09, 68.11 0.93, 76.54 3 C84.97 5.06, 93.85 8.97, 98.45 12.83 C103.05 16.68, 104.63 21.64, 104.16 26.13 C103.69 30.61, 101.23 36.27, 95.64 39.72 C90.04 43.17, 79.69 45.32, 70.59 46.82 C61.49 48.31, 50.03 49.51, 41.04 48.7 C32.05 47.88, 23.26 44.9, 16.65 41.94 C10.03 38.98, 3.73 35.33, 1.34 30.94 C-1.04 26.55, -0.82 20.01, 2.34 15.6 C5.5 11.2, 11 7.11, 20.28 4.51 C29.55 1.91, 49.8 0.44, 58 0.01 C66.2 -0.43, 69.45 1.31, 69.48 1.91 M48.5 0.48 C56.99 -0.2, 67.9 1.2, 76.19 3.41 C84.48 5.62, 93.29 9.71, 98.24 13.73 C103.2 17.76, 106.57 23, 105.92 27.54 C105.27 32.07, 100.38 37.55, 94.35 40.95 C88.31 44.34, 78.8 46.41, 69.7 47.93 C60.59 49.45, 48.85 51.08, 39.73 50.06 C30.6 49.04, 21.54 44.98, 14.96 41.8 C8.39 38.63, 2.46 35.2, 0.29 31.02 C-1.89 26.85, -1.46 21.03, 1.9 16.78 C5.26 12.52, 12.63 8.28, 20.45 5.5 C28.27 2.72, 44.11 0.71, 48.82 0.07 C53.53 -0.57, 48.78 1.39, 48.72 1.65" stroke="#1e1e1e" stroke-width="2" fill="none"></path></g><g transform="translate(385.60140002058745 22.22469641793458) rotate(0 23.059974670410156 12.500000000000028)"><text x="23.059974670410156" y="0" font-family="Virgil, Segoe UI Emoji" font-size="20px" fill="#1e1e1e" text-anchor="middle" style="white-space: pre;" direction="ltr" dominant-baseline="text-before-edge">stmt</text></g><g stroke-linecap="round" transform="translate(385.33331298828125 119.33331298828125) rotate(0 23.666656494140625 24.5)"><path d="M25.93 0.35 C30.73 0.34, 36.35 2.95, 39.82 6.56 C43.29 10.17, 46.12 16.75, 46.75 22 C47.38 27.26, 46.38 33.7, 43.59 38.1 C40.81 42.51, 35.05 47.04, 30.05 48.43 C25.05 49.81, 18.2 48.7, 13.57 46.43 C8.95 44.16, 4.5 39.48, 2.3 34.8 C0.09 30.12, -0.95 23.37, 0.34 18.35 C1.63 13.32, 5.64 7.58, 10.04 4.64 C14.44 1.69, 23.76 1.24, 26.73 0.68 C29.7 0.12, 27.88 0.96, 27.86 1.28 M25.28 0.5 C30.33 0.59, 37.12 3.72, 40.78 7.42 C44.44 11.11, 46.92 17.52, 47.26 22.66 C47.6 27.8, 45.8 33.92, 42.84 38.25 C39.87 42.59, 34.3 47.28, 29.47 48.69 C24.64 50.1, 18.47 48.88, 13.88 46.74 C9.29 44.59, 4.26 40.45, 1.95 35.82 C-0.36 31.19, -1.26 24.1, 0 18.96 C1.25 13.82, 5.24 8.13, 9.48 4.98 C13.71 1.83, 22.77 0.71, 25.4 0.06 C28.04 -0.59, 25.37 0.76, 25.28 1.09" stroke="#1e1e1e" stroke-width="2" fill="none"></path></g><g transform="translate(402.59511801845713 131.50919684921087) rotate(0 6.1699981689453125 12.5)"><text x="6.1699981689453125" y="0" font-family="Virgil, Segoe UI Emoji" font-size="20px" fill="#1e1e1e" text-anchor="middle" style="white-space: pre;" direction="ltr" dominant-baseline="text-before-edge">=</text></g><g stroke-linecap="round" transform="translate(320.6666259765625 230.66668701171875) rotate(0 18.666656494140625 19.666656494140625)"><path d="M9.33 0 C14.25 -0.12, 24.07 -0.63, 28 0 M9.33 0 C14.16 0.06, 19.86 -0.61, 28 0 M28 0 C33.86 0.69, 37.5 3.09, 37.33 9.33 M28 0 C36.38 -0.33, 39.09 3.97, 37.33 9.33 M37.33 9.33 C37.91 15.37, 38.58 23.31, 37.33 30 M37.33 9.33 C36.73 17.17, 36.36 25.67, 37.33 30 M37.33 30 C36.84 35.81, 33.01 40.82, 28 39.33 M37.33 30 C35.19 37.34, 33.43 40.22, 28 39.33 M28 39.33 C23.48 38.68, 15.1 40.41, 9.33 39.33 M28 39.33 C21.8 38.74, 16.74 39.3, 9.33 39.33 M9.33 39.33 C1.93 37.56, 0.46 37.83, 0 30 M9.33 39.33 C5.11 37.83, 0.15 35.46, 0 30 M0 30 C-1.47 22.84, -1.3 13.64, 0 9.33 M0 30 C0.27 24.76, -0.32 18.29, 0 9.33 M0 9.33 C-0.34 4.61, 4.96 -1.41, 9.33 0 M0 9.33 C-2.15 1.03, 3.68 -1.66, 9.33 0" stroke="#1e1e1e" stroke-width="2" fill="none"></path></g><g transform="translate(332.6632843017578 237.83334350585938) rotate(0 6.6699981689453125 12.5)"><text x="6.6699981689453125" y="0" font-family="Virgil, Segoe UI Emoji" font-size="20px" fill="#1e1e1e" text-anchor="middle" style="white-space: pre;" direction="ltr" dominant-baseline="text-before-edge">a</text></g><g transform="translate(10 29.999969482421875) rotate(0 56.22996520996094 12.5)"><text x="0" y="0" font-family="Virgil, Segoe UI Emoji" font-size="20px" fill="#1e1e1e" text-anchor="start" style="white-space: pre;" direction="ltr" dominant-baseline="text-before-edge">a=b=c=3*4;</text></g><g stroke-linecap="round"><g transform="translate(405.5704186140704 66.70423598331399) rotate(0 1.5481036812460616 25.314584278850703)"><path d="M0.92 0.45 C1.23 8.97, 2.82 42.54, 3.02 50.96 M-0.06 -0.37 C-0.01 7.79, 1.27 40.21, 2.03 49.01" stroke="#1e1e1e" stroke-width="2" fill="none"></path></g><g transform="translate(405.5704186140704 66.70423598331399) rotate(0 1.5481036812460616 25.314584278850703)"><path d="M-7.91 26.07 C-3.29 34.89, 0.43 42.42, 2.03 49.01 M-7.91 26.07 C-3.75 34.23, -1.36 41.97, 2.03 49.01" stroke="#1e1e1e" stroke-width="2" fill="none"></path></g><g transform="translate(405.5704186140704 66.70423598331399) rotate(0 1.5481036812460616 25.314584278850703)"><path d="M9.16 25.05 C7.06 34.4, 4.06 42.34, 2.03 49.01 M9.16 25.05 C7.76 33.65, 4.58 41.71, 2.03 49.01" stroke="#1e1e1e" stroke-width="2" fill="none"></path></g></g><mask></mask><g stroke-linecap="round"><g transform="translate(389.33331298828125 164.66671752929688) rotate(0 -24 31.333282470703125)"><path d="M-0.08 0.33 C-8.39 10.75, -40.99 52.47, -48.98 62.98 M-1.58 -0.54 C-9.61 9.46, -38.91 50.69, -46.78 61.02" stroke="#1e1e1e" stroke-width="2" fill="none"></path></g><g transform="translate(389.33331298828125 164.66671752929688) rotate(0 -24 31.333282470703125)"><path d="M-39.77 37.02 C-41.77 44.42, -44.44 55.05, -46.78 61.02 M-39.77 37.02 C-41.99 46.7, -45.21 54.42, -46.78 61.02" stroke="#1e1e1e" stroke-width="2" fill="none"></path></g><g transform="translate(389.33331298828125 164.66671752929688) rotate(0 -24 31.333282470703125)"><path d="M-25.99 47.14 C-33.21 50.72, -41.07 57.54, -46.78 61.02 M-25.99 47.14 C-33.26 53.28, -41.43 57.37, -46.78 61.02" stroke="#1e1e1e" stroke-width="2" fill="none"></path></g></g><mask></mask><g stroke-linecap="round"><g transform="translate(428.0459355965229 163.97561992605097) rotate(0 17.85943771805489 30.012205295763465)"><path d="M-0.98 0.31 C4.98 10.38, 29.4 50.64, 35.7 60.74 M0.71 -0.57 C6.52 9.13, 28.75 49.05, 34.74 58.99" stroke="#1e1e1e" stroke-width="2" fill="none"></path></g><g transform="translate(428.0459355965229 163.97561992605097) rotate(0 17.85943771805489 30.012205295763465)"><path d="M15.6 42.92 C21.78 47.76, 28.07 54.35, 34.74 58.99 M15.6 42.92 C22.16 48.84, 28.95 55.62, 34.74 58.99" stroke="#1e1e1e" stroke-width="2" fill="none"></path></g><g transform="translate(428.0459355965229 163.97561992605097) rotate(0 17.85943771805489 30.012205295763465)"><path d="M30.41 34.37 C32.27 41.6, 34.21 50.7, 34.74 58.99 M30.41 34.37 C31.43 43.64, 32.68 53.62, 34.74 58.99" stroke="#1e1e1e" stroke-width="2" fill="none"></path></g></g><mask></mask><g stroke-linecap="round"><g transform="translate(273.25561077787415 35.695817360625824) rotate(0 40.138306175291405 1.235465087252578)"><path d="M1.11 0.89 C14.51 1.38, 67.3 3.39, 80.37 3.67 M0.23 0.31 C13.48 0.44, 65.84 1.57, 79.47 2.18" stroke="#1e1e1e" stroke-width="2" fill="none"></path></g><g transform="translate(273.25561077787415 35.695817360625824) rotate(0 40.138306175291405 1.235465087252578)"><path d="M55.72 9.99 C64.25 7.59, 71.85 3.86, 79.47 2.18 M55.72 9.99 C62.91 7.16, 69.92 5.68, 79.47 2.18" stroke="#1e1e1e" stroke-width="2" fill="none"></path></g><g transform="translate(273.25561077787415 35.695817360625824) rotate(0 40.138306175291405 1.235465087252578)"><path d="M56.26 -7.11 C64.73 -4.4, 72.17 -3.02, 79.47 2.18 M56.26 -7.11 C63.11 -4.63, 69.95 -0.81, 79.47 2.18" stroke="#1e1e1e" stroke-width="2" fill="none"></path></g></g><mask></mask><g stroke-linecap="round" transform="translate(442.0000457763672 227.66664123535156) rotate(0 23.666656494140625 24.5)"><path d="M25.06 -0.11 C29.84 -0.16, 35.75 3.13, 39.37 6.67 C43 10.21, 46.13 16.04, 46.82 21.15 C47.5 26.26, 46.16 32.95, 43.5 37.33 C40.84 41.71, 35.6 45.76, 30.87 47.44 C26.13 49.12, 19.82 49.34, 15.08 47.4 C10.35 45.47, 4.8 40.62, 2.46 35.85 C0.12 31.08, -0.08 23.93, 1.05 18.77 C2.19 13.61, 5.21 8.04, 9.27 4.88 C13.33 1.72, 22.58 0.49, 25.41 -0.19 C28.24 -0.86, 26.33 0.44, 26.23 0.83 M17.75 0.19 C22.3 -1.23, 29.45 0.09, 33.96 2.63 C38.47 5.17, 42.69 10.58, 44.79 15.42 C46.89 20.26, 47.92 26.72, 46.57 31.66 C45.21 36.6, 40.94 42.1, 36.68 45.07 C32.41 48.03, 25.95 49.98, 21 49.44 C16.04 48.9, 10.49 45.88, 6.95 41.85 C3.42 37.82, 0.09 30.54, -0.21 25.24 C-0.51 19.94, 2.05 14.16, 5.14 10.05 C8.23 5.94, 16.16 2.14, 18.35 0.58 C20.54 -0.97, 18.22 0.19, 18.3 0.71" stroke="#1e1e1e" stroke-width="2" fill="none"></path></g><g transform="translate(459.26185080654307 239.84252509628118) rotate(0 6.1699981689453125 12.5)"><text x="6.1699981689453125" y="0" font-family="Virgil, Segoe UI Emoji" font-size="20px" fill="#1e1e1e" text-anchor="middle" style="white-space: pre;" direction="ltr" dominant-baseline="text-before-edge">=</text></g><g stroke-linecap="round" transform="translate(377.33335876464844 338.3333282470703) rotate(0 18.666656494140625 19.666656494140625)"><path d="M9.33 0 C16.72 -0.47, 20.2 0.97, 28 0 M9.33 0 C13.2 0.15, 17.44 0.88, 28 0 M28 0 C35.25 -0.93, 37.36 5.1, 37.33 9.33 M28 0 C32.12 0.17, 36.4 2.72, 37.33 9.33 M37.33 9.33 C35.34 12.95, 35.52 19.6, 37.33 30 M37.33 9.33 C36.49 15.35, 36.25 22.13, 37.33 30 M37.33 30 C38.09 36.05, 34.67 39.3, 28 39.33 M37.33 30 C38.16 38.16, 36.17 41.43, 28 39.33 M28 39.33 C23.83 39.3, 17.9 38.92, 9.33 39.33 M28 39.33 C23.87 40.2, 18.26 39.88, 9.33 39.33 M9.33 39.33 C3.08 40.78, 0.01 36.79, 0 30 M9.33 39.33 C3.72 38.78, -0.83 36.96, 0 30 M0 30 C0.13 22.68, -1.21 13.62, 0 9.33 M0 30 C0.68 21.92, 0.28 14.56, 0 9.33 M0 9.33 C0.51 3.5, 3.47 -1.43, 9.33 0 M0 9.33 C0.94 4.26, 1.39 -2.01, 9.33 0" stroke="#1e1e1e" stroke-width="2" fill="none"></path></g><g transform="translate(390.9200210571289 345.49998474121094) rotate(0 5.079994201660156 12.5)"><text x="5.079994201660156" y="0" font-family="Virgil, Segoe UI Emoji" font-size="20px" fill="#1e1e1e" text-anchor="middle" style="white-space: pre;" direction="ltr" dominant-baseline="text-before-edge">b</text></g><g stroke-linecap="round"><g transform="translate(446.0003971246424 272.999587072419) rotate(0 -23.95343146720063 31.00016831681785)"><path d="M-0.74 0.12 C-8.85 10.69, -41.15 52.85, -48.91 63.07 M1.07 -0.86 C-6.65 9.43, -38.59 50.95, -46.72 61.51" stroke="#1e1e1e" stroke-width="2" fill="none"></path></g><g transform="translate(446.0003971246424 272.999587072419) rotate(0 -23.95343146720063 31.00016831681785)"><path d="M-39.17 37.67 C-41.13 42.56, -41.64 51.86, -46.72 61.51 M-39.17 37.67 C-42 43.87, -43.4 49.67, -46.72 61.51" stroke="#1e1e1e" stroke-width="2" fill="none"></path></g><g transform="translate(446.0003971246424 272.999587072419) rotate(0 -23.95343146720063 31.00016831681785)"><path d="M-25.62 48.1 C-31.3 50.02, -35.57 56.42, -46.72 61.51 M-25.62 48.1 C-31.88 51.79, -36.73 54.94, -46.72 61.51" stroke="#1e1e1e" stroke-width="2" fill="none"></path></g></g><mask></mask><g stroke-linecap="round"><g transform="translate(484.71266838460883 272.3089481731213) rotate(0 17.85943771805489 30.012205295763465)"><path d="M-1 1.07 C5.18 10.96, 30.21 49.44, 36.33 59.47 M0.67 0.58 C6.81 10.62, 29.99 50.89, 35.71 60.71" stroke="#1e1e1e" stroke-width="2" fill="none"></path></g><g transform="translate(484.71266838460883 272.3089481731213) rotate(0 17.85943771805489 30.012205295763465)"><path d="M16.54 44.67 C22.9 49.67, 24.76 52.5, 35.71 60.71 M16.54 44.67 C23.64 50.89, 31.19 57.4, 35.71 60.71" stroke="#1e1e1e" stroke-width="2" fill="none"></path></g><g transform="translate(484.71266838460883 272.3089481731213) rotate(0 17.85943771805489 30.012205295763465)"><path d="M31.34 36.1 C34.18 43.02, 32.52 47.89, 35.71 60.71 M31.34 36.1 C32.45 45.76, 34.08 55.69, 35.71 60.71" stroke="#1e1e1e" stroke-width="2" fill="none"></path></g></g><mask></mask><g stroke-linecap="round" transform="translate(500.33335876464844 336.33335876464844) rotate(0 23.666656494140625 24.5)"><path d="M20 0.23 C24.79 -0.9, 31.58 1.01, 35.86 3.67 C40.15 6.33, 44.04 11.24, 45.71 16.2 C47.39 21.16, 47.72 28.42, 45.91 33.43 C44.1 38.45, 39.32 43.78, 34.83 46.28 C30.35 48.78, 23.99 49.5, 19.01 48.44 C14.03 47.38, 8.14 43.91, 4.95 39.92 C1.76 35.94, -0.27 29.73, -0.11 24.52 C0.04 19.31, 2.35 12.81, 5.88 8.67 C9.41 4.52, 18.27 0.95, 21.07 -0.36 C23.86 -1.67, 22.52 0.27, 22.66 0.81 M17.69 0.73 C22.21 -0.75, 28.88 0.48, 33.56 2.76 C38.24 5.04, 43.53 9.64, 45.75 14.38 C47.97 19.13, 48.39 26.15, 46.88 31.22 C45.38 36.3, 41.09 42.02, 36.71 44.86 C32.32 47.69, 25.51 48.72, 20.57 48.25 C15.63 47.77, 10.52 45.63, 7.04 42.01 C3.56 38.39, 0.18 31.93, -0.31 26.54 C-0.8 21.15, 0.94 14, 4.11 9.69 C7.28 5.39, 16.4 2.13, 18.71 0.7 C21.02 -0.74, 17.97 0.77, 17.97 1.08" stroke="#1e1e1e" stroke-width="2" fill="none"></path></g><g transform="translate(517.5951637948243 348.50924262557805) rotate(0 6.1699981689453125 12.5)"><text x="6.1699981689453125" y="0" font-family="Virgil, Segoe UI Emoji" font-size="20px" fill="#1e1e1e" text-anchor="middle" style="white-space: pre;" direction="ltr" dominant-baseline="text-before-edge">=</text></g><g stroke-linecap="round" transform="translate(435.6666717529297 447.66673278808594) rotate(0 18.666656494140625 19.666656494140625)"><path d="M9.33 0 C13.92 -0.43, 18.21 0.47, 28 0 M9.33 0 C13.98 -0.63, 18.72 -0.33, 28 0 M28 0 C33.77 -1.3, 37.35 2.65, 37.33 9.33 M28 0 C36.28 0.36, 38.44 2.68, 37.33 9.33 M37.33 9.33 C39.4 14.81, 35.52 17.42, 37.33 30 M37.33 9.33 C36.49 16.31, 37.81 22.34, 37.33 30 M37.33 30 C38.65 35.91, 33.9 39.31, 28 39.33 M37.33 30 C35.7 34.36, 35.65 41.04, 28 39.33 M28 39.33 C22.47 40.92, 18.57 38.79, 9.33 39.33 M28 39.33 C23.25 40.03, 16.7 39.31, 9.33 39.33 M9.33 39.33 C3.13 38.72, -1.13 36.07, 0 30 M9.33 39.33 C1.03 37.33, 1.85 36.17, 0 30 M0 30 C-1.27 21.62, 0.87 17.39, 0 9.33 M0 30 C-0.69 21.31, 0.37 13.57, 0 9.33 M0 9.33 C1.48 2.03, 3.08 1.82, 9.33 0 M0 9.33 C1.54 1.3, 1.76 -0.52, 9.33 0" stroke="#1e1e1e" stroke-width="2" fill="none"></path></g><g transform="translate(449.3133316040039 454.83338928222656) rotate(0 5.019996643066406 12.5)"><text x="5.019996643066406" y="0" font-family="Virgil, Segoe UI Emoji" font-size="20px" fill="#1e1e1e" text-anchor="middle" style="white-space: pre;" direction="ltr" dominant-baseline="text-before-edge">c</text></g><g stroke-linecap="round"><g transform="translate(504.33335876464844 381.66676330566406) rotate(0 -24 31.333282470703125)"><path d="M0.37 -0.74 C-7.36 9.59, -39.04 51.88, -47.14 62.32 M-0.9 1.49 C-8.64 11.96, -39.59 53.45, -47.64 63.67" stroke="#1e1e1e" stroke-width="2" fill="none"></path></g><g transform="translate(504.33335876464844 381.66676330566406) rotate(0 -24 31.333282470703125)"><path d="M-40.18 39.81 C-43.09 46.87, -44.2 50.6, -47.64 63.67 M-40.18 39.81 C-41.04 45.56, -43.21 50.82, -47.64 63.67" stroke="#1e1e1e" stroke-width="2" fill="none"></path></g><g transform="translate(504.33335876464844 381.66676330566406) rotate(0 -24 31.333282470703125)"><path d="M-26.59 50.19 C-32.73 54.85, -37.04 56.14, -47.64 63.67 M-26.59 50.19 C-30.65 53.46, -36.01 56.29, -47.64 63.67" stroke="#1e1e1e" stroke-width="2" fill="none"></path></g></g><mask></mask><g stroke-linecap="round"><g transform="translate(543.0459813728901 380.97566570241815) rotate(0 17.85943771805489 30.012205295763465)"><path d="M0.86 -0.35 C6.7 9.65, 29.63 49.23, 35.45 59.25 M-0.15 -1.58 C5.48 8.62, 28.5 49.96, 34.35 60.37" stroke="#1e1e1e" stroke-width="2" fill="none"></path></g><g transform="translate(543.0459813728901 380.97566570241815) rotate(0 17.85943771805489 30.012205295763465)"><path d="M15.43 44.04 C21 48.85, 26.55 54.72, 34.35 60.37 M15.43 44.04 C21.29 48.35, 25.07 53.59, 34.35 60.37" stroke="#1e1e1e" stroke-width="2" fill="none"></path></g><g transform="translate(543.0459813728901 380.97566570241815) rotate(0 17.85943771805489 30.012205295763465)"><path d="M30.36 35.7 C30.94 43.37, 31.55 52.01, 34.35 60.37 M30.36 35.7 C32.16 42.34, 31.8 49.89, 34.35 60.37" stroke="#1e1e1e" stroke-width="2" fill="none"></path></g></g><mask></mask><g stroke-linecap="round" transform="translate(554.6667785644531 440.9166564941406) rotate(0 23.666656494140625 24.5)"><path d="M29.02 0.38 C33.69 1.06, 39.25 5.3, 42.23 9.44 C45.22 13.58, 47.16 19.95, 46.93 25.21 C46.71 30.47, 44.26 37.07, 40.89 41.01 C37.52 44.95, 31.75 48.24, 26.73 48.86 C21.7 49.48, 15.04 47.54, 10.75 44.74 C6.45 41.93, 2.45 37.06, 0.96 32.02 C-0.53 26.99, -0.23 19.47, 1.81 14.53 C3.86 9.59, 8.59 4.75, 13.24 2.38 C17.89 0.02, 26.92 0.43, 29.71 0.34 C32.49 0.24, 30.05 1.27, 29.97 1.82 M27.99 0.14 C32.8 0.51, 38.4 4.29, 41.69 8.16 C44.98 12.03, 47.62 18.16, 47.76 23.35 C47.89 28.55, 45.89 35.13, 42.5 39.34 C39.12 43.54, 32.46 47.44, 27.45 48.58 C22.44 49.72, 16.72 48.69, 12.45 46.18 C8.17 43.67, 3.7 38.48, 1.8 33.53 C-0.11 28.58, -0.55 21.59, 1.01 16.5 C2.58 11.41, 6.83 5.57, 11.19 2.98 C15.55 0.39, 24.57 1.32, 27.18 0.96 C29.78 0.6, 26.94 0.6, 26.81 0.84" stroke="#1e1e1e" stroke-width="2" fill="none"></path></g><g transform="translate(572.9385857308595 453.09254035507024) rotate(0 5.159996032714844 12.5)"><text x="5.159996032714844" y="0" font-family="Virgil, Segoe UI Emoji" font-size="20px" fill="#1e1e1e" text-anchor="middle" style="white-space: pre;" direction="ltr" dominant-baseline="text-before-edge">*</text></g><g stroke-linecap="round" transform="translate(515.6667175292969 548.4168090820312) rotate(0 18.666656494140625 19.666656494140625)"><path d="M9.33 0 C17.09 -1.01, 22.84 -1.04, 28 0 M9.33 0 C13.31 0.2, 17.86 -0.15, 28 0 M28 0 C32.76 -0.42, 38.39 2.99, 37.33 9.33 M28 0 C31.97 1.87, 35.79 3.66, 37.33 9.33 M37.33 9.33 C38.33 15.48, 38.53 18.44, 37.33 30 M37.33 9.33 C37.7 16.19, 38.07 22.81, 37.33 30 M37.33 30 C38.55 34.63, 32.33 39.4, 28 39.33 M37.33 30 C38.17 37.03, 34.94 40.16, 28 39.33 M28 39.33 C21.84 38.73, 19.85 38, 9.33 39.33 M28 39.33 C21.48 38.82, 16.32 39.56, 9.33 39.33 M9.33 39.33 C2.8 40.38, 0.56 35.13, 0 30 M9.33 39.33 C1.81 38.39, 2.07 38.25, 0 30 M0 30 C1.01 24.06, -1.08 22.71, 0 9.33 M0 30 C0.1 24.55, 0.29 18.76, 0 9.33 M0 9.33 C-0.89 4.78, 2.48 -1.13, 9.33 0 M0 9.33 C-1.16 0.9, 0.86 1.66, 9.33 0" stroke="#1e1e1e" stroke-width="2" fill="none"></path></g><g transform="translate(527.5233764648438 555.5834655761719) rotate(0 6.80999755859375 12.5)"><text x="6.80999755859375" y="0" font-family="Virgil, Segoe UI Emoji" font-size="20px" fill="#1e1e1e" text-anchor="middle" style="white-space: pre;" direction="ltr" dominant-baseline="text-before-edge">3</text></g><g stroke-linecap="round" transform="translate(610.3333435058594 546.416748046875) rotate(0 18.666656494140625 19.666656494140625)"><path d="M9.33 0 C12.69 -1.65, 18.25 -0.38, 28 0 M9.33 0 C14.54 -0.15, 21.6 -0.01, 28 0 M28 0 C32.26 1.62, 36 3.59, 37.33 9.33 M28 0 C32.2 -0.76, 39.05 4.34, 37.33 9.33 M37.33 9.33 C38.46 18.97, 37.03 25.78, 37.33 30 M37.33 9.33 C38.06 13.95, 36.51 20.2, 37.33 30 M37.33 30 C38.06 36.93, 34.84 40.05, 28 39.33 M37.33 30 C36.46 36.21, 33.28 37.77, 28 39.33 M28 39.33 C23.04 37.69, 16.98 37.6, 9.33 39.33 M28 39.33 C23.11 39.88, 18.78 38.89, 9.33 39.33 M9.33 39.33 C1.98 38.52, 1.8 37.99, 0 30 M9.33 39.33 C1.02 37.35, 2.02 37.18, 0 30 M0 30 C-0.54 24.06, 0.75 20.85, 0 9.33 M0 30 C-0.48 24.51, -0.35 16.79, 0 9.33 M0 9.33 C-1.01 1.19, 1.16 1.44, 9.33 0 M0 9.33 C2.3 2.05, 4.21 2.09, 9.33 0" stroke="#1e1e1e" stroke-width="2" fill="none"></path></g><g transform="translate(622.6000061035156 553.5834045410156) rotate(0 6.399993896484375 12.5)"><text x="6.399993896484375" y="0" font-family="Virgil, Segoe UI Emoji" font-size="20px" fill="#1e1e1e" text-anchor="middle" style="white-space: pre;" direction="ltr" dominant-baseline="text-before-edge">4</text></g><g stroke-linecap="round"><g transform="translate(555.6666259765625 490.75006103515625) rotate(0 -9 25.66668701171875)"><path d="M-0.3 0.18 C-3.09 8.76, -14.77 42.58, -17.86 51.06 M1.74 -0.76 C-1.09 8.02, -15.71 43.62, -18.74 52.46" stroke="#1e1e1e" stroke-width="2" fill="none"></path></g><g transform="translate(555.6666259765625 490.75006103515625) rotate(0 -9 25.66668701171875)"><path d="M-18.38 27.46 C-18.22 32.86, -19.06 36.33, -18.74 52.46 M-18.38 27.46 C-19.33 35.25, -19.12 41.65, -18.74 52.46" stroke="#1e1e1e" stroke-width="2" fill="none"></path></g><g transform="translate(555.6666259765625 490.75006103515625) rotate(0 -9 25.66668701171875)"><path d="M-2.39 33.54 C-5.52 37.64, -9.66 39.86, -18.74 52.46 M-2.39 33.54 C-7.84 39.62, -12.09 44.33, -18.74 52.46" stroke="#1e1e1e" stroke-width="2" fill="none"></path></g></g><mask></mask><g stroke-linecap="round"><g transform="translate(599 493.416748046875) rotate(0 13.33331298828125 23.333343505859375)"><path d="M0.14 -0.27 C4.49 7.43, 21.26 38.61, 25.79 46.42 M-1.25 -1.46 C3.5 6.41, 23.36 39.6, 28.04 47.82" stroke="#1e1e1e" stroke-width="2" fill="none"></path></g><g transform="translate(599 493.416748046875) rotate(0 13.33331298828125 23.333343505859375)"><path d="M8.78 31.88 C13.65 34.78, 18.99 41.68, 28.04 47.82 M8.78 31.88 C13.62 36.65, 19.07 40.77, 28.04 47.82" stroke="#1e1e1e" stroke-width="2" fill="none"></path></g><g transform="translate(599 493.416748046875) rotate(0 13.33331298828125 23.333343505859375)"><path d="M23.54 23.23 C24.36 28.53, 25.64 37.81, 28.04 47.82 M23.54 23.23 C23.95 30.66, 25.06 37.32, 28.04 47.82" stroke="#1e1e1e" stroke-width="2" fill="none"></path></g></g><mask></mask></svg>