<svg version="1.1" xmlns="http://www.w3.org/2000/svg" viewBox="0 0 1195.416653951009 873.3334350585947" width="1195.416653951009" height="873.3334350585947">
  <!-- svg-source:excalidraw -->
  
  <defs>
    <style class="style-fonts">
      @font-face {
        font-family: "Virgil";
        src: url("https://excalidraw.com/Virgil.woff2");
      }
      @font-face {
        font-family: "Cascadia";
        src: url("https://excalidraw.com/Cascadia.woff2");
      }
      @font-face {
        font-family: "Assistant";
        src: url("https://excalidraw.com/Assistant-Regular.woff2");
      }
    </style>
    
  </defs>
  <rect x="0" y="0" width="1195.416653951009" height="873.3334350585947" fill="#ffffff"></rect><g transform="translate(10 25.000050862631724) rotate(0 183.79193115234375 17.5)"><text x="0" y="0" font-family="Virgil, Segoe UI Emoji" font-size="28px" fill="#1e1e1e" text-anchor="start" style="white-space: pre;" direction="ltr" dominant-baseline="text-before-edge">{return add(1, add(2, 3));}</text></g><g stroke-linecap="round" transform="translate(457.36105600992823 10) rotate(0 72.08332061767578 40)"><path d="M2.85 7.77 C2.85 7.77, 2.85 7.77, 2.85 7.77 M2.85 7.77 C2.85 7.77, 2.85 7.77, 2.85 7.77 M1.01 22.08 C7.38 15.05, 14.3 7.41, 20.04 0.19 M1.01 22.08 C7.1 15.58, 14.32 7.94, 20.04 0.19 M1.14 34.12 C7.28 24.76, 16.91 17.1, 30.67 0.16 M1.14 34.12 C11.62 21.6, 21.7 10.2, 30.67 0.16 M1.28 46.16 C18.3 29.5, 33.53 10.82, 41.3 0.12 M1.28 46.16 C13.27 32.45, 24.06 20.81, 41.3 0.12 M0.75 58.96 C15.87 42.53, 30.56 24.23, 51.93 0.09 M0.75 58.96 C11.38 46.92, 23.2 33.66, 51.93 0.09 M2.2 69.49 C16.5 51.44, 33.85 32.54, 62.56 0.05 M2.2 69.49 C19.72 50.04, 36.49 30.58, 62.56 0.05 M6.93 76.25 C25.36 57.88, 38.9 37.89, 73.19 0.02 M6.93 76.25 C33.41 47.82, 57.27 17.68, 73.19 0.02 M14.93 79.23 C30.83 61.55, 47.96 41.17, 83.82 -0.01 M14.93 79.23 C41.43 47.5, 66.65 17.2, 83.82 -0.01 M24.25 80.7 C43.85 55.46, 66.14 34.66, 94.45 -0.05 M24.25 80.7 C49.76 50.55, 76.86 21.27, 94.45 -0.05 M34.88 80.67 C53.77 59.54, 74.23 35.26, 105.08 -0.08 M34.88 80.67 C54.33 59.04, 71.03 37.27, 105.08 -0.08 M45.51 80.64 C66.37 57.82, 82.81 35.56, 115.71 -0.12 M45.51 80.64 C63.7 59.51, 80.84 37.99, 115.71 -0.12 M56.14 80.6 C73.92 59.12, 90.9 40.75, 125.68 0.6 M56.14 80.6 C77.8 55.94, 98.58 31.5, 125.68 0.6 M66.77 80.57 C94.22 48.32, 122.56 18.41, 134.34 2.83 M66.77 80.57 C86.67 56.2, 107.29 33.48, 134.34 2.83 M77.4 80.53 C90.49 64.92, 106 46.36, 141.04 7.33 M77.4 80.53 C98.52 57.9, 117.27 34.23, 141.04 7.33 M88.03 80.5 C99.31 65.03, 110.99 53.4, 144.45 15.59 M88.03 80.5 C104.49 60.98, 119.98 41.84, 144.45 15.59 M98.66 80.46 C112.11 64.41, 126.98 44.66, 144.58 27.63 M98.66 80.46 C109.41 67.77, 120.11 56.28, 144.58 27.63 M109.29 80.43 C121.31 65.4, 137.06 47.79, 144.72 39.67 M109.29 80.43 C116.63 70.19, 125.41 61.82, 144.72 39.67 M119.92 80.39 C125.98 72.18, 131.42 66.86, 144.85 51.72 M119.92 80.39 C130.04 69.2, 138.55 58.45, 144.85 51.72 M132.52 78.1 C134.65 75.31, 140.11 71.31, 143.01 66.02 M132.52 78.1 C135.71 74.45, 138.29 70.56, 143.01 66.02" stroke="#ffec99" stroke-width="1" fill="none"></path><path d="M20 0 C47.61 -0.53, 73.19 -0.47, 124.17 0 M20 0 C42.07 0.17, 62.63 0.06, 124.17 0 M124.17 0 C136.88 1.53, 144.68 5.26, 144.17 20 M124.17 0 C137.84 -1.12, 142.52 4.72, 144.17 20 M144.17 20 C142.8 32.58, 145.79 43.89, 144.17 60 M144.17 20 C143.61 34.17, 143.78 47.65, 144.17 60 M144.17 60 C143 71.52, 139.47 80.99, 124.17 80 M144.17 60 C143.37 71.66, 136.66 79.85, 124.17 80 M124.17 80 C89.41 78.43, 54.06 80.9, 20 80 M124.17 80 C82.73 79.18, 40.05 78.94, 20 80 M20 80 C6.37 78.58, 0.11 74.32, 0 60 M20 80 C7.61 78.14, -2.24 71.11, 0 60 M0 60 C-1.1 49.33, 0.82 33.42, 0 20 M0 60 C0.45 49.32, -0.31 36.3, 0 20 M0 20 C1.11 8.48, 7.25 0.31, 20 0 M0 20 C0.83 5.65, 7.59 0.7, 20 0" stroke="#1e1e1e" stroke-width="2" fill="none"></path></g><g transform="translate(493.98239390055323 32.5) rotate(0 35.46198272705078 17.5)"><text x="35.46198272705078" y="0" font-family="Virgil, Segoe UI Emoji" font-size="28px" fill="#1e1e1e" text-anchor="middle" style="white-space: pre;" direction="ltr" dominant-baseline="text-before-edge">Block</text></g><g stroke-linecap="round" transform="translate(457.36115773518895 204.444529215496) rotate(0 72.08332061767578 40)"><path d="M2.85 7.77 C2.85 7.77, 2.85 7.77, 2.85 7.77 M2.85 7.77 C2.85 7.77, 2.85 7.77, 2.85 7.77 M1.01 22.08 C6.82 16.57, 13.2 9.74, 20.04 0.19 M1.01 22.08 C6.16 16.25, 11.94 7.94, 20.04 0.19 M1.14 34.12 C9.6 23.29, 18.51 18.29, 30.67 0.16 M1.14 34.12 C8.81 25, 18.17 14.77, 30.67 0.16 M1.28 46.16 C16.54 27.06, 31.19 12.73, 41.3 0.12 M1.28 46.16 C11.7 34.08, 20.71 22.06, 41.3 0.12 M0.75 58.96 C16.21 37.44, 33.13 21.55, 51.93 0.09 M0.75 58.96 C20.92 35.6, 39.97 12.06, 51.93 0.09 M2.2 69.49 C24.28 48.42, 44.34 24.03, 62.56 0.05 M2.2 69.49 C18.29 50.75, 36.23 30.32, 62.56 0.05 M6.93 76.25 C24.61 55.8, 45.93 34.17, 73.19 0.02 M6.93 76.25 C32.05 46.33, 59.05 16.32, 73.19 0.02 M14.93 79.23 C40.07 51.26, 63.6 21.85, 83.82 -0.01 M14.93 79.23 C35.03 56.69, 54.77 34.59, 83.82 -0.01 M24.25 80.7 C46.39 56.85, 68.46 30.46, 94.45 -0.05 M24.25 80.7 C42.71 58.41, 64.25 36.73, 94.45 -0.05 M34.88 80.67 C56.59 52.79, 79.48 27.19, 105.08 -0.08 M34.88 80.67 C55.94 56.48, 77.12 31.58, 105.08 -0.08 M45.51 80.64 C67.72 53.77, 91.8 28.12, 115.71 -0.12 M45.51 80.64 C63.78 60.91, 82.13 39.78, 115.71 -0.12 M56.14 80.6 C77.59 56.34, 97.51 33.99, 125.68 0.6 M56.14 80.6 C79.38 51.8, 105.22 22.4, 125.68 0.6 M66.77 80.57 C91.39 54.35, 118.1 24.06, 134.34 2.83 M66.77 80.57 C85.87 57.71, 104.62 37.84, 134.34 2.83 M77.4 80.53 C91.91 61.71, 109.3 44.72, 141.04 7.33 M77.4 80.53 C93.98 61.86, 109.06 42.71, 141.04 7.33 M88.03 80.5 C101.34 65.58, 115.37 52.52, 144.45 15.59 M88.03 80.5 C102.84 62.48, 118.5 46.21, 144.45 15.59 M98.66 80.46 C107.35 69.91, 117.85 57.42, 144.58 27.63 M98.66 80.46 C113.47 63.39, 128.31 45.61, 144.58 27.63 M109.29 80.43 C115.45 71.7, 126.25 62.9, 144.72 39.67 M109.29 80.43 C121.42 67.85, 132.57 54.24, 144.72 39.67 M119.92 80.39 C125.3 72.26, 134.9 65.95, 144.85 51.72 M119.92 80.39 C129.19 70.29, 138.06 60.97, 144.85 51.72 M132.52 78.1 C134.86 73.74, 141.79 70.87, 143.01 66.02 M132.52 78.1 C135.86 74.32, 138.54 71.13, 143.01 66.02" stroke="#ffc9c9" stroke-width="1" fill="none"></path><path d="M20 0 C48.76 -2.59, 78.37 -1.3, 124.17 0 M20 0 C58.59 0.54, 97.53 0.28, 124.17 0 M124.17 0 C136.19 -1.43, 142.28 6.53, 144.17 20 M124.17 0 C136.49 0.63, 144.54 5.44, 144.17 20 M144.17 20 C143.54 30.53, 143.72 42.45, 144.17 60 M144.17 20 C144.76 30.15, 144.96 41.57, 144.17 60 M144.17 60 C144.31 72.66, 138.43 80.81, 124.17 80 M144.17 60 C145.07 74.51, 138.83 81.78, 124.17 80 M124.17 80 C87.82 81.77, 53.43 81.64, 20 80 M124.17 80 C85.87 79.62, 46.77 79.61, 20 80 M20 80 C8.04 80.57, -0.22 73.1, 0 60 M20 80 C4.38 81.28, -0.46 71.32, 0 60 M0 60 C-1.68 49.51, 0.69 39.59, 0 20 M0 60 C-0.14 48.81, 0.72 40.15, 0 20 M0 20 C1.49 6.95, 7.2 1.07, 20 0 M0 20 C-0.93 6.41, 4.71 -1.32, 20 0" stroke="#1e1e1e" stroke-width="2" fill="none"></path></g><g transform="translate(483.8745015462241 226.944529215496) rotate(0 45.569976806640625 17.5)"><text x="45.569976806640625" y="0" font-family="Virgil, Segoe UI Emoji" font-size="28px" fill="#1e1e1e" text-anchor="middle" style="white-space: pre;" direction="ltr" dominant-baseline="text-before-edge">Return</text></g><g stroke-linecap="round" transform="translate(459.02782440185547 386.6667175292987) rotate(0 72.08332061767578 40)"><path d="M2.85 7.77 C2.85 7.77, 2.85 7.77, 2.85 7.77 M2.85 7.77 C2.85 7.77, 2.85 7.77, 2.85 7.77 M1.01 22.08 C5.35 18.85, 10.62 12.1, 20.04 0.19 M1.01 22.08 C6.23 17.07, 9.27 11.95, 20.04 0.19 M1.14 34.12 C11.65 22.58, 25.66 9.43, 30.67 0.16 M1.14 34.12 C13.35 21.65, 23.57 7.05, 30.67 0.16 M1.28 46.16 C9.91 35.94, 20.34 25.46, 41.3 0.12 M1.28 46.16 C9.98 36.67, 19.23 26.2, 41.3 0.12 M0.75 58.96 C19.98 34, 39.75 12.98, 51.93 0.09 M0.75 58.96 C11.91 44.48, 24.19 30.83, 51.93 0.09 M2.2 69.49 C17.72 51.36, 36.55 32.88, 62.56 0.05 M2.2 69.49 C18.71 47.85, 38.01 28.11, 62.56 0.05 M6.93 76.25 C21.73 59.31, 39.15 42.53, 73.19 0.02 M6.93 76.25 C30.46 51.62, 50.55 25.23, 73.19 0.02 M14.93 79.23 C32.76 60.03, 49.76 37.18, 83.82 -0.01 M14.93 79.23 C35.1 56.1, 54.39 32.3, 83.82 -0.01 M24.25 80.7 C43.3 57.43, 63.69 33.02, 94.45 -0.05 M24.25 80.7 C45.35 54.94, 67.67 29.67, 94.45 -0.05 M34.88 80.67 C64.41 48.04, 91.51 17.09, 105.08 -0.08 M34.88 80.67 C48.18 64.19, 63.52 47.1, 105.08 -0.08 M45.51 80.64 C69.62 55.4, 89.69 31.27, 115.71 -0.12 M45.51 80.64 C62.12 61.78, 78.32 41.36, 115.71 -0.12 M56.14 80.6 C72.28 64.65, 86.59 46.33, 125.68 0.6 M56.14 80.6 C69.6 65.24, 83.69 48.56, 125.68 0.6 M66.77 80.57 C86.96 55.83, 109.33 30.36, 134.34 2.83 M66.77 80.57 C85.86 59.06, 104.6 37.52, 134.34 2.83 M77.4 80.53 C101.86 52.05, 125.71 24.02, 141.04 7.33 M77.4 80.53 C89.51 64.96, 103.25 50.51, 141.04 7.33 M88.03 80.5 C108.55 57.3, 126.76 35.4, 144.45 15.59 M88.03 80.5 C98.87 68.32, 110.39 54.21, 144.45 15.59 M98.66 80.46 C116.67 60.89, 129.46 43.19, 144.58 27.63 M98.66 80.46 C112.95 64, 127.72 46.16, 144.58 27.63 M109.29 80.43 C119.37 68.39, 129.21 58.22, 144.72 39.67 M109.29 80.43 C123.04 66.28, 135.52 51.06, 144.72 39.67 M119.92 80.39 C129.46 67.42, 141.61 58.56, 144.85 51.72 M119.92 80.39 C125.51 75.13, 130.76 67.76, 144.85 51.72 M132.52 78.1 C136.33 73.87, 141.71 70.32, 143.01 66.02 M132.52 78.1 C134.89 75.71, 137.57 72.3, 143.01 66.02" stroke="#b2f2bb" stroke-width="1" fill="none"></path><path d="M20 0 C57.81 0.07, 99.34 -2.37, 124.17 0 M20 0 C47.23 -0.35, 74.26 -1.93, 124.17 0 M124.17 0 C136.76 -0.28, 143.57 5.6, 144.17 20 M124.17 0 C139.53 0.74, 143.95 7.46, 144.17 20 M144.17 20 C142.47 32.3, 142.93 44.13, 144.17 60 M144.17 20 C143.46 34.4, 144.47 47.33, 144.17 60 M144.17 60 C144.65 74.57, 136.81 81.07, 124.17 80 M144.17 60 C146.24 72.06, 139.78 80.12, 124.17 80 M124.17 80 C91.68 81.99, 59.24 81.23, 20 80 M124.17 80 C85.63 80.94, 47.68 80.54, 20 80 M20 80 C8.51 80.96, -0.73 73.98, 0 60 M20 80 C7.03 78.48, -1.34 71.9, 0 60 M0 60 C1.62 46.63, 1.39 30.77, 0 20 M0 60 C0.51 50.39, 0.46 39.74, 0 20 M0 20 C1.35 7.77, 6.46 -1.5, 20 0 M0 20 C0.09 6.32, 5.67 -0.65, 20 0" stroke="#1e1e1e" stroke-width="2" fill="none"></path></g><g transform="translate(490.8191604614258 409.1667175292987) rotate(0 40.29198455810547 17.5)"><text x="40.29198455810547" y="0" font-family="Virgil, Segoe UI Emoji" font-size="28px" fill="#1e1e1e" text-anchor="middle" style="white-space: pre;" direction="ltr" dominant-baseline="text-before-edge">FnCall</text></g><g mask="url(#mask-PKalVG-zjcsXkqFpFBenc)" stroke-linecap="round"><g transform="translate(529.5143838995115 95.46366301734088) rotate(0 0.20785527692089545 48.33335876464844)"><path d="M-0.78 0.5 C-0.58 16.47, 1.17 80.93, 1.3 97.01 M1 -0.29 C1.12 15.82, 1.14 78.61, 0.81 95.06" stroke="#1e1e1e" stroke-width="2" fill="none"></path></g><g transform="translate(529.5143838995115 95.46366301734088) rotate(0 0.20785527692089545 48.33335876464844)"><path d="M-7.54 71.5 C-3.92 80.26, -1.62 85.34, 0.81 95.06 M-7.54 71.5 C-4.08 79.12, -1.45 86.98, 0.81 95.06" stroke="#1e1e1e" stroke-width="2" fill="none"></path></g><g transform="translate(529.5143838995115 95.46366301734088) rotate(0 0.20785527692089545 48.33335876464844)"><path d="M9.56 71.64 C7.92 80.25, 4.97 85.28, 0.81 95.06 M9.56 71.64 C7.48 79.33, 4.56 87.15, 0.81 95.06" stroke="#1e1e1e" stroke-width="2" fill="none"></path></g></g><mask id="mask-PKalVG-zjcsXkqFpFBenc"><rect x="0" y="0" fill="#fff" width="629.9300944533533" height="292.13038054663775"></rect><rect x="500.32225290934264" y="126.29702178198932" fill="#000" width="58.79997253417969" height="35" opacity="1"></rect></mask><g transform="translate(500.3222529093425 126.29702178198886) rotate(0 29.448148061335075 17.52560766504621)"><text x="29.399986267089844" y="0" font-family="Virgil, Segoe UI Emoji" font-size="28px" fill="#1e1e1e" text-anchor="middle" style="white-space: pre;" direction="ltr" dominant-baseline="text-before-edge">body</text></g><g stroke-linecap="round"><g transform="translate(532.177145271055 295.8015247512094) rotate(0 -1.0875045164725634 38.1944465637207)"><path d="M0.29 0.13 C-0.3 12.87, -2.45 63.5, -2.78 76.32 M-1.01 -0.85 C-1.27 12.09, -0.18 65.17, -0.39 77.82" stroke="#1e1e1e" stroke-width="2" fill="none"></path></g><g transform="translate(532.177145271055 295.8015247512094) rotate(0 -1.0875045164725634 38.1944465637207)"><path d="M-9.05 54.36 C-5.71 61.84, -2.9 72.1, -0.39 77.82 M-9.05 54.36 C-6.88 62.12, -3.42 71.68, -0.39 77.82" stroke="#1e1e1e" stroke-width="2" fill="none"></path></g><g transform="translate(532.177145271055 295.8015247512094) rotate(0 -1.0875045164725634 38.1944465637207)"><path d="M8.05 54.29 C5.18 61.83, 1.78 72.12, -0.39 77.82 M8.05 54.29 C4.15 62.13, 1.53 71.71, -0.39 77.82" stroke="#1e1e1e" stroke-width="2" fill="none"></path></g></g><mask></mask><g mask="url(#mask-QQpXkFiy8C7nSW6UrjFQo)" stroke-linecap="round"><g transform="translate(534.330221028066 484.2943778106055) rotate(0 0.2705732903953617 43.194421132405296)"><path d="M-1.18 0.35 C-1.31 14.65, -0.03 72.35, 0.26 86.7 M0.4 -0.52 C0 13.33, -0.74 70.01, -0.83 84.74" stroke="#1e1e1e" stroke-width="2" fill="none"></path></g><g transform="translate(534.330221028066 484.2943778106055) rotate(0 0.2705732903953617 43.194421132405296)"><path d="M-9.14 61.16 C-5.2 69.83, -2.07 79.41, -0.83 84.74 M-9.14 61.16 C-5.7 68.65, -2.98 76.34, -0.83 84.74" stroke="#1e1e1e" stroke-width="2" fill="none"></path></g><g transform="translate(534.330221028066 484.2943778106055) rotate(0 0.2705732903953617 43.194421132405296)"><path d="M7.96 61.34 C5.33 69.77, 1.9 79.29, -0.83 84.74 M7.96 61.34 C6.13 68.93, 3.58 76.56, -0.83 84.74" stroke="#1e1e1e" stroke-width="2" fill="none"></path></g></g><mask id="mask-QQpXkFiy8C7nSW6UrjFQo"><rect x="0" y="0" fill="#fff" width="634.8713676088568" height="670.6832200754161"></rect><rect x="504.62680292441837" y="509.9887989430108" fill="#000" width="59.94798278808594" height="35" opacity="1"></rect></mask><g transform="translate(504.62680292441837 509.9887989430108) rotate(0 29.30768646090894 17.39816542362314)"><text x="29.97399139404297" y="0" font-family="Virgil, Segoe UI Emoji" font-size="28px" fill="#1e1e1e" text-anchor="middle" style="white-space: pre;" direction="ltr" dominant-baseline="text-before-edge">args</text></g><g stroke-linecap="round" transform="translate(463.47240447998047 590.0000508626308) rotate(0 72.08332061767578 40)"><path d="M2.85 7.77 C2.85 7.77, 2.85 7.77, 2.85 7.77 M2.85 7.77 C2.85 7.77, 2.85 7.77, 2.85 7.77 M1.01 22.08 C7.05 13.58, 13.11 7.74, 20.04 0.19 M1.01 22.08 C5.15 15.02, 11.75 9.02, 20.04 0.19 M1.14 34.12 C8.3 27.05, 13.9 19, 30.67 0.16 M1.14 34.12 C9.86 23.69, 16.9 15.39, 30.67 0.16 M1.28 46.16 C12.29 33.67, 24.32 20.07, 41.3 0.12 M1.28 46.16 C14.18 32.35, 26.23 16.4, 41.3 0.12 M0.75 58.96 C19.22 39.31, 37.55 18.81, 51.93 0.09 M0.75 58.96 C16.1 41.31, 33.55 22.63, 51.93 0.09 M2.2 69.49 C17.81 52.23, 35.3 30.82, 62.56 0.05 M2.2 69.49 C25.48 42.58, 47.28 16.54, 62.56 0.05 M6.93 76.25 C31.01 49.94, 57.38 20.48, 73.19 0.02 M6.93 76.25 C25.04 55.66, 41.5 36.4, 73.19 0.02 M14.93 79.23 C33.17 54.55, 55.03 30.91, 83.82 -0.01 M14.93 79.23 C41.49 50.69, 66.42 20.48, 83.82 -0.01 M24.25 80.7 C48.7 50.22, 77.69 20.76, 94.45 -0.05 M24.25 80.7 C42.14 59.86, 58.6 40.07, 94.45 -0.05 M34.88 80.67 C58.61 55.04, 80.74 31.19, 105.08 -0.08 M34.88 80.67 C61.71 51.13, 87.34 21.26, 105.08 -0.08 M45.51 80.64 C60.35 63.01, 76.31 42.96, 115.71 -0.12 M45.51 80.64 C71.73 48.5, 99.92 17.46, 115.71 -0.12 M56.14 80.6 C81.58 50.46, 109.56 18.86, 125.68 0.6 M56.14 80.6 C83.63 47.62, 111.8 17.12, 125.68 0.6 M66.77 80.57 C87.69 55.12, 108.22 29.52, 134.34 2.83 M66.77 80.57 C88.64 54.2, 112 28.43, 134.34 2.83 M77.4 80.53 C93.7 58.22, 113.98 37.7, 141.04 7.33 M77.4 80.53 C94.54 60.17, 110.61 40.19, 141.04 7.33 M88.03 80.5 C107.72 57.05, 129.79 35.96, 144.45 15.59 M88.03 80.5 C108.93 57.09, 128.21 33.08, 144.45 15.59 M98.66 80.46 C115.88 61.07, 133.65 41.86, 144.58 27.63 M98.66 80.46 C114.58 60.73, 131.66 42.83, 144.58 27.63 M109.29 80.43 C121.41 63.81, 137.9 50.02, 144.72 39.67 M109.29 80.43 C117.56 70.15, 126.46 60.39, 144.72 39.67 M119.92 80.39 C126.06 72.81, 134.86 64.14, 144.85 51.72 M119.92 80.39 C125.22 75.29, 129.58 68.42, 144.85 51.72 M132.52 78.1 C137.74 75.03, 141.39 68.74, 143.01 66.02 M132.52 78.1 C135.99 73.52, 140.33 69.34, 143.01 66.02" stroke="#b2f2bb" stroke-width="1" fill="none"></path><path d="M20 0 C60.18 -0.24, 97.42 -0.9, 124.17 0 M20 0 C61.03 -0.03, 99.42 0.66, 124.17 0 M124.17 0 C137.3 0.76, 144.27 8.66, 144.17 20 M124.17 0 C138.61 -0.86, 146.05 6.15, 144.17 20 M144.17 20 C142.94 31.68, 144.92 45.55, 144.17 60 M144.17 20 C144.44 34.87, 144.59 50.59, 144.17 60 M144.17 60 C145.67 71.65, 137.19 78.26, 124.17 80 M144.17 60 C146.23 71.94, 139.42 78.24, 124.17 80 M124.17 80 C86.54 81.54, 44.49 78.87, 20 80 M124.17 80 C87.24 78.83, 49.98 79.5, 20 80 M20 80 C5.66 81.53, -1.72 74.44, 0 60 M20 80 C8.26 80.78, -0.04 72.33, 0 60 M0 60 C-0.14 50.09, -0.36 38.4, 0 20 M0 60 C1.28 49.72, -0.34 39.78, 0 20 M0 20 C0.71 7.84, 7.49 1.93, 20 0 M0 20 C1.06 8.03, 8.66 -1.27, 20 0" stroke="#1e1e1e" stroke-width="2" fill="none"></path></g><g transform="translate(495.54373931884766 612.5000508626308) rotate(0 40.011985778808594 17.5)"><text x="40.011985778808594" y="0" font-family="Virgil, Segoe UI Emoji" font-size="28px" fill="#1e1e1e" text-anchor="middle" style="white-space: pre;" direction="ltr" dominant-baseline="text-before-edge">Num: 1</text></g><g stroke-linecap="round" transform="translate(753.47230275472 587.7777099609384) rotate(0 72.08332061767578 40)"><path d="M2.85 7.77 C2.85 7.77, 2.85 7.77, 2.85 7.77 M2.85 7.77 C2.85 7.77, 2.85 7.77, 2.85 7.77 M1.01 22.08 C6.9 12.51, 15.69 7.48, 20.04 0.19 M1.01 22.08 C4.28 18.02, 9.57 12.21, 20.04 0.19 M1.14 34.12 C8.83 21.33, 21.39 12.44, 30.67 0.16 M1.14 34.12 C10.85 23.13, 18.39 13.29, 30.67 0.16 M1.28 46.16 C13.61 29.81, 28.62 16.12, 41.3 0.12 M1.28 46.16 C12.55 31.6, 24.91 19.01, 41.3 0.12 M0.75 58.96 C20.68 35.13, 37.41 13.43, 51.93 0.09 M0.75 58.96 C10.32 46.7, 21.01 33.96, 51.93 0.09 M2.2 69.49 C21.16 44.94, 41.96 24.83, 62.56 0.05 M2.2 69.49 C19.75 49.35, 36.87 28.08, 62.56 0.05 M6.93 76.25 C21.21 59.97, 37.55 40.51, 73.19 0.02 M6.93 76.25 C21.47 58.44, 39.07 40.65, 73.19 0.02 M14.93 79.23 C34.38 56.13, 53.77 32.88, 83.82 -0.01 M14.93 79.23 C37.83 52.95, 60.59 27.07, 83.82 -0.01 M24.25 80.7 C37.36 63.76, 52.86 48.03, 94.45 -0.05 M24.25 80.7 C46.33 57.96, 65.89 33.79, 94.45 -0.05 M34.88 80.67 C48.19 63.58, 63.72 48.28, 105.08 -0.08 M34.88 80.67 C60.2 51.61, 84.9 23.7, 105.08 -0.08 M45.51 80.64 C70.63 54.94, 91.98 25.16, 115.71 -0.12 M45.51 80.64 C62.04 61.72, 77.63 43.62, 115.71 -0.12 M56.14 80.6 C75.39 61.81, 91.44 41.78, 125.68 0.6 M56.14 80.6 C73.07 61.35, 90.79 41.62, 125.68 0.6 M66.77 80.57 C94.73 50.72, 120.39 16.76, 134.34 2.83 M66.77 80.57 C86.93 58.33, 106.61 35.77, 134.34 2.83 M77.4 80.53 C98.13 56.6, 119.85 32.7, 141.04 7.33 M77.4 80.53 C96.29 59.71, 114.36 38.94, 141.04 7.33 M88.03 80.5 C105.11 61.34, 121.77 43.02, 144.45 15.59 M88.03 80.5 C103.07 64.31, 117.21 46.3, 144.45 15.59 M98.66 80.46 C109.25 68.08, 119.38 58.48, 144.58 27.63 M98.66 80.46 C113.05 63.23, 127.46 47.15, 144.58 27.63 M109.29 80.43 C119 70.95, 125.64 58.28, 144.72 39.67 M109.29 80.43 C119.59 67.6, 131.52 54.24, 144.72 39.67 M119.92 80.39 C128.05 70.25, 135.7 60.64, 144.85 51.72 M119.92 80.39 C128.83 70.8, 135.28 62.46, 144.85 51.72 M132.52 78.1 C135.89 75.83, 137.51 70.85, 143.01 66.02 M132.52 78.1 C136.78 73.39, 140.61 68.38, 143.01 66.02" stroke="#b2f2bb" stroke-width="1" fill="none"></path><path d="M20 0 C59.85 0.14, 97.38 -0.32, 124.17 0 M20 0 C48.88 0.21, 78.76 -0.55, 124.17 0 M124.17 0 C138.33 -1.04, 144.28 8.12, 144.17 20 M124.17 0 C135.7 2.28, 143.85 4.97, 144.17 20 M144.17 20 C143.52 33.09, 142.95 48.45, 144.17 60 M144.17 20 C144.44 28.46, 144.76 37.12, 144.17 60 M144.17 60 C145.68 71.63, 137.89 78.78, 124.17 80 M144.17 60 C144.44 72.4, 139.58 78.61, 124.17 80 M124.17 80 C86.69 79.32, 52.22 78.35, 20 80 M124.17 80 C94.81 80.48, 64.5 79.74, 20 80 M20 80 C7.3 80.81, -1.82 72.32, 0 60 M20 80 C6.55 81.22, -1.6 73.78, 0 60 M0 60 C2.03 46.71, 1.06 35.46, 0 20 M0 60 C0.12 46.66, -0.32 35.56, 0 20 M0 20 C-1.75 5.19, 4.96 -1.54, 20 0 M0 20 C-1.47 7.4, 6.32 1.38, 20 0" stroke="#1e1e1e" stroke-width="2" fill="none"></path></g><g transform="translate(785.2636388142903 610.2777099609384) rotate(0 40.29198455810547 17.5)"><text x="40.29198455810547" y="0" font-family="Virgil, Segoe UI Emoji" font-size="28px" fill="#1e1e1e" text-anchor="middle" style="white-space: pre;" direction="ltr" dominant-baseline="text-before-edge">FnCall</text></g><g mask="url(#mask-TkrV8mNwPXMfmMVIerf9D)" stroke-linecap="round"><g transform="translate(614.4743695327037 627.6121703511626) rotate(0 60.109116388520306 -1.9530695362022925)"><path d="M1.16 -0.7 C21.14 -1.26, 99.88 -3.08, 119.64 -3.72 M0.32 1.55 C20.1 1.24, 98.66 -1.24, 118.4 -2.09" stroke="#1e1e1e" stroke-width="2" fill="none"></path></g><g transform="translate(614.4743695327037 627.6121703511626) rotate(0 60.109116388520306 -1.9530695362022925)"><path d="M95.23 7.31 C100.67 3.46, 108.72 0.97, 118.4 -2.09 M95.23 7.31 C101.55 4.54, 106.18 3.46, 118.4 -2.09" stroke="#1e1e1e" stroke-width="2" fill="none"></path></g><g transform="translate(614.4743695327037 627.6121703511626) rotate(0 60.109116388520306 -1.9530695362022925)"><path d="M94.61 -9.78 C100.17 -8.79, 108.4 -6.42, 118.4 -2.09 M94.61 -9.78 C101.06 -8.29, 105.84 -5.12, 118.4 -2.09" stroke="#1e1e1e" stroke-width="2" fill="none"></path></g></g><mask id="mask-TkrV8mNwPXMfmMVIerf9D"><rect x="0" y="0" fill="#fff" width="834.6926023097443" height="731.5183094235672"></rect><rect x="644.6095021565756" y="608.1591008149599" fill="#000" width="59.947967529296875" height="35" opacity="1"></rect></mask><g transform="translate(644.6095021565756 608.1591008149599) rotate(0 29.845602254294818 18.36611371909794)"><text x="29.973983764648438" y="0" font-family="Virgil, Segoe UI Emoji" font-size="28px" fill="#1e1e1e" text-anchor="middle" style="white-space: pre;" direction="ltr" dominant-baseline="text-before-edge">next</text></g><g mask="url(#mask-fIcY21LORFVTSuqxrGp-H)" stroke-linecap="round"><g transform="translate(833.0611206863682 680.7963701497029) rotate(0 0.2705732903953617 43.194421132405296)"><path d="M-0.97 0.96 C-1.18 15.37, -0.72 71.52, -0.6 85.7 M0.72 0.43 C0.81 15.05, 1.26 72.42, 1.51 86.87" stroke="#1e1e1e" stroke-width="2" fill="none"></path></g><g transform="translate(833.0611206863682 680.7963701497029) rotate(0 0.2705732903953617 43.194421132405296)"><path d="M-7.32 63.48 C-2.74 69.91, -2.39 78.76, 1.51 86.87 M-7.32 63.48 C-5.1 70.08, -2.21 76.87, 1.51 86.87" stroke="#1e1e1e" stroke-width="2" fill="none"></path></g><g transform="translate(833.0611206863682 680.7963701497029) rotate(0 0.2705732903953617 43.194421132405296)"><path d="M9.78 63.28 C8.32 69.64, 2.64 78.56, 1.51 86.87 M9.78 63.28 C7.43 69.82, 5.74 76.67, 1.51 86.87" stroke="#1e1e1e" stroke-width="2" fill="none"></path></g></g><mask id="mask-fIcY21LORFVTSuqxrGp-H"><rect x="0" y="0" fill="#fff" width="933.6022672671589" height="867.1852124145134"></rect><rect x="803.3577025827205" y="706.4907912821081" fill="#000" width="59.94798278808594" height="35" opacity="1"></rect></mask><g transform="translate(803.3577025827205 706.4907912821081) rotate(0 29.948567582384896 17.953859839392862)"><text x="29.97399139404297" y="0" font-family="Virgil, Segoe UI Emoji" font-size="28px" fill="#1e1e1e" text-anchor="middle" style="white-space: pre;" direction="ltr" dominant-baseline="text-before-edge">args</text></g><g stroke-linecap="round" transform="translate(764.5833460489907 781.1110432942723) rotate(0 72.08332061767578 40)"><path d="M2.85 7.77 C2.85 7.77, 2.85 7.77, 2.85 7.77 M2.85 7.77 C2.85 7.77, 2.85 7.77, 2.85 7.77 M1.01 22.08 C5.24 14.6, 11.69 9.96, 20.04 0.19 M1.01 22.08 C4.42 17.92, 9.61 12.72, 20.04 0.19 M1.14 34.12 C9.97 20.31, 19.58 9.61, 30.67 0.16 M1.14 34.12 C8.47 25.14, 15.4 16.68, 30.67 0.16 M1.28 46.16 C11.84 32.8, 25.35 19.61, 41.3 0.12 M1.28 46.16 C10.78 36.9, 19.36 25.5, 41.3 0.12 M0.75 58.96 C14.25 46.08, 24.85 32.69, 51.93 0.09 M0.75 58.96 C12.03 47.26, 24.01 34.37, 51.93 0.09 M2.2 69.49 C15.95 53.5, 30.68 39.11, 62.56 0.05 M2.2 69.49 C17.78 49.77, 34.85 31.9, 62.56 0.05 M6.93 76.25 C21.29 61.09, 35.28 44.87, 73.19 0.02 M6.93 76.25 C27.58 53.84, 48.6 30.13, 73.19 0.02 M14.93 79.23 C39.77 51.87, 63.05 23.67, 83.82 -0.01 M14.93 79.23 C39.13 51.88, 64.22 23.54, 83.82 -0.01 M24.25 80.7 C46.36 57.61, 64.98 34.02, 94.45 -0.05 M24.25 80.7 C42.42 59.81, 58.76 39.91, 94.45 -0.05 M34.88 80.67 C51.53 58.35, 70.19 38.53, 105.08 -0.08 M34.88 80.67 C50.54 61.92, 66.24 43.41, 105.08 -0.08 M45.51 80.64 C63.59 61.16, 77.45 41.38, 115.71 -0.12 M45.51 80.64 C64.79 59.23, 83.22 37.1, 115.71 -0.12 M56.14 80.6 C84.66 47.06, 112.15 17.71, 125.68 0.6 M56.14 80.6 C78.29 54.38, 100.44 28.21, 125.68 0.6 M66.77 80.57 C91.37 49.64, 118.23 21.09, 134.34 2.83 M66.77 80.57 C91.1 51.88, 115.94 24.65, 134.34 2.83 M77.4 80.53 C97.04 56.74, 121.45 32.93, 141.04 7.33 M77.4 80.53 C93.06 64, 108.26 44.83, 141.04 7.33 M88.03 80.5 C103.47 61.14, 117.32 43.25, 144.45 15.59 M88.03 80.5 C100.57 66.4, 114.3 52.67, 144.45 15.59 M98.66 80.46 C107.33 69.9, 120.7 56.13, 144.58 27.63 M98.66 80.46 C114.62 63.73, 128.53 46.74, 144.58 27.63 M109.29 80.43 C122.94 64.27, 134.17 50.71, 144.72 39.67 M109.29 80.43 C119.27 68.59, 130.3 57.44, 144.72 39.67 M119.92 80.39 C129.63 69.52, 140.34 58.67, 144.85 51.72 M119.92 80.39 C130.8 69.89, 139.51 57.81, 144.85 51.72 M132.52 78.1 C136.46 74.51, 139.13 69.16, 143.01 66.02 M132.52 78.1 C135.36 74.67, 138.78 69.48, 143.01 66.02" stroke="#b2f2bb" stroke-width="1" fill="none"></path><path d="M20 0 C45.11 2.13, 71 -0.79, 124.17 0 M20 0 C54.08 0.57, 89.94 0.8, 124.17 0 M124.17 0 C136.11 1.12, 142.34 6.24, 144.17 20 M124.17 0 C136.15 1.57, 144.82 8.07, 144.17 20 M144.17 20 C145.17 30.55, 144.62 40.44, 144.17 60 M144.17 20 C144.92 31.45, 143.89 42.92, 144.17 60 M144.17 60 C143.86 73.91, 135.81 78.48, 124.17 80 M144.17 60 C145.18 71.69, 138.07 78.19, 124.17 80 M124.17 80 C88.64 81.92, 57.04 81.86, 20 80 M124.17 80 C94.59 79.24, 66.87 79.94, 20 80 M20 80 C8.32 78.34, 0.34 72.4, 0 60 M20 80 C8.09 80.14, -0.91 74.65, 0 60 M0 60 C1.58 43.18, 0.23 29.1, 0 20 M0 60 C0.68 49.26, 0.77 36.43, 0 20 M0 20 C-0.05 6.56, 8.54 1.59, 20 0 M0 20 C-0.19 7.55, 5.84 -1.83, 20 0" stroke="#1e1e1e" stroke-width="2" fill="none"></path></g><g transform="translate(796.6546808878579 803.6110432942723) rotate(0 40.011985778808594 17.5)"><text x="40.011985778808594" y="0" font-family="Virgil, Segoe UI Emoji" font-size="28px" fill="#1e1e1e" text-anchor="middle" style="white-space: pre;" direction="ltr" dominant-baseline="text-before-edge">Num: 1</text></g><g stroke-linecap="round" transform="translate(1041.2500127156575 783.3334350585947) rotate(0 72.08332061767578 40)"><path d="M2.85 7.77 C2.85 7.77, 2.85 7.77, 2.85 7.77 M2.85 7.77 C2.85 7.77, 2.85 7.77, 2.85 7.77 M1.01 22.08 C4.37 15.19, 11.2 9.55, 20.04 0.19 M1.01 22.08 C8.93 13.98, 16.64 5.87, 20.04 0.19 M1.14 34.12 C11.54 20.49, 24.58 10.54, 30.67 0.16 M1.14 34.12 C9.35 24.71, 18.35 14.43, 30.67 0.16 M1.28 46.16 C12.04 33.27, 20.84 21.88, 41.3 0.12 M1.28 46.16 C16.83 30.01, 32.27 12.5, 41.3 0.12 M0.75 58.96 C20.56 36.93, 41.05 12.64, 51.93 0.09 M0.75 58.96 C14.57 43.03, 28.16 26.32, 51.93 0.09 M2.2 69.49 C14.98 54.02, 27.79 39.21, 62.56 0.05 M2.2 69.49 C26.49 42.39, 48.94 14.45, 62.56 0.05 M6.93 76.25 C31.41 48.13, 54.78 21.12, 73.19 0.02 M6.93 76.25 C30.12 50.42, 54.24 21.85, 73.19 0.02 M14.93 79.23 C38.87 49.14, 63.18 23.07, 83.82 -0.01 M14.93 79.23 C32.44 59.1, 50.59 38.06, 83.82 -0.01 M24.25 80.7 C51.55 50.98, 78.07 20.83, 94.45 -0.05 M24.25 80.7 C45.1 56.3, 64.52 33.65, 94.45 -0.05 M34.88 80.67 C54.14 58.85, 71.41 40.85, 105.08 -0.08 M34.88 80.67 C61.7 49.21, 89.1 18.79, 105.08 -0.08 M45.51 80.64 C70.95 48.97, 98.25 18.74, 115.71 -0.12 M45.51 80.64 C60.62 62.39, 75.52 46.07, 115.71 -0.12 M56.14 80.6 C81.35 52.66, 106.11 20.74, 125.68 0.6 M56.14 80.6 C76.34 55.53, 98.84 32.92, 125.68 0.6 M66.77 80.57 C88.97 57.29, 108.82 33.67, 134.34 2.83 M66.77 80.57 C92.6 49.68, 119.72 17.84, 134.34 2.83 M77.4 80.53 C99.47 55.27, 124.63 26.17, 141.04 7.33 M77.4 80.53 C100.04 54.6, 121.76 28.95, 141.04 7.33 M88.03 80.5 C108.15 57.47, 130.31 32.09, 144.45 15.59 M88.03 80.5 C105.88 60.07, 124.51 37.73, 144.45 15.59 M98.66 80.46 C115.38 61.48, 131.83 37.71, 144.58 27.63 M98.66 80.46 C109.78 68.76, 120.7 55.99, 144.58 27.63 M109.29 80.43 C121.94 66.26, 136.04 50.27, 144.72 39.67 M109.29 80.43 C118.18 71.75, 126.12 62.06, 144.72 39.67 M119.92 80.39 C128.84 71.17, 136.2 63.69, 144.85 51.72 M119.92 80.39 C126.05 74.02, 132.02 66.78, 144.85 51.72 M132.52 78.1 C134.03 74.91, 138.32 74.06, 143.01 66.02 M132.52 78.1 C135.2 74.15, 137.68 71.17, 143.01 66.02" stroke="#b2f2bb" stroke-width="1" fill="none"></path><path d="M20 0 C59.59 -1.97, 98.11 0.18, 124.17 0 M20 0 C61.51 0.07, 102.02 -0.81, 124.17 0 M124.17 0 C138.3 -1.86, 144.3 5.26, 144.17 20 M124.17 0 C136.21 1.48, 143.09 6.22, 144.17 20 M144.17 20 C143 35.4, 145.48 48.03, 144.17 60 M144.17 20 C143.91 31.54, 143.62 44.31, 144.17 60 M144.17 60 C146.16 71.74, 138.68 81.46, 124.17 80 M144.17 60 C143.86 72.31, 136.93 78.9, 124.17 80 M124.17 80 C98.56 79.56, 75.19 81.72, 20 80 M124.17 80 C86.84 80.48, 49.42 80.37, 20 80 M20 80 C5.76 81.34, 0.53 74.19, 0 60 M20 80 C6.18 80.47, 1.31 71.91, 0 60 M0 60 C-0.12 46.9, 1.02 37.52, 0 20 M0 60 C0.23 49.34, -0.13 38.62, 0 20 M0 20 C-0.09 6.36, 8.45 -1.11, 20 0 M0 20 C1.74 7.74, 4.76 0.45, 20 0" stroke="#1e1e1e" stroke-width="2" fill="none"></path></g><g transform="translate(1073.3213475545247 805.8334350585947) rotate(0 40.011985778808594 17.5)"><text x="40.011985778808594" y="0" font-family="Virgil, Segoe UI Emoji" font-size="28px" fill="#1e1e1e" text-anchor="middle" style="white-space: pre;" direction="ltr" dominant-baseline="text-before-edge">Num: 1</text></g><g mask="url(#mask-3_LGrBlNO60ABoONNF4wT)" stroke-linecap="round"><g transform="translate(912.1787608937316 822.7170515911648) rotate(0 60.109116388520306 -1.9530695362022925)"><path d="M0.56 -0.35 C20.69 -0.78, 101.16 -2.98, 121.08 -3.62 M-0.61 -1.58 C19.41 -2.3, 100.6 -5.36, 120.59 -5.6" stroke="#1e1e1e" stroke-width="2" fill="none"></path></g><g transform="translate(912.1787608937316 822.7170515911648) rotate(0 60.109116388520306 -1.9530695362022925)"><path d="M97.33 3.58 C104.42 1.91, 113.07 -2.71, 120.59 -5.6 M97.33 3.58 C103.48 1.21, 109.66 -0.75, 120.59 -5.6" stroke="#1e1e1e" stroke-width="2" fill="none"></path></g><g transform="translate(912.1787608937316 822.7170515911648) rotate(0 60.109116388520306 -1.9530695362022925)"><path d="M96.87 -13.51 C103.97 -9.6, 112.76 -8.64, 120.59 -5.6 M96.87 -13.51 C103.3 -11.15, 109.61 -8.38, 120.59 -5.6" stroke="#1e1e1e" stroke-width="2" fill="none"></path></g></g><mask id="mask-3_LGrBlNO60ABoONNF4wT"><rect x="0" y="0" fill="#fff" width="1132.3969936707722" height="926.6231906635694"></rect><rect x="942.3138935176034" y="803.2639820549621" fill="#000" width="59.947967529296875" height="35" opacity="1"></rect></mask><g transform="translate(942.3138935176036 803.2639820549621) rotate(0 30.10261466207453 16.479454216859722)"><text x="29.973983764648438" y="0" font-family="Virgil, Segoe UI Emoji" font-size="28px" fill="#1e1e1e" text-anchor="middle" style="white-space: pre;" direction="ltr" dominant-baseline="text-before-edge">next</text></g></svg>