<svg version="1.1" xmlns="http://www.w3.org/2000/svg" viewBox="0 0 815.0831184387207 648.3333460489907" width="815.0831184387207" height="648.3333460489907">
  <!-- svg-source:excalidraw -->
  
  <defs>
    <style class="style-fonts">
      @font-face {
        font-family: "Virgil";
        src: url("https://excalidraw.com/Virgil.woff2");
      }
      @font-face {
        font-family: "Cascadia";
        src: url("https://excalidraw.com/Cascadia.woff2");
      }
      @font-face {
        font-family: "Assistant";
        src: url("https://excalidraw.com/Assistant-Regular.woff2");
      }
    </style>
    
  </defs>
  <rect x="0" y="0" width="815.0831184387207" height="648.3333460489907" fill="#ffffff"></rect><g transform="translate(10 37.66667938232422) rotate(0 99.96992492675781 12.5)"><text x="0" y="0" font-family="Virgil, Segoe UI Emoji" font-size="20px" fill="#1e1e1e" text-anchor="start" style="white-space: pre;" direction="ltr" dominant-baseline="text-before-edge">{{3*4;} return 1*2;}</text></g><g stroke-linecap="round" transform="translate(256.49999237060547 10) rotate(0 49.99998474121094 46.5)"><path d="M66.29 2.38 C73.91 4.32, 82 10.55, 87.56 16.5 C93.12 22.45, 98.01 30.47, 99.67 38.06 C101.32 45.65, 100.4 54.72, 97.49 62.03 C94.58 69.35, 88.67 76.78, 82.2 81.95 C75.73 87.12, 66.71 91.52, 58.69 93.07 C50.67 94.63, 41.93 93.91, 34.09 91.26 C26.26 88.62, 17.27 83.13, 11.68 77.18 C6.1 71.24, 2.23 63.15, 0.58 55.59 C-1.07 48.04, -0.94 39.15, 1.77 31.85 C4.49 24.54, 10.53 16.85, 16.86 11.77 C23.19 6.69, 30.98 2.59, 39.75 1.36 C48.52 0.12, 63.66 3.58, 69.48 4.35 C75.3 5.12, 74.76 5.25, 74.66 5.96 M67.01 3.39 C74.66 5.53, 82.18 10.95, 87.6 16.75 C93.03 22.54, 97.87 30.81, 99.56 38.17 C101.26 45.53, 100.87 53.5, 97.77 60.92 C94.67 68.34, 87.31 77.57, 80.96 82.69 C74.61 87.8, 67.61 90.21, 59.69 91.61 C51.76 93, 41.37 93.71, 33.44 91.06 C25.51 88.42, 17.46 81.78, 12.11 75.75 C6.75 69.71, 2.82 62.57, 1.3 54.84 C-0.23 47.12, 0.38 36.69, 2.96 29.4 C5.53 22.11, 10.17 15.68, 16.73 11.1 C23.28 6.51, 33.82 3.08, 42.3 1.87 C50.77 0.67, 63.63 3.32, 67.59 3.85 C71.55 4.38, 66.39 4.65, 66.06 5.03" stroke="#1e1e1e" stroke-width="2" fill="none"></path></g><g transform="translate(283.8746674578049 44.119534674825445) rotate(0 22.769981384277344 12.5)"><text x="22.769981384277344" y="0" font-family="Virgil, Segoe UI Emoji" font-size="20px" fill="#1e1e1e" text-anchor="middle" style="white-space: pre;" direction="ltr" dominant-baseline="text-before-edge">head</text></g><g stroke-linecap="round" transform="translate(477.2498207092285 14.125038146972656) rotate(0 49.99998474121094 42.5)"><path d="M27.62 4.19 C35.05 0.58, 47.57 0.22, 56.74 1.19 C65.9 2.16, 75.69 5.42, 82.62 9.99 C89.54 14.57, 95.61 21.44, 98.27 28.63 C100.93 35.83, 101.05 45.75, 98.56 53.15 C96.07 60.56, 89.91 67.72, 83.34 73.06 C76.76 78.39, 67.81 83.82, 59.1 85.16 C50.39 86.5, 39.55 84.33, 31.06 81.1 C22.57 77.86, 13.36 72.19, 8.15 65.78 C2.94 59.36, -0.05 50.01, -0.2 42.6 C-0.35 35.19, 1.71 27.83, 7.26 21.3 C12.82 14.77, 28.02 6.67, 33.12 3.41 C38.23 0.15, 37.54 1.17, 37.88 1.75 M66.48 4.13 C74.75 6.24, 84.2 12.19, 89.59 18.27 C94.99 24.35, 98.11 33.26, 98.84 40.63 C99.58 48.01, 97.94 55.89, 93.99 62.53 C90.05 69.16, 82.94 76.57, 75.19 80.43 C67.43 84.29, 56.51 86.17, 47.47 85.69 C38.42 85.22, 28.15 82.35, 20.91 77.59 C13.67 72.84, 7.47 64.32, 4.03 57.16 C0.58 50.01, -1.48 42.2, 0.24 34.69 C1.96 27.17, 7.8 17.72, 14.35 12.09 C20.9 6.46, 30.78 2.67, 39.53 0.9 C48.28 -0.88, 62.25 1.19, 66.84 1.44 C71.43 1.69, 67.07 1.52, 67.07 2.39" stroke="#1e1e1e" stroke-width="2" fill="none"></path></g><g transform="translate(504.3345025102951 31.572999946544314) rotate(0 23.059974670410156 25)"><text x="23.059974670410156" y="0" font-family="Virgil, Segoe UI Emoji" font-size="20px" fill="#1e1e1e" text-anchor="middle" style="white-space: pre;" direction="ltr" dominant-baseline="text-before-edge">comp</text><text x="23.059974670410156" y="25" font-family="Virgil, Segoe UI Emoji" font-size="20px" fill="#1e1e1e" text-anchor="middle" style="white-space: pre;" direction="ltr" dominant-baseline="text-before-edge">stmt</text></g><g stroke-linecap="round" transform="translate(480.5831642150879 182.79169464111328) rotate(0 49.99998474121094 42.5)"><path d="M39.81 -0.02 C48.12 -2.14, 60.15 -0.06, 68.58 3.04 C77.02 6.15, 85.3 12.33, 90.43 18.59 C95.55 24.85, 98.72 33.13, 99.34 40.59 C99.95 48.06, 98.55 56.9, 94.13 63.36 C89.71 69.83, 80.94 75.74, 72.79 79.4 C64.65 83.06, 54.26 86.04, 45.26 85.3 C36.27 84.57, 25.91 79.92, 18.8 74.99 C11.7 70.06, 5.64 62.76, 2.63 55.72 C-0.37 48.68, -1.43 40.21, 0.76 32.75 C2.95 25.29, 8.72 16.49, 15.77 10.96 C22.82 5.42, 37.87 1.12, 43.05 -0.46 C48.24 -2.04, 46.8 0.54, 46.87 1.46 M59.3 1.64 C67.79 2.45, 79.81 6.38, 86.41 11.52 C93 16.67, 97.08 25.07, 98.87 32.49 C100.65 39.91, 100.11 48.9, 97.12 56.06 C94.13 63.22, 88.03 70.77, 80.92 75.43 C73.81 80.08, 63.45 83.32, 54.48 84.01 C45.51 84.69, 35.04 82.86, 27.1 79.52 C19.16 76.19, 11.35 70.69, 6.85 64 C2.36 57.31, -0.22 47.22, 0.15 39.4 C0.52 31.58, 3.58 23.21, 9.09 17.06 C14.59 10.91, 24.57 5.12, 33.18 2.49 C41.79 -0.14, 56.18 1.18, 60.75 1.28 C65.31 1.39, 60.63 2.35, 60.58 3.1" stroke="#1e1e1e" stroke-width="2" fill="none"></path></g><g transform="translate(507.6678460161545 200.23965644068494) rotate(0 23.059974670410156 25)"><text x="23.059974670410156" y="0" font-family="Virgil, Segoe UI Emoji" font-size="20px" fill="#1e1e1e" text-anchor="middle" style="white-space: pre;" direction="ltr" dominant-baseline="text-before-edge">comp</text><text x="23.059974670410156" y="25" font-family="Virgil, Segoe UI Emoji" font-size="20px" fill="#1e1e1e" text-anchor="middle" style="white-space: pre;" direction="ltr" dominant-baseline="text-before-edge">stmt</text></g><g stroke-linecap="round" transform="translate(673.7498817443848 171.8334732055664) rotate(0 49.99998474121094 46.5)"><path d="M41.45 0.48 C49 -1.18, 59.17 0.7, 67.1 3.62 C75.02 6.55, 83.71 12.27, 89 18.02 C94.29 23.76, 97.4 30.67, 98.85 38.11 C100.3 45.55, 100.46 55.39, 97.68 62.64 C94.91 69.89, 88.8 76.81, 82.22 81.64 C75.65 86.46, 66.44 90.15, 58.24 91.59 C50.05 93.03, 40.87 93.06, 33.05 90.28 C25.24 87.5, 16.71 81.05, 11.37 74.91 C6.03 68.76, 2.42 60.75, 1.02 53.4 C-0.37 46.04, 0.12 37.84, 3 30.79 C5.87 23.75, 11.62 16.1, 18.26 11.13 C24.91 6.15, 38.43 2.73, 42.86 0.95 C47.29 -0.82, 44.81 -0.29, 44.84 0.48 M45.41 0.89 C53.44 -0.09, 65.51 1.49, 73.08 4.62 C80.66 7.75, 86.2 13.07, 90.86 19.66 C95.52 26.26, 100.18 36.27, 101.03 44.2 C101.87 52.13, 99.64 60.5, 95.92 67.24 C92.21 73.97, 85.84 80.15, 78.73 84.61 C71.61 89.07, 61.72 93.17, 53.23 94 C44.74 94.84, 35.04 93.44, 27.8 89.62 C20.55 85.8, 14.43 77.94, 9.75 71.07 C5.07 64.21, 0.62 56.04, -0.28 48.4 C-1.18 40.77, 0.49 31.89, 4.36 25.28 C8.23 18.67, 15.86 12.82, 22.95 8.74 C30.03 4.65, 42.92 1.93, 46.87 0.77 C50.82 -0.39, 46.8 0.92, 46.66 1.77" stroke="#1e1e1e" stroke-width="2" fill="none"></path></g><g transform="translate(693.8245690386154 193.45300788039185) rotate(0 30.069969177246094 25)"><text x="30.069969177246094" y="0" font-family="Virgil, Segoe UI Emoji" font-size="20px" fill="#1e1e1e" text-anchor="middle" style="white-space: pre;" direction="ltr" dominant-baseline="text-before-edge">return</text><text x="30.069969177246094" y="25" font-family="Virgil, Segoe UI Emoji" font-size="20px" fill="#1e1e1e" text-anchor="middle" style="white-space: pre;" direction="ltr" dominant-baseline="text-before-edge">stmt</text></g><g stroke-linecap="round" transform="translate(715.4165534973145 333.9166793823242) rotate(0 23.666656494140625 24.5)"><path d="M23.09 0.47 C27.91 -0.12, 34.04 1.65, 38.08 4.8 C42.12 7.94, 46.19 14.2, 47.31 19.34 C48.43 24.49, 47.28 31.08, 44.81 35.66 C42.35 40.25, 37.24 44.82, 32.54 46.86 C27.85 48.9, 21.47 49.58, 16.64 47.92 C11.82 46.25, 6.29 41.42, 3.59 36.88 C0.89 32.35, -0.26 25.74, 0.44 20.7 C1.14 15.65, 3.95 10, 7.79 6.61 C11.63 3.22, 20.79 1.3, 23.47 0.33 C26.15 -0.65, 23.84 0.47, 23.86 0.76 M18.07 0.07 C22.52 -1.33, 28.95 0.51, 33.59 2.93 C38.23 5.35, 43.83 9.93, 45.91 14.6 C47.99 19.27, 47.5 25.83, 46.08 30.95 C44.66 36.07, 41.46 42.33, 37.37 45.34 C33.29 48.36, 26.64 49.71, 21.57 49.02 C16.5 48.33, 10.56 44.93, 6.95 41.2 C3.34 37.47, 0.35 31.73, -0.07 26.64 C-0.48 21.55, 1.34 15.11, 4.46 10.66 C7.58 6.22, 16.42 1.68, 18.67 -0.01 C20.92 -1.7, 18.04 0.07, 17.97 0.51" stroke="#1e1e1e" stroke-width="2" fill="none"></path></g><g transform="translate(733.6883606637207 346.0925632432536) rotate(0 5.159996032714844 12.5)"><text x="5.159996032714844" y="0" font-family="Virgil, Segoe UI Emoji" font-size="20px" fill="#1e1e1e" text-anchor="middle" style="white-space: pre;" direction="ltr" dominant-baseline="text-before-edge">*</text></g><g stroke-linecap="round" transform="translate(673.083179473877 440.7501449584961) rotate(0 18.666656494140625 19.666656494140625)"><path d="M9.33 0 C15.19 1.59, 19.15 -1.88, 28 0 M9.33 0 C15.86 0.11, 23.29 0.63, 28 0 M28 0 C34.83 0.23, 35.36 3.87, 37.33 9.33 M28 0 C32.97 -0.6, 39.17 2.82, 37.33 9.33 M37.33 9.33 C37.32 15.47, 35.32 25.46, 37.33 30 M37.33 9.33 C36.58 15.77, 38.1 21.09, 37.33 30 M37.33 30 C36.53 35.09, 35.75 40.56, 28 39.33 M37.33 30 C38.86 36.74, 35.43 38.64, 28 39.33 M28 39.33 C24.36 40.82, 15.63 38.8, 9.33 39.33 M28 39.33 C24.59 39.73, 20.29 39.64, 9.33 39.33 M9.33 39.33 C3.18 40.31, -1.16 37.69, 0 30 M9.33 39.33 C5.34 38.35, -0.19 34.56, 0 30 M0 30 C-1.45 23.37, -0.83 18.18, 0 9.33 M0 30 C-0.35 22.96, 0.86 17.18, 0 9.33 M0 9.33 C1.58 4.01, 2.2 -0.8, 9.33 0 M0 9.33 C-0.81 3.18, 3.76 -0.16, 9.33 0" stroke="#1e1e1e" stroke-width="2" fill="none"></path></g><g transform="translate(689.0398368835449 447.9168014526367) rotate(0 2.7099990844726562 12.5)"><text x="2.7099990844726562" y="0" font-family="Virgil, Segoe UI Emoji" font-size="20px" fill="#1e1e1e" text-anchor="middle" style="white-space: pre;" direction="ltr" dominant-baseline="text-before-edge">1</text></g><g stroke-linecap="round" transform="translate(767.7498054504395 438.75008392333984) rotate(0 18.666656494140625 19.666656494140625)"><path d="M9.33 0 C18.39 -0.51, 25.08 -1.49, 28 0 M9.33 0 C15.67 -0.04, 20.51 0.2, 28 0 M28 0 C33.13 -0.52, 38.93 2.85, 37.33 9.33 M28 0 C35.73 -1.12, 38.58 3.21, 37.33 9.33 M37.33 9.33 C36.86 14.08, 35.47 17.29, 37.33 30 M37.33 9.33 C37.09 16.04, 38.25 24.5, 37.33 30 M37.33 30 C38.66 36.67, 35.27 38.73, 28 39.33 M37.33 30 C36.97 37.93, 33.82 41.38, 28 39.33 M28 39.33 C19.24 38.4, 12.76 40.39, 9.33 39.33 M28 39.33 C21.44 39.87, 14.27 40.1, 9.33 39.33 M9.33 39.33 C5.05 38.47, -0.16 34.78, 0 30 M9.33 39.33 C2.16 38.37, 1.85 34.45, 0 30 M0 30 C0.05 23.2, -0.52 19.16, 0 9.33 M0 30 C0.65 26.09, -0.59 20.88, 0 9.33 M0 9.33 C-0.71 3.18, 3.67 -0.14, 9.33 0 M0 9.33 C1.19 3.36, 4.84 -0.94, 9.33 0" stroke="#1e1e1e" stroke-width="2" fill="none"></path></g><g transform="translate(779.2964668273926 445.91674041748047) rotate(0 7.1199951171875 12.5)"><text x="7.1199951171875" y="0" font-family="Virgil, Segoe UI Emoji" font-size="20px" fill="#1e1e1e" text-anchor="middle" style="white-space: pre;" direction="ltr" dominant-baseline="text-before-edge">2</text></g><g stroke-linecap="round"><g transform="translate(715.6946835498793 383.0499422843086) rotate(0 -9.921607888493838 25.68341432537511)"><path d="M-1.07 0.29 C-4.47 8.89, -17.74 43.79, -20.81 52.33 M0.57 -0.6 C-2.42 7.61, -15.17 41.8, -18.61 50.71" stroke="#1e1e1e" stroke-width="2" fill="none"></path></g><g transform="translate(715.6946835498793 383.0499422843086) rotate(0 -9.921607888493838 25.68341432537511)"><path d="M-18.3 25.72 C-17.74 30.68, -16.7 39.49, -18.61 50.71 M-18.3 25.72 C-19.19 33.25, -17.94 41.16, -18.61 50.71" stroke="#1e1e1e" stroke-width="2" fill="none"></path></g><g transform="translate(715.6946835498793 383.0499422843086) rotate(0 -9.921607888493838 25.68341432537511)"><path d="M-2.3 31.77 C-6 35, -9.17 42.21, -18.61 50.71 M-2.3 31.77 C-8.11 37.47, -11.85 43.51, -18.61 50.71" stroke="#1e1e1e" stroke-width="2" fill="none"></path></g></g><mask></mask><g stroke-linecap="round"><g transform="translate(759.1246391687437 386.88830267787444) rotate(0 12.275605428663994 22.764234128592193)"><path d="M-0.97 0.96 C3.36 8.53, 20.86 38.16, 24.92 45.67 M0.72 0.42 C5.02 8.18, 20.01 40.03, 24.16 47.28" stroke="#1e1e1e" stroke-width="2" fill="none"></path></g><g transform="translate(759.1246391687437 386.88830267787444) rotate(0 12.275605428663994 22.764234128592193)"><path d="M5.83 30.28 C11.34 34.62, 13.83 35.62, 24.16 47.28 M5.83 30.28 C12.72 35.94, 18.77 41.32, 24.16 47.28" stroke="#1e1e1e" stroke-width="2" fill="none"></path></g><g transform="translate(759.1246391687437 386.88830267787444) rotate(0 12.275605428663994 22.764234128592193)"><path d="M21.04 22.47 C23.37 28.34, 22.65 30.98, 24.16 47.28 M21.04 22.47 C22.76 30.73, 23.67 38.75, 24.16 47.28" stroke="#1e1e1e" stroke-width="2" fill="none"></path></g></g><mask></mask><g stroke-linecap="round"><g transform="translate(732.4164009094238 276.6668167114258) rotate(0 0.666748046875 24.33331298828125)"><path d="M0.17 0.06 C0.37 8.14, 0.65 40.8, 0.79 48.87 M-0.41 -0.38 C-0.01 7.49, 1.59 39.78, 1.74 48.01" stroke="#1e1e1e" stroke-width="2" fill="none"></path></g><g transform="translate(732.4164009094238 276.6668167114258) rotate(0 0.666748046875 24.33331298828125)"><path d="M-7.41 25.46 C-5.2 29.4, -2.93 34.79, 1.74 48.01 M-7.41 25.46 C-4.48 31.4, -2.03 37.85, 1.74 48.01" stroke="#1e1e1e" stroke-width="2" fill="none"></path></g><g transform="translate(732.4164009094238 276.6668167114258) rotate(0 0.666748046875 24.33331298828125)"><path d="M9.23 24.85 C7.8 28.95, 6.42 34.47, 1.74 48.01 M9.23 24.85 C7.6 30.95, 5.49 37.57, 1.74 48.01" stroke="#1e1e1e" stroke-width="2" fill="none"></path></g></g><mask></mask><g stroke-linecap="round" transform="translate(479.3889791700576 332.74992624918605) rotate(0 49.99998474121094 46.5)"><path d="M41.8 1.33 C49.64 -0.41, 60.42 0.56, 68.08 3.06 C75.75 5.57, 82.52 10.46, 87.79 16.35 C93.05 22.23, 98.11 30.62, 99.69 38.36 C101.27 46.1, 100.4 55.36, 97.25 62.8 C94.1 70.24, 87.21 77.93, 80.8 83.01 C74.39 88.09, 66.89 92.15, 58.78 93.28 C50.67 94.42, 39.93 92.53, 32.14 89.81 C24.35 87.09, 17.16 82.81, 12.05 76.96 C6.94 71.11, 2.96 62.34, 1.49 54.69 C0.01 47.05, 0.39 38.48, 3.19 31.09 C6 23.7, 11.02 15.51, 18.31 10.35 C25.6 5.2, 41.31 1.81, 46.95 0.14 C52.59 -1.54, 52.26 -0.4, 52.14 0.3 M56.5 -0.7 C64.23 0.09, 74.08 5.8, 80.91 10.84 C87.75 15.88, 94.3 22.45, 97.51 29.54 C100.72 36.63, 101.66 45.52, 100.17 53.35 C98.68 61.18, 93.98 70.33, 88.59 76.5 C83.19 82.68, 75.77 87.59, 67.81 90.4 C59.84 93.21, 49.05 94.8, 40.8 93.36 C32.56 91.91, 24.4 86.58, 18.34 81.75 C12.28 76.92, 7.5 71.35, 4.46 64.39 C1.42 57.42, -0.88 47.56, 0.13 39.95 C1.13 32.35, 5.17 25.05, 10.47 18.75 C15.77 12.46, 23.96 5.1, 31.95 2.18 C39.94 -0.73, 54.05 1.3, 58.42 1.28 C62.8 1.25, 58.34 1.42, 58.21 2.02" stroke="#1e1e1e" stroke-width="2" fill="none"></path></g><g transform="translate(506.4736609711242 354.3694609240115) rotate(0 23.059974670410156 25)"><text x="23.059974670410156" y="0" font-family="Virgil, Segoe UI Emoji" font-size="20px" fill="#1e1e1e" text-anchor="middle" style="white-space: pre;" direction="ltr" dominant-baseline="text-before-edge">expr</text><text x="23.059974670410156" y="25" font-family="Virgil, Segoe UI Emoji" font-size="20px" fill="#1e1e1e" text-anchor="middle" style="white-space: pre;" direction="ltr" dominant-baseline="text-before-edge">stmt</text></g><g stroke-linecap="round" transform="translate(508.7223684522842 492.1665674845376) rotate(0 23.666656494140625 24.5)"><path d="M27.37 0.06 C32.15 0.57, 38.62 4.43, 41.99 8.5 C45.35 12.57, 47.67 19.15, 47.55 24.49 C47.44 29.83, 44.56 36.45, 41.31 40.55 C38.06 44.65, 33 48.24, 28.06 49.08 C23.12 49.93, 16.06 48.22, 11.68 45.6 C7.3 42.97, 3.4 38.2, 1.76 33.33 C0.12 28.47, 0.16 21.33, 1.84 16.4 C3.52 11.47, 7.4 6.41, 11.85 3.74 C16.29 1.08, 25.64 0.83, 28.53 0.4 C31.42 -0.03, 29.23 0.81, 29.19 1.17 M19.14 -0.17 C23.74 -1.65, 29.8 -0.39, 34.18 2.24 C38.55 4.87, 43.31 10.64, 45.38 15.6 C47.45 20.56, 48.07 27.06, 46.6 31.98 C45.14 36.9, 40.98 42.25, 36.58 45.12 C32.18 47.98, 25.3 49.83, 20.19 49.16 C15.09 48.5, 9.45 45.04, 5.97 41.14 C2.48 37.25, -0.54 31.17, -0.72 25.8 C-0.9 20.43, 1.55 13.05, 4.89 8.93 C8.23 4.82, 17.02 2.37, 19.31 1.1 C21.6 -0.16, 18.68 0.91, 18.62 1.33" stroke="#1e1e1e" stroke-width="2" fill="none"></path></g><g transform="translate(526.9941756186904 504.34245134546745) rotate(0 5.159996032714844 12.5)"><text x="5.159996032714844" y="0" font-family="Virgil, Segoe UI Emoji" font-size="20px" fill="#1e1e1e" text-anchor="middle" style="white-space: pre;" direction="ltr" dominant-baseline="text-before-edge">*</text></g><g stroke-linecap="round" transform="translate(466.3889944288467 599.0000330607095) rotate(0 18.666656494140625 19.666656494140625)"><path d="M9.33 0 C14.67 -1.18, 23.83 -1, 28 0 M9.33 0 C16.31 0.73, 23.03 -0.09, 28 0 M28 0 C33.77 1.35, 39.2 4.74, 37.33 9.33 M28 0 C35.56 0.01, 39.47 3.26, 37.33 9.33 M37.33 9.33 C38.31 13.76, 35.7 20, 37.33 30 M37.33 9.33 C36.62 15.33, 37.12 23.37, 37.33 30 M37.33 30 C38.48 35.94, 35.25 38.88, 28 39.33 M37.33 30 C36.83 37.46, 33.91 40.13, 28 39.33 M28 39.33 C23.06 40.68, 21.88 38.71, 9.33 39.33 M28 39.33 C21.58 38.93, 15.64 39.96, 9.33 39.33 M9.33 39.33 C3.95 40.06, 0.91 35.88, 0 30 M9.33 39.33 C3.1 38.91, 2.01 38.16, 0 30 M0 30 C1.12 22.87, -1.65 12.77, 0 9.33 M0 30 C-0.68 24.02, -0.55 20.27, 0 9.33 M0 9.33 C1.75 4.35, 2.13 1.23, 9.33 0 M0 9.33 C1.99 3.11, 3.5 -1.07, 9.33 0" stroke="#1e1e1e" stroke-width="2" fill="none"></path></g><g transform="translate(478.24565336439355 606.1666895548501) rotate(0 6.80999755859375 12.5)"><text x="6.80999755859375" y="0" font-family="Virgil, Segoe UI Emoji" font-size="20px" fill="#1e1e1e" text-anchor="middle" style="white-space: pre;" direction="ltr" dominant-baseline="text-before-edge">3</text></g><g stroke-linecap="round" transform="translate(561.0556204054092 596.9999720255532) rotate(0 18.666656494140625 19.666656494140625)"><path d="M9.33 0 C14.59 0.02, 16.43 1.2, 28 0 M9.33 0 C15.84 0.68, 23.63 0.81, 28 0 M28 0 C35.38 0.01, 39.2 3.24, 37.33 9.33 M28 0 C33.7 0.47, 37.42 4.19, 37.33 9.33 M37.33 9.33 C37.78 15.2, 35.29 17.41, 37.33 30 M37.33 9.33 C37.84 13.65, 37.78 18.03, 37.33 30 M37.33 30 C36.89 37.3, 33.95 40.03, 28 39.33 M37.33 30 C35.08 37.62, 33.81 37.89, 28 39.33 M28 39.33 C21.82 38.51, 15.85 39.22, 9.33 39.33 M28 39.33 C23.96 39.76, 19.55 39.26, 9.33 39.33 M9.33 39.33 C3.1 38.97, 1.75 37.91, 0 30 M9.33 39.33 C5.1 40.35, -1.7 37.62, 0 30 M0 30 C-0.83 21.51, -0.97 14.19, 0 9.33 M0 30 C1.02 26.08, -0.35 21.55, 0 9.33 M0 9.33 C1.73 3.11, 3.45 -0.93, 9.33 0 M0 9.33 C-0.49 5.04, 4.9 -0.53, 9.33 0" stroke="#1e1e1e" stroke-width="2" fill="none"></path></g><g transform="translate(573.3222830030654 604.1666285196939) rotate(0 6.399993896484375 12.5)"><text x="6.399993896484375" y="0" font-family="Virgil, Segoe UI Emoji" font-size="20px" fill="#1e1e1e" text-anchor="middle" style="white-space: pre;" direction="ltr" dominant-baseline="text-before-edge">4</text></g><g stroke-linecap="round"><g transform="translate(509.0004985048488 541.299830386522) rotate(0 -9.921607888493838 25.683414325375225)"><path d="M0.71 0.71 C-2.41 9.41, -15.28 42.45, -18.75 51.03 M-0.38 0.04 C-3.55 9.01, -15.69 44.02, -19.13 52.38" stroke="#1e1e1e" stroke-width="2" fill="none"></path></g><g transform="translate(509.0004985048488 541.299830386522) rotate(0 -9.921607888493838 25.683414325375225)"><path d="M-18.92 27.38 C-18.03 36.6, -19.85 41.71, -19.13 52.38 M-18.92 27.38 C-18.18 36.57, -17.91 45.81, -19.13 52.38" stroke="#1e1e1e" stroke-width="2" fill="none"></path></g><g transform="translate(509.0004985048488 541.299830386522) rotate(0 -9.921607888493838 25.683414325375225)"><path d="M-2.9 33.37 C-6.68 40.9, -13.24 44.25, -19.13 52.38 M-2.9 33.37 C-8.1 40.49, -13.71 47.53, -19.13 52.38" stroke="#1e1e1e" stroke-width="2" fill="none"></path></g></g><mask></mask><g stroke-linecap="round"><g transform="translate(552.4304541237134 545.1381907800878) rotate(0 12.275605428663937 22.764234128592307)"><path d="M1.09 -0.34 C5.02 7.26, 20.18 38.53, 24.28 46.34 M0.21 -1.57 C3.89 5.64, 18.98 36.93, 23.19 44.64" stroke="#1e1e1e" stroke-width="2" fill="none"></path></g><g transform="translate(552.4304541237134 545.1381907800878) rotate(0 12.275605428663937 22.764234128592307)"><path d="M4.9 27.59 C11 33.09, 19.48 41.53, 23.19 44.64 M4.9 27.59 C12.91 34.16, 18.73 40.8, 23.19 44.64" stroke="#1e1e1e" stroke-width="2" fill="none"></path></g><g transform="translate(552.4304541237134 545.1381907800878) rotate(0 12.275605428663937 22.764234128592307)"><path d="M20.14 19.82 C20.81 28.25, 23.82 39.48, 23.19 44.64 M20.14 19.82 C22.38 29.35, 22.39 38.96, 23.19 44.64" stroke="#1e1e1e" stroke-width="2" fill="none"></path></g></g><mask></mask><g stroke-linecap="round"><g transform="translate(530.1431848204159 431.8322227051631) rotate(0 0.3460160644716552 27.56671364749127)"><path d="M-0.27 0.81 C-0.15 10.22, 1.53 47.06, 1.81 56.11 M1.79 0.19 C1.75 9.3, 1.58 45.12, 1.45 54.5" stroke="#1e1e1e" stroke-width="2" fill="none"></path></g><g transform="translate(530.1431848204159 431.8322227051631) rotate(0 0.3460160644716552 27.56671364749127)"><path d="M-6.89 30.93 C-2.35 42.03, 1.19 50.54, 1.45 54.5 M-6.89 30.93 C-4.39 38.21, -1.62 45.56, 1.45 54.5" stroke="#1e1e1e" stroke-width="2" fill="none"></path></g><g transform="translate(530.1431848204159 431.8322227051631) rotate(0 0.3460160644716552 27.56671364749127)"><path d="M10.21 31.09 C8.06 42.08, 4.92 50.54, 1.45 54.5 M10.21 31.09 C7.57 38.33, 5.2 45.63, 1.45 54.5" stroke="#1e1e1e" stroke-width="2" fill="none"></path></g></g><mask></mask><g stroke-linecap="round"><g transform="translate(382.8055288526748 52.20839182535792) rotate(0 42.08372026927589 0)"><path d="M0.42 0.34 C14.31 0.04, 69.94 -0.89, 83.97 -1.08 M-0.81 -0.52 C12.85 -0.78, 68.78 -0.21, 82.92 -0.1" stroke="#1e1e1e" stroke-width="2" fill="none"></path></g><g transform="translate(382.8055288526748 52.20839182535792) rotate(0 42.08372026927589 0)"><path d="M59.36 8.25 C68.18 4.89, 74.13 2.99, 82.92 -0.1 M59.36 8.25 C64.11 6.18, 70.6 4.04, 82.92 -0.1" stroke="#1e1e1e" stroke-width="2" fill="none"></path></g><g transform="translate(382.8055288526748 52.20839182535792) rotate(0 42.08372026927589 0)"><path d="M59.5 -8.86 C68.38 -6.18, 74.28 -2.05, 82.92 -0.1 M59.5 -8.86 C64.16 -6.91, 70.61 -5.04, 82.92 -0.1" stroke="#1e1e1e" stroke-width="2" fill="none"></path></g></g><mask></mask><g stroke-linecap="round"><g transform="translate(529.1184782785238 111.01480543155685) rotate(0 -0.6706551397815019 30.451730286355996)"><path d="M-0.36 -0.61 C-0.45 9.6, -0.01 50.46, -0.21 60.79 M1.66 1.69 C1.47 12.13, 0.12 52.67, -0.57 62.27" stroke="#1e1e1e" stroke-width="2" fill="none"></path></g><g transform="translate(529.1184782785238 111.01480543155685) rotate(0 -0.6706551397815019 30.451730286355996)"><path d="M-7.96 38.39 C-6.63 48.18, -3.36 53.76, -0.57 62.27 M-7.96 38.39 C-4.98 45.89, -3.17 53.68, -0.57 62.27" stroke="#1e1e1e" stroke-width="2" fill="none"></path></g><g transform="translate(529.1184782785238 111.01480543155685) rotate(0 -0.6706551397815019 30.451730286355996)"><path d="M9.12 39.22 C4.82 48.68, 2.45 53.99, -0.57 62.27 M9.12 39.22 C6.3 46.61, 2.31 54.11, -0.57 62.27" stroke="#1e1e1e" stroke-width="2" fill="none"></path></g></g><mask></mask><g stroke-linecap="round"><g transform="translate(534.4721700880264 273.04175059000636) rotate(0 0.41667938232421875 25.83332061767578)"><path d="M-0.38 1.19 C0.05 9.8, 1.58 43.33, 1.86 51.77 M1.63 0.77 C2.04 9.58, 1.6 44.61, 1.44 53.37" stroke="#1e1e1e" stroke-width="2" fill="none"></path></g><g transform="translate(534.4721700880264 273.04175059000636) rotate(0 0.41667938232421875 25.83332061767578)"><path d="M-6.78 29.76 C-2.79 37.21, -2.6 41.93, 1.44 53.37 M-6.78 29.76 C-4.27 38.24, -2.32 45.39, 1.44 53.37" stroke="#1e1e1e" stroke-width="2" fill="none"></path></g><g transform="translate(534.4721700880264 273.04175059000636) rotate(0 0.41667938232421875 25.83332061767578)"><path d="M10.32 29.99 C10.17 37.33, 6.22 41.99, 1.44 53.37 M10.32 29.99 C7.42 38.37, 3.97 45.44, 1.44 53.37" stroke="#1e1e1e" stroke-width="2" fill="none"></path></g></g><mask></mask><g stroke-linecap="round"><g transform="translate(589.4721700880264 220.54175059000636) rotate(0 36.66667938232422 -0.41667938232421875)"><path d="M1.07 0.03 C13.15 -0.08, 60.5 -1.28, 72.65 -1.56 M0.17 -1 C12.62 -0.9, 62.78 -0.44, 75 -0.41" stroke="#1e1e1e" stroke-width="2" fill="none"></path></g><g transform="translate(589.4721700880264 220.54175059000636) rotate(0 36.66667938232422 -0.41667938232421875)"><path d="M51.45 7.99 C59.01 3.98, 65.2 3.48, 75 -0.41 M51.45 7.99 C56.91 5.44, 63.26 5.13, 75 -0.41" stroke="#1e1e1e" stroke-width="2" fill="none"></path></g><g transform="translate(589.4721700880264 220.54175059000636) rotate(0 36.66667938232422 -0.41667938232421875)"><path d="M51.56 -9.11 C58.96 -7.71, 65.11 -2.8, 75 -0.41 M51.56 -9.11 C56.85 -7.73, 63.17 -4.11, 75 -0.41" stroke="#1e1e1e" stroke-width="2" fill="none"></path></g></g><mask></mask></svg>