<svg version="1.1" xmlns="http://www.w3.org/2000/svg" viewBox="0 0 1297.013931274414 799.0183000584084" width="1297.013931274414" height="799.0183000584084">
  <!-- svg-source:excalidraw -->
  
  <defs>
    <style class="style-fonts">
      @font-face {
        font-family: "Virgil";
        src: url("https://excalidraw.com/Virgil.woff2");
      }
      @font-face {
        font-family: "Cascadia";
        src: url("https://excalidraw.com/Cascadia.woff2");
      }
      @font-face {
        font-family: "Assistant";
        src: url("https://excalidraw.com/Assistant-Regular.woff2");
      }
    </style>
    
  </defs>
  <rect x="0" y="0" width="1297.013931274414" height="799.0183000584084" fill="#ffffff"></rect><g transform="translate(10 18.323796274229153) rotate(0 200.47991943359375 17.5)"><text x="0" y="0" font-family="Virgil, Segoe UI Emoji" font-size="28px" fill="#1e1e1e" text-anchor="start" style="white-space: pre;" direction="ltr" dominant-baseline="text-before-edge">{ int x=3, y=5; return x+y; }</text></g><g stroke-linecap="round" transform="translate(239.40929517168547 390.68499851421893) rotate(0 72.08332061767578 40)"><path d="M2.85 7.77 C2.85 7.77, 2.85 7.77, 2.85 7.77 M2.85 7.77 C2.85 7.77, 2.85 7.77, 2.85 7.77 M1.01 22.08 C10.53 14.1, 16.02 5.97, 20.04 0.19 M1.01 22.08 C7.95 15.02, 14.53 5.25, 20.04 0.19 M1.14 34.12 C6.85 26.32, 13.87 16.7, 30.67 0.16 M1.14 34.12 C9.65 24.17, 18.81 15.58, 30.67 0.16 M1.28 46.16 C9.49 36.51, 17.86 27.62, 41.3 0.12 M1.28 46.16 C16.88 29.71, 31.82 11.68, 41.3 0.12 M0.75 58.96 C19.21 40.75, 33.52 19.87, 51.93 0.09 M0.75 58.96 C11.2 46.95, 20.11 34.19, 51.93 0.09 M2.2 69.49 C22.3 48.45, 41.41 25.37, 62.56 0.05 M2.2 69.49 C25.09 44.24, 46.54 18.46, 62.56 0.05 M6.93 76.25 C29 53.99, 47.17 28.88, 73.19 0.02 M6.93 76.25 C22.24 61.06, 36.04 43.88, 73.19 0.02 M14.93 79.23 C29.68 58.48, 49.23 38.53, 83.82 -0.01 M14.93 79.23 C32.65 58.28, 50.04 38.89, 83.82 -0.01 M24.25 80.7 C41.33 59.53, 62.21 39.53, 94.45 -0.05 M24.25 80.7 C51.32 50.19, 78.92 16.83, 94.45 -0.05 M34.88 80.67 C49.87 63.1, 63.9 46.08, 105.08 -0.08 M34.88 80.67 C61.9 50.84, 87.26 21.26, 105.08 -0.08 M45.51 80.64 C63.8 60.08, 80.72 40.07, 115.71 -0.12 M45.51 80.64 C73.82 48.22, 100.52 15.53, 115.71 -0.12 M56.14 80.6 C85.14 49.25, 111.38 18.17, 125.68 0.6 M56.14 80.6 C83.53 50, 111.66 17.36, 125.68 0.6 M66.77 80.57 C83.97 57.91, 101.56 38.55, 134.34 2.83 M66.77 80.57 C82.38 62.24, 98.63 43.22, 134.34 2.83 M77.4 80.53 C97.06 60.47, 115.21 38.77, 141.04 7.33 M77.4 80.53 C103.58 52.31, 128.17 24.01, 141.04 7.33 M88.03 80.5 C99.36 65.21, 115.14 52.29, 144.45 15.59 M88.03 80.5 C105.84 59.21, 124.39 40.27, 144.45 15.59 M98.66 80.46 C116.57 61.66, 131.08 44.99, 144.58 27.63 M98.66 80.46 C116.04 60.75, 132.89 41.63, 144.58 27.63 M109.29 80.43 C124.21 64.3, 138.99 47.61, 144.72 39.67 M109.29 80.43 C122.65 65.9, 134.88 49.24, 144.72 39.67 M119.92 80.39 C127.83 70.49, 133.87 62.42, 144.85 51.72 M119.92 80.39 C127.05 70.28, 136.71 61.34, 144.85 51.72 M132.52 78.1 C135.27 73.61, 140.5 71.02, 143.01 66.02 M132.52 78.1 C136.02 73.55, 139.72 70.1, 143.01 66.02" stroke="#ffc9c9" stroke-width="1" fill="none"></path><path d="M20 0 C47.47 -0.48, 73.3 -1.43, 124.17 0 M20 0 C51.31 -0.02, 83.45 0.32, 124.17 0 M124.17 0 C138.16 0.25, 142.23 7.7, 144.17 20 M124.17 0 C138.5 -0.89, 143.36 5.54, 144.17 20 M144.17 20 C144.47 33.01, 143.22 44.17, 144.17 60 M144.17 20 C145.46 29.73, 144.55 40.11, 144.17 60 M144.17 60 C145.37 71.51, 138.2 81.04, 124.17 80 M144.17 60 C146.03 71.71, 137.51 79.24, 124.17 80 M124.17 80 C102.79 81.9, 82.15 81.52, 20 80 M124.17 80 C92.29 78.63, 61.19 79.5, 20 80 M20 80 C6.48 78.51, -1.5 74.95, 0 60 M20 80 C5.42 79.77, -2.12 71.75, 0 60 M0 60 C-0.31 44.28, -0.27 29.31, 0 20 M0 60 C0.12 43.85, 0.31 28.2, 0 20 M0 20 C-0.12 6.11, 7.29 0.33, 20 0 M0 20 C-0.68 6.7, 8.58 2.22, 20 0" stroke="#1e1e1e" stroke-width="2" fill="none"></path></g><g transform="translate(279.20862683672453 395.68499851421893) rotate(0 32.28398895263672 35)"><text x="32.28398895263672" y="0" font-family="Virgil, Segoe UI Emoji" font-size="28px" fill="#1e1e1e" text-anchor="middle" style="white-space: pre;" direction="ltr" dominant-baseline="text-before-edge">Expr</text><text x="32.28398895263672" y="35" font-family="Virgil, Segoe UI Emoji" font-size="28px" fill="#1e1e1e" text-anchor="middle" style="white-space: pre;" direction="ltr" dominant-baseline="text-before-edge">stmt</text></g><g stroke-linecap="round" transform="translate(493.5758982600644 204.85162067608417) rotate(0 72.08332061767578 40)"><path d="M2.85 7.77 C2.85 7.77, 2.85 7.77, 2.85 7.77 M2.85 7.77 C2.85 7.77, 2.85 7.77, 2.85 7.77 M1.01 22.08 C8.76 13.38, 13.47 6.91, 20.04 0.19 M1.01 22.08 C7.86 13.59, 15.3 4.61, 20.04 0.19 M1.14 34.12 C9.84 24.26, 17.4 14.35, 30.67 0.16 M1.14 34.12 C7.02 26.54, 14.74 17.7, 30.67 0.16 M1.28 46.16 C14.6 32.54, 23.61 19.65, 41.3 0.12 M1.28 46.16 C17.62 28.18, 32.7 10.07, 41.3 0.12 M0.75 58.96 C18.32 38.31, 40.31 15.96, 51.93 0.09 M0.75 58.96 C17.76 41.24, 33.51 22.54, 51.93 0.09 M2.2 69.49 C24.62 44.77, 43.72 21.94, 62.56 0.05 M2.2 69.49 C18.24 50.81, 35.36 33.29, 62.56 0.05 M6.93 76.25 C30.22 47.08, 55.97 21.06, 73.19 0.02 M6.93 76.25 C30.64 47.75, 56.99 18.35, 73.19 0.02 M14.93 79.23 C31.03 61.79, 49.57 41.71, 83.82 -0.01 M14.93 79.23 C30.02 60.61, 45.76 41.57, 83.82 -0.01 M24.25 80.7 C42.92 61.6, 56.84 39.94, 94.45 -0.05 M24.25 80.7 C50 49.88, 76.65 20.29, 94.45 -0.05 M34.88 80.67 C53.68 60.88, 68.23 43.39, 105.08 -0.08 M34.88 80.67 C54.65 57.95, 74.95 34.72, 105.08 -0.08 M45.51 80.64 C66.12 59.31, 82.26 38.12, 115.71 -0.12 M45.51 80.64 C64.94 60.98, 81.96 41.3, 115.71 -0.12 M56.14 80.6 C79.45 55.54, 97.9 29.93, 125.68 0.6 M56.14 80.6 C83.34 48.85, 111.8 16.72, 125.68 0.6 M66.77 80.57 C82.34 63.59, 97.68 42.95, 134.34 2.83 M66.77 80.57 C87.87 55.75, 108.71 32.95, 134.34 2.83 M77.4 80.53 C103.62 51.22, 124.51 26.21, 141.04 7.33 M77.4 80.53 C94.85 59.18, 114.22 36.75, 141.04 7.33 M88.03 80.5 C104.47 61.17, 119.2 41.88, 144.45 15.59 M88.03 80.5 C99.83 65.99, 111.84 54.16, 144.45 15.59 M98.66 80.46 C113.93 65.85, 126.69 49.9, 144.58 27.63 M98.66 80.46 C112.07 64.5, 125.1 50.93, 144.58 27.63 M109.29 80.43 C120.94 70.03, 129.58 56.97, 144.72 39.67 M109.29 80.43 C123.55 64.76, 137.07 49.04, 144.72 39.67 M119.92 80.39 C127.11 73.18, 134.85 63.72, 144.85 51.72 M119.92 80.39 C125.77 73.77, 131.14 66.49, 144.85 51.72 M132.52 78.1 C135.84 73.48, 137.35 71.44, 143.01 66.02 M132.52 78.1 C135.21 74.96, 137.81 72.31, 143.01 66.02" stroke="#ffc9c9" stroke-width="1" fill="none"></path><path d="M20 0 C50.03 -0.05, 79.24 0.6, 124.17 0 M20 0 C47.06 0.22, 72.5 0.61, 124.17 0 M124.17 0 C138.37 -0.78, 143.46 5.69, 144.17 20 M124.17 0 C137.54 -1.67, 143.55 7.35, 144.17 20 M144.17 20 C143.2 35.66, 145.37 49.66, 144.17 60 M144.17 20 C144.78 28.69, 144.53 39.72, 144.17 60 M144.17 60 C145.79 71.92, 137.51 79.34, 124.17 80 M144.17 60 C142 73.3, 139.4 80.07, 124.17 80 M124.17 80 C87.59 80.45, 49.35 79.79, 20 80 M124.17 80 C98.85 79.55, 72.97 81.11, 20 80 M20 80 C5.58 79.8, -1.84 71.96, 0 60 M20 80 C8.17 77.79, -1.57 72.53, 0 60 M0 60 C2.07 49.18, 0.34 40.26, 0 20 M0 60 C-0.1 48.78, 0.27 38.29, 0 20 M0 20 C-0.59 6.7, 8.33 1.93, 20 0 M0 20 C-1.69 4.42, 6.79 -0.19, 20 0" stroke="#1e1e1e" stroke-width="2" fill="none"></path></g><g transform="translate(530.1972361506894 227.35162067608417) rotate(0 35.46198272705078 17.5)"><text x="35.46198272705078" y="0" font-family="Virgil, Segoe UI Emoji" font-size="28px" fill="#1e1e1e" text-anchor="middle" style="white-space: pre;" direction="ltr" dominant-baseline="text-before-edge">Block</text></g><g stroke-linecap="round" transform="translate(239.40929517168547 554.0183000584084) rotate(0 72.08332061767578 40)"><path d="M2.85 7.77 C2.85 7.77, 2.85 7.77, 2.85 7.77 M2.85 7.77 C2.85 7.77, 2.85 7.77, 2.85 7.77 M4.29 18.31 C9.89 12.97, 10.11 8.3, 20.04 0.19 M4.29 18.31 C8.87 12.67, 12.51 7.94, 20.04 0.19 M3.77 31.1 C11 23.64, 21.19 10.46, 30.67 0.16 M3.77 31.1 C13.83 19.62, 24.24 8.8, 30.67 0.16 M3.9 43.14 C17.21 29.98, 27.56 18.17, 41.3 0.12 M3.9 43.14 C18.09 26.86, 30.86 11.38, 41.3 0.12 M4.03 55.18 C21.87 32.59, 37.96 14.5, 51.93 0.09 M4.03 55.18 C21.98 35.5, 38.83 15.86, 51.93 0.09 M3.51 67.98 C21.09 47.76, 37.9 26.52, 62.56 0.05 M3.51 67.98 C18.9 49.8, 33.17 31.62, 62.56 0.05 M6.93 76.25 C26.37 56.65, 42.06 33.88, 73.19 0.02 M6.93 76.25 C24.81 55.4, 43.51 32.49, 73.19 0.02 M12.96 81.49 C39.68 49.98, 69.45 15.23, 83.82 -0.01 M12.96 81.49 C34.61 58.07, 56.46 33.35, 83.82 -0.01 M22.94 82.21 C50.16 52.92, 72.19 23.05, 94.45 -0.05 M22.94 82.21 C37.31 65.24, 51.66 49.89, 94.45 -0.05 M33.57 82.18 C52.32 60.02, 71.86 37.9, 105.08 -0.08 M33.57 82.18 C59.96 51.67, 86.45 21.96, 105.08 -0.08 M44.2 82.15 C65.98 54.29, 87.45 32.17, 115.71 -0.12 M44.2 82.15 C66.57 56.07, 89.16 30.93, 115.71 -0.12 M54.83 82.11 C78.2 58.14, 97.84 33.45, 125.03 1.36 M54.83 82.11 C74.93 57.17, 97 32.95, 125.03 1.36 M65.46 82.08 C92.52 51.01, 118.68 21.89, 134.34 2.83 M65.46 82.08 C80.32 65.55, 94.39 50.47, 134.34 2.83 M76.09 82.04 C92.88 63.9, 109.89 42.39, 141.04 7.33 M76.09 82.04 C96.77 59.13, 118.67 34.83, 141.04 7.33 M86.06 82.76 C102.43 63.16, 123.78 42.81, 144.45 15.59 M86.06 82.76 C98.67 67.13, 112.75 52.63, 144.45 15.59 M96.69 82.73 C114.92 62.51, 134.28 41.13, 144.58 27.63 M96.69 82.73 C106.06 72.12, 115.48 60.52, 144.58 27.63 M107.32 82.69 C123.08 64.6, 134.63 50.8, 144.72 39.67 M107.32 82.69 C118 69.01, 129.6 57.41, 144.72 39.67 M117.95 82.66 C124.83 74.63, 133.92 63.82, 144.85 51.72 M117.95 82.66 C126.07 73.93, 135.26 63.76, 144.85 51.72 M127.93 83.38 C130.83 78.53, 136.49 74.78, 146.3 62.25 M127.93 83.38 C134.18 77.53, 138.2 69.58, 146.3 62.25" stroke="#b2f2bb" stroke-width="1" fill="none"></path><path d="M20 0 C46.91 1.66, 75.38 0.66, 124.17 0 M20 0 C52.98 -0.93, 84.74 -1.03, 124.17 0 M124.17 0 C137.53 -1.45, 143.63 7.26, 144.17 20 M124.17 0 C138.59 -0.76, 144.21 5.71, 144.17 20 M144.17 20 C143.23 35.6, 143.34 52.29, 144.17 60 M144.17 20 C145.12 27.64, 144.31 36.36, 144.17 60 M144.17 60 C142.28 73.3, 139.15 80.06, 124.17 80 M144.17 60 C145.36 74.34, 138.26 80.08, 124.17 80 M124.17 80 C91.2 80.15, 61.12 79.52, 20 80 M124.17 80 C100.15 80.74, 76.31 80.15, 20 80 M20 80 C7.97 78.08, -1.36 72.64, 0 60 M20 80 C5.39 79.25, -1.69 75.56, 0 60 M0 60 C-0.57 50.26, -0.13 40.01, 0 20 M0 60 C-0.42 49.14, 0.71 39.21, 0 20 M0 20 C-1.47 4.71, 6.77 -0.16, 20 0 M0 20 C0.82 7.72, 6.8 -0.23, 20 0" stroke="#1e1e1e" stroke-width="2" fill="none"></path></g><g transform="translate(270.48663434404875 576.5183000584084) rotate(0 41.0059814453125 17.5)"><text x="41.0059814453125" y="0" font-family="Virgil, Segoe UI Emoji" font-size="28px" fill="#1e1e1e" text-anchor="middle" style="white-space: pre;" direction="ltr" dominant-baseline="text-before-edge">Assign</text></g><g stroke-linecap="round" transform="translate(119.40929517168547 706.5183763523537) rotate(0 72.08332061767578 40)"><path d="M2.85 7.77 C2.85 7.77, 2.85 7.77, 2.85 7.77 M2.85 7.77 C2.85 7.77, 2.85 7.77, 2.85 7.77 M4.29 18.31 C8.07 12.68, 11.06 9.34, 20.04 0.19 M4.29 18.31 C8.28 13.15, 12.21 9, 20.04 0.19 M3.77 31.1 C15.82 18.39, 25.25 6.54, 30.67 0.16 M3.77 31.1 C11.98 20.79, 20.59 12.7, 30.67 0.16 M3.9 43.14 C15.5 29.72, 26.64 19.72, 41.3 0.12 M3.9 43.14 C12.93 34.3, 21.15 24.3, 41.3 0.12 M4.03 55.18 C15.36 43.34, 25.05 33.74, 51.93 0.09 M4.03 55.18 C20.42 35.42, 37.79 16.73, 51.93 0.09 M3.51 67.98 C23.37 46.49, 45.97 23.07, 62.56 0.05 M3.51 67.98 C19.82 49.06, 37.64 31.24, 62.56 0.05 M6.93 76.25 C31.11 50.67, 53.63 19.89, 73.19 0.02 M6.93 76.25 C31.6 50.19, 54.57 22.92, 73.19 0.02 M12.96 81.49 C39.51 49.55, 65.14 19.57, 83.82 -0.01 M12.96 81.49 C41.6 47.71, 68.9 17.08, 83.82 -0.01 M22.94 82.21 C40.48 59.81, 60.92 38.17, 94.45 -0.05 M22.94 82.21 C40.73 60.94, 59.36 41, 94.45 -0.05 M33.57 82.18 C55.06 58.38, 75.35 35.04, 105.08 -0.08 M33.57 82.18 C57.68 53.7, 81.75 26.24, 105.08 -0.08 M44.2 82.15 C60.25 64.57, 76.79 47.15, 115.71 -0.12 M44.2 82.15 C67.92 53.29, 91.5 27.26, 115.71 -0.12 M54.83 82.11 C75.44 59.81, 95.15 33.31, 125.03 1.36 M54.83 82.11 C70.91 63.86, 85.23 47.11, 125.03 1.36 M65.46 82.08 C80.35 62.89, 99.24 45.01, 134.34 2.83 M65.46 82.08 C83.35 58.85, 103.76 37.7, 134.34 2.83 M76.09 82.04 C100.07 55.33, 121.77 27.67, 141.04 7.33 M76.09 82.04 C98.34 54.89, 121.06 28.22, 141.04 7.33 M86.06 82.76 C103.92 61.46, 126.79 36.78, 144.45 15.59 M86.06 82.76 C103.85 62.35, 121.37 41.93, 144.45 15.59 M96.69 82.73 C113.07 63.01, 134.16 40.01, 144.58 27.63 M96.69 82.73 C116.83 60.23, 135.44 39.24, 144.58 27.63 M107.32 82.69 C115 73.88, 122.67 64.33, 144.72 39.67 M107.32 82.69 C115.17 74.55, 121.92 64.11, 144.72 39.67 M117.95 82.66 C128.24 70.3, 137.25 58.84, 144.85 51.72 M117.95 82.66 C127.46 70.18, 138.64 57.8, 144.85 51.72 M127.93 83.38 C132.81 77.35, 138.88 73.34, 146.3 62.25 M127.93 83.38 C135.42 75.76, 142.1 68.95, 146.3 62.25" stroke="#b2f2bb" stroke-width="1" fill="none"></path><path d="M20 0 C60.08 -2.28, 100.7 0.52, 124.17 0 M20 0 C47.23 -0.22, 74.15 0.8, 124.17 0 M124.17 0 C138.45 -0.66, 144.21 5.83, 144.17 20 M124.17 0 C139.54 1.54, 146.33 5.29, 144.17 20 M144.17 20 C142.12 32.81, 144.98 45.83, 144.17 60 M144.17 20 C143.23 29.16, 144.99 38.38, 144.17 60 M144.17 60 C145.2 74.21, 138.16 80.07, 124.17 80 M144.17 60 C144.29 71.58, 136.86 78.67, 124.17 80 M124.17 80 C89.14 78.41, 58.71 78.82, 20 80 M124.17 80 C94.62 78.33, 63.09 78.94, 20 80 M20 80 C5.56 79.35, -1.47 75.27, 0 60 M20 80 C5.48 80.25, -0.2 72.72, 0 60 M0 60 C-0.54 48.23, 0.34 34.62, 0 20 M0 60 C-1.07 46.96, -0.28 35.79, 0 20 M0 20 C0.71 7.58, 6.78 -0.2, 20 0 M0 20 C0.93 5.15, 8.09 -2.1, 20 0" stroke="#1e1e1e" stroke-width="2" fill="none"></path></g><g transform="translate(150.64063367266203 729.0183763523537) rotate(0 40.85198211669922 17.5)"><text x="40.85198211669922" y="0" font-family="Virgil, Segoe UI Emoji" font-size="28px" fill="#1e1e1e" text-anchor="middle" style="white-space: pre;" direction="ltr" dominant-baseline="text-before-edge">Var: x</text></g><g stroke-linecap="round" transform="translate(353.15921887774016 709.0183000584084) rotate(0 72.08332061767578 40)"><path d="M2.85 7.77 C2.85 7.77, 2.85 7.77, 2.85 7.77 M2.85 7.77 C2.85 7.77, 2.85 7.77, 2.85 7.77 M1.01 22.08 C4.54 15.16, 9.94 11.64, 20.04 0.19 M1.01 22.08 C6.11 17.83, 8.37 13.37, 20.04 0.19 M1.14 34.12 C9.23 25.6, 18.63 15.86, 30.67 0.16 M1.14 34.12 C8.26 25.97, 16.1 17.51, 30.67 0.16 M1.28 46.16 C9.63 34.62, 19.36 23.85, 41.3 0.12 M1.28 46.16 C14.04 29.37, 29.17 14.58, 41.3 0.12 M0.75 58.96 C15.31 42.85, 29.74 26.45, 51.93 0.09 M0.75 58.96 C13.26 43.76, 25.53 29.6, 51.93 0.09 M2.2 69.49 C24.56 41.8, 46.55 14.69, 62.56 0.05 M2.2 69.49 C17.67 51.01, 31.91 33.31, 62.56 0.05 M6.93 76.25 C34.92 44.54, 59.36 18.01, 73.19 0.02 M6.93 76.25 C27.72 52.97, 47.28 28.98, 73.19 0.02 M14.93 79.23 C32.26 62.02, 47.28 45.96, 83.82 -0.01 M14.93 79.23 C29.48 61.05, 43.64 43.86, 83.82 -0.01 M24.25 80.7 C39.86 60.79, 58.87 42.37, 94.45 -0.05 M24.25 80.7 C41.37 60.69, 58.78 40.64, 94.45 -0.05 M34.88 80.67 C53.55 59.13, 73.41 38.51, 105.08 -0.08 M34.88 80.67 C51.99 58.97, 72.16 38.94, 105.08 -0.08 M45.51 80.64 C67.83 55.43, 91.45 29.15, 115.71 -0.12 M45.51 80.64 C62.76 60.7, 79.48 40.93, 115.71 -0.12 M56.14 80.6 C80.55 51.89, 106.68 23.68, 125.68 0.6 M56.14 80.6 C70.33 63.89, 85.37 46.18, 125.68 0.6 M66.77 80.57 C86.95 57.71, 110 31.36, 134.34 2.83 M66.77 80.57 C81.83 63.44, 95.64 45.99, 134.34 2.83 M77.4 80.53 C98.66 59.99, 117.59 35.59, 141.04 7.33 M77.4 80.53 C92.87 64.74, 107.91 45.99, 141.04 7.33 M88.03 80.5 C109.71 56.78, 133.26 31.26, 144.45 15.59 M88.03 80.5 C105.89 60.52, 123.53 39.13, 144.45 15.59 M98.66 80.46 C118.33 58.82, 135.85 40.72, 144.58 27.63 M98.66 80.46 C110.74 64.57, 125.05 49.73, 144.58 27.63 M109.29 80.43 C118.06 68.55, 130.99 56.39, 144.72 39.67 M109.29 80.43 C124.08 64.57, 137.24 49.18, 144.72 39.67 M119.92 80.39 C128.19 73.7, 133.66 64.01, 144.85 51.72 M119.92 80.39 C126.69 73.01, 133.93 64.47, 144.85 51.72 M132.52 78.1 C136.5 73.16, 136.99 72.07, 143.01 66.02 M132.52 78.1 C135.41 74.51, 138.92 71.25, 143.01 66.02" stroke="#b2f2bb" stroke-width="1" fill="none"></path><path d="M20 0 C40.37 -1.15, 61.31 -0.42, 124.17 0 M20 0 C44.17 -0.64, 67.42 -0.72, 124.17 0 M124.17 0 C139.27 1.34, 146.04 5.47, 144.17 20 M124.17 0 C137.56 -1.26, 145.55 4.57, 144.17 20 M144.17 20 C142.96 33.42, 143.71 44.92, 144.17 60 M144.17 20 C145.01 32.38, 144.83 43.91, 144.17 60 M144.17 60 C144.27 71.81, 136.95 78.84, 124.17 80 M144.17 60 C144.67 74, 137.28 78.28, 124.17 80 M124.17 80 C100.5 77.6, 75.87 80.74, 20 80 M124.17 80 C102.35 79.31, 80.92 80.61, 20 80 M20 80 C5.63 80.21, -0.17 72.8, 0 60 M20 80 C6.89 79.91, -0.14 72.69, 0 60 M0 60 C-0.03 48.41, 1.86 32.03, 0 20 M0 60 C0.33 52.36, 0.04 43.71, 0 20 M0 20 C0.81 5.35, 7.9 -1.83, 20 0 M0 20 C1.21 6.71, 4.81 2.25, 20 0" stroke="#1e1e1e" stroke-width="2" fill="none"></path></g><g transform="translate(380.0645533503964 731.5183000584084) rotate(0 45.17798614501953 17.5)"><text x="45.17798614501953" y="0" font-family="Virgil, Segoe UI Emoji" font-size="28px" fill="#1e1e1e" text-anchor="middle" style="white-space: pre;" direction="ltr" dominant-baseline="text-before-edge">Num: 4</text></g><g stroke-linecap="round"><g transform="translate(273.1593333186581 640.6849794407326) rotate(0 -36.66667938232422 27.91667938232422)"><path d="M0.02 -0.87 C-12.19 8.59, -61.52 46.8, -73.65 56.19 M-1.43 1.29 C-13.78 10.43, -62.8 45.04, -74.77 54.25" stroke="#1e1e1e" stroke-width="2" fill="none"></path></g><g transform="translate(273.1593333186581 640.6849794407326) rotate(0 -36.66667938232422 27.91667938232422)"><path d="M-60.88 33.46 C-66.11 38.44, -67.75 45.42, -74.77 54.25 M-60.88 33.46 C-63.7 39.63, -67.36 43.91, -74.77 54.25" stroke="#1e1e1e" stroke-width="2" fill="none"></path></g><g transform="translate(273.1593333186581 640.6849794407326) rotate(0 -36.66667938232422 27.91667938232422)"><path d="M-50.77 47.25 C-58.61 48.58, -62.93 51.91, -74.77 54.25 M-50.77 47.25 C-56.29 49.69, -62.65 50.29, -74.77 54.25" stroke="#1e1e1e" stroke-width="2" fill="none"></path></g></g><mask></mask><g stroke-linecap="round"><g transform="translate(347.3259745540097 644.018338205381) rotate(0 32.5 27.91667938232422)"><path d="M-0.32 0.35 C10.6 9.74, 54.68 46.27, 65.57 55.44 M1.71 -0.51 C12.53 9.12, 54.49 47.29, 64.92 56.77" stroke="#1e1e1e" stroke-width="2" fill="none"></path></g><g transform="translate(347.3259745540097 644.018338205381) rotate(0 32.5 27.91667938232422)"><path d="M41.78 47.29 C49.28 51.16, 55.01 53.11, 64.92 56.77 M41.78 47.29 C48.78 48.99, 53.84 51.49, 64.92 56.77" stroke="#1e1e1e" stroke-width="2" fill="none"></path></g><g transform="translate(347.3259745540097 644.018338205381) rotate(0 32.5 27.91667938232422)"><path d="M53.29 34.64 C57.22 42.29, 59.48 48.06, 64.92 56.77 M53.29 34.64 C57.42 39.68, 59.52 45.44, 64.92 56.77" stroke="#1e1e1e" stroke-width="2" fill="none"></path></g></g><mask></mask><g stroke-linecap="round"><g transform="translate(313.99261578936125 481.51833820538104) rotate(0 0 30)"><path d="M0.57 -0.4 C0.62 9.46, -0.06 49.3, 0.02 59.5 M-0.59 -1.65 C-0.66 8.34, -1.15 50.69, -0.91 60.77" stroke="#1e1e1e" stroke-width="2" fill="none"></path></g><g transform="translate(313.99261578936125 481.51833820538104) rotate(0 0 30)"><path d="M-9.54 37.31 C-7.77 43.72, -5.59 51.86, -0.91 60.77 M-9.54 37.31 C-6.13 45.42, -2.39 53.67, -0.91 60.77" stroke="#1e1e1e" stroke-width="2" fill="none"></path></g><g transform="translate(313.99261578936125 481.51833820538104) rotate(0 0 30)"><path d="M7.56 37.25 C4.66 43.76, 2.17 51.92, -0.91 60.77 M7.56 37.25 C4.7 45.29, 2.17 53.55, -0.91 60.77" stroke="#1e1e1e" stroke-width="2" fill="none"></path></g></g><mask></mask><g mask="url(#mask-6e2-QVgY1MpmaZ_ZRvMZ9)" stroke-linecap="round"><g transform="translate(398.1593333186581 428.6309818470727) rotate(0 127.08328247070312 -0.766628804822858)"><path d="M0.02 -0.5 C42.47 -0.56, 212.68 -0.44, 255.23 -0.73 M-1.42 -1.81 C40.91 -2.17, 212.08 -2.51, 254.84 -2.43" stroke="#1e1e1e" stroke-width="2" fill="none"></path></g><g transform="translate(398.1593333186581 428.6309818470727) rotate(0 127.08328247070312 -0.766628804822858)"><path d="M231.35 6.13 C238.7 4.92, 249.03 2.06, 254.84 -2.43 M231.35 6.13 C237.59 3.29, 242.98 2.67, 254.84 -2.43" stroke="#1e1e1e" stroke-width="2" fill="none"></path></g><g transform="translate(398.1593333186581 428.6309818470727) rotate(0 127.08328247070312 -0.766628804822858)"><path d="M231.34 -10.97 C238.64 -6.24, 248.97 -3.17, 254.84 -2.43 M231.34 -10.97 C237.59 -9.71, 242.98 -6.23, 254.84 -2.43" stroke="#1e1e1e" stroke-width="2" fill="none"></path></g></g><mask id="mask-6e2-QVgY1MpmaZ_ZRvMZ9"><rect x="0" y="0" fill="#fff" width="752.3258982600644" height="530.1642394567184"></rect><rect x="495.2686320247128" y="410.36435304225006" fill="#000" width="59.947967529296875" height="35" opacity="1"></rect></mask><g transform="translate(495.2686320247128 410.36435304225006) rotate(0 29.794211989552707 16.794251286261897)"><text x="29.973983764648438" y="0" font-family="Virgil, Segoe UI Emoji" font-size="28px" fill="#1e1e1e" text-anchor="middle" style="white-space: pre;" direction="ltr" dominant-baseline="text-before-edge">next</text></g><g mask="url(#mask-H9agh5IpQwpbtGk06Ki4w)" stroke-linecap="round"><g transform="translate(502.8048248859874 292.35162067608417) rotate(0 -61.18474558555789 44.58335876464844)"><path d="M1.13 -0.72 C-19.44 13.9, -101.88 73.71, -122.34 88.51 M0.26 1.52 C-20.56 16.21, -102.89 75.15, -123.27 89.7" stroke="#1e1e1e" stroke-width="2" fill="none"></path></g><g transform="translate(502.8048248859874 292.35162067608417) rotate(0 -61.18474558555789 44.58335876464844)"><path d="M-109.13 69.09 C-115.69 77.28, -121.08 86.45, -123.27 89.7 M-109.13 69.09 C-111.2 72.75, -114.95 77.43, -123.27 89.7" stroke="#1e1e1e" stroke-width="2" fill="none"></path></g><g transform="translate(502.8048248859874 292.35162067608417) rotate(0 -61.18474558555789 44.58335876464844)"><path d="M-99.19 83 C-109.7 85.88, -118.95 89.64, -123.27 89.7 M-99.19 83 C-103.38 83.81, -109.21 85.59, -123.27 89.7" stroke="#1e1e1e" stroke-width="2" fill="none"></path></g></g><mask id="mask-H9agh5IpQwpbtGk06Ki4w"><rect x="0" y="0" fill="#fff" width="725.1743160571032" height="481.51833820538104"></rect><rect x="412.2200930333396" y="319.4349794407326" fill="#000" width="58.79997253417969" height="35" opacity="1"></rect></mask><g transform="translate(412.2200930333398 319.4349794407326) rotate(0 29.512711055637283 17.408267976059506)"><text x="29.399986267089844" y="0" font-family="Virgil, Segoe UI Emoji" font-size="28px" fill="#1e1e1e" text-anchor="middle" style="white-space: pre;" direction="ltr" dominant-baseline="text-before-edge">body</text></g><g stroke-linecap="round" transform="translate(664.9306869506836 390.6849508305031) rotate(0 72.08332061767578 40)"><path d="M2.85 7.77 C2.85 7.77, 2.85 7.77, 2.85 7.77 M2.85 7.77 C2.85 7.77, 2.85 7.77, 2.85 7.77 M4.29 18.31 C9.33 14.29, 13.61 9.45, 20.04 0.19 M4.29 18.31 C8.02 15.19, 11.84 10.09, 20.04 0.19 M3.77 31.1 C16.17 17.53, 26.61 8.76, 30.67 0.16 M3.77 31.1 C10.45 23.42, 16.24 17.21, 30.67 0.16 M3.9 43.14 C12.81 29.92, 22.33 18.29, 41.3 0.12 M3.9 43.14 C19.08 25.44, 33.53 8.97, 41.3 0.12 M4.03 55.18 C20.31 34.33, 37.92 13.96, 51.93 0.09 M4.03 55.18 C17.48 39.94, 31.59 23.43, 51.93 0.09 M3.51 67.98 C23.01 43.65, 45.43 22.17, 62.56 0.05 M3.51 67.98 C26.12 41.49, 48.06 16.26, 62.56 0.05 M6.93 76.25 C27.86 50.98, 48.57 30.35, 73.19 0.02 M6.93 76.25 C25.52 53.77, 45.97 31.37, 73.19 0.02 M12.96 81.49 C29.36 60.27, 50.09 41.76, 83.82 -0.01 M12.96 81.49 C30.77 59.87, 48.99 38.4, 83.82 -0.01 M22.94 82.21 C41.69 61.05, 58.37 42.21, 94.45 -0.05 M22.94 82.21 C47.14 53.54, 72.75 23.2, 94.45 -0.05 M33.57 82.18 C55.28 56.3, 78.46 30.9, 105.08 -0.08 M33.57 82.18 C48.2 62.71, 64.34 45.09, 105.08 -0.08 M44.2 82.15 C64.12 57.17, 85.35 35.27, 115.71 -0.12 M44.2 82.15 C63.66 58.92, 82.07 37.98, 115.71 -0.12 M54.83 82.11 C82.6 52.12, 110.79 19.28, 125.03 1.36 M54.83 82.11 C68.72 67.31, 82.49 50.19, 125.03 1.36 M65.46 82.08 C89.54 53.81, 116.22 23.42, 134.34 2.83 M65.46 82.08 C92.68 50.98, 118.81 20.16, 134.34 2.83 M76.09 82.04 C101.36 51.66, 125.26 23.35, 141.04 7.33 M76.09 82.04 C93.4 61.88, 109.2 43.11, 141.04 7.33 M86.06 82.76 C107.51 54.67, 131.7 31.73, 144.45 15.59 M86.06 82.76 C97.42 68.24, 109.25 55.23, 144.45 15.59 M96.69 82.73 C108.31 65.97, 122.76 48.86, 144.58 27.63 M96.69 82.73 C115.79 61.38, 135.51 38.68, 144.58 27.63 M107.32 82.69 C117.05 73.43, 123.31 65.02, 144.72 39.67 M107.32 82.69 C118.95 69.38, 132.18 54.98, 144.72 39.67 M117.95 82.66 C126.3 74.36, 134.98 63.25, 144.85 51.72 M117.95 82.66 C128.33 73.22, 137.42 60.93, 144.85 51.72 M127.93 83.38 C133.36 76.76, 135.81 71.81, 146.3 62.25 M127.93 83.38 C132.91 78.46, 137.52 70.95, 146.3 62.25" stroke="#ffc9c9" stroke-width="1" fill="none"></path><path d="M20 0 C56.18 -1.16, 93.11 -2.32, 124.17 0 M20 0 C48.24 -0.62, 74.87 -0.5, 124.17 0 M124.17 0 C137.64 -1.54, 143.17 7.67, 144.17 20 M124.17 0 C138.6 1.89, 144.6 6.51, 144.17 20 M144.17 20 C142.82 29.85, 142.15 41.84, 144.17 60 M144.17 20 C144.89 29.09, 144.92 38.69, 144.17 60 M144.17 60 C142.5 73.65, 137.59 78.88, 124.17 80 M144.17 60 C144.48 73.7, 137.02 81.95, 124.17 80 M124.17 80 C89.35 80.26, 53.88 79.62, 20 80 M124.17 80 C85.96 81.58, 48.52 81.07, 20 80 M20 80 C5.96 81.88, -1.22 73.49, 0 60 M20 80 C8 79.55, -2.1 71.18, 0 60 M0 60 C1.03 45.3, -1.6 27.94, 0 20 M0 60 C0.02 50.29, -1.06 39.96, 0 20 M0 20 C-1.24 6.42, 6.88 0.93, 20 0 M0 20 C-1.88 5.36, 7.54 -0.56, 20 0" stroke="#1e1e1e" stroke-width="2" fill="none"></path></g><g transform="translate(704.7300186157227 395.6849508305031) rotate(0 32.28398895263672 35)"><text x="32.28398895263672" y="0" font-family="Virgil, Segoe UI Emoji" font-size="28px" fill="#1e1e1e" text-anchor="middle" style="white-space: pre;" direction="ltr" dominant-baseline="text-before-edge">Expr</text><text x="32.28398895263672" y="35" font-family="Virgil, Segoe UI Emoji" font-size="28px" fill="#1e1e1e" text-anchor="middle" style="white-space: pre;" direction="ltr" dominant-baseline="text-before-edge">stmt</text></g><g stroke-linecap="round" transform="translate(664.9306869506836 554.0182523746926) rotate(0 72.08332061767578 40)"><path d="M2.85 7.77 C2.85 7.77, 2.85 7.77, 2.85 7.77 M2.85 7.77 C2.85 7.77, 2.85 7.77, 2.85 7.77 M4.29 18.31 C7.81 11.54, 16.38 6.59, 20.04 0.19 M4.29 18.31 C11.14 10.51, 16.68 5.18, 20.04 0.19 M3.77 31.1 C8.21 24.41, 15.71 18.1, 30.67 0.16 M3.77 31.1 C9.12 24.63, 15.5 17.17, 30.67 0.16 M3.9 43.14 C14.01 35.24, 21.48 26.62, 41.3 0.12 M3.9 43.14 C13.08 32.67, 21.4 22.32, 41.3 0.12 M4.03 55.18 C16.03 41.93, 29.76 27.91, 51.93 0.09 M4.03 55.18 C20.32 36.73, 35.97 17.52, 51.93 0.09 M3.51 67.98 C18.88 51.77, 31.17 35.33, 62.56 0.05 M3.51 67.98 C18.51 50.57, 32.46 34.38, 62.56 0.05 M6.93 76.25 C21.78 58.27, 34.9 39.66, 73.19 0.02 M6.93 76.25 C21.43 59.25, 36.71 41.41, 73.19 0.02 M12.96 81.49 C29.29 60.55, 49.31 39.06, 83.82 -0.01 M12.96 81.49 C34.32 56.73, 56.06 33.32, 83.82 -0.01 M22.94 82.21 C38.12 67.17, 53.53 48.29, 94.45 -0.05 M22.94 82.21 C49.87 52.32, 76.24 20.63, 94.45 -0.05 M33.57 82.18 C48.79 63.55, 69.47 40.97, 105.08 -0.08 M33.57 82.18 C49.83 64.34, 67.04 45.33, 105.08 -0.08 M44.2 82.15 C59.71 62.86, 78.47 44.11, 115.71 -0.12 M44.2 82.15 C62.22 62.15, 77.16 43.23, 115.71 -0.12 M54.83 82.11 C80.56 51.07, 108.09 18.95, 125.03 1.36 M54.83 82.11 C81.48 52.6, 105.84 22.04, 125.03 1.36 M65.46 82.08 C88.98 58.52, 109.91 33.46, 134.34 2.83 M65.46 82.08 C91.2 53.04, 114.92 25.15, 134.34 2.83 M76.09 82.04 C90.64 65.35, 105.55 48.86, 141.04 7.33 M76.09 82.04 C91.53 65.27, 104.87 49.09, 141.04 7.33 M86.06 82.76 C97.14 69.42, 111.59 52.58, 144.45 15.59 M86.06 82.76 C100.62 66.93, 114.92 48.72, 144.45 15.59 M96.69 82.73 C111.71 66.76, 122.68 52.97, 144.58 27.63 M96.69 82.73 C113.71 62.16, 132.56 42.39, 144.58 27.63 M107.32 82.69 C118.29 68.92, 127.55 56.76, 144.72 39.67 M107.32 82.69 C119.55 67.76, 132.39 54.24, 144.72 39.67 M117.95 82.66 C128.74 69.37, 136.84 61.55, 144.85 51.72 M117.95 82.66 C127.81 71.16, 138.26 58.88, 144.85 51.72 M127.93 83.38 C131.66 77.85, 134.88 73.7, 146.3 62.25 M127.93 83.38 C133.94 76.24, 141.37 68.64, 146.3 62.25" stroke="#b2f2bb" stroke-width="1" fill="none"></path><path d="M20 0 C49.64 -0.21, 82.59 1.86, 124.17 0 M20 0 C55.3 -1.28, 89.96 -0.02, 124.17 0 M124.17 0 C138.45 1.64, 144.55 6.53, 144.17 20 M124.17 0 C137.03 -1.27, 143.66 5.38, 144.17 20 M144.17 20 C142.51 28.77, 142.73 40.35, 144.17 60 M144.17 20 C143.68 30.91, 144.56 40.94, 144.17 60 M144.17 60 C144.44 73.65, 137.08 81.7, 124.17 80 M144.17 60 C145.2 75.11, 137.47 81.26, 124.17 80 M124.17 80 C92.8 80.88, 60.07 79.33, 20 80 M124.17 80 C82.7 81.39, 41.32 80.53, 20 80 M20 80 C7.83 79.61, -1.83 71.46, 0 60 M20 80 C8.96 80.92, -0.05 74.7, 0 60 M0 60 C-0.57 46.58, 1.66 31.34, 0 20 M0 60 C-0.29 45.57, 0.44 31.86, 0 20 M0 20 C-1.64 5.53, 7.42 -0.49, 20 0 M0 20 C1.86 8.72, 7.33 -1.38, 20 0" stroke="#1e1e1e" stroke-width="2" fill="none"></path></g><g transform="translate(696.0080261230469 576.5182523746926) rotate(0 41.0059814453125 17.5)"><text x="41.0059814453125" y="0" font-family="Virgil, Segoe UI Emoji" font-size="28px" fill="#1e1e1e" text-anchor="middle" style="white-space: pre;" direction="ltr" dominant-baseline="text-before-edge">Assign</text></g><g stroke-linecap="round" transform="translate(544.9306869506836 706.5183286686379) rotate(0 72.08332061767578 40)"><path d="M2.85 7.77 C2.85 7.77, 2.85 7.77, 2.85 7.77 M2.85 7.77 C2.85 7.77, 2.85 7.77, 2.85 7.77 M4.29 18.31 C10.17 14.89, 12 10.21, 20.04 0.19 M4.29 18.31 C6.9 15.07, 11.93 9.67, 20.04 0.19 M3.77 31.1 C11.22 21.65, 21.65 9.4, 30.67 0.16 M3.77 31.1 C11.59 20.5, 20.23 12.03, 30.67 0.16 M3.9 43.14 C15.33 29.09, 29.03 14.19, 41.3 0.12 M3.9 43.14 C13.02 31.85, 22.4 21.03, 41.3 0.12 M4.03 55.18 C19.86 39.31, 32.94 20.72, 51.93 0.09 M4.03 55.18 C18.08 39.4, 33.49 22.85, 51.93 0.09 M3.51 67.98 C21.12 45.34, 41.31 25.36, 62.56 0.05 M3.51 67.98 C16.92 51.81, 32.52 35.98, 62.56 0.05 M6.93 76.25 C24.83 55.5, 43.41 32.93, 73.19 0.02 M6.93 76.25 C25.02 56.31, 44.37 34, 73.19 0.02 M12.96 81.49 C32.92 56.8, 52.72 33.48, 83.82 -0.01 M12.96 81.49 C30.44 60.64, 48.96 39.57, 83.82 -0.01 M22.94 82.21 C50.22 52.52, 73.66 21.75, 94.45 -0.05 M22.94 82.21 C49.61 52.17, 76.24 19.84, 94.45 -0.05 M33.57 82.18 C56.53 53.08, 82.71 24.53, 105.08 -0.08 M33.57 82.18 C57.93 53.24, 84.23 22.56, 105.08 -0.08 M44.2 82.15 C63.67 56.36, 87.3 34.77, 115.71 -0.12 M44.2 82.15 C63.12 62.02, 80.3 41.25, 115.71 -0.12 M54.83 82.11 C81.61 53.53, 104.31 26.68, 125.03 1.36 M54.83 82.11 C77.7 57.27, 99.11 32.82, 125.03 1.36 M65.46 82.08 C90.52 52.56, 115.79 27.3, 134.34 2.83 M65.46 82.08 C83.61 59.65, 102.86 38.05, 134.34 2.83 M76.09 82.04 C94.58 57.25, 116.06 37.77, 141.04 7.33 M76.09 82.04 C89.33 65.93, 105.29 48.85, 141.04 7.33 M86.06 82.76 C107.74 55.62, 132.46 30.38, 144.45 15.59 M86.06 82.76 C108.17 56.81, 130.08 32.7, 144.45 15.59 M96.69 82.73 C108.05 71.61, 116.63 58.27, 144.58 27.63 M96.69 82.73 C111.48 65.3, 126.7 48.09, 144.58 27.63 M107.32 82.69 C116.62 74.29, 123.9 63.64, 144.72 39.67 M107.32 82.69 C115.96 73.39, 123.37 64.34, 144.72 39.67 M117.95 82.66 C125.67 77.63, 127.84 68.4, 144.85 51.72 M117.95 82.66 C126.9 71.04, 136.55 60.44, 144.85 51.72 M127.93 83.38 C134.26 76.87, 135.52 70.63, 146.3 62.25 M127.93 83.38 C135.54 75.32, 141.58 68.51, 146.3 62.25" stroke="#b2f2bb" stroke-width="1" fill="none"></path><path d="M20 0 C47.3 -1.47, 74.06 -0.47, 124.17 0 M20 0 C43.73 0.3, 66.69 -0.59, 124.17 0 M124.17 0 C137.09 -1.11, 143.73 5.54, 144.17 20 M124.17 0 C135.97 -2.07, 143.56 5.17, 144.17 20 M144.17 20 C143.32 32.6, 143.73 40.06, 144.17 60 M144.17 20 C144.32 32.79, 143.98 46.12, 144.17 60 M144.17 60 C145.06 74.88, 137.48 81.09, 124.17 80 M144.17 60 C144.48 75.1, 137.07 81.48, 124.17 80 M124.17 80 C89.24 80.35, 51.39 79.05, 20 80 M124.17 80 C83.69 79.89, 41.15 79.14, 20 80 M20 80 C8.66 80.8, -0.05 74.52, 0 60 M20 80 C8.15 78.35, -0.09 72.35, 0 60 M0 60 C0.88 44.02, 0.81 30.11, 0 20 M0 60 C-0.86 47.92, 0.33 36.74, 0 20 M0 20 C1.62 8.45, 7.25 -1.2, 20 0 M0 20 C1.66 5.7, 5.43 0.18, 20 0" stroke="#1e1e1e" stroke-width="2" fill="none"></path></g><g transform="translate(577.4640274047852 729.0183286686379) rotate(0 39.54998016357422 17.5)"><text x="39.54998016357422" y="0" font-family="Virgil, Segoe UI Emoji" font-size="28px" fill="#1e1e1e" text-anchor="middle" style="white-space: pre;" direction="ltr" dominant-baseline="text-before-edge">Var: y</text></g><g stroke-linecap="round" transform="translate(778.6806106567383 709.0182523746926) rotate(0 72.08332061767578 40)"><path d="M2.85 7.77 C2.85 7.77, 2.85 7.77, 2.85 7.77 M2.85 7.77 C2.85 7.77, 2.85 7.77, 2.85 7.77 M1.01 22.08 C6.56 14.37, 17.1 3.97, 20.04 0.19 M1.01 22.08 C8.32 13.85, 15.91 4.92, 20.04 0.19 M1.14 34.12 C12.25 22.41, 21.4 8.18, 30.67 0.16 M1.14 34.12 C8.83 26.58, 16 17.37, 30.67 0.16 M1.28 46.16 C14.91 29.59, 28.88 11.97, 41.3 0.12 M1.28 46.16 C11.97 35.12, 22.13 23.26, 41.3 0.12 M0.75 58.96 C21.28 35.11, 40.54 11.4, 51.93 0.09 M0.75 58.96 C19.72 36.55, 38.66 14.28, 51.93 0.09 M2.2 69.49 C15.37 51.85, 30.88 34.23, 62.56 0.05 M2.2 69.49 C17.94 49.59, 33.69 30.73, 62.56 0.05 M6.93 76.25 C27.27 52.85, 46.39 29.13, 73.19 0.02 M6.93 76.25 C31.22 48.78, 55.42 19.61, 73.19 0.02 M14.93 79.23 C29.69 61.5, 47.38 42.47, 83.82 -0.01 M14.93 79.23 C41.12 51, 65.12 22.18, 83.82 -0.01 M24.25 80.7 C49.11 53.14, 70.84 27.06, 94.45 -0.05 M24.25 80.7 C52.06 51.25, 77.61 18.89, 94.45 -0.05 M34.88 80.67 C54.71 61.27, 72.36 36.99, 105.08 -0.08 M34.88 80.67 C61.43 51.07, 88.21 19.24, 105.08 -0.08 M45.51 80.64 C61.56 58.43, 79.47 41.42, 115.71 -0.12 M45.51 80.64 C64.38 58.65, 83 38.59, 115.71 -0.12 M56.14 80.6 C77.14 54.75, 96.21 33.21, 125.68 0.6 M56.14 80.6 C78.42 55.92, 99.73 31.33, 125.68 0.6 M66.77 80.57 C82.08 61.21, 99.12 40.47, 134.34 2.83 M66.77 80.57 C83.38 61.82, 99.9 42.68, 134.34 2.83 M77.4 80.53 C89.77 64.59, 103.37 46.3, 141.04 7.33 M77.4 80.53 C94.99 61.15, 111.2 40.73, 141.04 7.33 M88.03 80.5 C103.28 64.49, 113.56 47.96, 144.45 15.59 M88.03 80.5 C100.65 65.17, 114 50.83, 144.45 15.59 M98.66 80.46 C112.78 64.85, 128.44 48.57, 144.58 27.63 M98.66 80.46 C112.69 62.82, 127.57 46.55, 144.58 27.63 M109.29 80.43 C120.33 67.11, 134.29 52.94, 144.72 39.67 M109.29 80.43 C119.25 67.27, 131.94 56.29, 144.72 39.67 M119.92 80.39 C130.82 68.05, 140.36 56.89, 144.85 51.72 M119.92 80.39 C125.7 72.78, 132.05 67.28, 144.85 51.72 M132.52 78.1 C136.13 74.6, 139.16 73.83, 143.01 66.02 M132.52 78.1 C134.77 74.6, 138.06 72.04, 143.01 66.02" stroke="#b2f2bb" stroke-width="1" fill="none"></path><path d="M20 0 C45.22 -1.07, 74.52 0.88, 124.17 0 M20 0 C59.58 -0.48, 99.36 -0.49, 124.17 0 M124.17 0 C136.17 -1.8, 143.64 5.37, 144.17 20 M124.17 0 C136.85 -1.24, 146.09 5.95, 144.17 20 M144.17 20 C144.44 35.56, 143 51.23, 144.17 60 M144.17 20 C144.53 33.41, 144.07 45.82, 144.17 60 M144.17 60 C144.44 74.87, 137.13 81.29, 124.17 80 M144.17 60 C145.4 74.73, 136.96 82.18, 124.17 80 M124.17 80 C91.68 78.41, 55.59 80.79, 20 80 M124.17 80 C95.95 79.42, 65.72 79.62, 20 80 M20 80 C7.96 78.56, -0.08 72.48, 0 60 M20 80 C8.01 81.58, 0.58 74.66, 0 60 M0 60 C-0.46 51.52, 0.72 40.96, 0 20 M0 60 C0.66 51.16, 0.14 39.93, 0 20 M0 20 C1.44 5.83, 5.59 0.16, 20 0 M0 20 C1.62 7.88, 8.59 0.36, 20 0" stroke="#1e1e1e" stroke-width="2" fill="none"></path></g><g transform="translate(805.8939437866211 731.5182523746926) rotate(0 44.86998748779297 17.5)"><text x="44.86998748779297" y="0" font-family="Virgil, Segoe UI Emoji" font-size="28px" fill="#1e1e1e" text-anchor="middle" style="white-space: pre;" direction="ltr" dominant-baseline="text-before-edge">Num: 5</text></g><g stroke-linecap="round"><g transform="translate(698.6807250976562 640.6849317570168) rotate(0 -36.66667938232422 27.91667938232422)"><path d="M0.57 0.98 C-11.51 10.18, -60.75 46.72, -73.11 55.75 M-0.59 0.45 C-12.76 9.79, -61.62 47.97, -73.93 57.25" stroke="#1e1e1e" stroke-width="2" fill="none"></path></g><g transform="translate(698.6807250976562 640.6849317570168) rotate(0 -36.66667938232422 27.91667938232422)"><path d="M-60.53 36.15 C-62.14 41.88, -67.27 46.37, -73.93 57.25 M-60.53 36.15 C-64.52 40.34, -67.4 45.75, -73.93 57.25" stroke="#1e1e1e" stroke-width="2" fill="none"></path></g><g transform="translate(698.6807250976562 640.6849317570168) rotate(0 -36.66667938232422 27.91667938232422)"><path d="M-50.1 49.7 C-54.39 52.09, -62.13 53.19, -73.93 57.25 M-50.1 49.7 C-56.61 50.52, -62.04 52.61, -73.93 57.25" stroke="#1e1e1e" stroke-width="2" fill="none"></path></g></g><mask></mask><g stroke-linecap="round"><g transform="translate(772.8473663330078 644.0182905216652) rotate(0 32.5 27.91667938232422)"><path d="M0.23 -0.08 C10.93 8.95, 54 45.96, 64.75 55.17 M-1.11 -1.17 C9.36 7.92, 52.85 46.81, 63.68 56.36" stroke="#1e1e1e" stroke-width="2" fill="none"></path></g><g transform="translate(772.8473663330078 644.0182905216652) rotate(0 32.5 27.91667938232422)"><path d="M40.44 47.15 C48.46 49.9, 55.57 53.07, 63.68 56.36 M40.44 47.15 C45.78 48.95, 51.43 51.31, 63.68 56.36" stroke="#1e1e1e" stroke-width="2" fill="none"></path></g><g transform="translate(772.8473663330078 644.0182905216652) rotate(0 32.5 27.91667938232422)"><path d="M51.8 34.36 C55.98 41.58, 59.13 49.19, 63.68 56.36 M51.8 34.36 C54.28 39.18, 57.16 44.66, 63.68 56.36" stroke="#1e1e1e" stroke-width="2" fill="none"></path></g></g><mask></mask><g stroke-linecap="round"><g transform="translate(739.5140075683594 481.5182905216652) rotate(0 0 30)"><path d="M-0.25 -0.66 C-0.33 9.24, -0.17 49.4, -0.26 59.33 M1.83 1.6 C1.54 11.65, -1.33 50.83, -1.35 60.51" stroke="#1e1e1e" stroke-width="2" fill="none"></path></g><g transform="translate(739.5140075683594 481.5182905216652) rotate(0 0 30)"><path d="M-8.89 36.68 C-7.61 43.85, -5.22 50.57, -1.35 60.51 M-8.89 36.68 C-7.66 41.19, -4.95 46.43, -1.35 60.51" stroke="#1e1e1e" stroke-width="2" fill="none"></path></g><g transform="translate(739.5140075683594 481.5182905216652) rotate(0 0 30)"><path d="M8.19 37.4 C4.03 44.32, 0.97 50.8, -1.35 60.51 M8.19 37.4 C5.84 41.66, 4.96 46.74, -1.35 60.51" stroke="#1e1e1e" stroke-width="2" fill="none"></path></g></g><mask></mask><g stroke-linecap="round" transform="translate(492.106006834814 10) rotate(0 72.08332061767578 40)"><path d="M2.85 7.77 C2.85 7.77, 2.85 7.77, 2.85 7.77 M2.85 7.77 C2.85 7.77, 2.85 7.77, 2.85 7.77 M4.29 18.31 C6.43 16.1, 13.22 8.98, 20.04 0.19 M4.29 18.31 C6.97 13.7, 10.2 10.12, 20.04 0.19 M3.77 31.1 C10.93 25.43, 16.52 16.9, 30.67 0.16 M3.77 31.1 C12.34 20, 20.96 10.74, 30.67 0.16 M3.9 43.14 C12.81 31.73, 22.56 21.78, 41.3 0.12 M3.9 43.14 C13.4 30.78, 24.83 19.97, 41.3 0.12 M4.03 55.18 C20.75 36.7, 38.71 16.48, 51.93 0.09 M4.03 55.18 C15.12 43.08, 24.65 32.03, 51.93 0.09 M3.51 67.98 C24.83 43.17, 48.51 14.41, 62.56 0.05 M3.51 67.98 C21.49 49.33, 37.57 28.9, 62.56 0.05 M6.93 76.25 C30.04 51.05, 53.98 25.52, 73.19 0.02 M6.93 76.25 C25.44 55.51, 45.52 32.92, 73.19 0.02 M12.96 81.49 C32.34 59.37, 51.2 38.95, 83.82 -0.01 M12.96 81.49 C36.75 52.37, 61.26 24.15, 83.82 -0.01 M22.94 82.21 C50.98 49.38, 78.85 20.62, 94.45 -0.05 M22.94 82.21 C40.63 63.8, 56 44.98, 94.45 -0.05 M33.57 82.18 C52.86 60.26, 74.9 33.58, 105.08 -0.08 M33.57 82.18 C53.8 58.68, 73.34 37.07, 105.08 -0.08 M44.2 82.15 C63.12 62.24, 82.39 37.65, 115.71 -0.12 M44.2 82.15 C66.85 55.68, 91.01 29.58, 115.71 -0.12 M54.83 82.11 C73.31 60.72, 95.91 38.31, 125.03 1.36 M54.83 82.11 C74.87 58.47, 94.98 35.86, 125.03 1.36 M65.46 82.08 C85.72 56.08, 109.08 31.31, 134.34 2.83 M65.46 82.08 C79.25 65.94, 95.56 46.9, 134.34 2.83 M76.09 82.04 C97.45 53.7, 121.97 29.94, 141.04 7.33 M76.09 82.04 C98.84 55.86, 119.99 29.59, 141.04 7.33 M86.06 82.76 C108.63 59.06, 129.17 32.39, 144.45 15.59 M86.06 82.76 C103.89 61.98, 121.22 40.32, 144.45 15.59 M96.69 82.73 C114.46 60.29, 132.77 38.01, 144.58 27.63 M96.69 82.73 C105.96 72.18, 116.81 59.52, 144.58 27.63 M107.32 82.69 C121.98 67.22, 135.19 48.04, 144.72 39.67 M107.32 82.69 C122.29 65.89, 137.59 50.09, 144.72 39.67 M117.95 82.66 C130 72.47, 137.76 59.11, 144.85 51.72 M117.95 82.66 C127.1 72.51, 138.11 60.21, 144.85 51.72 M127.93 83.38 C132.37 77.53, 139.08 70.35, 146.3 62.25 M127.93 83.38 C135.62 74.21, 141.79 65.81, 146.3 62.25" stroke="#ffec99" stroke-width="1" fill="none"></path><path d="M20 0 C60.66 1.38, 101.36 -0.57, 124.17 0 M20 0 C51.21 0.59, 81.61 -0.11, 124.17 0 M124.17 0 C135.66 0.44, 143.63 6.68, 144.17 20 M124.17 0 C137.8 2, 141.92 6.29, 144.17 20 M144.17 20 C141.82 27.74, 144.23 36.2, 144.17 60 M144.17 20 C143.92 32.54, 144.55 46.44, 144.17 60 M144.17 60 C144.31 73.61, 138.08 78, 124.17 80 M144.17 60 C142.59 74.99, 136.16 79.69, 124.17 80 M124.17 80 C92.59 78.28, 66.33 78.58, 20 80 M124.17 80 C92.61 79.67, 61.13 79.21, 20 80 M20 80 C7.31 78.93, 1.02 74.73, 0 60 M20 80 C5.67 78.29, 2.13 72.42, 0 60 M0 60 C-0.7 50.01, 0.72 37.29, 0 20 M0 60 C0.61 49.66, 0.88 37.95, 0 20 M0 20 C-0.03 5.74, 4.74 1, 20 0 M0 20 C-0.19 6.78, 8.59 2.14, 20 0" stroke="#1e1e1e" stroke-width="2" fill="none"></path></g><g transform="translate(528.727344725439 32.5) rotate(0 35.46198272705078 17.5)"><text x="35.46198272705078" y="0" font-family="Virgil, Segoe UI Emoji" font-size="28px" fill="#1e1e1e" text-anchor="middle" style="white-space: pre;" direction="ltr" dominant-baseline="text-before-edge">Block</text></g><g mask="url(#mask-ZO-akc7eIiS_hHeDrT996)" stroke-linecap="round"><g transform="translate(566.064243051839 97.5) rotate(0 0.20785527692089545 48.33335876464844)"><path d="M-0.09 -0.1 C-0.05 16.15, 1.02 80.69, 1.28 96.99 M-1.59 -1.21 C-1.73 14.72, 0.32 78.85, 0.79 95.03" stroke="#1e1e1e" stroke-width="2" fill="none"></path></g><g transform="translate(566.064243051839 97.5) rotate(0 0.20785527692089545 48.33335876464844)"><path d="M-8.46 71.81 C-5.13 82.32, -0.81 91.67, 0.79 95.03 M-8.46 71.81 C-5.59 80.99, -1.36 89.77, 0.79 95.03" stroke="#1e1e1e" stroke-width="2" fill="none"></path></g><g transform="translate(566.064243051839 97.5) rotate(0 0.20785527692089545 48.33335876464844)"><path d="M8.63 71.3 C5.29 81.99, 2.94 91.54, 0.79 95.03 M8.63 71.3 C4.9 80.71, 2.51 89.68, 0.79 95.03" stroke="#1e1e1e" stroke-width="2" fill="none"></path></g></g><mask id="mask-ZO-akc7eIiS_hHeDrT996"><rect x="0" y="0" fill="#fff" width="666.4799536056807" height="294.1667175292969"></rect><rect x="536.8721120616699" y="128.33335876464844" fill="#000" width="58.79997253417969" height="35" opacity="1"></rect></mask><g transform="translate(536.87211206167 128.33335876464844) rotate(0 29.03423079815593 17.058051105006598)"><text x="29.399986267089844" y="0" font-family="Virgil, Segoe UI Emoji" font-size="28px" fill="#1e1e1e" text-anchor="middle" style="white-space: pre;" direction="ltr" dominant-baseline="text-before-edge">body</text></g><g stroke-linecap="round" transform="translate(1031.168295192905 199.43496036724628) rotate(0 72.08332061767578 40)"><path d="M2.85 7.77 C2.85 7.77, 2.85 7.77, 2.85 7.77 M2.85 7.77 C2.85 7.77, 2.85 7.77, 2.85 7.77 M1.01 22.08 C6.59 16.53, 12.81 8.2, 20.04 0.19 M1.01 22.08 C7.22 13.32, 14.52 5.26, 20.04 0.19 M1.14 34.12 C10.27 21.82, 21.36 10.15, 30.67 0.16 M1.14 34.12 C9.66 24.54, 17.35 15.55, 30.67 0.16 M1.28 46.16 C13.16 36.05, 21.72 24.72, 41.3 0.12 M1.28 46.16 C17.41 27.48, 32.22 8.9, 41.3 0.12 M0.75 58.96 C12.67 44.26, 23.52 31.25, 51.93 0.09 M0.75 58.96 C14.14 44.81, 27.39 29.2, 51.93 0.09 M2.2 69.49 C21.88 49.05, 41.22 25.79, 62.56 0.05 M2.2 69.49 C17.41 51.08, 33.35 33.15, 62.56 0.05 M6.93 76.25 C22.57 56.75, 38 38.86, 73.19 0.02 M6.93 76.25 C33.4 47.2, 60.59 16.15, 73.19 0.02 M14.93 79.23 C40.05 51.61, 60.63 25.84, 83.82 -0.01 M14.93 79.23 C32.84 58.89, 52.03 37.09, 83.82 -0.01 M24.25 80.7 C42.83 60.56, 62.53 39.31, 94.45 -0.05 M24.25 80.7 C53.22 49.38, 81.66 16.51, 94.45 -0.05 M34.88 80.67 C56.84 54.5, 79.16 28.8, 105.08 -0.08 M34.88 80.67 C51.04 60.68, 68.06 41.47, 105.08 -0.08 M45.51 80.64 C66.67 57.98, 86.39 33.4, 115.71 -0.12 M45.51 80.64 C67.37 54.81, 89.97 30.11, 115.71 -0.12 M56.14 80.6 C71.94 63.36, 86.16 45.88, 125.68 0.6 M56.14 80.6 C80.61 52.18, 105.7 22.94, 125.68 0.6 M66.77 80.57 C90.46 55.02, 110.62 29.58, 134.34 2.83 M66.77 80.57 C88.07 56.44, 108.94 31.15, 134.34 2.83 M77.4 80.53 C101.98 53.23, 122.78 27.36, 141.04 7.33 M77.4 80.53 C97.5 58.11, 115.5 37.49, 141.04 7.33 M88.03 80.5 C108.58 60.27, 126.06 39.67, 144.45 15.59 M88.03 80.5 C105.9 59.31, 124.79 36.82, 144.45 15.59 M98.66 80.46 C108.08 68.19, 118.8 56.87, 144.58 27.63 M98.66 80.46 C113.79 64.55, 126.13 49.02, 144.58 27.63 M109.29 80.43 C116.92 73.26, 124.05 63, 144.72 39.67 M109.29 80.43 C123.86 64.78, 137.1 48.28, 144.72 39.67 M119.92 80.39 C128.06 72.17, 136.11 60.94, 144.85 51.72 M119.92 80.39 C127.11 72.23, 135.04 61.15, 144.85 51.72 M132.52 78.1 C137.26 73.87, 137.34 70.3, 143.01 66.02 M132.52 78.1 C135.84 75.63, 137.85 71.69, 143.01 66.02" stroke="#ffc9c9" stroke-width="1" fill="none"></path><path d="M20 0 C56.08 1.64, 94.36 -0.34, 124.17 0 M20 0 C42.37 1.61, 64.46 1.48, 124.17 0 M124.17 0 C138.07 -0.47, 142.24 6.06, 144.17 20 M124.17 0 C136.06 -1.23, 145.63 6.78, 144.17 20 M144.17 20 C142.17 29.17, 142.24 37.11, 144.17 60 M144.17 20 C144.37 33.27, 144.45 45.53, 144.17 60 M144.17 60 C142.59 71.93, 138.07 78.28, 124.17 80 M144.17 60 C146.46 73.22, 136.59 79.41, 124.17 80 M124.17 80 C86.51 81.45, 45.63 81.26, 20 80 M124.17 80 C94.73 81.15, 65.34 81.14, 20 80 M20 80 C8.64 79.28, 0.54 71.64, 0 60 M20 80 C4.49 80.64, 1.99 72.61, 0 60 M0 60 C0.69 44.87, -1.42 32, 0 20 M0 60 C-0.38 50.73, 0.95 43.14, 0 20 M0 20 C-1.37 5.47, 4.92 0.68, 20 0 M0 20 C0.53 8.8, 6.19 0.25, 20 0" stroke="#1e1e1e" stroke-width="2" fill="none"></path></g><g transform="translate(1057.68163900394 221.93496036724628) rotate(0 45.569976806640625 17.5)"><text x="45.569976806640625" y="0" font-family="Virgil, Segoe UI Emoji" font-size="28px" fill="#1e1e1e" text-anchor="middle" style="white-space: pre;" direction="ltr" dominant-baseline="text-before-edge">Return</text></g><g mask="url(#mask-xDO3Mz85OVjlFIih0oBC5)" stroke-linecap="round"><g transform="translate(656.1684096338229 241.2823105573366) rotate(0 181.66664123535156 0.3011568983069992)"><path d="M-0.63 -1.02 C59.7 -0.92, 301.87 -0.76, 362.52 -0.33 M1.24 1.06 C61.9 1.36, 304.6 0.95, 364.8 0.73" stroke="#1e1e1e" stroke-width="2" fill="none"></path></g><g transform="translate(656.1684096338229 241.2823105573366) rotate(0 181.66664123535156 0.3011568983069992)"><path d="M341.33 9.33 C347.84 5.12, 356.12 3.38, 364.8 0.73 M341.33 9.33 C350.57 5.66, 358.25 2.32, 364.8 0.73" stroke="#1e1e1e" stroke-width="2" fill="none"></path></g><g transform="translate(656.1684096338229 241.2823105573366) rotate(0 181.66664123535156 0.3011568983069992)"><path d="M341.29 -7.77 C347.68 -6.06, 355.98 -1.87, 364.8 0.73 M341.29 -7.77 C350.48 -4.94, 358.17 -1.78, 364.8 0.73" stroke="#1e1e1e" stroke-width="2" fill="none"></path></g></g><mask id="mask-xDO3Mz85OVjlFIih0oBC5"><rect x="0" y="0" fill="#fff" width="1119.501692104526" height="341.8846243539506"></rect><rect x="807.861067104526" y="224.08346745564359" fill="#000" width="59.947967529296875" height="35" opacity="1"></rect></mask><g transform="translate(807.861067104526 224.08346745564359) rotate(0 30.39311001705471 17.274449138184764)"><text x="29.973983764648438" y="0" font-family="Virgil, Segoe UI Emoji" font-size="28px" fill="#1e1e1e" text-anchor="middle" style="white-space: pre;" direction="ltr" dominant-baseline="text-before-edge">next</text></g><g stroke-linecap="round" transform="translate(1029.0973663330078 396.0172677886626) rotate(0 72.08332061767578 40)"><path d="M2.85 7.77 C2.85 7.77, 2.85 7.77, 2.85 7.77 M2.85 7.77 C2.85 7.77, 2.85 7.77, 2.85 7.77 M1.01 22.08 C5.24 16.18, 9.96 8.76, 20.04 0.19 M1.01 22.08 C5.7 16.91, 10.47 10.67, 20.04 0.19 M1.14 34.12 C11.2 23.97, 16.72 13.46, 30.67 0.16 M1.14 34.12 C10.62 24.13, 18.73 14.75, 30.67 0.16 M1.28 46.16 C16.16 31.08, 32.4 13.97, 41.3 0.12 M1.28 46.16 C12.07 33.14, 23.92 19.43, 41.3 0.12 M0.75 58.96 C14.95 42.48, 31.49 23.51, 51.93 0.09 M0.75 58.96 C10.34 46.88, 23.05 33.13, 51.93 0.09 M2.2 69.49 C16.56 56.73, 26.1 39.91, 62.56 0.05 M2.2 69.49 C17.49 53.78, 31.73 35.21, 62.56 0.05 M6.93 76.25 C26.35 54.64, 45.87 32.32, 73.19 0.02 M6.93 76.25 C22.32 57.45, 38.26 40.53, 73.19 0.02 M14.93 79.23 C42.8 49.56, 70.61 16.4, 83.82 -0.01 M14.93 79.23 C39.55 51.91, 64.41 22.13, 83.82 -0.01 M24.25 80.7 C43.47 61.61, 57.65 42.36, 94.45 -0.05 M24.25 80.7 C47.79 55.29, 69.31 28.14, 94.45 -0.05 M34.88 80.67 C54.59 57.27, 76.49 35.13, 105.08 -0.08 M34.88 80.67 C51.2 60.76, 68.61 42.95, 105.08 -0.08 M45.51 80.64 C70.63 52.12, 97.16 23.21, 115.71 -0.12 M45.51 80.64 C60.35 63.72, 76.27 44.87, 115.71 -0.12 M56.14 80.6 C85.09 49.12, 108.8 17.37, 125.68 0.6 M56.14 80.6 C73.8 61.65, 91.24 40.9, 125.68 0.6 M66.77 80.57 C90.35 54.85, 113.73 24.92, 134.34 2.83 M66.77 80.57 C80.86 62.69, 95.47 47.43, 134.34 2.83 M77.4 80.53 C93.98 60.62, 113.36 41.62, 141.04 7.33 M77.4 80.53 C99.94 54.92, 120.07 31.43, 141.04 7.33 M88.03 80.5 C97.39 69.21, 111.88 53.82, 144.45 15.59 M88.03 80.5 C99.28 66.7, 110.64 53.53, 144.45 15.59 M98.66 80.46 C111.09 64.79, 127.07 47.65, 144.58 27.63 M98.66 80.46 C109.66 70.07, 118.39 57.24, 144.58 27.63 M109.29 80.43 C120.24 69.95, 132.19 54.53, 144.72 39.67 M109.29 80.43 C117.47 71.36, 125.42 62.17, 144.72 39.67 M119.92 80.39 C130.35 70.84, 137.62 57.13, 144.85 51.72 M119.92 80.39 C127.75 71.15, 138.2 60.63, 144.85 51.72 M132.52 78.1 C136.71 74.1, 138.83 69.82, 143.01 66.02 M132.52 78.1 C136.1 74.93, 137.77 72.07, 143.01 66.02" stroke="#b2f2bb" stroke-width="1" fill="none"></path><path d="M20 0 C57.93 0.61, 92.27 0.5, 124.17 0 M20 0 C61.04 -0.69, 99.83 -1.1, 124.17 0 M124.17 0 C139.2 -0.69, 143.4 7.66, 144.17 20 M124.17 0 C137.07 0.84, 144.89 6.33, 144.17 20 M144.17 20 C145.16 31.08, 143.78 42.88, 144.17 60 M144.17 20 C143.73 30.88, 144.98 40.18, 144.17 60 M144.17 60 C144.4 74.41, 138.55 78.34, 124.17 80 M144.17 60 C144.85 74.04, 136.85 80.43, 124.17 80 M124.17 80 C95.16 79.37, 67.81 80.06, 20 80 M124.17 80 C101.6 79.89, 79.75 81.81, 20 80 M20 80 C5.01 79.96, 0.83 71.54, 0 60 M20 80 C8.03 80.57, -2.26 72.61, 0 60 M0 60 C1.07 47.95, 0.78 33.21, 0 20 M0 60 C0.19 46.48, 0.46 32.84, 0 20 M0 20 C-1.48 7.23, 6.49 -0.46, 20 0 M0 20 C1.32 8.91, 4.89 1.33, 20 0" stroke="#1e1e1e" stroke-width="2" fill="none"></path></g><g transform="translate(1076.064697265625 418.5172677886626) rotate(0 25.115989685058594 17.5)"><text x="25.115989685058594" y="0" font-family="Virgil, Segoe UI Emoji" font-size="28px" fill="#1e1e1e" text-anchor="middle" style="white-space: pre;" direction="ltr" dominant-baseline="text-before-edge">Add</text></g><g stroke-linecap="round" transform="translate(909.0973663330078 548.5173440826079) rotate(0 72.08332061767578 40)"><path d="M2.85 7.77 C2.85 7.77, 2.85 7.77, 2.85 7.77 M2.85 7.77 C2.85 7.77, 2.85 7.77, 2.85 7.77 M1.01 22.08 C5.91 17.54, 10.86 9.25, 20.04 0.19 M1.01 22.08 C7.36 15.04, 13.18 8.14, 20.04 0.19 M1.14 34.12 C8.59 24.24, 15.75 18.47, 30.67 0.16 M1.14 34.12 C9.7 24.07, 16.47 15.61, 30.67 0.16 M1.28 46.16 C15.86 28.99, 32.04 9.72, 41.3 0.12 M1.28 46.16 C15.52 29.87, 29.99 13.21, 41.3 0.12 M0.75 58.96 C18.6 38.25, 39.63 12.37, 51.93 0.09 M0.75 58.96 C17.08 38.68, 36.6 19.28, 51.93 0.09 M2.2 69.49 C25.04 40.86, 48.95 15.23, 62.56 0.05 M2.2 69.49 C26.31 41.85, 51.37 15.02, 62.56 0.05 M6.93 76.25 C25.82 51.57, 47.97 27.39, 73.19 0.02 M6.93 76.25 C23.14 59.14, 36.75 42, 73.19 0.02 M14.93 79.23 C41.5 50.04, 66.05 20.04, 83.82 -0.01 M14.93 79.23 C41.55 47.33, 68.78 17.11, 83.82 -0.01 M24.25 80.7 C47.04 54.96, 67.59 31.7, 94.45 -0.05 M24.25 80.7 C49.56 52.29, 73.59 23.32, 94.45 -0.05 M34.88 80.67 C54.61 54.7, 77.72 30.44, 105.08 -0.08 M34.88 80.67 C52.15 60.06, 68.04 41, 105.08 -0.08 M45.51 80.64 C68.85 50.9, 95.44 22.05, 115.71 -0.12 M45.51 80.64 C70.71 52.34, 94.33 25.53, 115.71 -0.12 M56.14 80.6 C73.83 59.73, 92.55 39.8, 125.68 0.6 M56.14 80.6 C82.06 50.99, 107.62 21.52, 125.68 0.6 M66.77 80.57 C89.36 54.57, 115.89 25.2, 134.34 2.83 M66.77 80.57 C80.3 63.85, 93.76 47.7, 134.34 2.83 M77.4 80.53 C96.83 58.02, 115.37 38.63, 141.04 7.33 M77.4 80.53 C90.55 65.37, 104.63 47.68, 141.04 7.33 M88.03 80.5 C107.24 54.71, 132.36 29.98, 144.45 15.59 M88.03 80.5 C103.88 63.94, 119.9 44.52, 144.45 15.59 M98.66 80.46 C113.83 59.63, 132.04 43.28, 144.58 27.63 M98.66 80.46 C115.74 62.35, 131.88 42.05, 144.58 27.63 M109.29 80.43 C121.43 64.29, 137.34 49.17, 144.72 39.67 M109.29 80.43 C119.67 68.72, 129.21 58.27, 144.72 39.67 M119.92 80.39 C130.4 69.41, 138.92 57.28, 144.85 51.72 M119.92 80.39 C129.87 69.51, 138.65 58.48, 144.85 51.72 M132.52 78.1 C135.48 73.38, 139.5 71.77, 143.01 66.02 M132.52 78.1 C135.75 74.91, 139.28 70.79, 143.01 66.02" stroke="#b2f2bb" stroke-width="1" fill="none"></path><path d="M20 0 C54.68 -1.74, 86.83 1.88, 124.17 0 M20 0 C49.49 0.34, 76.91 1.18, 124.17 0 M124.17 0 C137.13 0.73, 144.79 6.38, 144.17 20 M124.17 0 C136.86 -2.29, 141.87 8.26, 144.17 20 M144.17 20 C143.37 32.67, 142.38 43.78, 144.17 60 M144.17 20 C144.58 34.45, 145 46.99, 144.17 60 M144.17 60 C144.76 73.95, 136.93 80.37, 124.17 80 M144.17 60 C143.41 72.47, 138.16 78.64, 124.17 80 M124.17 80 C96.05 81.64, 72.98 79.55, 20 80 M124.17 80 C102.19 80.97, 82.28 80.09, 20 80 M20 80 C7.85 80.49, -1.97 72.7, 0 60 M20 80 C7.81 78.59, -0.16 74.28, 0 60 M0 60 C0.51 43.68, -1.95 28.47, 0 20 M0 60 C-0.89 49.42, -0.24 38.05, 0 20 M0 20 C1.15 8.62, 5.12 1.15, 20 0 M0 20 C0.47 6.83, 8.58 -1.92, 20 0" stroke="#1e1e1e" stroke-width="2" fill="none"></path></g><g transform="translate(940.3287048339844 571.0173440826079) rotate(0 40.85198211669922 17.5)"><text x="40.85198211669922" y="0" font-family="Virgil, Segoe UI Emoji" font-size="28px" fill="#1e1e1e" text-anchor="middle" style="white-space: pre;" direction="ltr" dominant-baseline="text-before-edge">Var: x</text></g><g stroke-linecap="round" transform="translate(1142.8472900390625 551.0172677886626) rotate(0 72.08332061767578 40)"><path d="M2.85 7.77 C2.85 7.77, 2.85 7.77, 2.85 7.77 M2.85 7.77 C2.85 7.77, 2.85 7.77, 2.85 7.77 M1.01 22.08 C9.31 13.1, 15.6 4.83, 20.04 0.19 M1.01 22.08 C7.21 14.06, 13.16 6.93, 20.04 0.19 M1.14 34.12 C7.33 26.87, 14.8 19.89, 30.67 0.16 M1.14 34.12 C8.54 27.46, 14.84 19.25, 30.67 0.16 M1.28 46.16 C15.04 30.62, 27.28 16.67, 41.3 0.12 M1.28 46.16 C13.32 33.08, 24.21 19.19, 41.3 0.12 M0.75 58.96 C21.74 38.24, 39.43 11.51, 51.93 0.09 M0.75 58.96 C16.04 41.04, 29.5 23.86, 51.93 0.09 M2.2 69.49 C17.65 53.32, 27.59 38.72, 62.56 0.05 M2.2 69.49 C17.05 52.47, 31.86 33.42, 62.56 0.05 M6.93 76.25 C21.85 56.99, 40.5 40.77, 73.19 0.02 M6.93 76.25 C30.03 51.24, 51.23 25.82, 73.19 0.02 M14.93 79.23 C39.5 53.93, 59.2 26.2, 83.82 -0.01 M14.93 79.23 C32.04 59.06, 48.73 41.19, 83.82 -0.01 M24.25 80.7 C44.74 56.94, 61.93 36.15, 94.45 -0.05 M24.25 80.7 C44.58 58.41, 65.17 35.19, 94.45 -0.05 M34.88 80.67 C50 62.35, 69.06 44.11, 105.08 -0.08 M34.88 80.67 C49.99 64.21, 64.81 47.12, 105.08 -0.08 M45.51 80.64 C65.32 59.93, 81.22 39.3, 115.71 -0.12 M45.51 80.64 C61.54 60.58, 77.38 42, 115.71 -0.12 M56.14 80.6 C76.6 59.56, 93.6 37.99, 125.68 0.6 M56.14 80.6 C76.79 57.43, 95.43 33.19, 125.68 0.6 M66.77 80.57 C89.77 51.85, 117.88 22.36, 134.34 2.83 M66.77 80.57 C84.62 61.22, 102.64 41.33, 134.34 2.83 M77.4 80.53 C93.3 58.86, 113.32 37.33, 141.04 7.33 M77.4 80.53 C103.98 52.65, 128.2 21.99, 141.04 7.33 M88.03 80.5 C100.92 63.75, 114.7 49, 144.45 15.59 M88.03 80.5 C110.42 55.33, 132.41 28.93, 144.45 15.59 M98.66 80.46 C111.25 67.21, 119.04 54.74, 144.58 27.63 M98.66 80.46 C118.19 60.1, 135 37.72, 144.58 27.63 M109.29 80.43 C119.29 69.76, 129 57.81, 144.72 39.67 M109.29 80.43 C118.6 69.51, 125.95 60.61, 144.72 39.67 M119.92 80.39 C128.45 74.16, 134.41 65.95, 144.85 51.72 M119.92 80.39 C128.37 70.2, 136.57 61.16, 144.85 51.72 M132.52 78.1 C135.36 73.96, 138.81 71.71, 143.01 66.02 M132.52 78.1 C136.92 74, 141.56 67.73, 143.01 66.02" stroke="#b2f2bb" stroke-width="1" fill="none"></path><path d="M20 0 C42.32 -1.56, 64.32 0.66, 124.17 0 M20 0 C47.47 -0.15, 75.62 -0.66, 124.17 0 M124.17 0 C136.94 -1.99, 142.17 8.05, 144.17 20 M124.17 0 C137.72 0.01, 145.43 5.75, 144.17 20 M144.17 20 C144.76 34.09, 142.56 45.37, 144.17 60 M144.17 20 C144.67 34.46, 144.09 48.49, 144.17 60 M144.17 60 C143.51 72.59, 138.07 78.82, 124.17 80 M144.17 60 C143.1 72.52, 137.23 78.05, 124.17 80 M124.17 80 C81.78 80.61, 45.16 78.17, 20 80 M124.17 80 C93.71 79.31, 61.08 78.75, 20 80 M20 80 C7.66 78.77, -0.14 74.15, 0 60 M20 80 C8.89 80.62, 1.35 74.04, 0 60 M0 60 C-0.2 49.66, -1.01 36.35, 0 20 M0 60 C0.61 47.84, -0.74 34.31, 0 20 M0 20 C0.41 6.81, 8.33 -1.67, 20 0 M0 20 C0.06 4.72, 8.83 0.65, 20 0" stroke="#1e1e1e" stroke-width="2" fill="none"></path></g><g transform="translate(1175.380630493164 573.5172677886626) rotate(0 39.54998016357422 17.5)"><text x="39.54998016357422" y="0" font-family="Virgil, Segoe UI Emoji" font-size="28px" fill="#1e1e1e" text-anchor="middle" style="white-space: pre;" direction="ltr" dominant-baseline="text-before-edge">Var: y</text></g><g stroke-linecap="round"><g transform="translate(1062.8474044799805 482.6839471709868) rotate(0 -36.66667938232422 27.91667938232422)"><path d="M1.02 -0.41 C-11.23 9.12, -61.36 46.98, -73.79 56.43 M0.1 -1.68 C-12.32 7.58, -62.56 45.31, -74.98 54.62" stroke="#1e1e1e" stroke-width="2" fill="none"></path></g><g transform="translate(1062.8474044799805 482.6839471709868) rotate(0 -36.66667938232422 27.91667938232422)"><path d="M-61.32 33.68 C-65.89 38.77, -67.95 44.9, -74.98 54.62 M-61.32 33.68 C-66.13 39.71, -71.45 48.45, -74.98 54.62" stroke="#1e1e1e" stroke-width="2" fill="none"></path></g><g transform="translate(1062.8474044799805 482.6839471709868) rotate(0 -36.66667938232422 27.91667938232422)"><path d="M-51.06 47.36 C-58.35 48.79, -63.23 51.17, -74.98 54.62 M-51.06 47.36 C-59.37 48.77, -68.14 52.91, -74.98 54.62" stroke="#1e1e1e" stroke-width="2" fill="none"></path></g></g><mask></mask><g stroke-linecap="round"><g transform="translate(1137.014045715332 486.01730593563525) rotate(0 32.5 27.91667938232422)"><path d="M-0.46 0.59 C10.17 10.04, 53.8 47.1, 64.78 56.27 M1.5 -0.14 C11.86 8.98, 53.16 44.88, 63.71 54.38" stroke="#1e1e1e" stroke-width="2" fill="none"></path></g><g transform="translate(1137.014045715332 486.01730593563525) rotate(0 32.5 27.91667938232422)"><path d="M40.44 45.24 C50.36 48.48, 59.06 53, 63.71 54.38 M40.44 45.24 C46.06 48.78, 53.8 50.7, 63.71 54.38" stroke="#1e1e1e" stroke-width="2" fill="none"></path></g><g transform="translate(1137.014045715332 486.01730593563525) rotate(0 32.5 27.91667938232422)"><path d="M51.76 32.42 C57.28 40.55, 61.62 50.01, 63.71 54.38 M51.76 32.42 C54.11 39.5, 58.62 45.08, 63.71 54.38" stroke="#1e1e1e" stroke-width="2" fill="none"></path></g></g><mask></mask><g stroke-linecap="round"><g transform="translate(1105.3474044799805 292.68398531795947) rotate(0 -0.8333587646484375 45.41666030883789)"><path d="M-0.22 0.44 C-0.36 15.45, -0.99 75.79, -1.29 90.66 M-1.8 -0.37 C-2.02 14.77, -1.85 76.99, -2.04 92.11" stroke="#1e1e1e" stroke-width="2" fill="none"></path></g><g transform="translate(1105.3474044799805 292.68398531795947) rotate(0 -0.8333587646484375 45.41666030883789)"><path d="M-10.5 68.58 C-7.43 75.38, -6.24 80.36, -2.04 92.11 M-10.5 68.58 C-8.94 73.24, -6.79 77.56, -2.04 92.11" stroke="#1e1e1e" stroke-width="2" fill="none"></path></g><g transform="translate(1105.3474044799805 292.68398531795947) rotate(0 -0.8333587646484375 45.41666030883789)"><path d="M6.6 68.65 C5.19 75.4, 1.9 80.36, -2.04 92.11 M6.6 68.65 C4.73 73.42, 3.45 77.72, -2.04 92.11" stroke="#1e1e1e" stroke-width="2" fill="none"></path></g></g><mask></mask></svg>