<svg version="1.1" xmlns="http://www.w3.org/2000/svg" viewBox="0 0 733.4999465942383 332.2500762939453" width="733.4999465942383" height="332.2500762939453">
  <!-- svg-source:excalidraw -->
  
  <defs>
    <style class="style-fonts">
      @font-face {
        font-family: "Virgil";
        src: url("https://excalidraw.com/Virgil.woff2");
      }
      @font-face {
        font-family: "Cascadia";
        src: url("https://excalidraw.com/Cascadia.woff2");
      }
      @font-face {
        font-family: "Assistant";
        src: url("https://excalidraw.com/Assistant-Regular.woff2");
      }
    </style>
    
  </defs>
  <rect x="0" y="0" width="733.4999465942383" height="332.2500762939453" fill="#ffffff"></rect><g transform="translate(10 51.49995422363281) rotate(0 52.63995361328125 25)"><text x="0" y="0" font-family="Virgil, Segoe UI Emoji" font-size="20px" fill="#1e1e1e" text-anchor="start" style="white-space: pre;" direction="ltr" dominant-baseline="text-before-edge">3*4;</text><text x="0" y="25" font-family="Virgil, Segoe UI Emoji" font-size="20px" fill="#1e1e1e" text-anchor="start" style="white-space: pre;" direction="ltr" dominant-baseline="text-before-edge">return 1*2;</text></g><g stroke-linecap="round" transform="translate(592.1667098999023 10) rotate(0 49.99998474121094 46.5)"><path d="M41.59 0.25 C49.19 -1.51, 58.56 0.97, 66.42 3.57 C74.28 6.18, 83.28 10.23, 88.75 15.89 C94.23 21.55, 97.77 29.8, 99.28 37.51 C100.79 45.22, 100.75 54.75, 97.82 62.14 C94.89 69.54, 88.14 76.84, 81.68 81.89 C75.21 86.94, 67.06 91.1, 59.04 92.42 C51.02 93.74, 41.36 92.42, 33.53 89.81 C25.7 87.2, 17.55 82.41, 12.06 76.76 C6.57 71.11, 2.24 63.65, 0.57 55.89 C-1.09 48.13, -0.73 37.68, 2.05 30.19 C4.83 22.69, 10.32 15.81, 17.26 10.92 C24.21 6.04, 38.78 2.52, 43.71 0.87 C48.64 -0.78, 46.7 0.26, 46.84 1.04 M31.52 3.85 C38.49 0.27, 47.73 -0.02, 55.76 0.66 C63.78 1.33, 72.89 3.26, 79.67 7.89 C86.44 12.53, 93.16 21.11, 96.4 28.46 C99.65 35.82, 100.15 44.48, 99.14 52.03 C98.14 59.57, 95.35 67.52, 90.39 73.71 C85.44 79.9, 77.37 86.03, 69.41 89.17 C61.45 92.3, 51.14 93.58, 42.66 92.5 C34.17 91.43, 24.85 87.59, 18.49 82.71 C12.12 77.83, 7.25 70.24, 4.48 63.24 C1.71 56.23, 1.02 47.92, 1.86 40.68 C2.7 33.44, 4.51 25.89, 9.52 19.79 C14.52 13.69, 28.54 6.74, 31.89 4.07 C35.23 1.41, 29.64 3.01, 29.58 3.78" stroke="#1e1e1e" stroke-width="2" fill="none"></path></g><g transform="translate(612.241397194133 31.619534674825445) rotate(0 30.069969177246094 25)"><text x="30.069969177246094" y="0" font-family="Virgil, Segoe UI Emoji" font-size="20px" fill="#1e1e1e" text-anchor="middle" style="white-space: pre;" direction="ltr" dominant-baseline="text-before-edge">return</text><text x="30.069969177246094" y="25" font-family="Virgil, Segoe UI Emoji" font-size="20px" fill="#1e1e1e" text-anchor="middle" style="white-space: pre;" direction="ltr" dominant-baseline="text-before-edge">stmt</text></g><g stroke-linecap="round" transform="translate(389.49999237060547 16.666656494140625) rotate(0 49.99998474121094 46.5)"><path d="M26.17 6.14 C32.92 2.29, 43.12 0.39, 51.61 0.55 C60.11 0.71, 70.19 3.1, 77.13 7.1 C84.07 11.1, 89.37 17.77, 93.27 24.53 C97.17 31.29, 100.7 40.08, 100.53 47.66 C100.35 55.23, 96.56 63.45, 92.21 70 C87.85 76.55, 81.59 83.15, 74.39 86.96 C67.18 90.78, 57.39 93.09, 48.98 92.88 C40.57 92.67, 30.93 89.71, 23.93 85.67 C16.93 81.64, 11.06 75.36, 6.98 68.68 C2.89 62.01, -0.48 53.27, -0.56 45.61 C-0.65 37.94, 0.7 29.74, 6.48 22.69 C12.27 15.64, 28.01 6.9, 34.14 3.3 C40.26 -0.3, 42.84 0.46, 43.23 1.09 M46.99 1.42 C54.42 0.33, 63.87 1.28, 71.24 4.61 C78.61 7.93, 86.28 14.99, 91.21 21.38 C96.13 27.77, 100.37 35.07, 100.77 42.94 C101.18 50.81, 97.42 61.47, 93.64 68.62 C89.86 75.77, 85.07 81.91, 78.09 85.84 C71.11 89.77, 60.35 91.99, 51.77 92.18 C43.19 92.37, 33.86 90.47, 26.6 86.99 C19.33 83.51, 12.76 77.49, 8.18 71.28 C3.6 65.08, -0.49 57.31, -0.88 49.74 C-1.28 42.18, 2 32.72, 5.81 25.9 C9.62 19.09, 15.24 13.35, 21.98 8.85 C28.72 4.35, 41.88 0.43, 46.25 -1.1 C50.63 -2.63, 47.86 -1.4, 48.22 -0.32" stroke="#1e1e1e" stroke-width="2" fill="none"></path></g><g transform="translate(416.5846741716721 38.28619116896607) rotate(0 23.059974670410156 25)"><text x="23.059974670410156" y="0" font-family="Virgil, Segoe UI Emoji" font-size="20px" fill="#1e1e1e" text-anchor="middle" style="white-space: pre;" direction="ltr" dominant-baseline="text-before-edge">expr</text><text x="23.059974670410156" y="25" font-family="Virgil, Segoe UI Emoji" font-size="20px" fill="#1e1e1e" text-anchor="middle" style="white-space: pre;" direction="ltr" dominant-baseline="text-before-edge">stmt</text></g><g stroke-linecap="round" transform="translate(186.49999237060547 19.666595458984375) rotate(0 49.99998474121094 46.5)"><path d="M29.69 3 C36.87 -0.6, 48.46 -1.74, 56.79 -0.57 C65.12 0.6, 73.15 5.24, 79.64 10.01 C86.14 14.78, 92.26 21.07, 95.75 28.05 C99.23 35.03, 101.5 44.26, 100.57 51.89 C99.64 59.52, 95.45 67.58, 90.16 73.82 C84.87 80.06, 76.53 86.26, 68.82 89.36 C61.11 92.45, 52.08 93.31, 43.9 92.4 C35.71 91.48, 26.49 88.35, 19.69 83.86 C12.9 79.38, 6.51 72.68, 3.13 65.51 C-0.25 58.34, -1.79 48.54, -0.58 40.84 C0.63 33.14, 5 25.54, 10.37 19.3 C15.74 13.05, 27.48 6.04, 31.65 3.36 C35.81 0.68, 35.04 2.55, 35.35 3.22 M62.18 0.72 C70.19 1.91, 78.59 7.91, 84.59 13.23 C90.59 18.55, 95.61 25.3, 98.17 32.64 C100.73 39.98, 102.06 49.56, 99.94 57.26 C97.81 64.97, 91.56 72.98, 85.39 78.86 C79.22 84.75, 70.95 90.46, 62.93 92.55 C54.91 94.64, 45.05 93.24, 37.28 91.43 C29.51 89.61, 22.11 86.79, 16.3 81.68 C10.48 76.57, 4.73 68.25, 2.41 60.76 C0.08 53.27, 0.5 44.53, 2.35 36.73 C4.21 28.93, 8.04 19.65, 13.54 13.94 C19.04 8.23, 27.55 4.67, 35.35 2.46 C43.15 0.26, 56.03 0.94, 60.35 0.73 C64.67 0.52, 61.22 0.35, 61.25 1.2" stroke="#1e1e1e" stroke-width="2" fill="none"></path></g><g transform="translate(213.8746674578049 53.78613013380982) rotate(0 22.769981384277344 12.5)"><text x="22.769981384277344" y="0" font-family="Virgil, Segoe UI Emoji" font-size="20px" fill="#1e1e1e" text-anchor="middle" style="white-space: pre;" direction="ltr" dominant-baseline="text-before-edge">head</text></g><g stroke-linecap="round" transform="translate(418.83338165283203 176.0832977294922) rotate(0 23.666656494140625 24.5)"><path d="M19.01 0.45 C23.7 -0.75, 30.72 0.37, 35.19 2.9 C39.67 5.44, 44.03 10.69, 45.86 15.69 C47.7 20.68, 47.92 27.93, 46.21 32.85 C44.5 37.78, 40.08 42.57, 35.6 45.23 C31.13 47.89, 24.41 49.63, 19.38 48.81 C14.35 47.99, 8.57 44.36, 5.41 40.31 C2.24 36.27, 0.36 29.71, 0.38 24.56 C0.39 19.4, 2.19 13.52, 5.48 9.4 C8.77 5.28, 17.45 1.29, 20.11 -0.18 C22.76 -1.65, 21.31 0.09, 21.43 0.58 M18.52 1.13 C23.13 -0.28, 29.51 0.01, 34.05 2.39 C38.59 4.77, 43.66 10.4, 45.74 15.4 C47.82 20.41, 48.22 27.4, 46.54 32.42 C44.86 37.44, 40.11 42.86, 35.68 45.53 C31.24 48.2, 24.79 49.26, 19.93 48.46 C15.08 47.66, 9.98 44.62, 6.55 40.71 C3.11 36.8, -0.51 30.15, -0.67 24.99 C-0.83 19.82, 2.51 13.74, 5.61 9.71 C8.71 5.67, 15.82 2.29, 17.93 0.77 C20.04 -0.76, 18.12 0.11, 18.28 0.54" stroke="#1e1e1e" stroke-width="2" fill="none"></path></g><g transform="translate(437.1051888192384 188.2591815904218) rotate(0 5.159996032714844 12.5)"><text x="5.159996032714844" y="0" font-family="Virgil, Segoe UI Emoji" font-size="20px" fill="#1e1e1e" text-anchor="middle" style="white-space: pre;" direction="ltr" dominant-baseline="text-before-edge">*</text></g><g stroke-linecap="round" transform="translate(376.50000762939453 282.91676330566406) rotate(0 18.666656494140625 19.666656494140625)"><path d="M9.33 0 C12.43 0.28, 17.43 -0.78, 28 0 M9.33 0 C15.51 -0.3, 20.21 -0.88, 28 0 M28 0 C34.79 -1.17, 36.8 4.61, 37.33 9.33 M28 0 C33.28 0.48, 39.39 1.52, 37.33 9.33 M37.33 9.33 C37.43 14.28, 35.49 17.49, 37.33 30 M37.33 9.33 C36.65 14.21, 37.64 20.47, 37.33 30 M37.33 30 C38.1 37.8, 32.26 40.36, 28 39.33 M37.33 30 C35.25 35.19, 35.16 38.2, 28 39.33 M28 39.33 C24.36 38.08, 20.7 38.68, 9.33 39.33 M28 39.33 C22.95 39.62, 19.53 38.6, 9.33 39.33 M9.33 39.33 C1.63 39.75, -1.81 36.57, 0 30 M9.33 39.33 C1.76 41.44, 1.59 34.37, 0 30 M0 30 C1.67 24.56, -0.18 20.04, 0 9.33 M0 30 C0.63 26.66, -0.69 21.96, 0 9.33 M0 9.33 C1.84 4.45, 4.23 0.45, 9.33 0 M0 9.33 C-2.22 3.11, 1.86 2.19, 9.33 0" stroke="#1e1e1e" stroke-width="2" fill="none"></path></g><g transform="translate(388.3566665649414 290.0834197998047) rotate(0 6.80999755859375 12.5)"><text x="6.80999755859375" y="0" font-family="Virgil, Segoe UI Emoji" font-size="20px" fill="#1e1e1e" text-anchor="middle" style="white-space: pre;" direction="ltr" dominant-baseline="text-before-edge">3</text></g><g stroke-linecap="round" transform="translate(471.16663360595703 280.9167022705078) rotate(0 18.666656494140625 19.666656494140625)"><path d="M9.33 0 C15.23 -0.61, 21.63 0.91, 28 0 M9.33 0 C14.77 -0.39, 19.43 0.86, 28 0 M28 0 C33.41 0.42, 39.12 1.73, 37.33 9.33 M28 0 C32.37 -0.99, 37.33 3.33, 37.33 9.33 M37.33 9.33 C36.34 15.98, 38.58 21.21, 37.33 30 M37.33 9.33 C37.78 15.32, 36.41 20.25, 37.33 30 M37.33 30 C35.52 35.33, 35.03 38.35, 28 39.33 M37.33 30 C35.2 34.33, 36.49 39.61, 28 39.33 M28 39.33 C22.53 38.8, 20.68 37.74, 9.33 39.33 M28 39.33 C21.33 39.36, 15.2 39.33, 9.33 39.33 M9.33 39.33 C1.94 41.17, 1.39 34.61, 0 30 M9.33 39.33 C2.11 39.66, 0.54 38.18, 0 30 M0 30 C-1.91 25.93, 1.04 19.56, 0 9.33 M0 30 C1.02 22.68, 0.66 14.25, 0 9.33 M0 9.33 C-1.93 3.11, 2.02 1.9, 9.33 0 M0 9.33 C2.05 2.25, 2.67 -0.71, 9.33 0" stroke="#1e1e1e" stroke-width="2" fill="none"></path></g><g transform="translate(483.4332962036133 288.08335876464844) rotate(0 6.399993896484375 12.5)"><text x="6.399993896484375" y="0" font-family="Virgil, Segoe UI Emoji" font-size="20px" fill="#1e1e1e" text-anchor="middle" style="white-space: pre;" direction="ltr" dominant-baseline="text-before-edge">4</text></g><g stroke-linecap="round"><g transform="translate(419.11151170539665 225.21656063147634) rotate(0 -9.921607888493838 25.68341432537511)"><path d="M0.52 -0.27 C-2.85 8.03, -17.36 41.85, -20.7 50.34 M-0.66 -1.46 C-3.62 6.91, -15.19 42.49, -18.43 51.34" stroke="#1e1e1e" stroke-width="2" fill="none"></path></g><g transform="translate(419.11151170539665 225.21656063147634) rotate(0 -9.921607888493838 25.68341432537511)"><path d="M-18.9 26.35 C-19.12 31.47, -20.25 40.01, -18.43 51.34 M-18.9 26.35 C-19.26 32.59, -17.84 37.72, -18.43 51.34" stroke="#1e1e1e" stroke-width="2" fill="none"></path></g><g transform="translate(419.11151170539665 225.21656063147634) rotate(0 -9.921607888493838 25.68341432537511)"><path d="M-2.72 31.89 C-7.21 35.64, -12.58 42.72, -18.43 51.34 M-2.72 31.89 C-6.97 36.92, -9.46 40.71, -18.43 51.34" stroke="#1e1e1e" stroke-width="2" fill="none"></path></g></g><mask></mask><g stroke-linecap="round"><g transform="translate(462.54146732426125 229.0549210250424) rotate(0 12.275605428663937 22.764234128592193)"><path d="M-0.85 -1.03 C3.21 6.49, 20.71 36.92, 24.89 44.83 M0.9 1.05 C4.79 8.73, 20.39 38.74, 24.12 45.99" stroke="#1e1e1e" stroke-width="2" fill="none"></path></g><g transform="translate(462.54146732426125 229.0549210250424) rotate(0 12.275605428663937 22.764234128592193)"><path d="M5.73 29.06 C10.3 35.58, 17.16 40.3, 24.12 45.99 M5.73 29.06 C13.45 34.68, 18.65 41.29, 24.12 45.99" stroke="#1e1e1e" stroke-width="2" fill="none"></path></g><g transform="translate(462.54146732426125 229.0549210250424) rotate(0 12.275605428663937 22.764234128592193)"><path d="M20.92 21.2 C20.25 30.31, 21.89 37.73, 24.12 45.99 M20.92 21.2 C22.91 29.8, 22.41 39.35, 24.12 45.99" stroke="#1e1e1e" stroke-width="2" fill="none"></path></g></g><mask></mask><g stroke-linecap="round"><g transform="translate(291.4999771118164 67.49996948242188) rotate(0 46.333343505859375 0)"><path d="M0.71 -0.01 C16.3 0.03, 77.46 0.05, 92.82 0.05 M-0.37 -1.06 C15.12 -0.8, 76.52 1.22, 91.96 1.61" stroke="#1e1e1e" stroke-width="2" fill="none"></path></g><g transform="translate(291.4999771118164 67.49996948242188) rotate(0 46.333343505859375 0)"><path d="M68.23 9.47 C74.01 7.67, 79.9 5.91, 91.96 1.61 M68.23 9.47 C76.11 6.48, 82.93 5.4, 91.96 1.61" stroke="#1e1e1e" stroke-width="2" fill="none"></path></g><g transform="translate(291.4999771118164 67.49996948242188) rotate(0 46.333343505859375 0)"><path d="M68.73 -7.63 C74.37 -5.25, 80.13 -2.84, 91.96 1.61 M68.73 -7.63 C76.52 -5.5, 83.18 -1.47, 91.96 1.61" stroke="#1e1e1e" stroke-width="2" fill="none"></path></g></g><mask></mask><g stroke-linecap="round"><g transform="translate(502.8333511352539 64.83331298828125) rotate(0 41.66668701171875 -0.6666717529296875)"><path d="M-0.17 -0.49 C13.84 -0.78, 70.04 -1.84, 84.08 -2.04 M-1.72 -1.79 C12.2 -1.92, 69.29 -1.07, 83.52 -0.88" stroke="#1e1e1e" stroke-width="2" fill="none"></path></g><g transform="translate(502.8333511352539 64.83331298828125) rotate(0 41.66668701171875 -0.6666717529296875)"><path d="M59.91 7.34 C66.22 6.15, 72.93 3.66, 83.52 -0.88 M59.91 7.34 C67.09 5.59, 71.91 3.01, 83.52 -0.88" stroke="#1e1e1e" stroke-width="2" fill="none"></path></g><g transform="translate(502.8333511352539 64.83331298828125) rotate(0 41.66668701171875 -0.6666717529296875)"><path d="M60.15 -9.76 C66.34 -5.81, 72.99 -3.16, 83.52 -0.88 M60.15 -9.76 C67.21 -6.95, 71.98 -4.98, 83.52 -0.88" stroke="#1e1e1e" stroke-width="2" fill="none"></path></g></g><mask></mask><g stroke-linecap="round"><g transform="translate(440.2541980209637 115.74895295011765) rotate(0 0.3460160644716552 27.56671364749127)"><path d="M-0.57 0.24 C-0.32 9.62, 0.35 46.87, 0.73 56 M1.33 -0.68 C1.49 8.4, -0.23 44.84, -0.19 54.34" stroke="#1e1e1e" stroke-width="2" fill="none"></path></g><g transform="translate(440.2541980209637 115.74895295011765) rotate(0 0.3460160644716552 27.56671364749127)"><path d="M-8.18 30.65 C-5.93 36.38, -2.99 43.71, -0.19 54.34 M-8.18 30.65 C-5.89 38.57, -3.84 45, -0.19 54.34" stroke="#1e1e1e" stroke-width="2" fill="none"></path></g><g transform="translate(440.2541980209637 115.74895295011765) rotate(0 0.3460160644716552 27.56671364749127)"><path d="M8.92 31.05 C7.11 36.61, 5.99 43.84, -0.19 54.34 M8.92 31.05 C6.2 38.75, 3.24 45.06, -0.19 54.34" stroke="#1e1e1e" stroke-width="2" fill="none"></path></g></g><mask></mask><g stroke-linecap="round" transform="translate(633.833381652832 172.0832061767578) rotate(0 23.666656494140625 24.5)"><path d="M19.62 0.48 C24.29 -0.77, 30.61 0.3, 34.96 2.85 C39.3 5.41, 43.84 10.92, 45.69 15.81 C47.54 20.69, 47.68 27.25, 46.09 32.14 C44.49 37.03, 40.43 42.33, 36.14 45.14 C31.85 47.95, 25.34 49.79, 20.35 49.02 C15.36 48.26, 9.52 44.63, 6.18 40.55 C2.83 36.47, 0.46 29.82, 0.3 24.51 C0.14 19.21, 1.9 12.79, 5.22 8.71 C8.55 4.63, 17.47 1.41, 20.26 0.05 C23.05 -1.32, 21.87 0.13, 21.96 0.52 M21.61 -0.48 C26.22 -1.23, 32.91 1.44, 37.11 4.69 C41.32 7.94, 45.62 14.04, 46.85 19 C48.09 23.96, 46.64 29.93, 44.52 34.46 C42.41 38.99, 38.67 43.91, 34.15 46.18 C29.63 48.46, 22.39 49.45, 17.41 48.1 C12.43 46.76, 7.14 42.39, 4.25 38.11 C1.36 33.83, -0.38 27.6, 0.07 22.41 C0.52 17.23, 3.21 10.79, 6.95 6.99 C10.69 3.19, 19.91 0.67, 22.5 -0.41 C25.09 -1.5, 22.67 -0.14, 22.5 0.47" stroke="#1e1e1e" stroke-width="2" fill="none"></path></g><g transform="translate(652.1051888192383 184.25909003768743) rotate(0 5.159996032714844 12.5)"><text x="5.159996032714844" y="0" font-family="Virgil, Segoe UI Emoji" font-size="20px" fill="#1e1e1e" text-anchor="middle" style="white-space: pre;" direction="ltr" dominant-baseline="text-before-edge">*</text></g><g stroke-linecap="round" transform="translate(591.5000076293945 278.9166717529297) rotate(0 18.666656494140625 19.666656494140625)"><path d="M9.33 0 C14.94 0.25, 16.74 -0.91, 28 0 M9.33 0 C13.75 0.65, 18.99 0.86, 28 0 M28 0 C35.58 1.73, 37.53 4.3, 37.33 9.33 M28 0 C32.76 -0.5, 35.96 0.89, 37.33 9.33 M37.33 9.33 C36.27 13.96, 36.59 22.42, 37.33 30 M37.33 9.33 C36.79 16.96, 37.6 25.08, 37.33 30 M37.33 30 C36.07 34.48, 36.18 37.63, 28 39.33 M37.33 30 C37.75 36.26, 34.62 38.69, 28 39.33 M28 39.33 C22.56 40.83, 15.84 40.75, 9.33 39.33 M28 39.33 C22.17 38.97, 17.14 40.26, 9.33 39.33 M9.33 39.33 C2.01 37.36, -0.93 35.46, 0 30 M9.33 39.33 C1.48 37.84, -1.68 35.08, 0 30 M0 30 C-0.3 21.04, 0.85 14.38, 0 9.33 M0 30 C1.07 25.02, 0.61 20.75, 0 9.33 M0 9.33 C0.28 2.67, 1.46 -1, 9.33 0 M0 9.33 C0 4.93, 2.11 0.5, 9.33 0" stroke="#1e1e1e" stroke-width="2" fill="none"></path></g><g transform="translate(607.4566650390625 286.0833282470703) rotate(0 2.7099990844726562 12.5)"><text x="2.7099990844726562" y="0" font-family="Virgil, Segoe UI Emoji" font-size="20px" fill="#1e1e1e" text-anchor="middle" style="white-space: pre;" direction="ltr" dominant-baseline="text-before-edge">1</text></g><g stroke-linecap="round" transform="translate(686.166633605957 276.91661071777344) rotate(0 18.666656494140625 19.666656494140625)"><path d="M9.33 0 C14.71 0.09, 21.13 -1.49, 28 0 M9.33 0 C16.92 0.63, 23.34 0.38, 28 0 M28 0 C32.95 -0.44, 36.14 1.18, 37.33 9.33 M28 0 C33.59 -1.51, 37.27 2.04, 37.33 9.33 M37.33 9.33 C38.53 13.79, 35.8 18.73, 37.33 30 M37.33 9.33 C36.77 14.92, 38.38 21.4, 37.33 30 M37.33 30 C37.69 36.25, 34.57 38.77, 28 39.33 M37.33 30 C37.18 37.24, 33.67 39.38, 28 39.33 M28 39.33 C20.63 38.12, 15.52 38.58, 9.33 39.33 M28 39.33 C22.98 38.56, 18.56 39.13, 9.33 39.33 M9.33 39.33 C1.7 38.04, -1.46 35.22, 0 30 M9.33 39.33 C5.33 37.93, 0.89 35.74, 0 30 M0 30 C-1.85 23.81, -0.49 21.16, 0 9.33 M0 30 C0.03 24.87, -0.94 19.67, 0 9.33 M0 9.33 C0 4.69, 2.24 0.44, 9.33 0 M0 9.33 C2.18 3.49, 5.27 0.65, 9.33 0" stroke="#1e1e1e" stroke-width="2" fill="none"></path></g><g transform="translate(697.7132949829102 284.08326721191406) rotate(0 7.1199951171875 12.5)"><text x="7.1199951171875" y="0" font-family="Virgil, Segoe UI Emoji" font-size="20px" fill="#1e1e1e" text-anchor="middle" style="white-space: pre;" direction="ltr" dominant-baseline="text-before-edge">2</text></g><g stroke-linecap="round"><g transform="translate(634.1115117053967 221.2164690787422) rotate(0 -9.921607888493838 25.68341432537511)"><path d="M-1.02 0.87 C-4.49 9.6, -17.82 43.92, -20.83 52.51 M0.64 0.29 C-2.46 8.69, -15.29 42.6, -18.63 50.99" stroke="#1e1e1e" stroke-width="2" fill="none"></path></g><g transform="translate(634.1115117053967 221.2164690787422) rotate(0 -9.921607888493838 25.68341432537511)"><path d="M-18.14 25.99 C-16.79 31.83, -16.49 42.3, -18.63 50.99 M-18.14 25.99 C-18.94 35.44, -19.09 44.35, -18.63 50.99" stroke="#1e1e1e" stroke-width="2" fill="none"></path></g><g transform="translate(634.1115117053967 221.2164690787422) rotate(0 -9.921607888493838 25.68341432537511)"><path d="M-2.19 32.15 C-5.62 36.01, -10.1 44.64, -18.63 50.99 M-2.19 32.15 C-9.16 39.31, -15.47 45.84, -18.63 50.99" stroke="#1e1e1e" stroke-width="2" fill="none"></path></g></g><mask></mask><g stroke-linecap="round"><g transform="translate(677.5414673242612 225.05482947230803) rotate(0 12.275605428663994 22.764234128592193)"><path d="M-0.98 1.14 C3.42 8.76, 21.09 39.05, 25.36 46.57 M0.7 0.7 C5.1 7.92, 20.96 37.73, 24.84 44.99" stroke="#1e1e1e" stroke-width="2" fill="none"></path></g><g transform="translate(677.5414673242612 225.05482947230803) rotate(0 12.275605428663994 22.764234128592193)"><path d="M6.23 28.3 C12.25 33.38, 16.07 35.81, 24.84 44.99 M6.23 28.3 C12.21 33.37, 19.22 39.67, 24.84 44.99" stroke="#1e1e1e" stroke-width="2" fill="none"></path></g><g transform="translate(677.5414673242612 225.05482947230803) rotate(0 12.275605428663994 22.764234128592193)"><path d="M21.31 20.24 C24.16 26.93, 24.74 31.09, 24.84 44.99 M21.31 20.24 C21.83 28.17, 23.42 37.37, 24.84 44.99" stroke="#1e1e1e" stroke-width="2" fill="none"></path></g></g><mask></mask><g stroke-linecap="round"><g transform="translate(650.8332290649414 114.83334350585938) rotate(0 0.666748046875 24.33331298828125)"><path d="M0.3 -0.22 C0.48 7.89, 1.22 40.51, 1.33 48.6 M-0.21 -0.8 C-0.13 7.4, 0.52 41.01, 0.9 49.27" stroke="#1e1e1e" stroke-width="2" fill="none"></path></g><g transform="translate(650.8332290649414 114.83334350585938) rotate(0 0.666748046875 24.33331298828125)"><path d="M-8.12 26.66 C-5.39 34.48, -1.99 41.65, 0.9 49.27 M-8.12 26.66 C-6.24 31.64, -3.85 37.41, 0.9 49.27" stroke="#1e1e1e" stroke-width="2" fill="none"></path></g><g transform="translate(650.8332290649414 114.83334350585938) rotate(0 0.666748046875 24.33331298828125)"><path d="M8.53 26.15 C5.48 34.19, 3.1 41.54, 0.9 49.27 M8.53 26.15 C6.49 31.23, 4.96 37.12, 0.9 49.27" stroke="#1e1e1e" stroke-width="2" fill="none"></path></g></g><mask></mask></svg>