<svg version="1.1" xmlns="http://www.w3.org/2000/svg" viewBox="0 0 731.8333053588867 332.2500762939453" width="731.8333053588867" height="332.2500762939453">
  <!-- svg-source:excalidraw -->
  
  <defs>
    <style class="style-fonts">
      @font-face {
        font-family: "Virgil";
        src: url("https://excalidraw.com/Virgil.woff2");
      }
      @font-face {
        font-family: "Cascadia";
        src: url("https://excalidraw.com/Cascadia.woff2");
      }
      @font-face {
        font-family: "Assistant";
        src: url("https://excalidraw.com/Assistant-Regular.woff2");
      }
    </style>
    
  </defs>
  <rect x="0" y="0" width="731.8333053588867" height="332.2500762939453" fill="#ffffff"></rect><g transform="translate(10 51.49995422363281) rotate(0 20.949981689453125 25)"><text x="0" y="0" font-family="Virgil, Segoe UI Emoji" font-size="20px" fill="#1e1e1e" text-anchor="start" style="white-space: pre;" direction="ltr" dominant-baseline="text-before-edge">3*4;</text><text x="0" y="25" font-family="Virgil, Segoe UI Emoji" font-size="20px" fill="#1e1e1e" text-anchor="start" style="white-space: pre;" direction="ltr" dominant-baseline="text-before-edge">1*2;</text></g><g stroke-linecap="round" transform="translate(590.5000686645508 10) rotate(0 49.99998474121094 46.5)"><path d="M45.78 0.94 C53.39 -0.19, 63.38 2.43, 71.09 5.58 C78.8 8.73, 87.39 13.76, 92.05 19.84 C96.7 25.93, 98.56 34.22, 99.02 42.12 C99.48 50.02, 98.24 60.03, 94.81 67.26 C91.37 74.5, 85.4 81.3, 78.4 85.53 C71.4 89.77, 61.04 92.18, 52.81 92.69 C44.58 93.19, 36.42 92.01, 29 88.58 C21.58 85.15, 13.17 78.5, 8.28 72.11 C3.4 65.73, 0.29 57.73, -0.32 50.25 C-0.93 42.77, 0.98 34.23, 4.62 27.23 C8.26 20.24, 14.35 12.79, 21.54 8.28 C28.72 3.78, 43.3 1.56, 47.74 0.19 C52.17 -1.19, 47.96 -0.75, 48.15 0.05 M35.16 1.39 C42.07 -1.83, 50.88 -0.44, 59.02 1.1 C67.16 2.64, 77.73 5.35, 84 10.64 C90.26 15.93, 94.36 25.49, 96.63 32.81 C98.89 40.14, 99.23 47.43, 97.57 54.58 C95.9 61.74, 91.82 69.61, 86.64 75.75 C81.46 81.88, 74.13 88.9, 66.46 91.4 C58.8 93.89, 49.09 92.51, 40.65 90.72 C32.21 88.92, 22.31 85.39, 15.8 80.65 C9.3 75.91, 4.13 69.42, 1.64 62.27 C-0.85 55.13, -1.05 45.61, 0.87 37.77 C2.79 29.93, 7.89 21.08, 13.16 15.22 C18.44 9.36, 29.12 4.64, 32.54 2.61 C35.96 0.57, 33.09 2.23, 33.7 3.01" stroke="#1e1e1e" stroke-width="2" fill="none"></path></g><g transform="translate(610.5747559587815 31.61953467482556) rotate(0 30.069969177246094 25)"><text x="30.069969177246094" y="0" font-family="Virgil, Segoe UI Emoji" font-size="20px" fill="#1e1e1e" text-anchor="middle" style="white-space: pre;" direction="ltr" dominant-baseline="text-before-edge">return</text><text x="30.069969177246094" y="25" font-family="Virgil, Segoe UI Emoji" font-size="20px" fill="#1e1e1e" text-anchor="middle" style="white-space: pre;" direction="ltr" dominant-baseline="text-before-edge">stmt</text></g><g stroke-linecap="round" transform="translate(387.8333511352539 16.666656494140625) rotate(0 49.99998474121094 46.5)"><path d="M70.46 3.32 C77.98 5.29, 84.39 11.39, 89.22 17.77 C94.04 24.15, 98.25 33.66, 99.41 41.61 C100.57 49.56, 99.58 58.47, 96.17 65.46 C92.77 72.45, 85.59 79, 78.99 83.57 C72.4 88.13, 64.77 92.01, 56.58 92.86 C48.39 93.7, 37.72 91.68, 29.87 88.64 C22.02 85.6, 14.46 80.56, 9.48 74.6 C4.51 68.64, 0.97 60.59, 0.02 52.88 C-0.93 45.18, 0.41 35.61, 3.76 28.36 C7.12 21.11, 13.58 14.21, 20.14 9.39 C26.71 4.57, 34.16 0.07, 43.16 -0.57 C52.16 -1.2, 68.79 4.02, 74.15 5.59 C79.5 7.15, 75.68 8.03, 75.3 8.82 M33.12 2.26 C40.24 -0.82, 49.27 0.71, 57.07 1.9 C64.87 3.09, 73.5 4.99, 79.93 9.42 C86.36 13.84, 92.35 20.9, 95.65 28.43 C98.94 35.96, 100.77 46.96, 99.7 54.61 C98.63 62.26, 94.72 68.57, 89.22 74.31 C83.71 80.05, 74.68 85.88, 66.68 89.02 C58.68 92.17, 49.23 94.2, 41.2 93.18 C33.17 92.17, 24.69 88.04, 18.51 82.93 C12.34 77.83, 7.36 69.79, 4.16 62.53 C0.96 55.28, -1.78 47, -0.7 39.4 C0.38 31.79, 5.06 22.9, 10.63 16.92 C16.21 10.94, 29.27 5.89, 32.72 3.52 C36.18 1.14, 31.17 1.81, 31.38 2.67" stroke="#1e1e1e" stroke-width="2" fill="none"></path></g><g transform="translate(414.9180329363205 38.286191168966184) rotate(0 23.059974670410156 25)"><text x="23.059974670410156" y="0" font-family="Virgil, Segoe UI Emoji" font-size="20px" fill="#1e1e1e" text-anchor="middle" style="white-space: pre;" direction="ltr" dominant-baseline="text-before-edge">expr</text><text x="23.059974670410156" y="25" font-family="Virgil, Segoe UI Emoji" font-size="20px" fill="#1e1e1e" text-anchor="middle" style="white-space: pre;" direction="ltr" dominant-baseline="text-before-edge">stmt</text></g><g stroke-linecap="round" transform="translate(184.8333511352539 19.666595458984375) rotate(0 49.99998474121094 46.5)"><path d="M38.49 1.79 C46.22 -0.27, 56.98 0.51, 64.83 2.65 C72.69 4.78, 79.86 9, 85.62 14.59 C91.38 20.19, 97.43 28.72, 99.4 36.21 C101.36 43.69, 100.04 52.07, 97.41 59.49 C94.78 66.92, 89.73 75.23, 83.65 80.77 C77.57 86.3, 69.02 90.97, 60.93 92.71 C52.84 94.44, 43.01 93.56, 35.1 91.17 C27.2 88.78, 19.31 84.21, 13.51 78.36 C7.72 72.51, 2.07 63.61, 0.34 56.08 C-1.39 48.56, 0.68 40.31, 3.16 33.21 C5.64 26.11, 7.23 18.86, 15.23 13.47 C23.23 8.08, 43.58 2.84, 51.14 0.88 C58.7 -1.08, 60.73 0.98, 60.59 1.73 M34.6 0.93 C41.95 -2.22, 52.57 -2.16, 60.96 0 C69.35 2.16, 78.71 8.5, 84.94 13.86 C91.17 19.22, 96.29 25.01, 98.35 32.16 C100.4 39.31, 99.47 48.88, 97.25 56.76 C95.03 64.65, 90.59 73.68, 85.02 79.46 C79.45 85.24, 71.53 89.51, 63.84 91.42 C56.14 93.34, 47.14 92.84, 38.85 90.96 C30.55 89.08, 20.28 85.46, 14.06 80.15 C7.83 74.83, 3.49 66.47, 1.51 59.07 C-0.48 51.68, 0.25 43.46, 2.16 35.78 C4.06 28.1, 7.26 18.43, 12.94 12.98 C18.62 7.53, 32.37 5.03, 36.24 3.09 C40.12 1.14, 36.14 0.83, 36.22 1.3" stroke="#1e1e1e" stroke-width="2" fill="none"></path></g><g transform="translate(212.20802622245333 53.786130133809934) rotate(0 22.769981384277344 12.5)"><text x="22.769981384277344" y="0" font-family="Virgil, Segoe UI Emoji" font-size="20px" fill="#1e1e1e" text-anchor="middle" style="white-space: pre;" direction="ltr" dominant-baseline="text-before-edge">head</text></g><g stroke-linecap="round" transform="translate(417.16674041748047 176.0832977294922) rotate(0 23.666656494140625 24.5)"><path d="M26.69 0.18 C31.54 0.57, 38.32 4.45, 41.73 8.35 C45.13 12.25, 47.08 18.3, 47.12 23.56 C47.16 28.81, 45.11 35.65, 41.96 39.88 C38.81 44.11, 33.18 47.92, 28.23 48.96 C23.27 50, 16.66 48.7, 12.24 46.13 C7.81 43.57, 3.6 38.53, 1.69 33.56 C-0.23 28.58, -0.94 21.25, 0.75 16.29 C2.43 11.32, 7.34 6.33, 11.78 3.76 C16.23 1.19, 24.59 1.24, 27.41 0.85 C30.24 0.46, 28.8 1.11, 28.73 1.4 M24.19 0.69 C28.8 0.55, 35.06 2.57, 38.79 5.87 C42.53 9.16, 45.76 15.11, 46.6 20.46 C47.45 25.81, 46.45 33.53, 43.87 37.97 C41.28 42.41, 36.06 45.65, 31.1 47.11 C26.14 48.58, 18.92 48.56, 14.11 46.76 C9.3 44.97, 4.5 40.88, 2.23 36.33 C-0.04 31.79, -0.73 24.74, 0.49 19.49 C1.71 14.24, 5.64 8.06, 9.54 4.82 C13.44 1.59, 21.43 0.82, 23.88 0.07 C26.34 -0.68, 24.13 -0.11, 24.29 0.33" stroke="#1e1e1e" stroke-width="2" fill="none"></path></g><g transform="translate(435.4385475838867 188.2591815904218) rotate(0 5.159996032714844 12.5)"><text x="5.159996032714844" y="0" font-family="Virgil, Segoe UI Emoji" font-size="20px" fill="#1e1e1e" text-anchor="middle" style="white-space: pre;" direction="ltr" dominant-baseline="text-before-edge">*</text></g><g stroke-linecap="round" transform="translate(374.83336639404297 282.91676330566406) rotate(0 18.666656494140625 19.666656494140625)"><path d="M9.33 0 C14.29 -0.46, 24.02 0.22, 28 0 M9.33 0 C14.42 -0.22, 19.85 -0.18, 28 0 M28 0 C34.62 0.14, 37.61 1.22, 37.33 9.33 M28 0 C32.18 2.25, 38.01 1.6, 37.33 9.33 M37.33 9.33 C36.07 16.68, 37.83 27.2, 37.33 30 M37.33 9.33 C36.25 13.76, 36.56 18.5, 37.33 30 M37.33 30 C37.74 37.41, 34.65 37.46, 28 39.33 M37.33 30 C35.35 34.89, 32.63 40.48, 28 39.33 M28 39.33 C21.64 37.81, 17.12 38.85, 9.33 39.33 M28 39.33 C22.23 38.57, 17.79 40.16, 9.33 39.33 M9.33 39.33 C2.91 37.43, -1.02 35.72, 0 30 M9.33 39.33 C4.57 37.85, 0.97 36.05, 0 30 M0 30 C0.55 22.03, 1.18 14.45, 0 9.33 M0 30 C0.31 23.11, -0.72 15.89, 0 9.33 M0 9.33 C1.61 2.66, 4.18 0.02, 9.33 0 M0 9.33 C-0.57 3.59, 5.16 1.28, 9.33 0" stroke="#1e1e1e" stroke-width="2" fill="none"></path></g><g transform="translate(386.69002532958984 290.0834197998047) rotate(0 6.80999755859375 12.5)"><text x="6.80999755859375" y="0" font-family="Virgil, Segoe UI Emoji" font-size="20px" fill="#1e1e1e" text-anchor="middle" style="white-space: pre;" direction="ltr" dominant-baseline="text-before-edge">3</text></g><g stroke-linecap="round" transform="translate(469.49999237060547 280.9167022705078) rotate(0 18.666656494140625 19.666656494140625)"><path d="M9.33 0 C13.83 -1.13, 18.98 0.47, 28 0 M9.33 0 C14.51 0.12, 19.43 -0.83, 28 0 M28 0 C32.44 1.95, 37.92 1.79, 37.33 9.33 M28 0 C36.45 2.28, 39.36 1.42, 37.33 9.33 M37.33 9.33 C36.24 13.72, 39.15 17.97, 37.33 30 M37.33 9.33 C37.4 14.88, 37.41 18.29, 37.33 30 M37.33 30 C35.61 35.06, 32.83 40.33, 28 39.33 M37.33 30 C37.22 36.62, 35.47 38.28, 28 39.33 M28 39.33 C23.58 40.15, 20.56 38.03, 9.33 39.33 M28 39.33 C23.93 38.6, 19.58 39.25, 9.33 39.33 M9.33 39.33 C4.38 38.04, 0.84 36.07, 0 30 M9.33 39.33 C4.53 37.69, 0.02 36.68, 0 30 M0 30 C0.55 23.85, 0.16 19.16, 0 9.33 M0 30 C0.96 23.6, 0.69 17.66, 0 9.33 M0 9.33 C-0.5 3.53, 4.89 1.12, 9.33 0 M0 9.33 C-0.34 4.81, 1.6 0.18, 9.33 0" stroke="#1e1e1e" stroke-width="2" fill="none"></path></g><g transform="translate(481.7666549682617 288.08335876464844) rotate(0 6.399993896484375 12.5)"><text x="6.399993896484375" y="0" font-family="Virgil, Segoe UI Emoji" font-size="20px" fill="#1e1e1e" text-anchor="middle" style="white-space: pre;" direction="ltr" dominant-baseline="text-before-edge">4</text></g><g stroke-linecap="round"><g transform="translate(417.4448704700451 225.21656063147634) rotate(0 -9.921607888493895 25.68341432537511)"><path d="M0.32 -0.39 C-2.69 8.2, -15.44 42.38, -18.76 51.02 M-0.97 -1.65 C-3.98 7.17, -15.93 43.29, -19.14 52.37" stroke="#1e1e1e" stroke-width="2" fill="none"></path></g><g transform="translate(417.4448704700451 225.21656063147634) rotate(0 -9.921607888493895 25.68341432537511)"><path d="M-19.65 27.38 C-20.3 35.21, -20.1 39.83, -19.14 52.37 M-19.65 27.38 C-20.35 36.04, -19.01 42.08, -19.14 52.37" stroke="#1e1e1e" stroke-width="2" fill="none"></path></g><g transform="translate(417.4448704700451 225.21656063147634) rotate(0 -9.921607888493895 25.68341432537511)"><path d="M-3.47 32.89 C-8 39.44, -11.7 42.73, -19.14 52.37 M-3.47 32.89 C-9.15 39.71, -12.78 44.05, -19.14 52.37" stroke="#1e1e1e" stroke-width="2" fill="none"></path></g></g><mask></mask><g stroke-linecap="round"><g transform="translate(460.8748260889097 229.0549210250424) rotate(0 12.275605428663994 22.764234128592193)"><path d="M1.08 -0.35 C5.16 7.32, 20.85 38.16, 24.79 45.61 M0.19 -1.58 C4.1 6.34, 20 39.42, 23.97 47.2" stroke="#1e1e1e" stroke-width="2" fill="none"></path></g><g transform="translate(460.8748260889097 229.0549210250424) rotate(0 12.275605428663994 22.764234128592193)"><path d="M5.91 29.91 C11.18 35.8, 17.81 41.32, 23.97 47.2 M5.91 29.91 C9.76 32.63, 14.15 37.83, 23.97 47.2" stroke="#1e1e1e" stroke-width="2" fill="none"></path></g><g transform="translate(460.8748260889097 229.0549210250424) rotate(0 12.275605428663994 22.764234128592193)"><path d="M21.25 22.35 C21.48 30.85, 23.09 38.84, 23.97 47.2 M21.25 22.35 C21.88 26.77, 23.12 33.52, 23.97 47.2" stroke="#1e1e1e" stroke-width="2" fill="none"></path></g></g><mask></mask><g stroke-linecap="round"><g transform="translate(289.83333587646484 67.49996948242188) rotate(0 46.333343505859375 0)"><path d="M0.24 0.09 C15.53 -0.04, 77.6 -1.32, 92.83 -1.13 M-1.09 -0.91 C13.96 -0.91, 76.13 -0.25, 91.97 -0.19" stroke="#1e1e1e" stroke-width="2" fill="none"></path></g><g transform="translate(289.83333587646484 67.49996948242188) rotate(0 46.333343505859375 0)"><path d="M68.41 8.18 C77.77 5.14, 84.93 -0.18, 91.97 -0.19 M68.41 8.18 C78.72 6, 88 0.94, 91.97 -0.19" stroke="#1e1e1e" stroke-width="2" fill="none"></path></g><g transform="translate(289.83333587646484 67.49996948242188) rotate(0 46.333343505859375 0)"><path d="M68.54 -8.92 C77.8 -5.29, 84.91 -3.93, 91.97 -0.19 M68.54 -8.92 C78.85 -4.3, 88.08 -2.56, 91.97 -0.19" stroke="#1e1e1e" stroke-width="2" fill="none"></path></g></g><mask></mask><g stroke-linecap="round"><g transform="translate(501.16670989990234 64.83331298828125) rotate(0 41.66668701171875 -0.6666717529296875)"><path d="M0.16 -1.13 C13.83 -1.18, 68.35 0, 82.27 -0.16 M-1.21 0.88 C12.8 0.53, 70.37 -1.32, 84.42 -1.67" stroke="#1e1e1e" stroke-width="2" fill="none"></path></g><g transform="translate(501.16670989990234 64.83331298828125) rotate(0 41.66668701171875 -0.6666717529296875)"><path d="M61.18 7.56 C66.72 2.8, 78 2.21, 84.42 -1.67 M61.18 7.56 C67.42 4.43, 71.55 3.15, 84.42 -1.67" stroke="#1e1e1e" stroke-width="2" fill="none"></path></g><g transform="translate(501.16670989990234 64.83331298828125) rotate(0 41.66668701171875 -0.6666717529296875)"><path d="M60.69 -9.53 C66.4 -8.83, 77.83 -3.95, 84.42 -1.67 M60.69 -9.53 C67.2 -8.66, 71.45 -5.94, 84.42 -1.67" stroke="#1e1e1e" stroke-width="2" fill="none"></path></g></g><mask></mask><g stroke-linecap="round"><g transform="translate(438.58755678561215 115.74895295011765) rotate(0 0.3460160644716552 27.56671364749127)"><path d="M-1.07 1.17 C-0.92 10.42, 0.56 45.15, 1.04 54.34 M0.57 0.74 C0.58 10.22, 0.09 46.49, 0.28 55.47" stroke="#1e1e1e" stroke-width="2" fill="none"></path></g><g transform="translate(438.58755678561215 115.74895295011765) rotate(0 0.3460160644716552 27.56671364749127)"><path d="M-8.3 31.99 C-3.88 40.01, -4.46 48.73, 0.28 55.47 M-8.3 31.99 C-5.1 41.57, -0.51 50.23, 0.28 55.47" stroke="#1e1e1e" stroke-width="2" fill="none"></path></g><g transform="translate(438.58755678561215 115.74895295011765) rotate(0 0.3460160644716552 27.56671364749127)"><path d="M8.8 31.96 C7.86 39.85, 1.92 48.57, 0.28 55.47 M8.8 31.96 C5.18 41.43, 2.94 50.1, 0.28 55.47" stroke="#1e1e1e" stroke-width="2" fill="none"></path></g></g><mask></mask><g stroke-linecap="round" transform="translate(632.1667404174805 172.0832061767578) rotate(0 23.666656494140625 24.5)"><path d="M28.98 0.5 C33.65 1.38, 39.85 6.19, 42.86 10.42 C45.86 14.66, 47.28 20.83, 47 25.93 C46.72 31.02, 44.69 37.22, 41.17 40.99 C37.65 44.75, 31.08 47.86, 25.89 48.52 C20.7 49.18, 14.13 47.79, 10.02 44.94 C5.91 42.09, 2.64 36.54, 1.23 31.41 C-0.18 26.28, -0.4 19.03, 1.56 14.15 C3.51 9.27, 8.18 4.37, 12.96 2.16 C17.73 -0.06, 27.27 0.91, 30.19 0.85 C33.12 0.79, 30.67 1.47, 30.49 1.8 M24.46 0.21 C29.24 -0.09, 34.94 1.86, 38.71 5.37 C42.49 8.89, 46.27 16.15, 47.12 21.32 C47.98 26.5, 46.56 32.07, 43.86 36.43 C41.17 40.79, 35.67 45.74, 30.96 47.49 C26.26 49.23, 20.25 48.74, 15.63 46.88 C11.02 45.01, 5.72 40.9, 3.27 36.3 C0.81 31.69, -0.02 24.38, 0.9 19.26 C1.83 14.14, 4.97 8.74, 8.8 5.59 C12.64 2.45, 21.41 1.2, 23.92 0.39 C26.43 -0.42, 23.88 0.38, 23.88 0.74" stroke="#1e1e1e" stroke-width="2" fill="none"></path></g><g transform="translate(650.4385475838867 184.25909003768743) rotate(0 5.159996032714844 12.5)"><text x="5.159996032714844" y="0" font-family="Virgil, Segoe UI Emoji" font-size="20px" fill="#1e1e1e" text-anchor="middle" style="white-space: pre;" direction="ltr" dominant-baseline="text-before-edge">*</text></g><g stroke-linecap="round" transform="translate(589.833366394043 278.9166717529297) rotate(0 18.666656494140625 19.666656494140625)"><path d="M9.33 0 C15.37 -0.97, 24.43 1.2, 28 0 M9.33 0 C12.96 -0.73, 17.8 -1.01, 28 0 M28 0 C34.63 1.19, 37.76 1.23, 37.33 9.33 M28 0 C32.24 -1.33, 35.74 4.26, 37.33 9.33 M37.33 9.33 C36.46 13.69, 37.52 20.91, 37.33 30 M37.33 9.33 C36.76 14.16, 37.53 21.57, 37.33 30 M37.33 30 C37.13 34.32, 33.2 38.83, 28 39.33 M37.33 30 C38.79 34.74, 35.19 39.16, 28 39.33 M28 39.33 C21.62 38.87, 15.46 38.78, 9.33 39.33 M28 39.33 C22.03 39.35, 14.86 39.04, 9.33 39.33 M9.33 39.33 C4.72 38.88, 1.07 36.24, 0 30 M9.33 39.33 C2.54 39.81, 2.05 37.51, 0 30 M0 30 C0 22.51, 1.29 17.74, 0 9.33 M0 30 C-0.18 24.53, 0.57 18.68, 0 9.33 M0 9.33 C0.34 4.27, 4.08 1.77, 9.33 0 M0 9.33 C-2.22 1.29, 1.31 -0.51, 9.33 0" stroke="#1e1e1e" stroke-width="2" fill="none"></path></g><g transform="translate(605.7900238037109 286.0833282470703) rotate(0 2.7099990844726562 12.5)"><text x="2.7099990844726562" y="0" font-family="Virgil, Segoe UI Emoji" font-size="20px" fill="#1e1e1e" text-anchor="middle" style="white-space: pre;" direction="ltr" dominant-baseline="text-before-edge">1</text></g><g stroke-linecap="round" transform="translate(684.4999923706055 276.91661071777344) rotate(0 18.666656494140625 19.666656494140625)"><path d="M9.33 0 C13.08 -1, 20.59 -1.99, 28 0 M9.33 0 C13.99 0.72, 18.47 -0.71, 28 0 M28 0 C32.49 -1.16, 35.95 4.11, 37.33 9.33 M28 0 C34.11 0.4, 38.58 2.06, 37.33 9.33 M37.33 9.33 C36.87 14.67, 37.89 16.8, 37.33 30 M37.33 9.33 C37.25 12.78, 36.85 17.87, 37.33 30 M37.33 30 C38.6 34.93, 35.06 39.18, 28 39.33 M37.33 30 C38.75 34.58, 34.25 39.8, 28 39.33 M28 39.33 C23.48 38.85, 17.98 39.77, 9.33 39.33 M28 39.33 C23.18 39.06, 17.35 39.28, 9.33 39.33 M9.33 39.33 C2.61 39.75, 1.78 37.34, 0 30 M9.33 39.33 C2.77 41.03, -1.51 36.4, 0 30 M0 30 C-0.61 25.86, 0.75 20.63, 0 9.33 M0 30 C0.04 23.85, 0.36 17.43, 0 9.33 M0 9.33 C-1.93 1.53, 1.55 -0.45, 9.33 0 M0 9.33 C-0.8 0.88, 4.36 1.78, 9.33 0" stroke="#1e1e1e" stroke-width="2" fill="none"></path></g><g transform="translate(696.0466537475586 284.08326721191406) rotate(0 7.1199951171875 12.5)"><text x="7.1199951171875" y="0" font-family="Virgil, Segoe UI Emoji" font-size="20px" fill="#1e1e1e" text-anchor="middle" style="white-space: pre;" direction="ltr" dominant-baseline="text-before-edge">2</text></g><g stroke-linecap="round"><g transform="translate(632.4448704700451 221.2164690787422) rotate(0 -9.921607888493895 25.68341432537511)"><path d="M-1.19 -0.73 C-4.54 7.48, -17.58 41.48, -20.65 50.29 M0.39 1.51 C-2.53 10.33, -14.93 43.15, -18.36 51.25" stroke="#1e1e1e" stroke-width="2" fill="none"></path></g><g transform="translate(632.4448704700451 221.2164690787422) rotate(0 -9.921607888493895 25.68341432537511)"><path d="M-17.66 26.26 C-18.83 31.26, -19.6 39.35, -18.36 51.25 M-17.66 26.26 C-18.72 34.66, -18.81 44.73, -18.36 51.25" stroke="#1e1e1e" stroke-width="2" fill="none"></path></g><g transform="translate(632.4448704700451 221.2164690787422) rotate(0 -9.921607888493895 25.68341432537511)"><path d="M-1.76 32.57 C-7.02 35.8, -11.83 42.3, -18.36 51.25 M-1.76 32.57 C-8.55 38.55, -14.35 46.35, -18.36 51.25" stroke="#1e1e1e" stroke-width="2" fill="none"></path></g></g><mask></mask><g stroke-linecap="round"><g transform="translate(675.8748260889097 225.05482947230803) rotate(0 12.275605428663994 22.764234128592193)"><path d="M-0.81 -1.08 C3.52 6.75, 20.53 38.66, 24.8 46.24 M0.97 0.96 C5.27 8.51, 20.11 37.13, 23.98 44.5" stroke="#1e1e1e" stroke-width="2" fill="none"></path></g><g transform="translate(675.8748260889097 225.05482947230803) rotate(0 12.275605428663994 22.764234128592193)"><path d="M5.52 27.63 C7.32 31.55, 14.02 34.96, 23.98 44.5 M5.52 27.63 C8.48 31.71, 12.94 34.87, 23.98 44.5" stroke="#1e1e1e" stroke-width="2" fill="none"></path></g><g transform="translate(675.8748260889097 225.05482947230803) rotate(0 12.275605428663994 22.764234128592193)"><path d="M20.68 19.71 C19.39 25.12, 23.04 30.11, 23.98 44.5 M20.68 19.71 C20.45 25.34, 21.78 30.12, 23.98 44.5" stroke="#1e1e1e" stroke-width="2" fill="none"></path></g></g><mask></mask><g stroke-linecap="round"><g transform="translate(649.1665878295898 114.83334350585938) rotate(0 0.666748046875 24.33331298828125)"><path d="M0.11 0.33 C0.42 8.44, 1.33 40.15, 1.45 48.15 M-0.49 0.02 C-0.22 8.22, 0.68 40.46, 1.08 48.58" stroke="#1e1e1e" stroke-width="2" fill="none"></path></g><g transform="translate(649.1665878295898 114.83334350585938) rotate(0 0.666748046875 24.33331298828125)"><path d="M-8.09 26.04 C-5.46 31.49, -4.86 35.65, 1.08 48.58 M-8.09 26.04 C-5.97 31.56, -3.46 36.7, 1.08 48.58" stroke="#1e1e1e" stroke-width="2" fill="none"></path></g><g transform="translate(649.1665878295898 114.83334350585938) rotate(0 0.666748046875 24.33331298828125)"><path d="M8.55 25.42 C7.3 31.03, 4.03 35.34, 1.08 48.58 M8.55 25.42 C6.64 31.13, 5.12 36.43, 1.08 48.58" stroke="#1e1e1e" stroke-width="2" fill="none"></path></g></g><mask></mask></svg>