<svg version="1.1" xmlns="http://www.w3.org/2000/svg" viewBox="0 0 1038.7497024536128 1221.8420710004266" width="1038.7497024536128" height="1221.8420710004266">
  <!-- svg-source:excalidraw -->
  
  <defs>
    <style class="style-fonts">
      @font-face {
        font-family: "Virgil";
        src: url("https://excalidraw.com/Virgil.woff2");
      }
      @font-face {
        font-family: "Cascadia";
        src: url("https://excalidraw.com/Cascadia.woff2");
      }
      @font-face {
        font-family: "Assistant";
        src: url("https://excalidraw.com/Assistant-Regular.woff2");
      }
    </style>
    
  </defs>
  <rect x="0" y="0" width="1038.7497024536128" height="1221.8420710004266" fill="#ffffff"></rect><g transform="translate(10 28.508880082457836) rotate(0 188.349853515625 12.5)"><text x="0" y="17.52" font-family="Virgil, Segoe UI Emoji" font-size="20px" fill="#1e1e1e" text-anchor="start" style="white-space: pre;" direction="ltr" dominant-baseline="alphabetic">int main() { return ({ int x=3; x; }); }</text></g><g stroke-linecap="round" transform="translate(458.9444198608394 217.77760823567587) rotate(0 72.08332061767578 40)"><path d="M2.85 7.77 C2.85 7.77, 2.85 7.77, 2.85 7.77 M2.85 7.77 C2.85 7.77, 2.85 7.77, 2.85 7.77 M1.01 22.08 C5.88 14.96, 11.88 8.64, 20.04 0.19 M1.01 22.08 C6.91 15.83, 12.34 8.46, 20.04 0.19 M1.14 34.12 C12.01 22.92, 21.51 11.88, 30.67 0.16 M1.14 34.12 C8.38 25.36, 17.94 14.36, 30.67 0.16 M1.28 46.16 C17.55 27.81, 28.86 10.84, 41.3 0.12 M1.28 46.16 C12.17 32.93, 24.85 19.57, 41.3 0.12 M0.75 58.96 C15.25 42.86, 31.27 21.81, 51.93 0.09 M0.75 58.96 C18.25 38.32, 36.83 16.88, 51.93 0.09 M2.2 69.49 C17.72 52.92, 33.34 34.18, 62.56 0.05 M2.2 69.49 C23.33 46.06, 44.59 19.89, 62.56 0.05 M6.93 76.25 C25.18 52.87, 45.34 30.99, 73.19 0.02 M6.93 76.25 C32.4 47.73, 58.08 17.56, 73.19 0.02 M14.93 79.23 C42.74 49.9, 68.98 19.89, 83.82 -0.01 M14.93 79.23 C38.62 52.49, 63.28 25.21, 83.82 -0.01 M24.25 80.7 C47.71 53.07, 75.16 24.95, 94.45 -0.05 M24.25 80.7 C45.67 56.27, 66.18 32.89, 94.45 -0.05 M34.88 80.67 C49.72 58.98, 67.84 41.16, 105.08 -0.08 M34.88 80.67 C62.07 48.51, 89.96 17.72, 105.08 -0.08 M45.51 80.64 C59.84 63.14, 79.03 44.2, 115.71 -0.12 M45.51 80.64 C63.47 58.71, 82.56 37.87, 115.71 -0.12 M56.14 80.6 C81.1 54.08, 103.71 27.09, 125.68 0.6 M56.14 80.6 C80.45 54.89, 102.76 28.55, 125.68 0.6 M66.77 80.57 C81.67 60.99, 99.99 43.39, 134.34 2.83 M66.77 80.57 C83.95 62.99, 99.12 45.18, 134.34 2.83 M77.4 80.53 C92.94 64.66, 105.02 50.43, 141.04 7.33 M77.4 80.53 C96.94 57.44, 115.78 35.52, 141.04 7.33 M88.03 80.5 C101.82 66.5, 111.12 51.61, 144.45 15.59 M88.03 80.5 C108.78 56.31, 130.29 30.35, 144.45 15.59 M98.66 80.46 C111.45 66.86, 122.08 51.47, 144.58 27.63 M98.66 80.46 C114.64 63.73, 129.09 45.51, 144.58 27.63 M109.29 80.43 C117.56 73.15, 122.55 64.49, 144.72 39.67 M109.29 80.43 C118 68.71, 127.86 59.75, 144.72 39.67 M119.92 80.39 C130.55 69.49, 139.88 56.8, 144.85 51.72 M119.92 80.39 C130.49 69.45, 139.09 57.39, 144.85 51.72 M132.52 78.1 C136.21 74, 138.77 69.47, 143.01 66.02 M132.52 78.1 C135.92 75.01, 137.88 71.58, 143.01 66.02" stroke="#ffec99" stroke-width="1" fill="none"></path><path d="M20 0 C48.76 1.39, 76.67 -0.46, 124.17 0 M20 0 C49.84 0.33, 81.03 -0.31, 124.17 0 M124.17 0 C138.54 0.41, 142.21 5.34, 144.17 20 M124.17 0 C135.33 1.63, 143.48 8.21, 144.17 20 M144.17 20 C145.77 31.68, 144.04 44.54, 144.17 60 M144.17 20 C144.15 31.59, 143.3 41.9, 144.17 60 M144.17 60 C143.93 75.16, 137.52 81.84, 124.17 80 M144.17 60 C145.39 74.45, 136.91 81.94, 124.17 80 M124.17 80 C102.74 79.12, 81.24 78.66, 20 80 M124.17 80 C90.13 79.17, 56.42 79.03, 20 80 M20 80 C5.22 81.36, -0.81 71.68, 0 60 M20 80 C8.18 77.92, 0.94 71.32, 0 60 M0 60 C0.41 51.54, -0.61 40.42, 0 20 M0 60 C-0.2 45.92, 1 33.5, 0 20 M0 20 C1.73 6.85, 7.37 -0.74, 20 0 M0 20 C-1.76 4.81, 5.61 -1.23, 20 0" stroke="#1e1e1e" stroke-width="2" fill="none"></path></g><g transform="translate(495.5657577514644 240.27760823567587) rotate(0 35.46198272705078 17.5)"><text x="35.46198272705078" y="24.528" font-family="Virgil, Segoe UI Emoji" font-size="28px" fill="#1e1e1e" text-anchor="middle" style="white-space: pre;" direction="ltr" dominant-baseline="alphabetic">Block</text></g><g stroke-linecap="round" transform="translate(457.8332239786779 10) rotate(0 72.08332061767578 40)"><path d="M2.85 7.77 C2.85 7.77, 2.85 7.77, 2.85 7.77 M2.85 7.77 C2.85 7.77, 2.85 7.77, 2.85 7.77 M1.01 22.08 C7.63 15.68, 12.23 7.91, 20.04 0.19 M1.01 22.08 C8.71 14.04, 14.81 6.06, 20.04 0.19 M1.14 34.12 C9.02 23.79, 19.79 12.57, 30.67 0.16 M1.14 34.12 C12.72 21.2, 23.72 9.56, 30.67 0.16 M1.28 46.16 C10.2 36.36, 18.63 24.94, 41.3 0.12 M1.28 46.16 C12.72 33.53, 25.14 19.17, 41.3 0.12 M0.75 58.96 C22.28 35.4, 41.32 10.47, 51.93 0.09 M0.75 58.96 C17.75 39.53, 35.46 19.83, 51.93 0.09 M2.2 69.49 C24.54 45.82, 44.86 20.53, 62.56 0.05 M2.2 69.49 C25.5 42.15, 48.53 14.92, 62.56 0.05 M6.93 76.25 C21.94 60.49, 34.92 46.07, 73.19 0.02 M6.93 76.25 C32.22 47.54, 57.24 19.94, 73.19 0.02 M14.93 79.23 C40.27 48.32, 65.8 20.01, 83.82 -0.01 M14.93 79.23 C41.13 48.8, 66.13 17.93, 83.82 -0.01 M24.25 80.7 C47.72 50.77, 72.08 25.34, 94.45 -0.05 M24.25 80.7 C39.89 63.27, 57.01 42.76, 94.45 -0.05 M34.88 80.67 C53.75 62.59, 69.02 42.88, 105.08 -0.08 M34.88 80.67 C51.4 59.25, 69.76 38.35, 105.08 -0.08 M45.51 80.64 C65.38 54.59, 89.2 30.06, 115.71 -0.12 M45.51 80.64 C61.39 61.96, 78.07 45.33, 115.71 -0.12 M56.14 80.6 C77.59 54.27, 96.99 32.53, 125.68 0.6 M56.14 80.6 C78.43 53.48, 101.33 27.08, 125.68 0.6 M66.77 80.57 C81.21 60.36, 97.59 45.67, 134.34 2.83 M66.77 80.57 C85.68 56.49, 105.97 34.8, 134.34 2.83 M77.4 80.53 C94.65 60.6, 112.04 41.68, 141.04 7.33 M77.4 80.53 C89.41 66.79, 103.52 52.33, 141.04 7.33 M88.03 80.5 C107.61 60.71, 125.31 39.05, 144.45 15.59 M88.03 80.5 C109.29 56.48, 131.51 31.9, 144.45 15.59 M98.66 80.46 C115.86 63.4, 129.83 45.02, 144.58 27.63 M98.66 80.46 C116.11 60.22, 135.96 39.08, 144.58 27.63 M109.29 80.43 C121.91 66.75, 135.29 49.28, 144.72 39.67 M109.29 80.43 C117.63 70.96, 124.45 63.39, 144.72 39.67 M119.92 80.39 C129.96 70.29, 135.29 62.99, 144.85 51.72 M119.92 80.39 C128.09 70.78, 136.85 62.5, 144.85 51.72 M132.52 78.1 C134.96 73.74, 139.9 72.43, 143.01 66.02 M132.52 78.1 C135.51 73.94, 140.23 70.63, 143.01 66.02" stroke="#d0bfff" stroke-width="1" fill="none"></path><path d="M20 0 C53.26 2.34, 88.08 -0.21, 124.17 0 M20 0 C61.64 -0.12, 101.26 -0.99, 124.17 0 M124.17 0 C135.61 1.42, 143.57 8.01, 144.17 20 M124.17 0 C137.34 -0.08, 145.35 8.53, 144.17 20 M144.17 20 C143.55 32.07, 142.3 43.76, 144.17 60 M144.17 20 C143.69 36.02, 143.82 51.12, 144.17 60 M144.17 60 C145.23 74.3, 136.99 81.69, 124.17 80 M144.17 60 C142.16 71.75, 135.88 80.84, 124.17 80 M124.17 80 C94.21 80.12, 61.98 79.67, 20 80 M124.17 80 C94.29 80.32, 65.46 78.81, 20 80 M20 80 C7.98 78.19, 0.81 71.58, 0 60 M20 80 C5.03 79.33, 0.42 73.67, 0 60 M0 60 C0.85 44.7, 1.11 32.06, 0 20 M0 60 C0.62 50.82, 0.1 41.09, 0 20 M0 20 C-1.53 5.05, 5.75 -1.07, 20 0 M0 20 C-2.06 8.05, 5.57 -1.65, 20 0" stroke="#1e1e1e" stroke-width="2" fill="none"></path></g><g transform="translate(475.0925776163732 32.5) rotate(0 54.82396697998047 17.5)"><text x="54.82396697998047" y="24.528" font-family="Virgil, Segoe UI Emoji" font-size="28px" fill="#1e1e1e" text-anchor="middle" style="white-space: pre;" direction="ltr" dominant-baseline="alphabetic">Function</text></g><g mask="url(#mask-K7xSYFMivuYi4OI7Nqggj)" stroke-linecap="round"><g transform="translate(528.8967165624603 103.33333333333212) rotate(0 0.7096300360886119 51.111043294270075)"><path d="M-0.58 1.14 C-0.42 18.12, 1.46 85.71, 1.9 102.6 M1.32 0.69 C1.28 17.23, 1.16 83.47, 1.2 100.68" stroke="#1e1e1e" stroke-width="2" fill="none"></path></g><g transform="translate(528.8967165624603 103.33333333333212) rotate(0 0.7096300360886119 51.111043294270075)"><path d="M-7.35 77.18 C-2.07 86.95, -0.08 96.11, 1.2 100.68 M-7.35 77.18 C-5.79 85.48, -2.4 92.96, 1.2 100.68" stroke="#1e1e1e" stroke-width="2" fill="none"></path></g><g transform="translate(528.8967165624603 103.33333333333212) rotate(0 0.7096300360886119 51.111043294270075)"><path d="M9.75 77.18 C8.54 86.87, 4.03 96.03, 1.2 100.68 M9.75 77.18 C5.84 85.36, 3.75 92.85, 1.2 100.68" stroke="#1e1e1e" stroke-width="2" fill="none"></path></g></g><mask id="mask-K7xSYFMivuYi4OI7Nqggj"><rect x="0" y="0" fill="#fff" width="630.3159766346375" height="305.55541992187227"></rect><rect x="500.206360331459" y="136.94437662760174" fill="#000" width="58.79997253417969" height="35" opacity="1"></rect></mask><g transform="translate(500.206360331459 136.94437662760174) rotate(0 29.351973118633055 18.03294283565674)"><text x="29.399986267089844" y="24.528" font-family="Virgil, Segoe UI Emoji" font-size="28px" fill="#1e1e1e" text-anchor="middle" style="white-space: pre;" direction="ltr" dominant-baseline="alphabetic">body</text></g><g stroke-linecap="round" transform="translate(460.3331222534176 410.7954497808023) rotate(0 72.08332061767578 40)"><path d="M2.85 7.77 C2.85 7.77, 2.85 7.77, 2.85 7.77 M2.85 7.77 C2.85 7.77, 2.85 7.77, 2.85 7.77 M1.01 22.08 C2.93 18.63, 8.04 13.77, 20.04 0.19 M1.01 22.08 C7.52 13.67, 15.81 5.05, 20.04 0.19 M1.14 34.12 C7.77 26.01, 16.47 19.55, 30.67 0.16 M1.14 34.12 C8.3 25.25, 16.97 15.14, 30.67 0.16 M1.28 46.16 C9.34 35.88, 18.22 27.5, 41.3 0.12 M1.28 46.16 C13.72 31.93, 26.98 16.7, 41.3 0.12 M0.75 58.96 C15.44 39.09, 32.77 18.39, 51.93 0.09 M0.75 58.96 C12.47 45.87, 25.03 31.75, 51.93 0.09 M2.2 69.49 C18.64 50.03, 36.93 29.5, 62.56 0.05 M2.2 69.49 C24.79 43.67, 45.75 18.12, 62.56 0.05 M6.93 76.25 C24.19 57.84, 39.68 36.44, 73.19 0.02 M6.93 76.25 C22.02 59.08, 34.95 42.46, 73.19 0.02 M14.93 79.23 C36.13 53.44, 60.3 30.54, 83.82 -0.01 M14.93 79.23 C30.04 64.37, 44.27 47.52, 83.82 -0.01 M24.25 80.7 C48.49 51.81, 70.01 25.89, 94.45 -0.05 M24.25 80.7 C38.9 62.15, 53.71 45.85, 94.45 -0.05 M34.88 80.67 C50.03 62.13, 66.23 44.81, 105.08 -0.08 M34.88 80.67 C61.1 49.72, 87.23 17.99, 105.08 -0.08 M45.51 80.64 C70.83 51.12, 93.39 22.99, 115.71 -0.12 M45.51 80.64 C60.66 62.83, 74.6 46.04, 115.71 -0.12 M56.14 80.6 C83.29 47.49, 108.46 16.72, 125.68 0.6 M56.14 80.6 C82.08 51.65, 106.93 22.72, 125.68 0.6 M66.77 80.57 C88.82 52.36, 114.69 28.26, 134.34 2.83 M66.77 80.57 C93.15 50.89, 120.4 20.1, 134.34 2.83 M77.4 80.53 C91.83 61.37, 109.85 44.31, 141.04 7.33 M77.4 80.53 C97.51 57.78, 118.74 33.16, 141.04 7.33 M88.03 80.5 C109.8 54.76, 131.26 34.04, 144.45 15.59 M88.03 80.5 C108.91 56.55, 129.9 32.8, 144.45 15.59 M98.66 80.46 C113.02 68.72, 121.66 53.94, 144.58 27.63 M98.66 80.46 C113.22 64.03, 128.3 45.24, 144.58 27.63 M109.29 80.43 C120.98 65.81, 133.95 52.49, 144.72 39.67 M109.29 80.43 C120.15 66.94, 131.7 54.96, 144.72 39.67 M119.92 80.39 C128.99 68.75, 137.62 61.44, 144.85 51.72 M119.92 80.39 C128.04 70, 138.47 58.84, 144.85 51.72 M132.52 78.1 C134.77 73.93, 138.28 71.44, 143.01 66.02 M132.52 78.1 C135.48 75.38, 138.75 71.3, 143.01 66.02" stroke="#ffc9c9" stroke-width="1" fill="none"></path><path d="M20 0 C56.48 1.13, 92.59 0.17, 124.17 0 M20 0 C40.76 -0.53, 63.18 0.11, 124.17 0 M124.17 0 C137.52 1.84, 145.23 7.64, 144.17 20 M124.17 0 C136.91 1.94, 142.16 5.08, 144.17 20 M144.17 20 C145.7 28.58, 144.85 38.81, 144.17 60 M144.17 20 C144.49 29.24, 143.44 39.85, 144.17 60 M144.17 60 C143.35 71.68, 138.81 78.19, 124.17 80 M144.17 60 C145.1 71.32, 135.86 79.33, 124.17 80 M124.17 80 C90.31 79.08, 58.6 78.45, 20 80 M124.17 80 C88.53 79.59, 52.51 79.38, 20 80 M20 80 C7.37 79.26, -1.53 71.72, 0 60 M20 80 C5.61 78.77, -2.06 74.72, 0 60 M0 60 C-0.16 49.24, -1.69 41.36, 0 20 M0 60 C1.11 50.03, 0.3 39.24, 0 20 M0 20 C-1.94 7.55, 5.02 0.22, 20 0 M0 20 C-2.25 8, 7.23 0.6, 20 0" stroke="#1e1e1e" stroke-width="2" fill="none"></path></g><g transform="translate(486.8464660644528 433.2954497808023) rotate(0 45.569976806640625 17.5)"><text x="45.569976806640625" y="24.528" font-family="Virgil, Segoe UI Emoji" font-size="28px" fill="#1e1e1e" text-anchor="middle" style="white-space: pre;" direction="ltr" dominant-baseline="alphabetic">Return</text></g><g stroke-linecap="round" transform="translate(298.88870493570914 587.6842640711657) rotate(0 72.08332061767578 40)"><path d="M2.85 7.77 C2.85 7.77, 2.85 7.77, 2.85 7.77 M2.85 7.77 C2.85 7.77, 2.85 7.77, 2.85 7.77 M4.29 18.31 C11.72 10.12, 14.29 3.2, 20.04 0.19 M4.29 18.31 C8.18 13.05, 13.86 7.74, 20.04 0.19 M3.77 31.1 C11.17 23.58, 19.89 10.92, 30.67 0.16 M3.77 31.1 C12.53 20.42, 22.43 8.95, 30.67 0.16 M3.9 43.14 C13.65 33.31, 23.44 21.27, 41.3 0.12 M3.9 43.14 C17.11 28.97, 30.3 12.1, 41.3 0.12 M4.03 55.18 C16.88 37.74, 31.76 21.94, 51.93 0.09 M4.03 55.18 C22.44 34.78, 41.16 12.62, 51.93 0.09 M3.51 67.98 C27.55 43.02, 50.06 17.3, 62.56 0.05 M3.51 67.98 C23.75 45.17, 45.04 21.76, 62.56 0.05 M6.93 76.25 C28.98 50.2, 55.03 23.7, 73.19 0.02 M6.93 76.25 C27.16 53.14, 46.51 31.09, 73.19 0.02 M12.96 81.49 C27.96 59.61, 46.25 41.61, 83.82 -0.01 M12.96 81.49 C40.41 49.03, 68.55 17.96, 83.82 -0.01 M22.94 82.21 C37.57 64.39, 57.05 45.12, 94.45 -0.05 M22.94 82.21 C41.25 59.89, 60.67 38.66, 94.45 -0.05 M33.57 82.18 C59.19 54.9, 82.44 27.17, 105.08 -0.08 M33.57 82.18 C58.55 55.73, 81.51 28.64, 105.08 -0.08 M44.2 82.15 C60.08 61.5, 79.34 42.82, 115.71 -0.12 M44.2 82.15 C62.33 63.55, 78.41 44.7, 115.71 -0.12 M54.83 82.11 C71.84 64.66, 85.33 48.82, 125.03 1.36 M54.83 82.11 C76.34 56.74, 97.15 32.55, 125.03 1.36 M65.46 82.08 C81.86 64.93, 93.87 46.93, 134.34 2.83 M65.46 82.08 C90.89 52.37, 117.11 20.99, 134.34 2.83 M76.09 82.04 C93.99 62.4, 109.78 41.08, 141.04 7.33 M76.09 82.04 C98.4 57.98, 119.31 32.31, 141.04 7.33 M86.06 82.76 C98.82 69.86, 108.54 55.75, 144.45 15.59 M86.06 82.76 C100.69 64.04, 116.67 48.04, 144.45 15.59 M96.69 82.73 C116.59 61.26, 135.02 38.1, 144.58 27.63 M96.69 82.73 C116.38 61.52, 133.99 39.09, 144.58 27.63 M107.32 82.69 C119.56 68.78, 130.22 54.54, 144.72 39.67 M107.32 82.69 C118.22 71.18, 127.12 59.46, 144.72 39.67 M117.95 82.66 C125.57 75.68, 132.42 66.29, 144.85 51.72 M117.95 82.66 C125.82 73.4, 134.82 63.53, 144.85 51.72 M127.93 83.38 C132.19 79.18, 135.84 72.71, 146.3 62.25 M127.93 83.38 C134.11 75.93, 139.98 69.17, 146.3 62.25" stroke="#b2f2bb" stroke-width="1" fill="none"></path><path d="M20 0 C55.16 -0.17, 95.56 -1.86, 124.17 0 M20 0 C54.16 -0.04, 88.83 -0.47, 124.17 0 M124.17 0 C136.99 1.69, 142.42 5.29, 144.17 20 M124.17 0 C135.88 0.84, 144 8.26, 144.17 20 M144.17 20 C143.07 30.77, 143.87 42.21, 144.17 60 M144.17 20 C143.47 29.79, 144.53 40.34, 144.17 60 M144.17 60 C144.98 71.58, 136.08 79.41, 124.17 80 M144.17 60 C144.58 73.67, 138.3 79.17, 124.17 80 M124.17 80 C100.56 77.84, 73.65 80.25, 20 80 M124.17 80 C90.13 79.73, 54.63 79.29, 20 80 M20 80 C5.75 78.93, -1.79 74.54, 0 60 M20 80 C5.57 78.35, 0.16 72.82, 0 60 M0 60 C-0.34 48.07, -1.47 40.42, 0 20 M0 60 C-0.99 46.16, -0.84 31.55, 0 20 M0 20 C-1.96 7.82, 7.15 0.52, 20 0 M0 20 C-0.96 6.16, 8.45 -2.2, 20 0" stroke="#1e1e1e" stroke-width="2" fill="none"></path></g><g transform="translate(329.2240397135412 592.6842640711657) rotate(0 41.74798583984375 35)"><text x="41.74798583984375" y="24.528" font-family="Virgil, Segoe UI Emoji" font-size="28px" fill="#1e1e1e" text-anchor="middle" style="white-space: pre;" direction="ltr" dominant-baseline="alphabetic">STMT</text><text x="41.74798583984375" y="59.528" font-family="Virgil, Segoe UI Emoji" font-size="28px" fill="#1e1e1e" text-anchor="middle" style="white-space: pre;" direction="ltr" dominant-baseline="alphabetic">EXPR</text></g><g mask="url(#mask-2bKrWp379LA3CREDH1b8g)" stroke-linecap="round"><g transform="translate(490.0189160057188 502.1524453165148) rotate(0 -34.25430789897875 35.52775955200195)"><path d="M-1.07 0.33 C-12.5 12.2, -57.41 60.18, -68.65 72.15 M0.57 -0.54 C-11.03 10.94, -58.03 58.79, -69.67 70.61" stroke="#1e1e1e" stroke-width="2" fill="none"></path></g><g transform="translate(490.0189160057188 502.1524453165148) rotate(0 -34.25430789897875 35.52775955200195)"><path d="M-59.29 47.87 C-61.63 54.26, -63.42 61.23, -69.67 70.61 M-59.29 47.87 C-63.5 57.67, -68.18 65.05, -69.67 70.61" stroke="#1e1e1e" stroke-width="2" fill="none"></path></g><g transform="translate(490.0189160057188 502.1524453165148) rotate(0 -34.25430789897875 35.52775955200195)"><path d="M-47.1 59.86 C-53.13 62.6, -58.52 66.03, -69.67 70.61 M-47.1 59.86 C-56.14 65.02, -65.6 67.71, -69.67 70.61" stroke="#1e1e1e" stroke-width="2" fill="none"></path></g></g><mask id="mask-2bKrWp379LA3CREDH1b8g"><rect x="0" y="0" fill="#fff" width="658.5275318036763" height="673.2079644205187"></rect><rect x="437.5646187878923" y="520.1802048685167" fill="#000" width="36.39997863769531" height="35" opacity="1"></rect></mask><g transform="translate(437.56461878789247 520.1802048685167) rotate(0 17.902567646717657 17.781304820147398)"><text x="18.199989318847656" y="24.528" font-family="Virgil, Segoe UI Emoji" font-size="28px" fill="#1e1e1e" text-anchor="middle" style="white-space: pre;" direction="ltr" dominant-baseline="alphabetic">lhs</text></g><g mask="url(#mask-4AzInJGN2-rCmnkanL8T3)" stroke-linecap="round"><g transform="translate(532.1977197133123 304.9693032510568) rotate(0 0.20785527692089545 48.33335876464844)"><path d="M-0.09 0.83 C0.06 16.92, -0.08 81.14, 0.05 96.99 M-1.59 0.22 C-1.56 15.9, -1.36 78.92, -1.09 95.03" stroke="#1e1e1e" stroke-width="2" fill="none"></path></g><g transform="translate(532.1977197133123 304.9693032510568) rotate(0 0.20785527692089545 48.33335876464844)"><path d="M-9.85 71.62 C-6.37 76.39, -5.21 82.82, -1.09 95.03 M-9.85 71.62 C-7.43 76.9, -6.38 83.54, -1.09 95.03" stroke="#1e1e1e" stroke-width="2" fill="none"></path></g><g transform="translate(532.1977197133123 304.9693032510568) rotate(0 0.20785527692089545 48.33335876464844)"><path d="M7.25 71.46 C6.81 76.26, 4.04 82.72, -1.09 95.03 M7.25 71.46 C5.57 76.75, 2.52 83.42, -1.09 95.03" stroke="#1e1e1e" stroke-width="2" fill="none"></path></g></g><mask id="mask-4AzInJGN2-rCmnkanL8T3"><rect x="0" y="0" fill="#fff" width="632.6134302671541" height="501.63602078035365"></rect><rect x="503.0055887231433" y="335.8026620157052" fill="#000" width="58.79997253417969" height="35" opacity="1"></rect></mask><g transform="translate(503.0055887231433 335.8026620157052) rotate(0 28.420915863770063 17.772561350730484)"><text x="29.399986267089844" y="24.528" font-family="Virgil, Segoe UI Emoji" font-size="28px" fill="#1e1e1e" text-anchor="middle" style="white-space: pre;" direction="ltr" dominant-baseline="alphabetic">body</text></g><g stroke-linecap="round" transform="translate(298.58330535888626 776.7201308055683) rotate(0 72.08332061767578 40)"><path d="M2.85 7.77 C2.85 7.77, 2.85 7.77, 2.85 7.77 M2.85 7.77 C2.85 7.77, 2.85 7.77, 2.85 7.77 M4.29 18.31 C8.61 11.93, 14.24 7.13, 20.04 0.19 M4.29 18.31 C9.18 12.57, 12.59 8.69, 20.04 0.19 M3.77 31.1 C9.35 24.26, 17.37 14.44, 30.67 0.16 M3.77 31.1 C11.67 21.73, 18.1 13.72, 30.67 0.16 M3.9 43.14 C16.12 30.25, 26.86 14.07, 41.3 0.12 M3.9 43.14 C17.27 26.76, 30.63 12.21, 41.3 0.12 M4.03 55.18 C16.91 36.69, 34.76 19.52, 51.93 0.09 M4.03 55.18 C20.67 36.38, 38.05 16.95, 51.93 0.09 M3.51 67.98 C20.63 50.24, 37.94 29.42, 62.56 0.05 M3.51 67.98 C22.1 46.07, 40.26 23.02, 62.56 0.05 M6.93 76.25 C22.77 58.05, 41.08 35.75, 73.19 0.02 M6.93 76.25 C27.15 51.78, 47.59 27.99, 73.19 0.02 M12.96 81.49 C25.82 63.77, 43.79 45.45, 83.82 -0.01 M12.96 81.49 C33.97 59.66, 53.96 36.06, 83.82 -0.01 M22.94 82.21 C49.31 48.86, 76.36 16.64, 94.45 -0.05 M22.94 82.21 C40.4 62, 55.76 43.37, 94.45 -0.05 M33.57 82.18 C54.23 58.86, 71.85 40.18, 105.08 -0.08 M33.57 82.18 C60.51 49.68, 89.59 17.26, 105.08 -0.08 M44.2 82.15 C69.37 53.28, 91.93 27.47, 115.71 -0.12 M44.2 82.15 C68.03 56.29, 89.96 29.67, 115.71 -0.12 M54.83 82.11 C72.45 62.67, 92.54 38.73, 125.03 1.36 M54.83 82.11 C72.36 61.81, 89.9 41.76, 125.03 1.36 M65.46 82.08 C92.7 49.21, 118.52 18.71, 134.34 2.83 M65.46 82.08 C86.59 59.24, 106.73 35.8, 134.34 2.83 M76.09 82.04 C99.28 55.04, 124.24 28.45, 141.04 7.33 M76.09 82.04 C96.26 60.23, 115.39 37.06, 141.04 7.33 M86.06 82.76 C96.66 70.13, 109.64 55.66, 144.45 15.59 M86.06 82.76 C100.8 65.7, 116.51 47.81, 144.45 15.59 M96.69 82.73 C104.35 71.02, 117.07 59.96, 144.58 27.63 M96.69 82.73 C108.2 70.15, 119.07 56.48, 144.58 27.63 M107.32 82.69 C118.16 69.68, 129.08 57.15, 144.72 39.67 M107.32 82.69 C118.07 71.62, 127.46 58.37, 144.72 39.67 M117.95 82.66 C129 70.5, 138.31 62.99, 144.85 51.72 M117.95 82.66 C128.71 70.05, 139.69 57.43, 144.85 51.72 M127.93 83.38 C132.91 76.2, 139.55 71.46, 146.3 62.25 M127.93 83.38 C134.01 76.76, 140.31 69.76, 146.3 62.25" stroke="#7950f2" stroke-width="1" fill="none"></path><path d="M20 0 C56.02 -0.88, 94.47 -1.61, 124.17 0 M20 0 C51.58 1.41, 81.51 -0.01, 124.17 0 M124.17 0 C138.68 -1.82, 143.98 6.61, 144.17 20 M124.17 0 C137.34 0.62, 144.61 5.72, 144.17 20 M144.17 20 C145.8 32.58, 145.37 48.07, 144.17 60 M144.17 20 C143.97 28.35, 143 36.89, 144.17 60 M144.17 60 C143.45 74.18, 136.66 80.52, 124.17 80 M144.17 60 C144.97 73.45, 138.24 82.29, 124.17 80 M124.17 80 C96.8 79.7, 65 80.42, 20 80 M124.17 80 C93.19 78.89, 63.3 79.94, 20 80 M20 80 C5.5 80.92, -1.79 75.09, 0 60 M20 80 C5.81 78.63, 1.66 71.61, 0 60 M0 60 C0.01 47.35, 2.18 37.63, 0 20 M0 60 C-0.92 48.01, 0.57 36.56, 0 20 M0 20 C-1.14 6.46, 5.44 0.62, 20 0 M0 20 C0.49 5.29, 5.74 1.95, 20 0" stroke="#1e1e1e" stroke-width="2" fill="none"></path></g><g transform="translate(335.20464324951126 799.2201308055683) rotate(0 35.46198272705078 17.5)"><text x="35.46198272705078" y="24.528" font-family="Virgil, Segoe UI Emoji" font-size="28px" fill="#1e1e1e" text-anchor="middle" style="white-space: pre;" direction="ltr" dominant-baseline="alphabetic">Block</text></g><g mask="url(#mask-7hVoCqwCGtxE0VqvZbFiX)" stroke-linecap="round"><g transform="translate(371.7134908569218 676.9426039501004) rotate(0 1.784638797715587 49.38876342773392)"><path d="M-0.36 -0.03 C0.31 16.37, 3.3 81.15, 4.08 97.72 M1.65 -1.1 C2.2 15.49, 3.01 82.29, 3.39 98.7" stroke="#1e1e1e" stroke-width="2" fill="none"></path></g><g transform="translate(371.7134908569218 676.9426039501004) rotate(0 1.784638797715587 49.38876342773392)"><path d="M-5.56 75.35 C-3.02 83.37, -1.99 90.91, 3.39 98.7 M-5.56 75.35 C-1.95 82.66, 0.49 91.68, 3.39 98.7" stroke="#1e1e1e" stroke-width="2" fill="none"></path></g><g transform="translate(371.7134908569218 676.9426039501004) rotate(0 1.784638797715587 49.38876342773392)"><path d="M11.54 75.06 C8.84 83.11, 4.64 90.75, 3.39 98.7 M11.54 75.06 C9.19 82.31, 5.67 91.44, 3.39 98.7" stroke="#1e1e1e" stroke-width="2" fill="none"></path></g></g><mask id="mask-7hVoCqwCGtxE0VqvZbFiX"><rect x="0" y="0" fill="#fff" width="475.28276845235297" height="875.7201308055683"></rect><rect x="344.09814338754757" y="708.8313673778339" fill="#000" width="58.79997253417969" height="35" opacity="1"></rect></mask><g transform="translate(344.09814338754757 708.8313673778339) rotate(0 29.471968457847836 16.910714023309538)"><text x="29.399986267089844" y="24.528" font-family="Virgil, Segoe UI Emoji" font-size="28px" fill="#1e1e1e" text-anchor="middle" style="white-space: pre;" direction="ltr" dominant-baseline="alphabetic">body</text></g><g stroke-linecap="round" transform="translate(579.2500534057613 783.8420710004266) rotate(0 72.08332061767578 40)"><path d="M2.85 7.77 C2.85 7.77, 2.85 7.77, 2.85 7.77 M2.85 7.77 C2.85 7.77, 2.85 7.77, 2.85 7.77 M1.01 22.08 C7.67 13.81, 13.45 6.66, 20.04 0.19 M1.01 22.08 C6.39 17.17, 11.01 12.62, 20.04 0.19 M1.14 34.12 C7.35 24.58, 17.54 15.93, 30.67 0.16 M1.14 34.12 C11.84 21.45, 20.3 10.69, 30.67 0.16 M1.28 46.16 C17.18 28.59, 32.62 10.6, 41.3 0.12 M1.28 46.16 C8.83 37.89, 16.77 27.55, 41.3 0.12 M0.75 58.96 C12.21 45.99, 21.81 32.54, 51.93 0.09 M0.75 58.96 C15.41 42.4, 29.51 26.68, 51.93 0.09 M2.2 69.49 C16.35 52.06, 31.1 37.08, 62.56 0.05 M2.2 69.49 C21.87 46.85, 40.55 25.54, 62.56 0.05 M6.93 76.25 C25.83 56.78, 44.05 34.91, 73.19 0.02 M6.93 76.25 C29.79 48.87, 54.15 20.18, 73.19 0.02 M14.93 79.23 C30.84 61.72, 47.75 44.56, 83.82 -0.01 M14.93 79.23 C28.4 62.07, 42.81 46.96, 83.82 -0.01 M24.25 80.7 C43.34 60.93, 59.97 39.53, 94.45 -0.05 M24.25 80.7 C41.42 62.85, 58.16 43.41, 94.45 -0.05 M34.88 80.67 C56.65 57.18, 76.72 33.42, 105.08 -0.08 M34.88 80.67 C60.33 52.61, 85.72 23.88, 105.08 -0.08 M45.51 80.64 C61.23 62.06, 78.05 44.49, 115.71 -0.12 M45.51 80.64 C71.53 51.65, 93.94 24.01, 115.71 -0.12 M56.14 80.6 C71.12 65.61, 86.15 46.13, 125.68 0.6 M56.14 80.6 C83.77 47.38, 110.4 16.26, 125.68 0.6 M66.77 80.57 C92.22 53.2, 115.56 24.4, 134.34 2.83 M66.77 80.57 C87.06 55.92, 110.29 30.77, 134.34 2.83 M77.4 80.53 C91.26 65.6, 106.15 48.84, 141.04 7.33 M77.4 80.53 C91.93 62.53, 106.74 44.76, 141.04 7.33 M88.03 80.5 C109.46 54.46, 132.68 30.56, 144.45 15.59 M88.03 80.5 C111.21 54.32, 132.07 28.82, 144.45 15.59 M98.66 80.46 C113.18 62.13, 130.06 41.29, 144.58 27.63 M98.66 80.46 C112.07 65.89, 124.32 49.21, 144.58 27.63 M109.29 80.43 C121.46 67.4, 135.54 50.05, 144.72 39.67 M109.29 80.43 C118.21 71.2, 125.14 61.97, 144.72 39.67 M119.92 80.39 C125.26 72.67, 131.06 70.21, 144.85 51.72 M119.92 80.39 C125.92 72.68, 134.39 63.93, 144.85 51.72 M132.52 78.1 C135.85 74.08, 139.92 70.87, 143.01 66.02 M132.52 78.1 C135.83 75.61, 137.38 72.18, 143.01 66.02" stroke="#7950f2" stroke-width="1" fill="none"></path><path d="M20 0 C44.09 1.41, 67.28 -0.93, 124.17 0 M20 0 C60.17 0.76, 98.35 1.3, 124.17 0 M124.17 0 C138.72 0.83, 144.09 7.39, 144.17 20 M124.17 0 C138.93 -1.92, 142.85 8.64, 144.17 20 M144.17 20 C143.07 30.19, 144.41 36.63, 144.17 60 M144.17 20 C144.14 29.8, 143.53 39.16, 144.17 60 M144.17 60 C145.43 72.43, 137.22 78.99, 124.17 80 M144.17 60 C142.67 71.82, 138.68 81.48, 124.17 80 M124.17 80 C93.43 79.12, 61.15 81.85, 20 80 M124.17 80 C88.8 79.13, 54.82 80.9, 20 80 M20 80 C8.42 80.83, -1.84 72.11, 0 60 M20 80 C4.59 81.69, -1.44 73.5, 0 60 M0 60 C0.78 42.38, -1.48 29.05, 0 20 M0 60 C-0.15 49.21, -1.06 37.03, 0 20 M0 20 C-1.63 5.17, 7.16 1.67, 20 0 M0 20 C0.24 8.68, 8.17 -0.88, 20 0" stroke="#1e1e1e" stroke-width="2" fill="none"></path></g><g transform="translate(609.5853881835933 788.8420710004266) rotate(0 41.74798583984375 35)"><text x="41.74798583984375" y="24.528" font-family="Virgil, Segoe UI Emoji" font-size="28px" fill="#1e1e1e" text-anchor="middle" style="white-space: pre;" direction="ltr" dominant-baseline="alphabetic">EXPR</text><text x="41.74798583984375" y="59.528" font-family="Virgil, Segoe UI Emoji" font-size="28px" fill="#1e1e1e" text-anchor="middle" style="white-space: pre;" direction="ltr" dominant-baseline="alphabetic">STMT</text></g><g mask="url(#mask-pLYvhlZVbZKyt1G5qtV9z)" stroke-linecap="round"><g transform="translate(451.7499465942378 817.7578587512626) rotate(0 63.25005340576172 2.7572153553860517)"><path d="M0.73 -1.09 C21.97 -0.23, 106.29 4.84, 127.26 6.04 M-0.34 0.95 C20.82 1.37, 105.68 3.67, 126.72 4.19" stroke="#1e1e1e" stroke-width="2" fill="none"></path></g><g transform="translate(451.7499465942378 817.7578587512626) rotate(0 63.25005340576172 2.7572153553860517)"><path d="M103.01 12.13 C107.91 10.98, 117.37 7.59, 126.72 4.19 M103.01 12.13 C111.08 9.61, 119.6 7.46, 126.72 4.19" stroke="#1e1e1e" stroke-width="2" fill="none"></path></g><g transform="translate(451.7499465942378 817.7578587512626) rotate(0 63.25005340576172 2.7572153553860517)"><path d="M103.45 -4.97 C108.35 -1.22, 117.69 0.27, 126.72 4.19 M103.45 -4.97 C111.21 -1.53, 119.58 2.29, 126.72 4.19" stroke="#1e1e1e" stroke-width="2" fill="none"></path></g></g><mask id="mask-pLYvhlZVbZKyt1G5qtV9z"><rect x="0" y="0" fill="#fff" width="678.2500534057613" height="923.2722894620347"></rect><rect x="485.0260162353511" y="803.0150741066482" fill="#000" width="59.947967529296875" height="35" opacity="1"></rect></mask><g transform="translate(485.02601623535116 803.0150741066482) rotate(0 30.186317183631473 17.21541561856884)"><text x="29.973983764648438" y="24.528" font-family="Virgil, Segoe UI Emoji" font-size="28px" fill="#1e1e1e" text-anchor="middle" style="white-space: pre;" direction="ltr" dominant-baseline="alphabetic">next</text></g><g stroke-linecap="round" transform="translate(465.91667938232376 949.8420710004266) rotate(0 72.08332061767578 40)"><path d="M2.85 7.77 C2.85 7.77, 2.85 7.77, 2.85 7.77 M2.85 7.77 C2.85 7.77, 2.85 7.77, 2.85 7.77 M1.01 22.08 C5.72 16.9, 12.67 7.2, 20.04 0.19 M1.01 22.08 C4.9 16.83, 10.35 11.43, 20.04 0.19 M1.14 34.12 C11.68 24.2, 19.79 11.16, 30.67 0.16 M1.14 34.12 C8.48 27.23, 13.62 18.09, 30.67 0.16 M1.28 46.16 C16.3 28.75, 32.51 9.49, 41.3 0.12 M1.28 46.16 C15.75 28.78, 31.24 12.29, 41.3 0.12 M0.75 58.96 C21.59 37.76, 38.29 15.15, 51.93 0.09 M0.75 58.96 C18.7 35.65, 39.3 14.8, 51.93 0.09 M2.2 69.49 C18.47 49.43, 39.28 28.61, 62.56 0.05 M2.2 69.49 C25.58 42.73, 47.91 18.14, 62.56 0.05 M6.93 76.25 C24.36 54.2, 42.61 32.52, 73.19 0.02 M6.93 76.25 C32.94 46.01, 58.77 18.2, 73.19 0.02 M14.93 79.23 C39.67 51.99, 62.38 25.66, 83.82 -0.01 M14.93 79.23 C28.59 62.77, 43.13 44.79, 83.82 -0.01 M24.25 80.7 C49.45 51.38, 73.75 26.69, 94.45 -0.05 M24.25 80.7 C38.95 61.56, 55.13 43.82, 94.45 -0.05 M34.88 80.67 C57.11 54, 81.85 24.02, 105.08 -0.08 M34.88 80.67 C57.39 53.61, 81.85 25.85, 105.08 -0.08 M45.51 80.64 C67.06 55.88, 88.29 31.57, 115.71 -0.12 M45.51 80.64 C66.11 55.71, 87.09 31.52, 115.71 -0.12 M56.14 80.6 C78.6 56.29, 97.85 31.63, 125.68 0.6 M56.14 80.6 C76.91 56.25, 99.1 30.71, 125.68 0.6 M66.77 80.57 C89.59 51.97, 114.65 24.98, 134.34 2.83 M66.77 80.57 C92.06 50.67, 116.64 23.58, 134.34 2.83 M77.4 80.53 C99.92 56.13, 120.31 29.94, 141.04 7.33 M77.4 80.53 C89.85 66.84, 102.87 51.84, 141.04 7.33 M88.03 80.5 C106.67 60.71, 126 38.01, 144.45 15.59 M88.03 80.5 C101.36 65.64, 114.95 49.09, 144.45 15.59 M98.66 80.46 C113.07 63.73, 127.02 48.41, 144.58 27.63 M98.66 80.46 C115.86 59.79, 132.98 40.72, 144.58 27.63 M109.29 80.43 C117.43 67.72, 127.18 57.11, 144.72 39.67 M109.29 80.43 C119.83 67.22, 130.46 54.66, 144.72 39.67 M119.92 80.39 C128.19 71.21, 132.17 65.76, 144.85 51.72 M119.92 80.39 C128.24 71.29, 136.46 62.2, 144.85 51.72 M132.52 78.1 C135.48 74.51, 138.31 71.8, 143.01 66.02 M132.52 78.1 C136.3 73.38, 140.52 69.7, 143.01 66.02" stroke="#12b886" stroke-width="1" fill="none"></path><path d="M20 0 C42.75 1.55, 67.71 0.83, 124.17 0 M20 0 C54.12 0.12, 87.45 0.34, 124.17 0 M124.17 0 C136.93 1.6, 144.3 5.47, 144.17 20 M124.17 0 C137.63 -1.15, 144.35 7.98, 144.17 20 M144.17 20 C144.24 33.99, 146.06 46.5, 144.17 60 M144.17 20 C143.15 33.08, 144.73 43.74, 144.17 60 M144.17 60 C145.18 72.68, 138.03 80.81, 124.17 80 M144.17 60 C143.69 72.17, 137.66 79.84, 124.17 80 M124.17 80 C98.53 80.34, 76.25 81.17, 20 80 M124.17 80 C94.38 79.11, 64.02 79.51, 20 80 M20 80 C5.89 78.82, 1.86 71.8, 0 60 M20 80 C8.43 79.32, -2.03 73.04, 0 60 M0 60 C1.51 46.15, 0.39 31.73, 0 20 M0 60 C-0.4 44.64, 0.36 29.84, 0 20 M0 20 C1.13 5.77, 7.44 0, 20 0 M0 20 C2.07 8.91, 5.64 0.41, 20 0" stroke="#1e1e1e" stroke-width="2" fill="none"></path></g><g transform="translate(496.99401855468705 972.3420710004266) rotate(0 41.0059814453125 17.5)"><text x="41.0059814453125" y="24.528" font-family="Virgil, Segoe UI Emoji" font-size="28px" fill="#1e1e1e" text-anchor="middle" style="white-space: pre;" direction="ltr" dominant-baseline="alphabetic">Assign</text></g><g mask="url(#mask-DSv_11kNHxvA0IMEmL-U4)" stroke-linecap="round"><g transform="translate(614.6945713105238 875.5088190473025) rotate(0 -23.596882229230204 34.666625976562045)"><path d="M1.01 -0.06 C-6.87 11.81, -38.95 58.75, -46.98 70.2 M0.08 -1.14 C-7.96 10.49, -39.82 56.75, -47.81 68.53" stroke="#1e1e1e" stroke-width="2" fill="none"></path></g><g transform="translate(614.6945713105238 875.5088190473025) rotate(0 -23.596882229230204 34.666625976562045)"><path d="M-41.6 44.31 C-43.91 52.57, -44.39 60.14, -47.81 68.53 M-41.6 44.31 C-43 49.81, -44.09 56.52, -47.81 68.53" stroke="#1e1e1e" stroke-width="2" fill="none"></path></g><g transform="translate(614.6945713105238 875.5088190473025) rotate(0 -23.596882229230204 34.666625976562045)"><path d="M-27.49 53.97 C-34.29 59.22, -39.34 63.66, -47.81 68.53 M-27.49 53.97 C-32.31 57.02, -36.78 61.41, -47.81 68.53" stroke="#1e1e1e" stroke-width="2" fill="none"></path></g></g><mask id="mask-DSv_11kNHxvA0IMEmL-U4"><rect x="0" y="0" fill="#fff" width="761.8883357689842" height="1044.8420710004266"></rect><rect x="572.8976997624459" y="892.6754450238641" fill="#000" width="36.39997863769531" height="35" opacity="1"></rect></mask><g transform="translate(572.8976997624459 892.6754450238641) rotate(0 18.39679667321502 17.36374334941229)"><text x="18.199989318847656" y="24.528" font-family="Virgil, Segoe UI Emoji" font-size="28px" fill="#1e1e1e" text-anchor="middle" style="white-space: pre;" direction="ltr" dominant-baseline="alphabetic">lhs</text></g><g stroke-linecap="round" transform="translate(358.58330535888626 1131.8420710004266) rotate(0 72.08332061767578 40)"><path d="M2.85 7.77 C2.85 7.77, 2.85 7.77, 2.85 7.77 M2.85 7.77 C2.85 7.77, 2.85 7.77, 2.85 7.77 M4.29 18.31 C8.24 10.67, 16.12 6.24, 20.04 0.19 M4.29 18.31 C8.71 12.94, 11.1 8.65, 20.04 0.19 M3.77 31.1 C12.08 22.92, 21.52 10.18, 30.67 0.16 M3.77 31.1 C11.42 21.32, 19.1 13.55, 30.67 0.16 M3.9 43.14 C18.28 28.06, 32.24 12.45, 41.3 0.12 M3.9 43.14 C17.29 28.06, 31.4 11.35, 41.3 0.12 M4.03 55.18 C18.83 38.26, 30.18 23.19, 51.93 0.09 M4.03 55.18 C22.52 32.82, 41.63 11.48, 51.93 0.09 M3.51 67.98 C24.69 41.71, 47.73 16.11, 62.56 0.05 M3.51 67.98 C15.65 55.31, 26.52 41.23, 62.56 0.05 M6.93 76.25 C29.79 48.76, 53.21 24.74, 73.19 0.02 M6.93 76.25 C21.44 59.23, 36.64 42.36, 73.19 0.02 M12.96 81.49 C41.89 51.43, 68.7 17.53, 83.82 -0.01 M12.96 81.49 C28.35 65.4, 42.97 48.92, 83.82 -0.01 M22.94 82.21 C40.77 60.67, 62.49 38.78, 94.45 -0.05 M22.94 82.21 C40.92 60.6, 60.61 37.32, 94.45 -0.05 M33.57 82.18 C58.38 57.06, 80.96 27.49, 105.08 -0.08 M33.57 82.18 C56.88 55.4, 80.71 27.08, 105.08 -0.08 M44.2 82.15 C67.45 55.95, 89.98 27.59, 115.71 -0.12 M44.2 82.15 C73.1 48.82, 101.91 16.72, 115.71 -0.12 M54.83 82.11 C78.21 57.04, 99.11 31.8, 125.03 1.36 M54.83 82.11 C70.08 63.73, 85.45 47.01, 125.03 1.36 M65.46 82.08 C80.38 64.69, 92.74 49.42, 134.34 2.83 M65.46 82.08 C85.94 58.21, 106.37 34.74, 134.34 2.83 M76.09 82.04 C99.58 54.95, 121.66 28.94, 141.04 7.33 M76.09 82.04 C91.34 65.19, 104.48 48.12, 141.04 7.33 M86.06 82.76 C100.45 65.44, 115.48 47.09, 144.45 15.59 M86.06 82.76 C99.58 67.19, 114.9 50.38, 144.45 15.59 M96.69 82.73 C109.37 65.3, 123.95 50.83, 144.58 27.63 M96.69 82.73 C105.41 71.25, 115.17 61.26, 144.58 27.63 M107.32 82.69 C114.58 70.38, 124.97 62.7, 144.72 39.67 M107.32 82.69 C118.34 70.12, 130.88 56.85, 144.72 39.67 M117.95 82.66 C128.65 68.87, 140.83 57.01, 144.85 51.72 M117.95 82.66 C126.44 73.08, 134.52 63.83, 144.85 51.72 M127.93 83.38 C131.7 77.89, 137.84 73.47, 146.3 62.25 M127.93 83.38 C135.63 75, 143.39 67.58, 146.3 62.25" stroke="#fa5252" stroke-width="1" fill="none"></path><path d="M20 0 C41.71 0.37, 63.53 1.07, 124.17 0 M20 0 C62.38 0.53, 103.13 1.81, 124.17 0 M124.17 0 C137.6 -0.04, 144.87 5.49, 144.17 20 M124.17 0 C139.19 1.04, 145 6.79, 144.17 20 M144.17 20 C143.62 32.48, 143.89 42.65, 144.17 60 M144.17 20 C144.46 34.36, 143.56 51.27, 144.17 60 M144.17 60 C144.33 73.22, 138.08 81.71, 124.17 80 M144.17 60 C143.34 73.47, 138.35 78.93, 124.17 80 M124.17 80 C98.76 79.28, 72.37 79.38, 20 80 M124.17 80 C92.75 80.54, 60.91 79.99, 20 80 M20 80 C4.99 79.31, -1.85 72.57, 0 60 M20 80 C5.04 81.13, -0.95 72.9, 0 60 M0 60 C-0.14 48.78, 1.35 37.08, 0 20 M0 60 C0.1 48.4, 1.12 36.56, 0 20 M0 20 C-1.28 8.4, 6.8 -0.97, 20 0 M0 20 C-1.92 6.2, 7.56 -1.44, 20 0" stroke="#1e1e1e" stroke-width="2" fill="none"></path></g><g transform="translate(389.31064605712845 1154.3420710004266) rotate(0 41.355979919433594 17.5)"><text x="41.355979919433594" y="24.528" font-family="Virgil, Segoe UI Emoji" font-size="28px" fill="#1e1e1e" text-anchor="middle" style="white-space: pre;" direction="ltr" dominant-baseline="alphabetic">Var: X</text></g><g mask="url(#mask-brkLRe2IG2M2ZQtQQBGns)" stroke-linecap="round"><g transform="translate(527.3333740234369 1033.8420710004266) rotate(0 -43.33331298828131 45.3333740234375)"><path d="M0.34 -0.01 C-14.21 15.16, -72.18 74.81, -86.72 90.04 M-0.94 -1.06 C-15.71 14.34, -73.22 76.17, -87.7 91.25" stroke="#1e1e1e" stroke-width="2" fill="none"></path></g><g transform="translate(527.3333740234369 1033.8420710004266) rotate(0 -43.33331298828131 45.3333740234375)"><path d="M-77.8 68.3 C-81.48 76.32, -85.99 84.08, -87.7 91.25 M-77.8 68.3 C-82.07 76.95, -85.54 84.07, -87.7 91.25" stroke="#1e1e1e" stroke-width="2" fill="none"></path></g><g transform="translate(527.3333740234369 1033.8420710004266) rotate(0 -43.33331298828131 45.3333740234375)"><path d="M-65.36 80.03 C-73.33 83.96, -82.22 87.58, -87.7 91.25 M-65.36 80.03 C-74.04 84.49, -82.02 87.36, -87.7 91.25" stroke="#1e1e1e" stroke-width="2" fill="none"></path></g></g><mask id="mask-brkLRe2IG2M2ZQtQQBGns"><rect x="0" y="0" fill="#fff" width="713.9999999999995" height="1224.5088190473016"></rect><rect x="465.800071716308" y="1061.675445023864" fill="#000" width="36.39997863769531" height="35" opacity="1"></rect></mask><g transform="translate(465.8000717163079 1061.675445023864) rotate(0 17.857152198231773 17.264512486057356)"><text x="18.199989318847656" y="24.528" font-family="Virgil, Segoe UI Emoji" font-size="28px" fill="#1e1e1e" text-anchor="middle" style="white-space: pre;" direction="ltr" dominant-baseline="alphabetic">lhs</text></g><g stroke-linecap="round" transform="translate(585.9166793823238 1129.175445023864) rotate(0 72.08332061767578 40)"><path d="M2.85 7.77 C2.85 7.77, 2.85 7.77, 2.85 7.77 M2.85 7.77 C2.85 7.77, 2.85 7.77, 2.85 7.77 M1.01 22.08 C6.27 17.16, 12.16 9.45, 20.04 0.19 M1.01 22.08 C8.28 14.11, 15.31 5.51, 20.04 0.19 M1.14 34.12 C8.22 24.65, 18.4 15.04, 30.67 0.16 M1.14 34.12 C10.29 22.06, 20.63 12.47, 30.67 0.16 M1.28 46.16 C11.05 34.07, 24.05 19.35, 41.3 0.12 M1.28 46.16 C15.35 30.56, 29.42 13.84, 41.3 0.12 M0.75 58.96 C18.3 40.25, 32.86 19.59, 51.93 0.09 M0.75 58.96 C12.43 44.88, 25.32 32.36, 51.93 0.09 M2.2 69.49 C25.34 43.8, 48.73 12.92, 62.56 0.05 M2.2 69.49 C24.32 42.45, 47.41 16.28, 62.56 0.05 M6.93 76.25 C29.7 48.01, 52.16 24.19, 73.19 0.02 M6.93 76.25 C26.32 53.14, 46.65 28.81, 73.19 0.02 M14.93 79.23 C32.31 62.16, 48.54 42.7, 83.82 -0.01 M14.93 79.23 C30.38 61.66, 46.89 43.17, 83.82 -0.01 M24.25 80.7 C43.86 55.23, 67.11 31.15, 94.45 -0.05 M24.25 80.7 C50.23 51.51, 75.78 21.31, 94.45 -0.05 M34.88 80.67 C53.29 56.23, 76.51 34.47, 105.08 -0.08 M34.88 80.67 C61.29 50.77, 86.58 19.32, 105.08 -0.08 M45.51 80.64 C61.43 63.66, 74.71 48.9, 115.71 -0.12 M45.51 80.64 C61.06 61.93, 76.24 45.4, 115.71 -0.12 M56.14 80.6 C73.86 62.63, 89.69 44.06, 125.68 0.6 M56.14 80.6 C70.56 63.96, 85.36 47.93, 125.68 0.6 M66.77 80.57 C87.45 58.36, 110.14 33.01, 134.34 2.83 M66.77 80.57 C84.75 60.14, 103.69 38.96, 134.34 2.83 M77.4 80.53 C95.83 59.79, 113.87 39.31, 141.04 7.33 M77.4 80.53 C90.23 66.05, 103.74 50.55, 141.04 7.33 M88.03 80.5 C105.51 58.34, 127.48 34.9, 144.45 15.59 M88.03 80.5 C107.34 58.83, 126.08 37.38, 144.45 15.59 M98.66 80.46 C115.18 61.41, 130.35 41.17, 144.58 27.63 M98.66 80.46 C115.05 61.55, 130.8 44.49, 144.58 27.63 M109.29 80.43 C117.9 70.28, 128.22 61.57, 144.72 39.67 M109.29 80.43 C115.87 72.91, 124.21 63.39, 144.72 39.67 M119.92 80.39 C124.57 74.6, 128.91 68.48, 144.85 51.72 M119.92 80.39 C128.21 71.46, 137.41 61.69, 144.85 51.72 M132.52 78.1 C134.22 74.25, 136.33 72.17, 143.01 66.02 M132.52 78.1 C136.04 74.18, 139.95 70.02, 143.01 66.02" stroke="#fa5252" stroke-width="1" fill="none"></path><path d="M20 0 C47.92 1.02, 77.93 0.58, 124.17 0 M20 0 C51.23 -0.12, 81.09 0.63, 124.17 0 M124.17 0 C135.89 -0.85, 144.82 6.7, 144.17 20 M124.17 0 C137.26 2.26, 142.63 7.9, 144.17 20 M144.17 20 C144.93 35.43, 145.44 49.39, 144.17 60 M144.17 20 C144.38 30.19, 144.31 40.07, 144.17 60 M144.17 60 C142.78 74.2, 136.49 81.59, 124.17 80 M144.17 60 C146.32 72.73, 137.24 81.35, 124.17 80 M124.17 80 C86.58 77.85, 48.06 77.92, 20 80 M124.17 80 C91.03 80.72, 55.84 79.85, 20 80 M20 80 C7.71 80.68, -1.7 75.31, 0 60 M20 80 C4.83 82.18, 0.5 71.85, 0 60 M0 60 C-0.75 52.96, 1.17 42.23, 0 20 M0 60 C0.1 47.84, 0.72 34.05, 0 20 M0 20 C-1.77 8.64, 7.88 1.17, 20 0 M0 20 C-0.31 4.57, 7 0.03, 20 0" stroke="#1e1e1e" stroke-width="2" fill="none"></path></g><g transform="translate(612.2480163574214 1151.675445023864) rotate(0 45.751983642578125 17.5)"><text x="45.751983642578125" y="24.528" font-family="Virgil, Segoe UI Emoji" font-size="28px" fill="#1e1e1e" text-anchor="middle" style="white-space: pre;" direction="ltr" dominant-baseline="alphabetic">Num: 3</text></g><g mask="url(#mask-9o2vDP8YW7gmwT__2sDu4)" stroke-linecap="round"><g transform="translate(559.3333740234369 1036.5088190473016) rotate(0 42.000000000000085 42)"><path d="M0.46 -0.54 C14.69 13.41, 70.62 69.52, 84.4 83.67 M-0.76 1.8 C13.43 15.92, 69.28 71.63, 83.66 85.04" stroke="#1e1e1e" stroke-width="2" fill="none"></path></g><g transform="translate(559.3333740234369 1036.5088190473016) rotate(0 42.000000000000085 42)"><path d="M60.84 74.83 C64.98 77.66, 70.37 77.75, 83.66 85.04 M60.84 74.83 C68.1 78.79, 76.33 81.24, 83.66 85.04" stroke="#1e1e1e" stroke-width="2" fill="none"></path></g><g transform="translate(559.3333740234369 1036.5088190473016) rotate(0 42.000000000000085 42)"><path d="M72.74 62.55 C74.26 68.13, 77.01 70.94, 83.66 85.04 M72.74 62.55 C75.98 70.63, 80.25 77.17, 83.66 85.04" stroke="#1e1e1e" stroke-width="2" fill="none"></path></g></g><mask id="mask-9o2vDP8YW7gmwT__2sDu4"><rect x="0" y="0" fill="#fff" width="743.333374023437" height="1220.5088190473016"></rect><rect x="580.795387268066" y="1061.0088190473016" fill="#000" width="41.07597351074219" height="35" opacity="1"></rect></mask><g transform="translate(580.795387268066 1061.0088190473016) rotate(0 20.358510962682743 17.75024286609596)"><text x="20.537986755371094" y="24.528" font-family="Virgil, Segoe UI Emoji" font-size="28px" fill="#1e1e1e" text-anchor="middle" style="white-space: pre;" direction="ltr" dominant-baseline="alphabetic">rhs</text></g><g stroke-linecap="round" transform="translate(884.5830612182613 787.1754450238641) rotate(0 72.08332061767578 40)"><path d="M2.85 7.77 C2.85 7.77, 2.85 7.77, 2.85 7.77 M2.85 7.77 C2.85 7.77, 2.85 7.77, 2.85 7.77 M1.01 22.08 C6.29 16.1, 9.9 9.19, 20.04 0.19 M1.01 22.08 C6.61 15.73, 11.98 9.1, 20.04 0.19 M1.14 34.12 C8.46 22.48, 21.42 13.18, 30.67 0.16 M1.14 34.12 C11.49 21.67, 23.16 9.54, 30.67 0.16 M1.28 46.16 C16.89 31.56, 29.09 14.56, 41.3 0.12 M1.28 46.16 C14.82 31.34, 27.02 15.32, 41.3 0.12 M0.75 58.96 C18.02 39.91, 34.81 19.83, 51.93 0.09 M0.75 58.96 C17.6 39.56, 35.32 19.62, 51.93 0.09 M2.2 69.49 C14.77 55.18, 26.26 43.61, 62.56 0.05 M2.2 69.49 C15.47 55.26, 27.99 39.82, 62.56 0.05 M6.93 76.25 C25.78 52.58, 42.98 34.33, 73.19 0.02 M6.93 76.25 C25 55.28, 43.66 33.84, 73.19 0.02 M14.93 79.23 C41.83 49.37, 68.15 17.24, 83.82 -0.01 M14.93 79.23 C40.81 48.07, 68.41 18.94, 83.82 -0.01 M24.25 80.7 C51.09 50.53, 78.52 19.05, 94.45 -0.05 M24.25 80.7 C38.2 64.5, 53.24 47.51, 94.45 -0.05 M34.88 80.67 C59.84 51.34, 81.58 24.25, 105.08 -0.08 M34.88 80.67 C53.55 57.53, 73.69 35.07, 105.08 -0.08 M45.51 80.64 C63.5 63.71, 78.14 44.31, 115.71 -0.12 M45.51 80.64 C64.2 61.11, 81.87 40.18, 115.71 -0.12 M56.14 80.6 C80.77 55.53, 103.01 27.2, 125.68 0.6 M56.14 80.6 C81.44 51.4, 105.06 23.97, 125.68 0.6 M66.77 80.57 C86.88 57.18, 110.72 32.18, 134.34 2.83 M66.77 80.57 C82.41 62.66, 99.28 43.15, 134.34 2.83 M77.4 80.53 C93.16 61.7, 113.86 41.4, 141.04 7.33 M77.4 80.53 C93.85 61.34, 109.55 43.62, 141.04 7.33 M88.03 80.5 C107.53 60.2, 123.35 38.41, 144.45 15.59 M88.03 80.5 C104.84 60.48, 121.42 40.99, 144.45 15.59 M98.66 80.46 C114.68 62.16, 129.33 43.92, 144.58 27.63 M98.66 80.46 C109.12 68.65, 121.61 55.01, 144.58 27.63 M109.29 80.43 C118.03 70.55, 127.52 57, 144.72 39.67 M109.29 80.43 C118.34 70.96, 127.24 59.79, 144.72 39.67 M119.92 80.39 C128.52 69.82, 135.05 62.01, 144.85 51.72 M119.92 80.39 C128.14 69.55, 137.07 59.61, 144.85 51.72 M132.52 78.1 C135.93 74.37, 139.49 69.69, 143.01 66.02 M132.52 78.1 C134.06 75.77, 136.87 72.9, 143.01 66.02" stroke="#7950f2" stroke-width="1" fill="none"></path><path d="M20 0 C59.87 -1.41, 99.35 -2.3, 124.17 0 M20 0 C50.39 1.4, 78.99 1.1, 124.17 0 M124.17 0 C139.41 -1.95, 142.99 7.09, 144.17 20 M124.17 0 C136.76 -0.12, 142.29 5.4, 144.17 20 M144.17 20 C143.1 31.47, 144.81 45.86, 144.17 60 M144.17 20 C144.7 32.09, 143.9 41.95, 144.17 60 M144.17 60 C144.86 71.66, 136.78 80.98, 124.17 80 M144.17 60 C143.73 73.1, 135.61 81.83, 124.17 80 M124.17 80 C89.47 78.25, 53.83 81.26, 20 80 M124.17 80 C103.69 81.4, 82.77 80.77, 20 80 M20 80 C7.53 80.77, 0.24 73.26, 0 60 M20 80 C6.18 80.3, -2.06 71.17, 0 60 M0 60 C-1.11 52.02, 0.42 40.52, 0 20 M0 60 C-0.56 47.31, 0.23 33.13, 0 20 M0 20 C-1.74 8.08, 5.38 0.77, 20 0 M0 20 C-1.06 7.42, 4.61 0.1, 20 0" stroke="#1e1e1e" stroke-width="2" fill="none"></path></g><g transform="translate(914.9183959960933 792.1754450238641) rotate(0 41.74798583984375 35)"><text x="41.74798583984375" y="24.528" font-family="Virgil, Segoe UI Emoji" font-size="28px" fill="#1e1e1e" text-anchor="middle" style="white-space: pre;" direction="ltr" dominant-baseline="alphabetic">EXPR</text><text x="41.74798583984375" y="59.528" font-family="Virgil, Segoe UI Emoji" font-size="28px" fill="#1e1e1e" text-anchor="middle" style="white-space: pre;" direction="ltr" dominant-baseline="alphabetic">STMT</text></g><g mask="url(#mask-r7w8O-5cF4M4F7QLsuwty)" stroke-linecap="round"><g transform="translate(724.6667480468745 829.4997872972053) rotate(0 74.79146957397461 0.29006264202598686)"><path d="M0.83 1.06 C25.72 1.53, 124.85 1.92, 149.7 1.76 M-0.19 0.57 C24.51 0.83, 123.9 0.16, 148.81 0.26" stroke="#1e1e1e" stroke-width="2" fill="none"></path></g><g transform="translate(724.6667480468745 829.4997872972053) rotate(0 74.79146957397461 0.29006264202598686)"><path d="M125.34 8.85 C135.04 6.01, 143.08 3.49, 148.81 0.26 M125.34 8.85 C131.76 6.95, 136.75 4.78, 148.81 0.26" stroke="#1e1e1e" stroke-width="2" fill="none"></path></g><g transform="translate(724.6667480468745 829.4997872972053) rotate(0 74.79146957397461 0.29006264202598686)"><path d="M125.31 -8.25 C134.87 -5.37, 142.92 -2.17, 148.81 0.26 M125.31 -8.25 C131.6 -5.75, 136.6 -3.5, 148.81 0.26" stroke="#1e1e1e" stroke-width="2" fill="none"></path></g></g><mask id="mask-r7w8O-5cF4M4F7QLsuwty"><rect x="0" y="0" fill="#fff" width="974.2496871948238" height="930.0799125812573"></rect><rect x="769.4842338562007" y="812.2898499392313" fill="#000" width="59.947967529296875" height="35" opacity="1"></rect></mask><g transform="translate(769.4842338562007 812.2898499392313) rotate(0 29.93943086785731 18.232388813136367)"><text x="29.973983764648438" y="24.528" font-family="Virgil, Segoe UI Emoji" font-size="28px" fill="#1e1e1e" text-anchor="middle" style="white-space: pre;" direction="ltr" dominant-baseline="alphabetic">next</text></g><g stroke-linecap="round" transform="translate(742.5829391479488 955.1755670941766) rotate(0 72.08332061767578 40)"><path d="M2.85 7.77 C2.85 7.77, 2.85 7.77, 2.85 7.77 M2.85 7.77 C2.85 7.77, 2.85 7.77, 2.85 7.77 M4.29 18.31 C7.2 12.32, 11.55 7.62, 20.04 0.19 M4.29 18.31 C6.63 14.08, 11.75 10.25, 20.04 0.19 M3.77 31.1 C12.32 23.87, 19.17 12.9, 30.67 0.16 M3.77 31.1 C14.22 18.73, 24.7 7.3, 30.67 0.16 M3.9 43.14 C12.53 31.61, 22.19 22.35, 41.3 0.12 M3.9 43.14 C18.68 27.34, 32.95 9.85, 41.3 0.12 M4.03 55.18 C19.5 37.62, 32.76 21.4, 51.93 0.09 M4.03 55.18 C15.37 40.69, 28.13 27.24, 51.93 0.09 M3.51 67.98 C20.54 49.94, 36.14 32.66, 62.56 0.05 M3.51 67.98 C27.69 40.08, 51.38 14.83, 62.56 0.05 M6.93 76.25 C28.18 52.41, 51.64 28.61, 73.19 0.02 M6.93 76.25 C26.44 52.94, 45.67 30.33, 73.19 0.02 M12.96 81.49 C37.28 53.71, 58.4 25.83, 83.82 -0.01 M12.96 81.49 C40.43 49.76, 67.37 17.63, 83.82 -0.01 M22.94 82.21 C46.69 54.68, 68.32 28.91, 94.45 -0.05 M22.94 82.21 C40.91 61.23, 57.77 41.86, 94.45 -0.05 M33.57 82.18 C49.35 65.89, 63.43 46.77, 105.08 -0.08 M33.57 82.18 C56.81 56.11, 82.18 27.39, 105.08 -0.08 M44.2 82.15 C62.49 59.92, 79.56 40.12, 115.71 -0.12 M44.2 82.15 C69.65 53.58, 94.89 23.77, 115.71 -0.12 M54.83 82.11 C68.58 67.05, 84.81 50.73, 125.03 1.36 M54.83 82.11 C82.53 50.27, 110.73 17.93, 125.03 1.36 M65.46 82.08 C81.55 64.44, 95.87 44.27, 134.34 2.83 M65.46 82.08 C88.1 54.97, 112.9 27.51, 134.34 2.83 M76.09 82.04 C101.63 55.58, 122.18 29.75, 141.04 7.33 M76.09 82.04 C99.22 55.9, 122.37 29.99, 141.04 7.33 M86.06 82.76 C102.49 61.74, 119.55 42.45, 144.45 15.59 M86.06 82.76 C103.16 64.02, 118.28 45.99, 144.45 15.59 M96.69 82.73 C108.02 69.01, 120.2 56.54, 144.58 27.63 M96.69 82.73 C115.21 63.07, 132.1 41.87, 144.58 27.63 M107.32 82.69 C114.18 74.19, 126.61 63.35, 144.72 39.67 M107.32 82.69 C118.38 69.76, 129.6 58.16, 144.72 39.67 M117.95 82.66 C125.25 74.55, 130.88 67.19, 144.85 51.72 M117.95 82.66 C123.63 76.51, 129.45 69.05, 144.85 51.72 M127.93 83.38 C131.66 81.15, 134.75 73.31, 146.3 62.25 M127.93 83.38 C132.47 79.02, 136.85 72.38, 146.3 62.25" stroke="#38d9a9" stroke-width="1" fill="none"></path><path d="M20 0 C60.24 -0.07, 103.14 2.08, 124.17 0 M20 0 C46.85 0.67, 73.62 1.6, 124.17 0 M124.17 0 C137 0.91, 145.38 6.64, 144.17 20 M124.17 0 C136.45 -0.73, 143.95 7.76, 144.17 20 M144.17 20 C144.73 34.67, 142.53 50.18, 144.17 60 M144.17 20 C144.53 29.94, 144.45 39.14, 144.17 60 M144.17 60 C143.44 73.73, 136.11 80.05, 124.17 80 M144.17 60 C145.15 71.31, 136.31 80.82, 124.17 80 M124.17 80 C93.78 79.9, 61.02 81.45, 20 80 M124.17 80 C99.42 79.54, 75.07 79.7, 20 80 M20 80 C6.55 79.68, -1.83 72.52, 0 60 M20 80 C6.29 79.87, 0.62 73.97, 0 60 M0 60 C0.33 46.39, -0.47 29.77, 0 20 M0 60 C-0.25 49.86, 0.54 40.5, 0 20 M0 20 C-0.07 8.46, 6.81 -0.6, 20 0 M0 20 C-1 8.63, 7.91 1.87, 20 0" stroke="#1e1e1e" stroke-width="2" fill="none"></path></g><g transform="translate(773.310279846191 977.6755670941766) rotate(0 41.355979919433594 17.5)"><text x="41.355979919433594" y="24.528" font-family="Virgil, Segoe UI Emoji" font-size="28px" fill="#1e1e1e" text-anchor="middle" style="white-space: pre;" direction="ltr" dominant-baseline="alphabetic">Var: X</text></g><g mask="url(#mask-c1vi9FK611WfsxcQzOSra)" stroke-linecap="round"><g transform="translate(926.3162790838451 872.5088190473016) rotate(0 -34.13566567264286 40.8333740234375)"><path d="M-0.34 0.37 C-11.71 13.93, -56.33 67.84, -67.59 81.25 M1.68 -0.49 C-9.84 13.25, -56.48 68.86, -68.18 82.57" stroke="#1e1e1e" stroke-width="2" fill="none"></path></g><g transform="translate(926.3162790838451 872.5088190473016) rotate(0 -34.13566567264286 40.8333740234375)"><path d="M-59.55 59.11 C-62 68.47, -66.33 76.14, -68.18 82.57 M-59.55 59.11 C-62.18 65, -64.35 70.96, -68.18 82.57" stroke="#1e1e1e" stroke-width="2" fill="none"></path></g><g transform="translate(926.3162790838451 872.5088190473016) rotate(0 -34.13566567264286 40.8333740234375)"><path d="M-46.49 70.15 C-53.51 75.59, -62.44 79.38, -68.18 82.57 M-46.49 70.15 C-52.19 73.45, -57.42 76.82, -68.18 82.57" stroke="#1e1e1e" stroke-width="2" fill="none"></path></g></g><mask id="mask-c1vi9FK611WfsxcQzOSra"><rect x="0" y="0" fill="#fff" width="1094.5876104291308" height="1054.1755670941766"></rect><rect x="873.9806240923544" y="895.8421930707391" fill="#000" width="36.39997863769531" height="35" opacity="1"></rect></mask><g transform="translate(873.9806240923544 895.8421930707391) rotate(0 19.082333398079527 17.711048600310278)"><text x="18.199989318847656" y="24.528" font-family="Virgil, Segoe UI Emoji" font-size="28px" fill="#1e1e1e" text-anchor="middle" style="white-space: pre;" direction="ltr" dominant-baseline="alphabetic">lhs</text></g></svg>